<svg width="16" height="16" viewBox="0 0 16 16" fill="none" xmlns="http://www.w3.org/2000/svg">
<path d="M0 8C0 3.58172 3.58172 0 8 0C12.4183 0 16 3.58172 16 8C16 12.4183 12.4183 16 8 16C3.58172 16 0 12.4183 0 8Z" fill="#363636"/>
<path fill-rule="evenodd" clip-rule="evenodd" d="M11 8C11 9.65685 9.65685 11 8 11C6.34314 11 5 9.65685 5 8H4C4 10.2092 5.79086 12 8 12C10.2092 12 12 10.2092 12 8C12 5.79086 10.2092 4 8 4C6.89543 4 5.89543 4.44772 5.17157 5.17157L4 4V7H7L5.87868 5.87868C6.42158 5.33578 7.17158 5 8 5C9.65685 5 11 6.34314 11 8Z" fill="white"/>
</svg>
