<svg width="16" height="16" viewBox="0 0 16 16" fill="none" xmlns="http://www.w3.org/2000/svg">
<path d="M0 8C0 3.58172 3.58172 0 8 0V0C12.4183 0 16 3.58172 16 8V8C16 12.4183 12.4183 16 8 16V16C3.58172 16 0 12.4183 0 8V8Z" fill="#363636"/>
<path fill-rule="evenodd" clip-rule="evenodd" d="M12 7H8.99999L10.1213 5.87868C9.57842 5.33579 8.82842 5 7.99999 5C6.69377 5 5.58253 5.83481 5.1707 7H4.12601C4.57005 5.27477 6.13615 4 7.99999 4C9.10456 4 10.1046 4.44772 10.8284 5.17157L12 4V7ZM4 9L7 9L5.87868 10.1213C6.42157 10.6642 7.17157 11 8 11C9.30622 11 10.4175 10.1652 10.8293 9H11.874C11.4299 10.7252 9.86385 12 8 12C6.89543 12 5.89543 11.5523 5.17157 10.8284L4 12V9Z" fill="white"/>
</svg>
