<svg width="16" height="16" viewBox="0 0 16 16" fill="none" xmlns="http://www.w3.org/2000/svg">
<path d="M0 8C0 3.58172 3.58172 0 8 0V0C12.4183 0 16 3.58172 16 8V8C16 12.4183 12.4183 16 8 16V16C3.58172 16 0 12.4183 0 8V8Z" fill="#363636"/>
<path fill-rule="evenodd" clip-rule="evenodd" d="M8.70709 9.4142L10.1465 10.8536L9 12H12V9L10.8536 10.1464L9.4142 8.70709L8.70709 9.4142ZM7.29288 6.58577L4.70711 4L4 4.7071L6.58577 7.29288L7.29288 6.58577ZM4.00001 11.2929L10.1464 5.14644L9 4H12V7L10.8536 5.85355L4.70711 12L4.00001 11.2929Z" fill="white"/>
</svg>
