<svg width="16" height="16" viewBox="0 0 16 16" fill="none" xmlns="http://www.w3.org/2000/svg">
<path fill-rule="evenodd" clip-rule="evenodd" d="M16 6H9.99998L12.2426 3.75736C11.1568 2.67157 9.65683 2 7.99998 2C5.38754 2 3.16506 3.66962 2.34139 6H0.252014C1.1401 2.54955 4.2723 0 7.99998 0C10.2091 0 12.2091 0.895431 13.6568 2.34315L16 0V6ZM0 10L6 10L3.75736 12.2426C4.84315 13.3284 6.34315 14 8 14C10.6124 14 12.8349 12.3304 13.6586 10H15.748C14.8599 13.4505 11.7277 16 8 16C5.79086 16 3.79086 15.1046 2.34315 13.6569L0 16V10Z" fill="#363636"/>
</svg>
