<svg width="16" height="16" viewBox="0 0 16 16" fill="none" xmlns="http://www.w3.org/2000/svg">
<path d="M0 8C0 3.58172 3.58172 0 8 0C12.4183 0 16 3.58172 16 8C16 12.4183 12.4183 16 8 16C3.58172 16 0 12.4183 0 8Z" fill="#363636"/>
<path fill-rule="evenodd" clip-rule="evenodd" d="M5 8C5 9.65685 6.34315 11 8 11C9.65685 11 11 9.65685 11 8H12C12 10.2091 10.2091 12 8 12C5.79086 12 4 10.2091 4 8C4 5.79086 5.79086 4 8 4C9.10457 4 10.1046 4.44772 10.8284 5.17157L12 4V7H9L10.1213 5.87868C9.57843 5.33579 8.82843 5 8 5C6.34315 5 5 6.34315 5 8Z" fill="white"/>
</svg>
