<svg width="16" height="16" viewBox="0 0 16 16" fill="none" xmlns="http://www.w3.org/2000/svg">
<path d="M0 8C0 3.58172 3.58172 0 8 0V0C12.4183 0 16 3.58172 16 8V8C16 12.4183 12.4183 16 8 16V16C3.58172 16 0 12.4183 0 8V8Z" fill="#363636"/>
<path fill-rule="evenodd" clip-rule="evenodd" d="M8.00005 4L6.23228 5.76776H7.50002V7.50002H5.76776V6.23227L4 8.00004L5.76776 9.7678V8.50002H7.50002V10.2322H6.23231L8.00008 12L9.76784 10.2322H8.50002V8.50002H10.2323V9.76777L12 8.00001L10.2323 6.23224V7.50002H8.50002V5.76776H9.76781L8.00005 4Z" fill="white"/>
</svg>
