<svg width="16" height="16" viewBox="0 0 16 16" fill="none" xmlns="http://www.w3.org/2000/svg">
<path d="M0 8C0 3.58172 3.58172 0 8 0C12.4183 0 16 3.58172 16 8C16 12.4183 12.4183 16 8 16C3.58172 16 0 12.4183 0 8Z" fill="#363636"/>
<path fill-rule="evenodd" clip-rule="evenodd" d="M11 3.5H5V5.5H4.5V11H4V11.5H4.5H5.5H10.5H11.5H12V11H11.5V5.5H11V3.5ZM6 4.5H7V5H6V4.5ZM7.5 4.5H8.5V5H7.5V4.5ZM7 9.5H9V11H7V9.5ZM8.5 6H7.5V6.5H8.5V6ZM7.5 7.5H8.5V8H7.5V7.5ZM10 4.5H9V5H10V4.5ZM9 6H10V6.5H9V6ZM10 7.5H9V8H10V7.5ZM7 6H6V6.5H7V6ZM6 7.5H7V8H6V7.5Z" fill="white"/>
</svg>
