<svg width="16" height="16" viewBox="0 0 16 16" fill="none" xmlns="http://www.w3.org/2000/svg">
<path fill-rule="evenodd" clip-rule="evenodd" d="M10.2216 11.3853H1.03277C0.464911 11.3853 0.00446621 9.84713 2.74751e-05 7.9876C-0.00411535 6.12836 0.460769 4.61475 1.04076 4.61475H10.2174H10.2665C10.3725 4.62274 10.4713 4.67156 10.542 4.75057C10.7373 4.98405 10.8773 5.25807 10.9534 5.5525L10.4352 5.6759C10.3944 5.53297 10.3373 5.39537 10.2665 5.26458C9.90433 6.12747 9.73714 7.0602 9.77739 7.99559C9.7694 9.3858 10.0079 10.3567 10.2216 10.7352C10.3091 10.5778 10.3781 10.4106 10.4272 10.2372L10.9664 10.2662C10.7808 10.9491 10.5136 11.3853 10.2216 11.3853ZM10.1512 9.27099C10.1512 8.96412 10.3998 8.71555 10.7064 8.71555C12.117 8.7265 13.5196 8.93424 14.8734 9.33284C14.882 9.3352 14.8918 9.33846 14.9007 9.34171C15.193 9.44232 15.3481 9.76043 15.2478 10.0528C15.1498 10.3286 14.8542 10.4801 14.5731 10.3981C13.3166 10.0318 12.0155 9.83915 10.7064 9.82613C10.3998 9.82613 10.1512 9.57785 10.1512 9.27099ZM14.7086 10.1593C14.8628 10.157 14.9865 10.03 14.9841 9.87584C14.9841 9.87436 14.9841 9.87259 14.9844 9.8714C14.982 9.7193 14.8566 9.59798 14.7048 9.60034H14.7006C14.5462 9.60212 14.4228 9.72966 14.4251 9.88383C14.4269 10.038 14.5545 10.1617 14.7086 10.1593ZM10.2618 6.60976C10.3027 6.91337 10.5785 7.12909 10.883 7.09506C12.0808 6.95361 13.2465 6.61597 14.3342 6.09575C14.6127 5.9617 14.7296 5.62732 14.5952 5.34886C14.5896 5.33702 14.5831 5.32548 14.5766 5.31424C14.4328 5.06448 14.1212 4.96772 13.8608 5.092C12.8745 5.5634 11.8172 5.86819 10.7309 5.99307C10.4323 6.03509 10.2231 6.31029 10.2618 6.60976ZM14.0709 5.33465C14.2256 5.33465 14.3508 5.45983 14.3508 5.6143C14.3508 5.76906 14.2256 5.89394 14.0709 5.89394C13.9167 5.89394 13.7912 5.76876 13.7912 5.6143C13.7912 5.45983 13.9164 5.33465 14.0709 5.33465ZM10.1406 7.78816C10.1486 7.48129 10.4037 7.23923 10.7102 7.24722C12.2762 7.30285 13.8431 7.21201 15.3913 6.97587C15.6692 6.94894 15.924 7.133 15.9861 7.40524C16.0539 7.70441 15.8669 8.0021 15.568 8.07016C13.9517 8.31607 12.3159 8.41254 10.6815 8.35809C10.3753 8.34981 10.1326 8.09473 10.1406 7.78816ZM15.6961 7.52272C15.6938 7.36825 15.5668 7.24485 15.412 7.24722C15.2596 7.24722 15.1365 7.37062 15.1365 7.52272C15.1363 7.52568 15.1363 7.52834 15.1365 7.53101C15.1386 7.68547 15.2653 7.80858 15.42 7.8065C15.5748 7.80443 15.6982 7.67719 15.6961 7.52272Z" fill="#156EC7"/>
</svg>
