<svg width="16" height="16" viewBox="0 0 16 16" fill="none" xmlns="http://www.w3.org/2000/svg">
<path d="M0 8C0 3.58172 3.58172 0 8 0C12.4183 0 16 3.58172 16 8C16 12.4183 12.4183 16 8 16C3.58172 16 0 12.4183 0 8Z" fill="#363636"/>
<path fill-rule="evenodd" clip-rule="evenodd" d="M5.125 4H5.875V4.75H8.125V4H8.875V4.75H9.25C9.66422 4.75 10 5.08579 10 5.5V8.58352L8.58408 10H4.75C4.33579 10 4 9.66421 4 9.25V5.5C4 5.08579 4.33579 4.75 4.75 4.75H5.125V4ZM9.25 5.875H4.75V9.25H9.25V5.875ZM11.572 8.07338C11.4741 7.97554 11.3154 7.97554 11.2175 8.07338L10.8629 8.42768L11.572 9.13629L11.9266 8.78198C12.0245 8.68415 12.0245 8.52552 11.9266 8.42768L11.572 8.07338ZM11.2175 9.49059L10.5083 8.78198L8.25074 11.0405L8.00002 12L8.96027 11.7495L11.2175 9.49059Z" fill="white"/>
</svg>
