<svg width="16" height="16" viewBox="0 0 16 16" fill="none" xmlns="http://www.w3.org/2000/svg">
<path fill-rule="evenodd" clip-rule="evenodd" d="M2.25 0H3.75V1.5H8.25V0H9.75V1.5H10.5C11.3284 1.5 12 2.17157 12 3V9.16703L9.16816 12H1.5C0.671573 12 0 11.3284 0 10.5V3C0 2.17157 0.671573 1.5 1.5 1.5H2.25V0ZM10.5 3.75H1.5V10.5H10.5V3.75ZM15.144 8.14676C14.9482 7.95108 14.6307 7.95108 14.4349 8.14676L13.7258 8.85536L15.144 10.2726L15.8532 9.56396C16.049 9.36829 16.049 9.05104 15.8532 8.85536L15.144 8.14676ZM14.4349 10.9812L13.0167 9.56396L8.50147 14.0809L8.00004 16L9.92054 15.4989L14.4349 10.9812Z" fill="#363636"/>
</svg>
