<svg width="16" height="16" viewBox="0 0 16 16" fill="none" xmlns="http://www.w3.org/2000/svg">
<path d="M0 8C0 3.58172 3.58172 0 8 0V0C12.4183 0 16 3.58172 16 8V8C16 12.4183 12.4183 16 8 16V16C3.58172 16 0 12.4183 0 8V8Z" fill="#363636"/>
<path fill-rule="evenodd" clip-rule="evenodd" d="M5.625 4.25H6.375V5H8.625V4.25H9.375V5H9.75C10.1642 5 10.5 5.33579 10.5 5.75V8.83352L9.08408 10.25H5.25C4.83579 10.25 4.5 9.91421 4.5 9.5V5.75C4.5 5.33579 4.83579 5 5.25 5H5.625V4.25ZM9.75 6.125H5.25V9.5H9.75V6.125ZM12.072 8.32338C11.9741 8.22554 11.8154 8.22554 11.7175 8.32338L11.3629 8.67768L12.072 9.38629L12.4266 9.03198C12.5245 8.93415 12.5245 8.77552 12.4266 8.67768L12.072 8.32338ZM11.7175 9.74059L11.0083 9.03198L8.75074 11.2905L8.50002 12.25L9.46027 11.9995L11.7175 9.74059Z" fill="white"/>
</svg>
