<svg width="16" height="16" viewBox="0 0 16 16" fill="none" xmlns="http://www.w3.org/2000/svg">
<path d="M0 8C0 3.58172 3.58172 0 8 0C12.4183 0 16 3.58172 16 8C16 12.4183 12.4183 16 8 16C3.58172 16 0 12.4183 0 8Z" fill="#363636"/>
<path fill-rule="evenodd" clip-rule="evenodd" d="M5.5 3.75H6.5V4.75H9.5V3.75H10.5V4.75H11C11.5523 4.75 12 5.19772 12 5.75V10.75C12 11.3023 11.5523 11.75 11 11.75H5C4.44772 11.75 4 11.3023 4 10.75V5.75C4 5.19772 4.44772 4.75 5 4.75H5.5V3.75ZM11 6.75H5V10.75H11V6.75Z" fill="white"/>
</svg>
