<svg width="16" height="16" viewBox="0 0 16 16" fill="none" xmlns="http://www.w3.org/2000/svg">
<path d="M15.5284 4.91708H14.1811L14.0599 4.63742C13.8711 4.05801 13.6622 3.48877 13.4402 2.92268C13.0995 1.93517 12.1496 1.2896 11.1056 1.33613H5.01555C3.94372 1.28475 2.97027 1.9565 2.6373 2.97648C2.42841 3.529 2.21977 4.08806 2.03099 4.66069L1.92315 4.92677H0.478364C0.214949 4.92871 0.00193866 5.14172 0 5.40513V5.80256C0.00193866 6.06597 0.214949 6.27898 0.478364 6.28092H1.3304C0.767951 7.06244 0.774737 7.89098 0.777887 8.71951C0.777887 10.2525 0.777887 11.2192 0.777887 12.7616V13.9745C0.779826 14.2379 0.992836 14.4512 1.25625 14.4529H1.99052C2.25345 14.4512 2.46549 14.2374 2.46549 13.9745V12.7619H13.6249V13.9713C13.6249 14.2355 13.8394 14.4497 14.1033 14.4497H14.8341C15.098 14.448 15.3108 14.235 15.3125 13.9713V12.7822C15.3125 11.3205 15.3125 10.529 15.3125 9.07695C15.3125 8.13016 15.3966 7.16713 14.7769 6.28116H15.525C15.7877 6.27947 16 6.06573 16 5.8028V5.3952C16.0002 5.13372 15.7899 4.92071 15.5284 4.91708ZM3.08901 4.6476L3.64129 3.1386C3.81649 2.66702 4.49018 2.30667 5.15368 2.30667H10.8395C11.5132 2.30667 12.1869 2.66702 12.3519 3.1386L12.9042 4.6476C13.1465 5.29778 12.6517 5.88059 11.7895 5.89052C11.543 5.70078 11.2416 5.59658 10.9302 5.59415H9.6773C9.36591 5.59536 9.06323 5.70102 8.81848 5.89392H4.23064C3.34807 5.89392 2.84644 5.30456 3.08901 4.6476ZM4.43638 9.58222H2.0179C1.71717 9.48553 1.52354 9.19279 1.55311 8.87824C1.52451 8.56175 1.72104 8.26829 2.02469 8.17427H2.07194C2.12913 8.17427 4.42984 8.54794 4.42984 8.55133C4.76668 8.64609 4.94843 8.78422 4.94843 9.07041C4.94479 9.35273 4.71579 9.58028 4.43323 9.58222H4.43638ZM11.7691 9.58222H11.7221C11.4357 9.58222 11.2033 9.35006 11.2033 9.06338C11.2033 8.77719 11.392 8.63906 11.7221 8.54455C11.7221 8.54455 14.0296 8.16748 14.08 8.16748H14.127C14.4307 8.26151 14.6269 8.55497 14.5988 8.87146C14.6284 9.18503 14.437 9.47729 14.1372 9.57543H11.7793L11.7691 9.58222Z" fill="#156EC7"/>
</svg>
