<svg width="16" height="16" viewBox="0 0 16 16" fill="none" xmlns="http://www.w3.org/2000/svg">
<path fill-rule="evenodd" clip-rule="evenodd" d="M9.42316 2.30739C9.81615 1.91439 10.4533 1.91439 10.8463 2.30739L13.6926 5.15369C14.0856 5.54668 14.0856 6.18385 13.6926 6.57684L12.6252 7.64421C12.2323 8.03711 11.5954 8.0372 11.2024 7.64448L9.77921 9.06763C10.9582 10.2463 12.8695 10.2462 14.0484 9.06736L15.1158 7.99999C16.2947 6.82102 16.2947 4.90952 15.1158 3.73054L12.2695 0.884233C11.0905 -0.294744 9.17898 -0.294745 8 0.884233L6.93264 1.9516C5.75366 3.13058 5.75366 5.04208 6.93264 6.22105L6.93291 6.22132L8.35606 4.79817L8.35579 4.7979C7.9628 4.40491 7.9628 3.76774 8.35579 3.37475L9.42316 2.30739ZM10.0461 4.86288C9.81901 4.88297 9.59748 4.97991 9.4237 5.15369L5.15424 9.42315C4.76125 9.81614 4.76125 10.4533 5.15424 10.8463C5.37331 11.0654 5.66826 11.1623 5.95448 11.1372C6.18154 11.1171 6.40307 11.0201 6.57685 10.8463L6.93265 10.4905L6.9329 10.4908L8.35605 9.06764L8.35581 9.06739L9.06739 8.35581L9.06764 8.35605L10.4908 6.9329L10.4905 6.93265L10.8463 6.57689C11.2393 6.1839 11.2393 5.54673 10.8463 5.15374C10.6272 4.93467 10.3323 4.83772 10.0461 4.86288ZM9.06763 9.77922L7.64448 11.2024C8.0372 11.5954 8.03711 12.2323 7.64421 12.6252L6.57684 13.6926C6.18385 14.0856 5.54668 14.0856 5.15369 13.6926L2.30739 10.8463C1.91439 10.4533 1.91439 9.81615 2.30739 9.42316L3.37475 8.35579C3.76774 7.9628 4.40491 7.9628 4.7979 8.35579L4.79817 8.35606L6.22132 6.93291L6.22105 6.93264C5.04208 5.75366 3.13058 5.75366 1.9516 6.93264L0.884233 8C-0.294745 9.17898 -0.294744 11.0905 0.884233 12.2695L3.73054 15.1158C4.90952 16.2947 6.82102 16.2947 8 15.1158L9.06736 14.0484C10.2462 12.8695 10.2463 10.9582 9.06763 9.77922Z" fill="#363636"/>
</svg>
