<svg width="16" height="16" viewBox="0 0 16 16" fill="none" xmlns="http://www.w3.org/2000/svg">
<path d="M0 8C0 3.58172 3.58172 0 8 0C12.4183 0 16 3.58172 16 8C16 12.4183 12.4183 16 8 16C3.58172 16 0 12.4183 0 8Z" fill="#363636"/>
<path fill-rule="evenodd" clip-rule="evenodd" d="M8.71158 5.15369C8.90807 4.9572 9.22666 4.9572 9.42315 5.15369L10.8463 6.57685C11.0428 6.77334 11.0428 7.09192 10.8463 7.28842L10.3126 7.8221C10.1162 8.01855 9.79769 8.0186 9.60118 7.82224L8.88961 8.53381C9.47911 9.12317 10.4348 9.12312 11.0242 8.53368L11.5579 8C12.1474 7.41051 12.1474 6.45476 11.5579 5.86527L10.1347 4.44212C9.54524 3.85263 8.58949 3.85263 8 4.44212L7.46632 4.9758C6.87683 5.56529 6.87683 6.52104 7.46632 7.11053L7.46645 7.11066L8.17803 6.39909L8.1779 6.39895C7.9814 6.20245 7.9814 5.88387 8.1779 5.68738L8.71158 5.15369ZM9.02303 6.43144C8.90951 6.44148 8.79874 6.48995 8.71185 6.57685L6.57712 8.71157C6.38062 8.90807 6.38062 9.22665 6.57712 9.42315C6.68666 9.53268 6.83413 9.58116 6.97724 9.56858C7.09077 9.55853 7.20153 9.51007 7.28843 9.42317L7.46633 9.24527L7.46645 9.2454L8.17803 8.53382L8.1779 8.5337L8.5337 8.1779L8.53382 8.17803L9.2454 7.46645L9.24527 7.46633L9.42315 7.28844C9.61965 7.09195 9.61965 6.77337 9.42315 6.57687C9.31362 6.46733 9.16615 6.41886 9.02303 6.43144ZM8.53381 8.88961L7.82224 9.60118C8.0186 9.79769 8.01855 10.1162 7.8221 10.3126L7.28842 10.8463C7.09193 11.0428 6.77334 11.0428 6.57685 10.8463L5.15369 9.42315C4.9572 9.22666 4.9572 8.90807 5.15369 8.71158L5.68738 8.1779C5.88387 7.9814 6.20245 7.9814 6.39895 8.1779L6.39909 8.17803L7.11066 7.46646L7.11053 7.46632C6.52104 6.87683 5.56529 6.87683 4.9758 7.46632L4.44212 8C3.85263 8.58949 3.85263 9.54524 4.44212 10.1347L5.86527 11.5579C6.45476 12.1474 7.41051 12.1474 8 11.5579L8.53368 11.0242C9.12312 10.4348 9.12317 9.47911 8.53381 8.88961Z" fill="white"/>
</svg>
