<svg width="16" height="16" viewBox="0 0 16 16" fill="none" xmlns="http://www.w3.org/2000/svg">
<path fill-rule="evenodd" clip-rule="evenodd" d="M0 5V2C0 0.89543 0.895431 0 2 0H5H8C9.10457 0 10 0.895431 10 2V5V8H12C12.5523 8 13 8.44772 13 9V14C13 14.5523 13.4477 15 14 15C14.5523 15 15 14.5523 15 14V6.73244C14.7058 6.90261 14.3643 7 14 7C12.8954 7 12 6.10457 12 5C12 4.07417 12.6291 3.29526 13.4831 3.06743L11.8795 1.46378L12.5866 0.756673L15.415 3.5851L15.4143 3.58584C15.7762 3.94777 16 4.44774 16 5V14C16 15.1046 15.1046 16 14 16C12.8954 16 12 15.1046 12 14V9H10V16H0V5ZM6.5 5H3.875L3.5 8.375L4.625 8L4.25 11L6.5 7.25L5.125 7.625L6.5 5ZM15 5C15 5.55229 14.5523 6 14 6C13.4477 6 13 5.55229 13 5C13 4.44772 13.4477 4 14 4C14.5523 4 15 4.44772 15 5Z" fill="#363636"/>
</svg>
