<svg width="16" height="16" viewBox="0 0 16 16" fill="none" xmlns="http://www.w3.org/2000/svg">
<path d="M0 8C0 3.58172 3.58172 0 8 0V0C12.4183 0 16 3.58172 16 8V8C16 12.4183 12.4183 16 8 16V16C3.58172 16 0 12.4183 0 8V8Z" fill="#363636"/>
<path fill-rule="evenodd" clip-rule="evenodd" d="M4 6.5V5C4 4.44772 4.44772 4 5 4H6.5H8C8.55229 4 9 4.44772 9 5V6.5V8H10C10.2761 8 10.5 8.22386 10.5 8.5V11C10.5 11.2761 10.7239 11.5 11 11.5C11.2761 11.5 11.5 11.2761 11.5 11V7.36622C11.3529 7.4513 11.1821 7.5 11 7.5C10.4477 7.5 10 7.05228 10 6.5C10 6.03708 10.3145 5.64763 10.7416 5.53371L9.93974 4.73189L10.2933 4.37834L11.7075 5.79255L11.7071 5.79292C11.8881 5.97388 12 6.22387 12 6.5V11C12 11.5523 11.5523 12 11 12C10.4477 12 10 11.5523 10 11V8.5H9V12H4V6.5ZM7.25 6.5H5.9375L5.75 8.1875L6.3125 8L6.125 9.5L7.25 7.625L6.5625 7.8125L7.25 6.5ZM11.5 6.5C11.5 6.77614 11.2761 7 11 7C10.7239 7 10.5 6.77614 10.5 6.5C10.5 6.22386 10.7239 6 11 6C11.2761 6 11.5 6.22386 11.5 6.5Z" fill="white"/>
</svg>
