<svg width="16" height="16" viewBox="0 0 16 16" fill="none" xmlns="http://www.w3.org/2000/svg">
<path d="M0 8C0 3.58172 3.58172 0 8 0V0C12.4183 0 16 3.58172 16 8V8C16 12.4183 12.4183 16 8 16V16C3.58172 16 0 12.4183 0 8V8Z" fill="#363636"/>
<path fill-rule="evenodd" clip-rule="evenodd" d="M4 5.35397L5 6.35397L6.66667 4.6873L6.31268 4.33331L4.99938 5.64661L4.35337 5.0006L4 5.35397ZM12 4.83497H7.5V5.83497H12V4.83497ZM7.5 7.49997H12V8.49997H7.5V7.49997ZM12 10.165H7.5V11.165H12V10.165ZM5 9.02064L4 8.02064L4.35337 7.66727L4.99938 8.31328L6.31268 6.99998L6.66667 7.35397L5 9.02064ZM4 10.6873L5 11.6873L6.66667 10.0206L6.31268 9.66665L4.99938 10.9799L4.35337 10.3339L4 10.6873Z" fill="white"/>
</svg>
