<svg width="16" height="16" viewBox="0 0 16 16" fill="none" xmlns="http://www.w3.org/2000/svg">
<path fill-rule="evenodd" clip-rule="evenodd" d="M0 2.708L2 4.708L5.33333 1.37467L4.62535 0.666687L1.99876 3.29328L0.706739 2.00126L0 2.708ZM16 1.67H7V3.67H16V1.67ZM7 7H16V9H7V7ZM16 12.33H7V14.33H16V12.33ZM2 10.0413L0 8.04133L0.706739 7.33459L1.99876 8.62661L4.62535 6.00002L5.33333 6.708L2 10.0413ZM0 13.3747L2 15.3747L5.33333 12.0413L4.62535 11.3334L1.99876 13.9599L0.706739 12.6679L0 13.3747Z" fill="#363636"/>
</svg>
