<svg width="16" height="16" viewBox="0 0 16 16" fill="none" xmlns="http://www.w3.org/2000/svg">
<path fill-rule="evenodd" clip-rule="evenodd" d="M14 8C14 11.3137 11.3137 14 8 14C4.68629 14 2 11.3137 2 8C2 4.68629 4.68629 2 8 2C11.3137 2 14 4.68629 14 8ZM16 8C16 12.4183 12.4183 16 8 16C3.58172 16 0 12.4183 0 8C0 3.58172 3.58172 0 8 0C12.4183 0 16 3.58172 16 8ZM7.5 8.20711V4.03095C7.6638 4.01052 7.83067 4 8 4C8.16933 4 8.3362 4.01052 8.5 4.03095V7.79289L11.1599 10.4528C10.9546 10.7169 10.7169 10.9546 10.4528 11.1599L7.5 8.20711Z" fill="#363636"/>
</svg>
