<svg width="16" height="16" viewBox="0 0 16 16" fill="none" xmlns="http://www.w3.org/2000/svg">
<path fill-rule="evenodd" clip-rule="evenodd" d="M9 0H7L6.44943 2.20228C5.93485 2.33955 5.44749 2.54351 4.99718 2.80433L3.04971 1.63584L1.63549 3.05005L2.80405 4.99765C2.54336 5.44784 2.3395 5.93503 2.20228 6.44943L0 7V9L2.20228 9.55057C2.33957 10.0652 2.54357 10.5527 2.80445 11.003L1.63649 12.9496L3.05071 14.3639L4.99743 13.1958C5.44768 13.4566 5.93495 13.6605 6.44943 13.7977L7 16H9L9.55057 13.7977C10.0651 13.6604 10.5525 13.4565 11.0028 13.1957L12.9503 14.3642L14.3645 12.9499L13.1959 11.0023C13.4566 10.5522 13.6605 10.065 13.7977 9.55057L16 9V7L13.7977 6.44943C13.6604 5.93477 13.4564 5.44733 13.1955 4.99696L14.3635 3.05036L12.9493 1.63614L11.0026 2.80418C10.5523 2.54343 10.0651 2.33952 9.55057 2.20228L9 0ZM8.00161 4C9.08529 4.00043 10.0682 4.43179 10.7883 5.13203L10.868 5.21168C11.5686 5.93214 12 6.91569 12 8C12 10.2091 10.2091 12 8 12C6.91569 12 5.93216 11.5686 5.21169 10.868L5.13202 10.7883C4.43179 10.0682 4.00043 9.08528 4 8.00161L4 8L4 7.99839C4.00087 5.79053 5.79053 4.00087 7.99839 4L8 4L8.00161 4ZM5 8C5 6.34315 6.34315 5 8 5C9.65685 5 11 6.34315 11 8C11 9.65685 9.65685 11 8 11C6.34315 11 5 9.65685 5 8ZM6.5 8C6.5 7.17157 7.17157 6.5 8 6.5C8.82843 6.5 9.5 7.17157 9.5 8C9.5 8.82843 8.82843 9.5 8 9.5C7.17157 9.5 6.5 8.82843 6.5 8Z" fill="#363636"/>
</svg>
