<svg width="16" height="16" viewBox="0 0 16 16" fill="none" xmlns="http://www.w3.org/2000/svg">
<path d="M0 8C0 3.58172 3.58172 0 8 0C12.4183 0 16 3.58172 16 8C16 12.4183 12.4183 16 8 16C3.58172 16 0 12.4183 0 8Z" fill="#363636"/>
<path fill-rule="evenodd" clip-rule="evenodd" d="M8.5 4H7.5L7.22472 5.10114C6.96743 5.16977 6.72375 5.27175 6.49859 5.40216L5.52485 4.81792L4.81775 5.52503L5.40203 6.49883C5.27168 6.72392 5.16975 6.96752 5.10114 7.22472L4 7.5V8.5L5.10114 8.77529C5.16979 9.03262 5.27179 9.27633 5.40223 9.50152L4.81825 10.4748L5.52535 11.1819L6.49872 10.5979C6.72384 10.7283 6.96747 10.8302 7.22471 10.8989L7.5 12H8.5L8.77528 10.8989C9.03257 10.8302 9.27625 10.7282 9.50141 10.5978L10.4751 11.1821L11.1823 10.475L10.598 9.50117C10.7283 9.27608 10.8302 9.03248 10.8989 8.77529L12 8.5V7.5L10.8989 7.22471C10.8302 6.96738 10.7282 6.72367 10.5978 6.49848L11.1818 5.52518L10.4746 4.81807L9.50128 5.40209C9.27616 5.27171 9.03253 5.16976 8.77529 5.10114L8.5 4ZM8.00081 6C8.54264 6.00021 9.03411 6.2159 9.39416 6.56601L9.43399 6.60584C9.78428 6.96607 10 7.45784 10 8C10 9.10457 9.10457 10 8 10C7.45785 10 6.96608 9.78428 6.60584 9.43399L6.56601 9.39416C6.21589 9.0341 6.00021 8.54264 6 8.00081L6 8L6 7.99919C6.00044 6.89526 6.89526 6.00044 7.99919 6L8 6L8.00081 6ZM6.5 8C6.5 7.17157 7.17157 6.5 8 6.5C8.82843 6.5 9.5 7.17157 9.5 8C9.5 8.82843 8.82843 9.5 8 9.5C7.17157 9.5 6.5 8.82843 6.5 8ZM7.25 8C7.25 7.58579 7.58579 7.25 8 7.25C8.41421 7.25 8.75 7.58579 8.75 8C8.75 8.41421 8.41421 8.75 8 8.75C7.58579 8.75 7.25 8.41421 7.25 8Z" fill="white"/>
</svg>
