<svg width="16" height="16" viewBox="0 0 16 16" fill="none" xmlns="http://www.w3.org/2000/svg">
<path fill-rule="evenodd" clip-rule="evenodd" d="M7.5 3.02469V4H8.5V3.02469C10.8622 3.25922 12.7408 5.13779 12.9753 7.5H12V8.5H12.9753C12.7408 10.8622 10.8622 12.7408 8.5 12.9753V12H7.5V12.9753C5.13779 12.7408 3.25922 10.8622 3.02469 8.5H4V7.5H3.02469C3.25922 5.13779 5.13779 3.25922 7.5 3.02469ZM8.5 2.02054C11.4149 2.26101 13.739 4.5851 13.9795 7.5H16V8.5H13.9795C13.739 11.4149 11.4149 13.739 8.5 13.9795V16H7.5V13.9795C4.5851 13.739 2.26101 11.4149 2.02054 8.5H0V7.5H2.02054C2.26101 4.5851 4.5851 2.26101 7.5 2.02054V0H8.5V2.02054ZM8 11C9.65685 11 11 9.65685 11 8C11 6.34315 9.65685 5 8 5C6.34315 5 5 6.34315 5 8C5 9.65685 6.34315 11 8 11Z" fill="#363636"/>
</svg>
