<svg width="16" height="16" viewBox="0 0 16 16" fill="none" xmlns="http://www.w3.org/2000/svg">
<path d="M0 8C0 3.58172 3.58172 0 8 0C12.4183 0 16 3.58172 16 8C16 12.4183 12.4183 16 8 16C3.58172 16 0 12.4183 0 8Z" fill="#363636"/>
<path fill-rule="evenodd" clip-rule="evenodd" d="M7.75 5.51234V6H8.25V5.51234C9.4311 5.62961 10.3704 6.5689 10.4877 7.75H10V8.25H10.4877C10.3704 9.4311 9.4311 10.3704 8.25 10.4877V10H7.75V10.4877C6.5689 10.3704 5.62961 9.4311 5.51234 8.25H6V7.75H5.51234C5.62961 6.5689 6.5689 5.62961 7.75 5.51234ZM8.25 5.01027C9.70745 5.13051 10.8695 6.29255 10.9897 7.75H12V8.25H10.9897C10.8695 9.70745 9.70745 10.8695 8.25 10.9897V12H7.75V10.9897C6.29255 10.8695 5.13051 9.70745 5.01027 8.25H4V7.75H5.01027C5.13051 6.29255 6.29255 5.13051 7.75 5.01027V4H8.25V5.01027ZM8 9.5C8.82843 9.5 9.5 8.82843 9.5 8C9.5 7.17157 8.82843 6.5 8 6.5C7.17157 6.5 6.5 7.17157 6.5 8C6.5 8.82843 7.17157 9.5 8 9.5Z" fill="white"/>
</svg>
