<svg width="16" height="16" viewBox="0 0 16 16" fill="none" xmlns="http://www.w3.org/2000/svg">
<path fill-rule="evenodd" clip-rule="evenodd" d="M0.509966 1.21509H15.49C15.7706 1.21509 16 1.4447 16 1.72505V2.92024V9.88814V12.6161C16 12.8964 15.7706 13.126 15.49 13.126H10.6169L10.6179 13.1335H5.39555L5.39632 13.126H0.509966C0.229355 13.126 0 12.8967 0 12.6161V9.88814V2.92024V1.72505C0 1.44444 0.229355 1.21509 0.509966 1.21509ZM7.59487 11.4993C7.59487 11.723 7.77608 11.9044 8 11.9044C8.22366 11.9044 8.40513 11.723 8.40513 11.4993C8.40513 11.2757 8.22366 11.0942 8 11.0942C7.77634 11.0942 7.59487 11.2757 7.59487 11.4993ZM15.2666 9.88814V2.92024H15.2664V1.94871H0.733368V2.92024V9.88814V10.0272H15.2666V9.88814ZM5.33559 13.6433H10.6791L10.7086 13.8876C10.7361 14.1077 10.6693 14.3212 10.5212 14.4882C10.3545 14.6767 10.1003 14.7849 9.82381 14.7849H6.19554C5.91959 14.7849 5.66486 14.6769 5.49764 14.4887C5.34905 14.3223 5.28148 14.1092 5.30711 13.8897L5.33559 13.6433ZM7.50813 4.94642C7.50813 4.67823 7.72609 4.46027 7.99428 4.46027C8.26246 4.46027 8.48043 4.67823 8.48043 4.94642V5.3329H9.03673V4.94642C9.03673 4.37147 8.56896 3.90396 7.99428 3.90396C7.41934 3.90396 6.95156 4.37147 6.95156 4.94642V5.3329H7.50813V4.94642ZM9.36729 7.99997H6.63366C6.56791 7.99997 6.51433 7.94483 6.51433 7.87752V7.65153V7.61426V5.94871V5.91117V5.68544C6.51433 5.61762 6.56791 5.56248 6.63366 5.56248H9.36729C9.43278 5.56248 9.48663 5.61788 9.48663 5.68544V5.91117V5.94871V7.614V7.65127V7.87726C9.48663 7.94483 9.43278 7.99997 9.36729 7.99997ZM8.42838 6.56248C8.42838 6.31915 8.23682 6.12215 8.00022 6.12215C7.76413 6.12215 7.57231 6.31915 7.57205 6.56248C7.57205 6.74731 7.68285 6.90496 7.83946 6.9702V7.29637C7.83946 7.3761 7.90288 7.44107 7.98028 7.44107H8.02015C8.09755 7.44107 8.16097 7.37584 8.16097 7.29637V6.9702C8.31785 6.9047 8.42838 6.74731 8.42838 6.56248Z" fill="#156EC7"/>
</svg>
