<svg width="16" height="16" viewBox="0 0 16 16" fill="none" xmlns="http://www.w3.org/2000/svg">
<path fill-rule="evenodd" clip-rule="evenodd" d="M9.71049 1.92528C9.00573 0.691573 6.99427 0.691572 6.28951 1.92528L0.204363 12.5776C-0.43141 13.6905 0.49322 15 1.91485 15H14.0851C15.5068 15 16.4314 13.6905 15.7956 12.5776L9.71049 1.92528Z" fill="#363636"/>
<path fill-rule="evenodd" clip-rule="evenodd" d="M7.0995 5.99504C7.04623 5.46228 7.46459 5 8 5C8.53541 5 8.95377 5.46228 8.9005 5.99504L8.54975 9.50248C8.52151 9.78492 8.28384 10 8 10C7.71616 10 7.47849 9.78492 7.45025 9.50248L7.0995 5.99504ZM9 12C9 12.5523 8.55228 13 8 13C7.44772 13 7 12.5523 7 12C7 11.4477 7.44772 11 8 11C8.55228 11 9 11.4477 9 12Z" fill="white"/>
</svg>
