<svg width="16" height="16" viewBox="0 0 16 16" fill="none" xmlns="http://www.w3.org/2000/svg">
<path d="M0 8C0 3.58172 3.58172 0 8 0C12.4183 0 16 3.58172 16 8C16 12.4183 12.4183 16 8 16C3.58172 16 0 12.4183 0 8Z" fill="#363636"/>
<path fill-rule="evenodd" clip-rule="evenodd" d="M8 4C7.46459 4 7.04623 4.46228 7.0995 4.99504L7.45025 8.50248C7.47849 8.78492 7.71616 9 8 9C8.28384 9 8.52151 8.78492 8.54975 8.50248L8.9005 4.99504C8.95377 4.46228 8.53541 4 8 4ZM8 12C8.55228 12 9 11.5523 9 11C9 10.4477 8.55228 10 8 10C7.44772 10 7 10.4477 7 11C7 11.5523 7.44772 12 8 12Z" fill="white"/>
</svg>
