<svg width="16" height="16" viewBox="0 0 16 16" fill="none" xmlns="http://www.w3.org/2000/svg">
<path fill-rule="evenodd" clip-rule="evenodd" d="M4.68738 1.39386C4.82693 1.18073 5.01736 1.00571 5.24147 0.884574C5.46558 0.76344 5.71633 0.700012 5.97108 0.700012C6.22583 0.700012 6.47658 0.76344 6.70069 0.884574C6.9248 1.00571 7.11522 1.18073 7.25478 1.39386L10.5543 7.18055C9.64939 7.44999 8.83894 7.96943 8.21619 8.67911C7.59345 9.38879 7.18372 10.2599 7.03415 11.1921H1.39789C1.17658 11.2119 0.953931 11.1739 0.751717 11.0818C0.549503 10.9897 0.374651 10.8467 0.244265 10.6668C0.113879 10.4869 0.0324231 10.2762 0.00786528 10.0554C-0.0166925 9.83455 0.0164886 9.61113 0.104163 9.40697L4.68738 1.39386ZM8.04707 11.2322C8.1903 10.4715 8.55058 9.76848 9.08443 9.20794C9.61828 8.64739 10.3029 8.25327 11.0557 8.07312C11.3623 8.0076 11.6749 7.97399 11.9884 7.97283C12.7818 7.97283 13.5574 8.2081 14.2171 8.6489C14.8768 9.0897 15.391 9.71622 15.6946 10.4492C15.9983 11.1823 16.0777 11.9888 15.9229 12.767C15.7681 13.5452 15.3861 14.26 14.825 14.821C14.264 15.382 13.5492 15.7641 12.771 15.9189C11.9929 16.0737 11.1863 15.9942 10.4533 15.6906C9.72025 15.387 9.09373 14.8728 8.65294 14.2131C8.21214 13.5534 7.97686 12.7778 7.97686 11.9844C7.9744 11.7319 7.99793 11.4799 8.04707 11.2322ZM5.28911 4.46271C5.28911 4.28184 5.36096 4.10838 5.48886 3.98049C5.61675 3.85259 5.79021 3.78074 5.97108 3.78074C6.15195 3.78074 6.32541 3.85259 6.4533 3.98049C6.5812 4.10838 6.65305 4.28184 6.65305 4.46271L6.38227 7.10031C6.38227 7.20937 6.33894 7.31395 6.26183 7.39107C6.18472 7.46818 6.08013 7.5115 5.97108 7.5115C5.86203 7.5115 5.75744 7.46818 5.68033 7.39107C5.60322 7.31395 5.55989 7.20937 5.55989 7.10031L5.28911 4.46271ZM6.72325 8.97572C6.72325 9.12449 6.67913 9.26991 6.59649 9.3936C6.51384 9.5173 6.39636 9.6137 6.25892 9.67064C6.12148 9.72756 5.97025 9.74246 5.82434 9.71344C5.67843 9.68442 5.54441 9.61278 5.43922 9.50759C5.33402 9.40239 5.26239 9.26837 5.23336 9.12246C5.20434 8.97656 5.21924 8.82532 5.27617 8.68788C5.3331 8.55044 5.4295 8.43297 5.5532 8.35032C5.67689 8.26767 5.82231 8.22355 5.97108 8.22355C6.16976 8.22615 6.35957 8.30623 6.50007 8.44673C6.64057 8.58723 6.72065 8.77704 6.72325 8.97572ZM12.2592 10.0588C12.3966 10.1016 12.5231 10.1734 12.6303 10.2695C12.7302 10.3618 12.8088 10.4747 12.8609 10.6004C12.9126 10.7384 12.9398 10.8843 12.9412 11.0317C12.951 11.1183 12.951 11.2058 12.9412 11.2924C12.9138 11.3783 12.8803 11.4621 12.8409 11.5431C12.7907 11.6234 12.7406 11.7136 12.6804 11.7938L12.4498 12.0546C12.3715 12.1352 12.3101 12.2307 12.2692 12.3354C12.2381 12.4224 12.2212 12.5138 12.2191 12.6062V12.9171H11.5171V12.4056C11.5184 12.2615 11.5456 12.1189 11.5973 11.9844C11.6695 11.8278 11.7641 11.6825 11.8781 11.5532C11.9557 11.4788 12.0231 11.3945 12.0787 11.3024C12.1188 11.2143 12.1393 11.1185 12.1389 11.0216C12.1371 10.9345 12.1011 10.8517 12.0386 10.791C11.9994 10.7518 11.9523 10.7217 11.9003 10.7026C11.8483 10.6836 11.7929 10.6761 11.7377 10.6806C11.6131 10.6822 11.4902 10.7095 11.3767 10.7609C11.2673 10.8087 11.1658 10.873 11.0758 10.9514L10.9855 10.2394C11.0872 10.151 11.207 10.0859 11.3366 10.0488C11.4786 10.0004 11.6278 9.97665 11.7778 9.97861C11.9418 9.97575 12.105 10.0029 12.2592 10.0588ZM12.179 13.6392C12.179 13.5487 12.1431 13.462 12.0791 13.3981C12.0152 13.3341 11.9284 13.2982 11.838 13.2982C11.7466 13.2981 11.6588 13.3337 11.5933 13.3974C11.5277 13.4611 11.4896 13.5478 11.487 13.6392C11.487 13.7323 11.524 13.8215 11.5898 13.8874C11.6556 13.9532 11.7449 13.9902 11.838 13.9902C11.9293 13.9876 12.0161 13.9494 12.0797 13.8839C12.1434 13.8183 12.179 13.7306 12.179 13.6392Z" fill="#363636"/>
</svg>
