<svg width="16" height="16" viewBox="0 0 16 16" fill="none" xmlns="http://www.w3.org/2000/svg">
<path d="M0 8C0 3.58172 3.58172 0 8 0C12.4183 0 16 3.58172 16 8C16 12.4183 12.4183 16 8 16C3.58172 16 0 12.4183 0 8Z" fill="#363636"/>
<path fill-rule="evenodd" clip-rule="evenodd" d="M6.34369 4.34692C6.41347 4.24036 6.50868 4.15285 6.62074 4.09228C6.73279 4.03171 6.85816 4 6.98554 4C7.11292 4 7.23829 4.03171 7.35034 4.09228C7.4624 4.15285 7.55761 4.24036 7.62739 4.34692L9.27715 7.24027C8.82469 7.37499 8.41947 7.63471 8.1081 7.98955C7.79672 8.34439 7.59186 8.77993 7.51707 9.24605H4.69895C4.58829 9.25593 4.47697 9.23692 4.37586 9.19088C4.27475 9.14485 4.18733 9.07335 4.12213 8.98339C4.05694 8.89344 4.01621 8.7881 4.00393 8.67768C3.99165 8.56727 4.00824 8.45556 4.05208 8.35348L6.34369 4.34692ZM8.02353 9.26611C8.09515 8.88575 8.27529 8.53423 8.54221 8.25396C8.80914 7.97369 9.15146 7.77663 9.52787 7.68655C9.68117 7.65379 9.83745 7.63699 9.99422 7.63641C10.3909 7.63641 10.7787 7.75405 11.1086 7.97444C11.4384 8.19484 11.6955 8.5081 11.8473 8.87461C11.9991 9.24112 12.0389 9.64442 11.9615 10.0335C11.8841 10.4226 11.693 10.78 11.4125 11.0605C11.132 11.341 10.7746 11.532 10.3855 11.6094C9.99644 11.6868 9.59314 11.6471 9.22664 11.4953C8.86013 11.3435 8.54687 11.0864 8.32647 10.7565C8.10607 10.4267 7.98843 10.0389 7.98843 9.64219C7.9872 9.51596 7.99896 9.38993 8.02353 9.26611ZM6.64456 5.88135C6.64456 5.79091 6.68048 5.70418 6.74443 5.64024C6.80838 5.57629 6.89511 5.54037 6.98554 5.54037C7.07597 5.54037 7.1627 5.57629 7.22665 5.64024C7.2906 5.70418 7.32652 5.79091 7.32652 5.88135L7.19113 7.20015C7.19113 7.25468 7.16947 7.30697 7.13092 7.34553C7.09236 7.38408 7.04007 7.40574 6.98554 7.40574C6.93101 7.40574 6.87872 7.38408 6.84016 7.34553C6.80161 7.30697 6.77995 7.25468 6.77995 7.20015L6.64456 5.88135ZM7.36162 8.13786C7.36162 8.21224 7.33957 8.28495 7.29824 8.3468C7.25692 8.40864 7.19818 8.45685 7.12946 8.48531C7.06074 8.51378 6.98512 8.52122 6.91217 8.50671C6.83922 8.4922 6.7722 8.45638 6.71961 8.40379C6.66701 8.35119 6.63119 8.28418 6.61668 8.21123C6.60217 8.13827 6.60962 8.06265 6.63808 7.99393C6.66655 7.92521 6.71475 7.86648 6.7766 7.82515C6.83845 7.78383 6.91116 7.76177 6.98554 7.76177C7.08488 7.76307 7.17979 7.80311 7.25004 7.87336C7.32029 7.94361 7.36033 8.03852 7.36162 8.13786ZM10.1296 8.67942C10.1983 8.7008 10.2616 8.73672 10.3151 8.78472C10.3651 8.83091 10.4044 8.88736 10.4305 8.9502C10.4563 9.01918 10.4699 9.09216 10.4706 9.16582C10.4755 9.20914 10.4755 9.25288 10.4706 9.2962C10.4569 9.33914 10.4402 9.38104 10.4204 9.42156C10.3954 9.46167 10.3703 9.5068 10.3402 9.54692L10.2249 9.67729C10.1857 9.71761 10.155 9.76534 10.1346 9.8177C10.1191 9.86119 10.1106 9.90691 10.1095 9.95309V10.1085H9.75854V9.8528C9.75919 9.78076 9.77278 9.70943 9.79865 9.64219C9.83473 9.56388 9.88203 9.49124 9.93906 9.42657C9.97785 9.38937 10.0116 9.34722 10.0393 9.30121C10.0594 9.25712 10.0696 9.20923 10.0694 9.1608C10.0685 9.11726 10.0505 9.07582 10.0193 9.04547C9.99972 9.02591 9.97613 9.01084 9.95015 9.00131C9.92417 8.99179 9.89643 8.98803 9.86885 8.99031C9.80656 8.99108 9.74509 9.00474 9.68833 9.03043C9.63363 9.05435 9.5829 9.08648 9.5379 9.1257L9.49277 8.76968C9.54361 8.72549 9.60352 8.69297 9.66828 8.6744C9.73928 8.65019 9.8139 8.63832 9.88891 8.6393C9.97092 8.63787 10.0525 8.65147 10.1296 8.67942ZM10.0895 10.4696C10.0895 10.4244 10.0715 10.381 10.0396 10.349C10.0076 10.317 9.96422 10.2991 9.919 10.2991C9.87331 10.2991 9.82941 10.3169 9.79664 10.3487C9.76386 10.3805 9.7448 10.4239 9.74349 10.4696C9.74349 10.5161 9.76198 10.5608 9.7949 10.5937C9.82781 10.6266 9.87245 10.6451 9.919 10.6451C9.96467 10.6438 10.008 10.6247 10.0399 10.5919C10.0717 10.5592 10.0895 10.5153 10.0895 10.4696Z" fill="white"/>
</svg>
