<svg width="16" height="16" viewBox="0 0 16 16" fill="none" xmlns="http://www.w3.org/2000/svg">
<path fill-rule="evenodd" clip-rule="evenodd" d="M9.75 0.75H2.25V11.25H7V12H1.5V0H10.5V7.29076C10.2347 7.39816 9.98347 7.53322 9.75 7.69234V0.75ZM8 12V11.25V11H9C9 10.2392 9.28323 9.54448 9.75 9.01563C9.96447 8.77264 10.2177 8.56465 10.5 8.40135C10.9413 8.14609 11.4536 8 12 8C13.6569 8 15 9.34315 15 11H16V16H15H9H8V12ZM10.5 9.67709C10.4123 9.77644 10.3343 9.88458 10.2676 10C10.0974 10.2942 10 10.6357 10 11H10.5H14C14 9.89543 13.1046 9 12 9C11.4027 9 10.8665 9.26188 10.5 9.67709ZM3.75 3H8.25V3.75H3.75V3ZM8.25 4.5H3.75V5.25H8.25V4.5ZM3.75 6H8.25V6.75H3.75V6ZM6.75 7.5H3.75V8.25H6.75V7.5ZM12.2372 13.4617C12.5352 13.3624 12.75 13.0813 12.75 12.75C12.75 12.3358 12.4142 12 12 12C11.5858 12 11.25 12.3358 11.25 12.75C11.25 13.0813 11.4648 13.3624 11.7628 13.4617L11.25 15H12.75L12.2372 13.4617Z" fill="#363636"/>
</svg>
