<svg width="16" height="16" viewBox="0 0 16 16" fill="none" xmlns="http://www.w3.org/2000/svg">
<path d="M0 8C0 3.58172 3.58172 0 8 0C12.4183 0 16 3.58172 16 8C16 12.4183 12.4183 16 8 16C3.58172 16 0 12.4183 0 8Z" fill="#363636"/>
<path fill-rule="evenodd" clip-rule="evenodd" d="M8.625 4.375H4.875V9.625H7.25V10H4.5V4H9V7.64538C8.86733 7.69908 8.74174 7.76661 8.625 7.84617V4.375ZM7.75 10V9.625V9.5H8.25C8.25 9.11958 8.39161 8.77224 8.625 8.50782C8.73224 8.38632 8.85885 8.28233 9 8.20067C9.22063 8.07305 9.47678 8 9.75 8C10.5784 8 11.25 8.67157 11.25 9.5H11.75V12H11.25H8.25H7.75V10ZM9 8.83854C8.95615 8.88822 8.91717 8.94229 8.88378 9C8.7987 9.14709 8.75 9.31786 8.75 9.5H9H10.75C10.75 8.94772 10.3023 8.5 9.75 8.5C9.45133 8.5 9.18324 8.63094 9 8.83854ZM5.625 5.5H7.875V5.875H5.625V5.5ZM7.875 6.25H5.625V6.625H7.875V6.25ZM5.625 7H7.875V7.375H5.625V7ZM7.125 7.75H5.625V8.125H7.125V7.75ZM9.86862 10.7309C10.0176 10.6812 10.125 10.5407 10.125 10.375C10.125 10.1679 9.95711 10 9.75 10C9.54289 10 9.375 10.1679 9.375 10.375C9.375 10.5407 9.48241 10.6812 9.63138 10.7309L9.375 11.5H10.125L9.86862 10.7309Z" fill="white"/>
</svg>
