<svg width="16" height="16" viewBox="0 0 16 16" fill="none" xmlns="http://www.w3.org/2000/svg">
<path fill-rule="evenodd" clip-rule="evenodd" d="M4.00002 3.5C4.00002 4.02912 4.1644 4.51984 4.44487 4.92389V6.33339C3.5693 5.69721 3.00002 4.66509 3.00002 3.5C3.00002 1.567 4.56702 0 6.50002 0C8.43302 0 10 1.567 10 3.5C10 4.33584 9.70703 5.10324 9.21816 5.70511C8.94281 5.51633 8.61455 5.39826 8.25599 5.37935V5.27948C8.71533 4.82618 9.00002 4.19633 9.00002 3.5C9.00002 2.11929 7.88073 1 6.50002 1C5.11931 1 4.00002 2.11929 4.00002 3.5ZM2.79605 9.02778C2.55457 8.62776 2.66021 8.10224 3.03753 7.82772C3.42994 7.57673 3.95064 7.70222 4.19967 8.11793L4.2374 8.16499L5.44482 9.81213V2.93338C5.44482 2.41571 5.85232 2 6.35038 2C6.84844 2 7.25595 2.41571 7.25595 2.93338V7.31005C7.25595 6.79238 7.65591 6.37667 8.15397 6.37667C8.65202 6.37667 9.05953 6.79238 9.05953 7.31005V7.93753C9.05953 7.41986 9.45949 7.00415 9.95755 7.00415C10.4556 7.00415 10.8631 7.41986 10.8631 7.93753V8.58069C10.8631 8.06302 11.2631 7.63948 11.7611 7.63948C12.2592 7.63948 12.6667 8.06302 12.6667 8.58069V12.0005V12.173C12.6667 12.6672 12.5686 13.1613 12.395 13.6162C11.6177 15.5771 9.46703 16.5183 7.58044 15.7104C6.89372 15.4202 6.30511 14.9261 5.8976 14.2908L2.79605 9.02778Z" fill="#363636"/>
</svg>
