<svg width="16" height="16" viewBox="0 0 16 16" fill="none" xmlns="http://www.w3.org/2000/svg">
<path d="M0 8C0 3.58172 3.58172 0 8 0V0C12.4183 0 16 3.58172 16 8V8C16 12.4183 12.4183 16 8 16V16C3.58172 16 0 12.4183 0 8V8Z" fill="#363636"/>
<path fill-rule="evenodd" clip-rule="evenodd" d="M6.06669 5.75C6.06669 6.01456 6.14888 6.25992 6.28911 6.46195V7.16669C5.85133 6.8486 5.56669 6.33254 5.56669 5.75C5.56669 4.7835 6.35019 4 7.31669 4C8.28319 4 9.06669 4.7835 9.06669 5.75C9.06669 6.16792 8.9202 6.55162 8.67576 6.85256C8.53809 6.75817 8.37395 6.69913 8.19468 6.68968V6.63974C8.42435 6.41309 8.56669 6.09817 8.56669 5.75C8.56669 5.05964 8.00705 4.5 7.31669 4.5C6.62634 4.5 6.06669 5.05964 6.06669 5.75ZM5.46471 8.51389C5.34396 8.31388 5.39679 8.05112 5.58545 7.91386C5.78165 7.78836 6.042 7.85111 6.16652 8.05896L6.18538 8.08249L6.78909 8.90606V5.46669C6.78909 5.20785 6.99284 5 7.24187 5C7.4909 5 7.69466 5.20785 7.69466 5.46669V7.65502C7.69466 7.39619 7.89463 7.18834 8.14366 7.18834C8.39269 7.18834 8.59645 7.39619 8.59645 7.65502V7.96876C8.59645 7.70993 8.79642 7.50208 9.04545 7.50208C9.29448 7.50208 9.49824 7.70993 9.49824 7.96876V8.29035C9.49824 8.03151 9.69821 7.81974 9.94724 7.81974C10.1963 7.81974 10.4 8.03151 10.4 8.29035V10.0002V10.0865C10.4 10.3336 10.351 10.5806 10.2642 10.8081C9.87555 11.7885 8.8002 12.2592 7.8569 11.8552C7.51354 11.7101 7.21923 11.463 7.01548 11.1454L5.46471 8.51389Z" fill="white"/>
</svg>
