<svg width="16" height="16" viewBox="0 0 16 16" fill="none" xmlns="http://www.w3.org/2000/svg">
<g clip-path="url(#clip0_936_3637)">
<path d="M-4.01599 2H20.0485V14.0322H-4.01599V2Z" fill="#000066"/>
<path d="M-4.01599 2V3.34523L17.3581 14.0323H20.0485V12.6871L-1.32559 2H-4.01599ZM20.0485 2V3.34521L-1.32559 14.0322H-4.01599V12.687L17.3581 2H20.0485Z" fill="white"/>
<path d="M6.01087 2V14.0322H10.0216V2H6.01087V2ZM-4.01599 6.01074V10.0215H20.0485V6.01074H-4.01599Z" fill="white"/>
<path d="M-4.01599 6.81289V9.21934H20.0485V6.81289H-4.01599ZM6.81304 2V14.0322H9.21944V2H6.81304V2ZM-4.01599 14.0322L4.0055 10.0215H5.79911L-2.22238 14.0322H-4.01599ZM-4.01599 2L4.0055 6.01074H2.21188L-4.01599 2.89685V2ZM10.2334 6.01074L18.2549 2H20.0485L12.027 6.01074H10.2334ZM20.0485 14.0322L12.027 10.0215H13.8206L20.0485 13.1354V14.0322Z" fill="#CC0000"/>
</g>
<defs>
<clipPath id="clip0_936_3637">
<rect width="16" height="12" fill="white" transform="translate(0 2)"/>
</clipPath>
</defs>
</svg>
