<svg width="16" height="16" viewBox="0 0 16 16" fill="none" xmlns="http://www.w3.org/2000/svg">
<path fill-rule="evenodd" clip-rule="evenodd" d="M3.73505 3.0284C3.7351 3.02833 3.73516 3.02826 3.73522 3.02818L7.78492 7.07789C7.78473 7.07785 7.78455 7.07781 7.78436 7.07778L10.9204 10.2139C10.9204 10.2137 10.9203 10.2135 10.9203 10.2133L13.1071 12.4001C13.1071 12.4002 13.107 12.4003 13.107 12.4005L16 15.2935L15.2922 16L12.6149 13.3227C11.6168 14.9209 10.0788 16 8 16C3.99765 16 2 12 2 7.99293C2 7.8954 2.00623 7.79787 2.01244 7.70078C2.01859 7.60459 2.02471 7.50883 2.02471 7.41394C2.11771 6.14749 2.50964 4.93263 3.15538 3.86335L0 0.708023L0.706692 6.10441e-09L3.73505 3.0284ZM7.26645 7.97434C7.32258 8.8562 6.89808 9.67079 6.36412 10.2321C6.10757 9.87265 5.97838 9.43776 5.99706 8.99647C5.50118 8.99647 4.99824 9.99029 5 10.9982C5 13 5.99883 15 8 15C9.77598 15 10.7625 13.4248 10.962 11.6699L7.26645 7.97434ZM14 7.99647C14 8.7564 13.928 9.51621 13.784 10.2486L5.16419 1.62873C6.54958 0.576351 8.24718 -6.84931e-05 10.0012 6.10441e-09C8.76941 2.46778 9.81764 4.93557 11.2718 6.46425C11.7849 5.74529 12.0432 4.87551 12.0059 3.99294C12.9976 3.99294 14.0035 5.98058 14 7.99647Z" fill="#363636"/>
</svg>
