<svg width="16" height="16" viewBox="0 0 16 16" fill="none" xmlns="http://www.w3.org/2000/svg">
<path fill-rule="evenodd" clip-rule="evenodd" d="M11.2718 6.46425C11.7849 5.74529 12.0432 4.87551 12.0059 3.99294C12.9976 3.99294 14.0035 5.98058 14 7.99647C14 12 12.0023 16 8 16C3.99765 16 2 12 2 7.99293C2 7.8954 2.00623 7.79787 2.01244 7.70078C2.01859 7.60459 2.02471 7.50883 2.02471 7.41394C2.17267 5.39904 3.07729 3.51474 4.55687 2.13949C6.03646 0.764252 7.98143 -7.88907e-05 10.0012 6.10739e-09C8.76941 2.46778 9.81764 4.93557 11.2718 6.46425ZM6.36412 10.2321C6.10757 9.87265 5.97838 9.43776 5.99706 8.99647C5.50118 8.99647 4.99824 9.99029 5 10.9982C5 13 5.99883 15 8 15C10.0012 15 11 13 11 10.9965C11 10.9477 10.9969 10.8989 10.9938 10.8504C10.9907 10.8023 10.9876 10.7544 10.9876 10.707C10.9137 9.69952 10.4614 8.75737 9.72156 8.06975C8.98177 7.38213 8.00928 6.99996 6.99941 7C7.61529 8.23389 7.09118 9.46778 6.36412 10.2321Z" fill="#363636"/>
</svg>
