<svg width="16" height="16" viewBox="0 0 16 16" fill="none" xmlns="http://www.w3.org/2000/svg">
<path d="M0 8C0 3.58172 3.58172 0 8 0V0C12.4183 0 16 3.58172 16 8V8C16 12.4183 12.4183 16 8 16V16C3.58172 16 0 12.4183 0 8V8Z" fill="#363636"/>
<path fill-rule="evenodd" clip-rule="evenodd" d="M9.63588 7.23213C9.89243 6.87265 10.0216 6.43776 10.0029 5.99647C10.4988 5.99647 11.0018 6.99029 11 7.99823C11 10 10.0012 12 8 12C5.99882 12 5 10 5 7.99647C5 7.9477 5.00312 7.89893 5.00622 7.85039C5.00929 7.80229 5.01235 7.75441 5.01235 7.70697C5.08633 6.69952 5.53864 5.75737 6.27844 5.06975C7.01823 4.38213 7.99072 3.99996 9.00059 4C8.38471 5.23389 8.90882 6.46778 9.63588 7.23213ZM7.18206 9.11606C7.05379 8.93632 6.98919 8.71888 6.99853 8.49823C6.75059 8.49823 6.49912 8.99514 6.5 9.49912C6.5 10.5 6.99941 11.5 8 11.5C9.00059 11.5 9.5 10.5 9.5 9.49823C9.5 9.47385 9.49844 9.44947 9.49689 9.4252C9.49535 9.40115 9.49382 9.37721 9.49382 9.35349C9.45683 8.84976 9.23068 8.37868 8.86078 8.03487C8.49089 7.69106 8.00464 7.49998 7.49971 7.5C7.80765 8.11695 7.54559 8.73389 7.18206 9.11606Z" fill="white"/>
</svg>
