<svg width="16" height="16" viewBox="0 0 16 16" fill="none" xmlns="http://www.w3.org/2000/svg">
<path d="M0 8C0 3.58172 3.58172 0 8 0C12.4183 0 16 3.58172 16 8C16 12.4183 12.4183 16 8 16C3.58172 16 0 12.4183 0 8Z" fill="#363636"/>
<path fill-rule="evenodd" clip-rule="evenodd" d="M5.86752 5.5142C5.86755 5.51416 5.86758 5.51413 5.86761 5.51409L7.89246 7.53894C7.89237 7.53893 7.89227 7.53891 7.89218 7.53889L9.46021 9.10694C9.46019 9.10684 9.46017 9.10673 9.46015 9.10663L10.5536 10.2C10.5535 10.2001 10.5535 10.2002 10.5535 10.2002L12 11.6468L11.6461 12L10.3075 10.6614C9.80838 11.4605 9.03939 12 8 12C5.99882 12 5 10 5 7.99647C5 7.9477 5.00312 7.89893 5.00622 7.85039C5.00929 7.80229 5.01235 7.75441 5.01235 7.70697C5.05885 7.07374 5.25482 6.46632 5.57769 5.93167L4 4.35401L4.35335 4L5.86752 5.5142ZM7.63322 7.98717C7.66129 8.4281 7.44904 8.83539 7.18206 9.11606C7.05379 8.93632 6.98919 8.71888 6.99853 8.49823C6.75059 8.49823 6.49912 8.99514 6.5 9.49912C6.5 10.5 6.99941 11.5 8 11.5C8.88799 11.5 9.38125 10.7124 9.48102 9.83494L7.63322 7.98717ZM11 7.99823C11 8.3782 10.964 8.7581 10.892 9.12428L6.58209 4.81436C7.27479 4.28818 8.12359 3.99997 9.00059 4C8.38471 5.23389 8.90882 6.46778 9.63588 7.23213C9.89243 6.87265 10.0216 6.43776 10.0029 5.99647C10.4988 5.99647 11.0018 6.99029 11 7.99823Z" fill="white"/>
</svg>
