<svg width="16" height="16" viewBox="0 0 16 16" fill="none" xmlns="http://www.w3.org/2000/svg">
<path d="M0 8C0 3.58172 3.58172 0 8 0C12.4183 0 16 3.58172 16 8C16 12.4183 12.4183 16 8 16C3.58172 16 0 12.4183 0 8Z" fill="#363636"/>
<path fill-rule="evenodd" clip-rule="evenodd" d="M12 11.647L11.6464 12L8.74239 9.09602L7 12L7.5 8L6 8.5L6.21464 6.56827L4 4.35363L4.35295 4L12 11.647ZM10 4H6.5L6.42672 4.65955L8.54496 6.7778L10 4ZM9.53769 7.77052L9.03134 7.26418L10 7L9.53769 7.77052Z" fill="white"/>
</svg>
