<svg width="16" height="16" viewBox="0 0 16 16" fill="none" xmlns="http://www.w3.org/2000/svg">
<path fill-rule="evenodd" clip-rule="evenodd" d="M7.25 0L4.72917 4.8125L7.25 4.125L3.125 11L3.8125 5.5L1.75 6.1875L2.4375 0H7.25ZM13.254 7.74514C13.2797 8.35192 13.1021 8.94989 12.7493 9.44417C11.7496 8.3932 11.029 6.6966 11.8758 5C10.4872 4.99995 9.15007 5.52542 8.13285 6.4709C7.11563 7.41638 6.49371 8.71184 6.39199 10.0971C6.39199 10.1623 6.38778 10.2282 6.38355 10.2943V10.2943C6.37929 10.361 6.375 10.4281 6.375 10.4951C6.375 13.25 7.74838 16 10.5 16C13.2516 16 14.625 13.25 14.625 10.4976C14.6274 9.11165 13.9359 7.74514 13.254 7.74514ZM9.12298 11.1851C9.11014 11.4885 9.19895 11.7874 9.37533 12.0346C9.87519 11.5091 10.2355 10.6608 9.8121 9.8125C10.5064 9.81247 11.175 10.0752 11.6836 10.548C12.1922 11.0207 12.5031 11.6684 12.554 12.361C12.554 12.3937 12.5561 12.4266 12.5582 12.4596C12.5604 12.493 12.5625 12.5265 12.5625 12.5601C12.5625 13.9375 11.8758 15.3125 10.5 15.3125C9.12419 15.3125 8.4375 13.9375 8.4375 12.5613C8.43629 11.8683 8.78206 11.1851 9.12298 11.1851Z" fill="#363636"/>
</svg>
