<svg width="16" height="16" viewBox="0 0 16 16" fill="none" xmlns="http://www.w3.org/2000/svg">
<path d="M0 8C0 3.58172 3.58172 0 8 0V0C12.4183 0 16 3.58172 16 8V8C16 12.4183 12.4183 16 8 16V16C3.58172 16 0 12.4183 0 8V8Z" fill="#363636"/>
<path fill-rule="evenodd" clip-rule="evenodd" d="M7.625 4L6.36458 6.40625L7.625 6.0625L5.5625 9.5L5.90625 6.75L4.875 7.09375L5.21875 4H7.625ZM10.627 7.87257C10.6399 8.17596 10.551 8.47494 10.3747 8.72209C9.87481 8.1966 9.51449 7.3483 9.9379 6.5C9.24362 6.49997 8.57503 6.76271 8.06642 7.23545C7.55782 7.70819 7.24685 8.35592 7.19599 9.04854C7.19599 9.08116 7.19389 9.11408 7.19178 9.14714V9.14715C7.18964 9.18052 7.1875 9.21404 7.1875 9.24757C7.1875 10.625 7.87419 12 9.25 12C10.6258 12 11.3125 10.625 11.3125 9.24879C11.3137 8.55582 10.9679 7.87257 10.627 7.87257ZM8.56149 9.59254C8.55507 9.74423 8.59948 9.89372 8.68767 10.0173C8.93759 9.75455 9.11776 9.3304 8.90605 8.90625C9.25319 8.90624 9.58748 9.03761 9.84179 9.27398C10.0961 9.51035 10.2516 9.83421 10.277 10.1805C10.277 10.1968 10.2781 10.2133 10.2791 10.2298C10.2802 10.2465 10.2813 10.2633 10.2813 10.28C10.2813 10.9687 9.9379 11.6563 9.25 11.6563C8.5621 11.6563 8.21875 10.9687 8.21875 10.2806C8.21815 9.93416 8.39103 9.59254 8.56149 9.59254Z" fill="white"/>
</svg>
