<svg width="16" height="16" viewBox="0 0 16 16" fill="none" xmlns="http://www.w3.org/2000/svg">
<path fill-rule="evenodd" clip-rule="evenodd" d="M7 0H9V1.07089C9.34193 1.1198 9.67588 1.19342 10 1.28988V4H11V1.67363C13.3649 2.79709 15 5.2076 15 8V10H1V8C1 5.2076 2.63505 2.79709 5 1.67363V4H6V1.28988C6.32412 1.19342 6.65807 1.1198 7 1.07089V0ZM0.769863 11C0.276218 11.4546 0 11.9632 0 12.5C0 14.433 3.58172 16 8 16C12.4183 16 16 14.433 16 12.5C16 11.9632 15.7238 11.4546 15.2301 11H0.769863Z" fill="#363636"/>
</svg>
