<svg width="16" height="16" viewBox="0 0 16 16" fill="none" xmlns="http://www.w3.org/2000/svg">
<path d="M0 8C0 3.58172 3.58172 0 8 0V0C12.4183 0 16 3.58172 16 8V8C16 12.4183 12.4183 16 8 16V16C3.58172 16 0 12.4183 0 8V8Z" fill="#363636"/>
<path fill-rule="evenodd" clip-rule="evenodd" d="M7.5 4H8.5V4.53544C8.67096 4.5599 8.83794 4.59671 9 4.64494V6H9.5V4.83682C10.6825 5.39855 11.5 6.6038 11.5 8V9H4.5V8C4.5 6.6038 5.31753 5.39855 6.5 4.83682V6H7V4.64494C7.16206 4.59671 7.32904 4.5599 7.5 4.53544V4ZM4.38493 9.5C4.13811 9.72731 4 9.9816 4 10.25C4 11.2165 5.79086 12 8 12C10.2091 12 12 11.2165 12 10.25C12 9.9816 11.8619 9.72731 11.6151 9.5H4.38493Z" fill="white"/>
</svg>
