<svg width="16" height="16" viewBox="0 0 16 16" fill="none" xmlns="http://www.w3.org/2000/svg">
<path d="M0 8C0 3.58172 3.58172 0 8 0V0C12.4183 0 16 3.58172 16 8V8C16 12.4183 12.4183 16 8 16V16C3.58172 16 0 12.4183 0 8V8Z" fill="#363636"/>
<path fill-rule="evenodd" clip-rule="evenodd" d="M10.0153 8.57481C9.86757 8.7649 9.29103 9.5196 9.26061 10.2985L9.26046 10.4321H6.74965V10.2985V10.1953C6.68298 9.52732 6.25607 8.89823 6.05375 8.6454C5.26324 7.83161 5.0484 6.61797 5.51156 5.5822C5.76773 4.9684 6.25869 4.48239 6.87526 4.23277C7.22037 4.08095 7.59299 4.00177 7.96998 4.00003C9.48738 3.99348 10.7227 5.21817 10.7294 6.73558C10.7301 7.41648 10.4753 8.07279 10.0153 8.57481ZM8.14784 9.83094V7.57921L8.89236 6.83674L8.69003 6.63442L8.00418 7.32027L7.32037 6.63442L7.11804 6.83674L7.86256 7.57921V9.83094H8.14784ZM9.26251 10.7193H6.74776V11.2147H9.26251V10.7193ZM6.74572 11.5467V11.7127C6.74572 11.8713 6.87439 12 7.03305 12H8.97737C9.135 12 9.26265 11.8723 9.26265 11.7147V11.5124H6.74572V11.5467Z" fill="white"/>
</svg>
