<svg width="16" height="16" viewBox="0 0 16 16" fill="none" xmlns="http://www.w3.org/2000/svg">
<g clip-path="url(#clip0_90_811)">
<path fill-rule="evenodd" clip-rule="evenodd" d="M12.0306 9.14962C11.7351 9.52981 10.582 11.0392 10.5212 12.5969L10.5209 12.8642H5.49923V12.5969V12.3905C5.3659 11.0546 4.51208 9.79646 4.10744 9.2908C2.52642 7.66321 2.09675 5.23594 3.02306 3.16441C3.53541 1.9368 4.51732 0.964788 5.75046 0.465536C6.44068 0.161909 7.18592 0.00354561 7.93989 5.23019e-05C10.9747 -0.0130476 13.4453 2.43635 13.4587 5.47116C13.4602 6.83297 12.9505 8.14558 12.0306 9.14962ZM8.29563 11.6619V7.15843L9.78465 5.67348L9.38001 5.26884L8.0083 6.64055L6.64067 5.26884L6.23603 5.67348L7.72505 7.15843V11.6619H8.29563ZM10.525 13.4385H5.49546V14.4295H10.525V13.4385ZM5.49139 15.0935V15.4253C5.49139 15.7427 5.74873 16 6.06603 16H9.95467C10.2699 16 10.5252 15.7447 10.5252 15.4294V15.0248H5.49139V15.0935Z" fill="#363636"/>
</g>
<defs>
<clipPath id="clip0_90_811">
<rect width="16" height="16" fill="white"/>
</clipPath>
</defs>
</svg>
