<svg width="16" height="16" viewBox="0 0 16 16" fill="none" xmlns="http://www.w3.org/2000/svg">
<circle opacity="0.25" cx="8" cy="8" r="7" stroke="#363636" stroke-width="2"/>
<mask id="path-2-inside-1_15_185" fill="white">
<path d="M8 0C9.68943 2.01463e-08 11.3355 0.53484 12.7023 1.52786C14.0691 2.52089 15.0864 3.92112 15.6085 5.52786C16.1305 7.13461 16.1305 8.86539 15.6085 10.4721C15.0864 12.0789 14.0691 13.4791 12.7023 14.4721L11.5267 12.8541C12.5518 12.1093 13.3148 11.0592 13.7063 9.8541C14.0979 8.64904 14.0979 7.35096 13.7063 6.1459C13.3148 4.94084 12.5518 3.89067 11.5267 3.1459C10.5016 2.40113 9.26708 2 8 2V0Z"/>
</mask>
<path d="M8 0C9.68943 2.01463e-08 11.3355 0.53484 12.7023 1.52786C14.0691 2.52089 15.0864 3.92112 15.6085 5.52786C16.1305 7.13461 16.1305 8.86539 15.6085 10.4721C15.0864 12.0789 14.0691 13.4791 12.7023 14.4721L11.5267 12.8541C12.5518 12.1093 13.3148 11.0592 13.7063 9.8541C14.0979 8.64904 14.0979 7.35096 13.7063 6.1459C13.3148 4.94084 12.5518 3.89067 11.5267 3.1459C10.5016 2.40113 9.26708 2 8 2V0Z" fill="#363636" stroke="#363636" stroke-width="4" mask="url(#path-2-inside-1_15_185)"/>
</svg>
