<svg width="16" height="16" viewBox="0 0 16 16" fill="none" xmlns="http://www.w3.org/2000/svg">
<path d="M0 8C0 3.58172 3.58172 0 8 0C12.4183 0 16 3.58172 16 8C16 12.4183 12.4183 16 8 16C3.58172 16 0 12.4183 0 8Z" fill="#363636"/>
<circle opacity="0.25" cx="8" cy="8" r="3.5" stroke="white"/>
<mask id="path-3-inside-1_772_5" fill="white">
<path d="M8 4C8.84472 4 9.66775 4.26742 10.3511 4.76393C11.0345 5.26044 11.5432 5.96056 11.8042 6.76393C12.0653 7.56731 12.0653 8.43269 11.8042 9.23607C11.5432 10.0394 11.0345 10.7396 10.3511 11.2361L9.76336 10.4271C10.2759 10.0547 10.6574 9.52958 10.8532 8.92705C11.0489 8.32452 11.0489 7.67548 10.8532 7.07295C10.6574 6.47042 10.2759 5.94533 9.76336 5.57295C9.25081 5.20056 8.63354 5 8 5V4Z"/>
</mask>
<path d="M8 4C8.84472 4 9.66775 4.26742 10.3511 4.76393C11.0345 5.26044 11.5432 5.96056 11.8042 6.76393C12.0653 7.56731 12.0653 8.43269 11.8042 9.23607C11.5432 10.0394 11.0345 10.7396 10.3511 11.2361L9.76336 10.4271C10.2759 10.0547 10.6574 9.52958 10.8532 8.92705C11.0489 8.32452 11.0489 7.67548 10.8532 7.07295C10.6574 6.47042 10.2759 5.94533 9.76336 5.57295C9.25081 5.20056 8.63354 5 8 5V4Z" fill="white" stroke="white" stroke-width="2" mask="url(#path-3-inside-1_772_5)"/>
</svg>
