<svg width="16" height="16" viewBox="0 0 16 16" fill="none" xmlns="http://www.w3.org/2000/svg">
<path d="M0 8C0 3.58172 3.58172 0 8 0C12.4183 0 16 3.58172 16 8C16 12.4183 12.4183 16 8 16C3.58172 16 0 12.4183 0 8Z" fill="#363636"/>
<path fill-rule="evenodd" clip-rule="evenodd" d="M10 6.5C10 5.39543 9.10457 4.5 8 4.5C7.3457 4.5 6.76479 4.81419 6.39991 5.29993L5.59986 4.69989C6.14719 3.97129 7.01856 3.5 8 3.5C9.65685 3.5 11 4.84315 11 6.5H12V11.5H11H5H4V6.5H5H6H8H10ZM8.23724 8.96171C8.53518 8.86244 8.75 8.58131 8.75 8.25C8.75 7.83579 8.41421 7.5 8 7.5C7.58579 7.5 7.25 7.83579 7.25 8.25C7.25 8.58131 7.46482 8.86244 7.76276 8.96171L7.25 10.5H8.75L8.23724 8.96171Z" fill="white"/>
</svg>
