<svg width="16" height="16" viewBox="0 0 16 16" fill="none" xmlns="http://www.w3.org/2000/svg">
<path fill-rule="evenodd" clip-rule="evenodd" d="M0 8V6.5V6H2C2 4.47833 2.56645 3.08897 3.5 2.03127C3.92895 1.54527 4.43539 1.1293 5 0.802694C5.88252 0.292184 6.90714 0 8 0C11.3137 0 14 2.68629 14 6H16V16H14H2H0V8ZM5 3.35418C4.82462 3.55288 4.66867 3.76915 4.53513 4C4.19479 4.58835 4 5.27143 4 6H5H12C12 3.79086 10.2091 2 8 2C6.80531 2 5.73294 2.52376 5 3.35418ZM8.47447 10.9234C9.07036 10.7249 9.5 10.1626 9.5 9.5C9.5 8.67157 8.82843 8 8 8C7.17157 8 6.5 8.67157 6.5 9.5C6.5 10.1626 6.92964 10.7249 7.52553 10.9234L6.5 14H9.5L8.47447 10.9234Z" fill="#363636"/>
</svg>
