<svg width="16" height="16" viewBox="0 0 16 16" fill="none" xmlns="http://www.w3.org/2000/svg">
<path d="M0 8C0 3.58172 3.58172 0 8 0V0C12.4183 0 16 3.58172 16 8V8C16 12.4183 12.4183 16 8 16V16C3.58172 16 0 12.4183 0 8V8Z" fill="#363636"/>
<path fill-rule="evenodd" clip-rule="evenodd" d="M8 4.5C9.10457 4.5 10 5.39543 10 6.5H6C6 5.39543 6.89543 4.5 8 4.5ZM12 11.5H11H5H4V6.5H5C5 4.84315 6.34315 3.5 8 3.5C9.65685 3.5 11 4.84315 11 6.5H12V11.5ZM8.75 8.25C8.75 8.58131 8.53518 8.86244 8.23724 8.96171L8.75 10.5H7.25L7.76277 8.96171C7.46482 8.86244 7.25 8.58131 7.25 8.25C7.25 7.83579 7.58579 7.5 8 7.5C8.41421 7.5 8.75 7.83579 8.75 8.25Z" fill="white"/>
</svg>
