<svg width="16" height="16" viewBox="0 0 16 16" fill="none" xmlns="http://www.w3.org/2000/svg">
<path fill-rule="evenodd" clip-rule="evenodd" d="M12 6C12 3.79086 10.2091 2 8 2C6.69141 2 5.52958 2.62838 4.79981 3.59986L3.19972 2.39979C4.29438 0.942573 6.03711 0 8 0C11.3137 0 14 2.68629 14 6H16V16H14H2H0V6H2H4H8H12ZM8.47447 10.9234C9.07036 10.7249 9.5 10.1626 9.5 9.5C9.5 8.67157 8.82843 8 8 8C7.17157 8 6.5 8.67157 6.5 9.5C6.5 10.1626 6.92964 10.7249 7.52553 10.9234L6.5 14H9.5L8.47447 10.9234Z" fill="#363636"/>
</svg>
