<svg width="16" height="15" viewBox="0 0 16 15" fill="none" xmlns="http://www.w3.org/2000/svg">
<path d="M11.7366 4.27174H9.97885C9.97885 4.27174 7.81713 4.625 7.47868 2.25V5.74457C6.70351 4.84239 5.54623 4.27174 4.25793 4.27174C1.90515 4.27174 0 6.16848 0 8.51087C0 10.8533 1.90515 12.75 4.25793 12.75H8.51586V11.2772C9.29649 12.1793 10.4483 12.75 11.7421 12.75C14.0948 12.75 16 10.8533 16 8.51087C15.9945 6.16848 14.0894 4.27174 11.7366 4.27174Z" fill="black"/>
<path fill-rule="evenodd" clip-rule="evenodd" d="M2.75419 7.63096L2.89612 8.00596H3.32191L2.61772 6.20161H2.31748L1.61328 8.00596H2.02816L2.16463 7.63096H2.75419ZM2.50377 6.89761C2.50859 6.91452 2.5131 6.93035 2.51946 6.94618L2.65047 7.30487H2.27381L2.40482 6.94618C2.40887 6.92602 2.41592 6.90587 2.42375 6.8835C2.42647 6.87571 2.42929 6.86765 2.43211 6.85922C2.44303 6.82661 2.45395 6.794 2.45941 6.76139H2.46487C2.47033 6.7777 2.47442 6.794 2.47851 6.81031C2.48261 6.82661 2.4867 6.84292 2.49216 6.85922C2.49672 6.87283 2.50033 6.8855 2.50377 6.89761ZM4.73576 6.58748C4.80673 6.60922 4.86132 6.6364 4.91045 6.66357L4.9432 6.28313C4.88861 6.25596 4.81765 6.22879 4.73031 6.20705C4.64296 6.18531 4.5447 6.17444 4.43007 6.17444C4.31543 6.17444 4.19534 6.19618 4.0807 6.23422C3.96606 6.2777 3.86234 6.33748 3.76954 6.41357C3.67128 6.49509 3.60032 6.59292 3.54027 6.70705C3.48022 6.82661 3.45293 6.96248 3.45293 7.11466C3.45293 7.27226 3.48568 7.40813 3.54027 7.52226C3.59486 7.64183 3.67128 7.73966 3.76408 7.81574C3.85688 7.89726 3.96606 7.95705 4.0807 7.99509C4.20079 8.03313 4.31543 8.05487 4.43553 8.05487C4.5447 8.05487 4.6375 8.044 4.71393 8.0277C4.79035 8.0114 4.85586 7.98966 4.90499 7.95705L4.9432 7.56574C4.89407 7.59835 4.83402 7.62009 4.7576 7.64183C4.68663 7.65813 4.59929 7.669 4.50103 7.669C4.41369 7.669 4.33727 7.65813 4.26084 7.63096C4.18442 7.60379 4.12437 7.56574 4.06978 7.51683C4.01519 7.46792 3.97698 7.41357 3.94423 7.34292C3.91147 7.27226 3.8951 7.19618 3.8951 7.11466C3.8951 7.03313 3.91147 6.95705 3.94423 6.8864C3.97698 6.81574 4.01519 6.75596 4.06978 6.70705C4.12437 6.65813 4.18442 6.62009 4.25538 6.59292C4.32635 6.56574 4.40277 6.55487 4.48466 6.55487C4.58292 6.55487 4.6648 6.56574 4.73576 6.58748ZM6.30792 7.29944V8.00596H6.74463V6.21792H6.30792V6.92444H5.61465V6.21792H5.17793V8.00596H5.61465V7.29944H6.30792ZM7.90738 8.00596V6.56574H8.44235V6.21792H6.92478V6.56031H7.47067V8.00596H7.90738ZM8.62795 6.21792V8.00596L9.75248 8.00053V7.64726H9.06466V7.28857H9.56142V6.92444H9.06466V6.57118H9.67606V6.21792H8.62795ZM10.5386 7.30487L11.0244 8.00596H11.4822L11.4821 8.00618H11.8915L12.028 7.63118H12.6176L12.7595 8.00618H13.1907L12.4865 6.20183H12.1863L11.4921 7.98064L10.9371 7.20705C11.0135 7.17444 11.079 7.11466 11.1336 7.03857C11.1882 6.96248 11.2155 6.87009 11.2155 6.76139C11.2155 6.67444 11.1991 6.59835 11.1663 6.53313C11.139 6.46792 11.0954 6.40813 11.0408 6.36466C10.9862 6.31574 10.9261 6.28313 10.8552 6.25596C10.7842 6.22879 10.7132 6.21792 10.6368 6.21792H9.96538V8.00596H10.3857V7.30487H10.5386ZM10.7242 6.60922C10.7733 6.64183 10.7951 6.69618 10.7951 6.76139C10.7951 6.83205 10.7733 6.88096 10.7242 6.91357C10.6805 6.94618 10.6259 6.96248 10.5713 6.96248H10.3857V6.56031H10.5713C10.6259 6.56031 10.675 6.57661 10.7242 6.60922ZM12.3671 6.89783C12.372 6.91473 12.3765 6.93056 12.3828 6.94639L12.5138 7.30509H12.1372L12.2682 6.94639C12.2722 6.92624 12.2793 6.90609 12.2871 6.88372C12.2898 6.87592 12.2927 6.86786 12.2955 6.85944L12.2955 6.85942C12.3064 6.82681 12.3173 6.79421 12.3228 6.76161H12.3282C12.3337 6.77792 12.3378 6.79422 12.3419 6.81053C12.346 6.82683 12.3501 6.84313 12.3555 6.85944C12.3601 6.87305 12.3637 6.88571 12.3671 6.89783ZM13.8131 6.93009V6.57683L14.4463 6.57139V6.21813H13.3763V8.00618H13.8131V7.29422H14.3371V6.93009H13.8131Z" fill="#EFBB16"/>
<path d="M3.20342 10.1071C3.20342 10.2158 3.18158 10.3081 3.14337 10.3897C3.10516 10.4712 3.05057 10.5418 2.98506 10.6016C2.91956 10.6614 2.83767 10.7049 2.75033 10.7321C2.66299 10.7647 2.56473 10.7755 2.46101 10.7755H1.63672V8.60706H2.36821C2.45009 8.60706 2.53198 8.62336 2.6084 8.6451C2.68483 8.67228 2.75579 8.71032 2.81038 8.75923C2.87043 8.80815 2.9141 8.86793 2.95231 8.93858C2.98506 9.00923 3.00144 9.09076 3.00144 9.17771C3.00144 9.21032 2.99598 9.24293 2.99052 9.28097C2.98506 9.31902 2.96869 9.35163 2.95231 9.38424C2.93593 9.41684 2.91956 9.44945 2.89772 9.47663C2.87589 9.5038 2.84859 9.52554 2.8213 9.54184C2.86497 9.55815 2.9141 9.57989 2.95777 9.61793C3.00144 9.65597 3.04511 9.69945 3.07787 9.74837C3.11062 9.79728 3.14337 9.85163 3.16521 9.91684C3.1925 9.98206 3.20342 10.0418 3.20342 10.1071ZM2.52106 9.22119C2.52106 9.13967 2.49922 9.08532 2.45009 9.05271C2.40096 9.0201 2.34637 9.0038 2.28633 9.0038H2.1171V9.44402H2.28633C2.34637 9.44402 2.40096 9.42771 2.45009 9.3951C2.49922 9.35706 2.52106 9.30271 2.52106 9.22119ZM2.69028 10.1071C2.69028 10.0092 2.65753 9.93858 2.59202 9.8951C2.52652 9.84619 2.45009 9.82445 2.36821 9.82445H2.1171V10.3842H2.36821C2.40642 10.3842 2.45009 10.3788 2.48831 10.3679C2.52652 10.3571 2.55927 10.3408 2.59202 10.319C2.61932 10.2973 2.64661 10.2701 2.66299 10.2321C2.67937 10.1995 2.69028 10.156 2.69028 10.1071ZM3.49274 10.781V8.6125H4.7592V9.04184H4.01679V9.47119H4.62273V9.91141H4.01679V10.3462H4.852V10.7755H3.49274V10.781ZM6.15122 9.03641V10.781H5.62171V9.03097H4.96118V8.6125H6.80083V9.03097H6.15122V9.03641ZM8.42212 10.781L8.25289 10.3299H7.53778L7.36855 10.781H6.87179L7.72884 8.59619H8.09458L8.95163 10.781H8.42212ZM7.96357 9.49837C7.95265 9.46576 7.94173 9.43315 7.93082 9.3951L7.89806 9.28097H7.8926L7.85985 9.3951C7.84893 9.43315 7.83802 9.47119 7.82164 9.49837L7.66333 9.93315H8.12188L7.96357 9.49837ZM9.16998 10.781V8.6125H9.6995V10.3299H10.5729V10.781H9.16998ZM10.7913 10.781V8.6125H12.0577V9.04184H11.3153V9.47119H11.9213V9.91141H11.3153V10.3462H12.1505V10.7755H10.7913V10.781ZM14.1867 10.8081L13.3406 9.88424C13.2751 9.80815 13.2041 9.73206 13.1331 9.6451C13.0622 9.55815 12.9967 9.48206 12.9366 9.41141L12.9312 9.41684C12.9366 9.49293 12.9366 9.57445 12.9421 9.65054V10.7918H12.4126V8.62337H12.8384L13.5753 9.43315C13.6299 9.4875 13.6899 9.55815 13.7554 9.63423C13.821 9.71032 13.881 9.78097 13.9301 9.84619L13.9356 9.84076C13.9301 9.71032 13.9247 9.57445 13.9247 9.43858V8.62337H14.4542V10.8136L14.1867 10.8081Z" fill="white"/>
</svg>
