<svg width="16" height="16" viewBox="0 0 16 16" fill="none" xmlns="http://www.w3.org/2000/svg">
<path d="M8 16C12.4183 16 16 12.4183 16 8C16 3.58172 12.4183 0 8 0C3.58172 0 0 3.58172 0 8C0 12.4183 3.58172 16 8 16Z" fill="white"/>
<path d="M8.00037 8.00007L10.9681 6.35474L15.6883 10.2049L8.00053 8.00007" fill="url(#paint0_linear_1999_4693)"/>
<path d="M10.9675 6.35474L15.6877 10.2049L15.2177 9.95843L10.9567 6.48317L10.9675 6.35474Z" fill="#E53121"/>
<path d="M8.00037 8.00007L10.9681 6.35474L10.9571 6.48317L8.27799 7.96812L8.00037 8.00007Z" fill="#F08465"/>
<path d="M15.6881 10.2051L8.00037 8.00021L8.27783 7.96826L15.2181 9.95857L15.6881 10.2051Z" fill="#B82B18"/>
<path d="M8.00037 8.00019L10.9681 6.35486L10.2046 0.311646L8.00053 8.00019" fill="#F5B0AC"/>
<path d="M10.2044 0.312012L8.00037 8.00023L8.17442 7.7809L10.1641 0.840587L10.2044 0.312012Z" fill="#D47785"/>
<path d="M10.9681 6.35486L10.2045 0.311646L10.1642 0.84055L10.8535 6.29591L10.9681 6.35486Z" fill="#D99E9B"/>
<path d="M8.00037 8.00014L10.9681 6.35481L10.8535 6.29553L8.17442 7.78081L8.00037 8.00014Z" fill="#F9D1CD"/>
<path d="M9.64529 10.9682L5.79541 15.6885L6.04159 15.2181L9.51685 10.957L9.64529 10.9682Z" fill="#F9F9FC"/>
<path d="M8.00037 8.00012L9.64537 10.968L9.51693 10.9568L8.03215 8.27775L8.00037 8.00012Z" fill="#F3F2F9"/>
<path d="M5.79541 15.6883L8.00028 8.00012L8.03206 8.27758L6.04175 15.2179L5.79541 15.6883Z" fill="#DCDAEE"/>
<path d="M8.00037 8.00012L9.64537 10.968L15.6883 10.205L8.00037 8.00012Z" fill="#2B2B85"/>
<path d="M15.6883 10.205L8.00037 8.00012L8.21937 8.17417L15.16 10.1638L15.6883 10.205Z" fill="#484293"/>
<path d="M9.64514 10.9682L15.688 10.2051L15.1595 10.1639L9.70409 10.8534L9.64514 10.9682Z" fill="#24236F"/>
<path d="M8.00037 8.00012L9.64537 10.968L9.70432 10.8533L8.21904 8.17417L8.00037 8.00012Z" fill="#8F88C0"/>
<path d="M8.00023 8.00003L5.03198 9.64504L0.312012 5.79517L8.00023 8.00003Z" fill="url(#paint1_linear_1999_4693)"/>
<path d="M5.03198 9.64504L0.312012 5.79517L0.781966 6.04118L5.0435 9.51726L5.03198 9.64504Z" fill="#BBB7DB"/>
<path d="M8.00024 8.00012L5.03198 9.64512L5.04351 9.51734L7.72261 8.03207L8.00024 8.00012Z" fill="#B0AAD4"/>
<path d="M0.312012 5.79517L8.00023 8.00003L7.72244 8.03181L0.78213 6.04101L0.312012 5.79517Z" fill="#D1CCE6"/>
<path d="M8.00024 8.00012L5.03198 9.64513L5.79537 15.6883L8.00024 8.00012" fill="#FFDD00"/>
<path d="M5.79541 15.6883L8.00028 8.00012L7.82574 8.21913L5.83608 15.1593L5.79541 15.6883Z" fill="#DBBB85"/>
<path d="M5.03198 9.64514L5.79537 15.6884L5.83604 15.1593L5.14676 9.70426L5.03198 9.64514Z" fill="#EBC536"/>
<path d="M8.00024 8.00012L5.03198 9.64513L5.14676 9.70441L7.82553 8.21913L8.00024 8.00012Z" fill="#FFE167"/>
<path d="M8.00003 8.00007L6.35437 5.03181L10.2042 0.312012L8.00003 8.00023" fill="#E53121"/>
<path d="M6.35437 5.03181L10.2042 0.312012L9.9584 0.782131L6.48314 5.04367L6.35437 5.03181Z" fill="#EA583C"/>
<path d="M8.00003 8.00024L6.35437 5.03198L6.48281 5.04351L7.96809 7.72262L8.00003 8.00024Z" fill="#D42F1E"/>
<path d="M10.2042 0.312012L8.00021 8.00023L7.96826 7.72244L9.95857 0.782131L10.2042 0.312012Z" fill="#C22C1A"/>
<path d="M8.0004 8.00024L6.35473 5.03198L0.312012 5.79537L8.00023 8.00024" fill="#F3F2F9"/>
<path d="M0.312012 5.79517L8.00023 8.00003L7.78123 7.82549L0.840587 5.83584L0.312012 5.79517Z" fill="#F9F8FB"/>
<path d="M6.35473 5.03198L0.312012 5.79537L0.840587 5.83605L6.29595 5.14708L6.35473 5.03198Z" fill="#DCDAEE"/>
<path d="M8.00035 8.00024L6.35468 5.03198L6.2959 5.14725L7.78118 7.82553L8.00035 8.00024Z" fill="#F9F9FC"/>
<path d="M13.7543 2.44307C12.7796 1.43193 11.5548 0.696589 10.2041 0.311646L10.9681 6.35453L13.7543 2.44291V2.44307Z" fill="url(#paint2_linear_1999_4693)"/>
<path d="M10.2041 0.31181L10.9678 6.3547L11.039 6.07016L10.3213 0.345896C10.2818 0.334369 10.2433 0.322843 10.2044 0.311646L10.2041 0.31181Z" fill="#8F88C0"/>
<path d="M13.6787 2.36646L11.0385 6.07027L10.9677 6.35481L13.7543 2.44352C13.7293 2.41717 13.7042 2.39148 13.6785 2.36646H13.6787Z" fill="#A59FCE"/>
<path d="M13.7543 2.44307C12.7796 1.43193 11.5548 0.696589 10.2041 0.311646L10.3495 0.578403C11.5624 0.959897 12.6626 1.63431 13.5529 2.54204L13.7541 2.44291L13.7543 2.44307Z" fill="url(#paint3_linear_1999_4693)"/>
<path d="M10.9677 6.35486L13.7541 2.44324C14.7282 3.45435 15.4203 4.70311 15.7614 6.06505L10.968 6.35486H10.9677Z" fill="url(#paint4_linear_1999_4693)"/>
<path d="M13.7544 2.4436L10.9677 6.3549L11.1839 6.23518L13.829 2.52248C13.8043 2.49613 13.7796 2.46979 13.7544 2.44377V2.4436Z" fill="#ED6F50"/>
<path d="M15.7344 5.95886L11.1837 6.23484L10.9677 6.35472L15.7614 6.06491C15.7527 6.0295 15.7436 5.9941 15.7344 5.95886V5.95886Z" fill="#A62714"/>
<path d="M15.5168 5.97152C15.1855 4.75027 14.563 3.62756 13.7026 2.69962L13.7537 2.44324C14.7278 3.45437 15.42 4.70311 15.7613 6.06505L15.5166 5.97169L15.5168 5.97152Z" fill="url(#paint5_linear_1999_4693)"/>
<path d="M10.9677 6.35475L15.7615 6.06494C16.0915 7.38325 16.0892 8.80432 15.6878 10.205L10.9677 6.35475Z" fill="url(#paint6_linear_1999_4693)"/>
<path d="M15.762 6.06511L10.9683 6.35492L11.2472 6.4445L15.7875 6.17033C15.7793 6.13509 15.7711 6.09985 15.7622 6.06494L15.762 6.06511Z" fill="#D1CEE8"/>
<path d="M15.6882 10.2049C15.6993 10.1671 15.7096 10.1292 15.7195 10.0916L11.2472 6.44431L10.9683 6.35474L15.6884 10.2049H15.6882Z" fill="#F3F2F9"/>
<path d="M15.5377 9.94446C15.8671 8.67127 15.8605 7.38556 15.5711 6.18465L15.7617 6.06494C16.0917 7.38325 16.0894 8.80366 15.6879 10.205L15.5377 9.94446Z" fill="url(#paint7_linear_1999_4693)"/>
<path d="M2.44327 2.24585C1.4645 3.18938 0.71363 4.39506 0.312012 5.79554L6.35473 5.03215L2.44311 2.24601L2.44327 2.24585Z" fill="url(#paint8_linear_1999_4693)"/>
<path d="M0.312012 5.79517L6.35473 5.03162L6.06986 4.96082L0.346096 5.67876C0.33457 5.71762 0.323044 5.75615 0.312012 5.79517V5.79517Z" fill="#FFCB00"/>
<path d="M2.36572 2.32074L6.06954 4.96082L6.35441 5.03162L2.44361 2.24548C2.41726 2.27051 2.39174 2.29538 2.36572 2.3209V2.32074Z" fill="#FFDD00"/>
<path d="M2.44278 2.24585C1.43196 3.2205 0.696854 4.44513 0.312012 5.79554L0.578275 5.65096C0.959824 4.43816 1.63423 3.33801 2.54191 2.44773L2.44278 2.24585Z" fill="#FFF8C7"/>
<path d="M6.35445 5.03169L2.44299 2.24555C3.45403 1.27152 4.70266 0.579441 6.06448 0.238281L6.35429 5.03169H6.35445Z" fill="url(#paint9_linear_1999_4693)"/>
<path d="M2.4436 2.24555L6.35441 5.03169L6.23502 4.81631L2.52215 2.17079C2.49547 2.19549 2.46946 2.22019 2.4436 2.24555V2.24555ZM5.95888 0.265616L6.23519 4.81631L6.35457 5.03169L6.06476 0.238281L5.95904 0.265451L5.95888 0.265616Z" fill="#E53121"/>
<path d="M5.9721 0.482974C4.7504 0.814013 3.62725 1.43653 2.69905 2.29709L2.44299 2.24555C3.4542 1.27157 4.70292 0.579511 6.06481 0.238281L5.97194 0.483138L5.9721 0.482974Z" fill="url(#paint10_linear_1999_4693)"/>
<path d="M6.35475 5.03174L6.06494 0.238331C7.38358 -0.0918231 8.80398 -0.0896828 10.2046 0.312101L6.35475 5.03174V5.03174Z" fill="url(#paint11_linear_1999_4693)"/>
<path d="M6.06433 0.238249L6.35414 5.03166L6.44405 4.75271L6.16972 0.212891C6.13464 0.221124 6.09924 0.229357 6.06433 0.238084V0.238249Z" fill="#1E398E"/>
<path d="M10.2041 0.311682C10.1666 0.301058 10.1292 0.290629 10.0916 0.280396L6.44428 4.7527L6.35437 5.03148L10.2042 0.311846L10.2041 0.311682Z" fill="#2F2482"/>
<path d="M9.94462 0.462111C8.6711 0.132781 7.38572 0.139367 6.18465 0.428684L6.06494 0.238331C7.38391 -0.0918231 8.80398 -0.0896828 10.2046 0.312101L9.94478 0.461946L9.94462 0.462111Z" fill="url(#paint12_linear_1999_4693)"/>
<path d="M2.24609 13.5568C3.22061 14.5679 4.44518 15.3033 5.79562 15.6884L5.03223 9.64514L2.24609 13.5568Z" fill="#2B2B85"/>
<path d="M5.79537 15.6884L5.03199 9.64514L4.96118 9.93001L5.67879 15.6541C5.71782 15.666 5.75651 15.6772 5.79537 15.6884Z" fill="#24236F"/>
<path d="M2.32151 13.6337L4.9611 9.93001L5.03223 9.64514L2.24609 13.5568L2.32135 13.6337H2.32151Z" fill="#5B549F"/>
<path d="M2.24609 13.557C3.22069 14.568 4.44524 15.3034 5.79562 15.6886L5.65071 15.4218C4.43788 15.0401 3.33769 14.3656 2.44731 13.4579L2.24609 13.557Z" fill="url(#paint13_linear_1999_4693)"/>
<path d="M5.03177 9.64514L2.24564 13.5568C1.2716 12.5457 0.579426 11.2972 0.238037 9.93545L5.03177 9.64531V9.64514Z" fill="url(#paint14_linear_1999_4693)"/>
<path d="M2.24599 13.5566L5.03212 9.64514L4.81641 9.76469L2.1709 13.4779C2.1956 13.5042 2.22079 13.5306 2.24599 13.5569V13.5566Z" fill="#B0AAD4"/>
<path d="M0.265982 10.0405L4.81635 9.76452L5.03206 9.64514L0.238647 9.93495C0.24721 9.97085 0.256431 10.0058 0.265982 10.0407V10.0405Z" fill="#DAD8ED"/>
<path d="M0.482894 10.0289C0.814099 11.2503 1.4366 12.3731 2.29701 13.3011L2.24564 13.5572C1.27163 12.546 0.579459 11.2974 0.238037 9.93555L0.482894 10.0287V10.0289Z" fill="url(#paint15_linear_1999_4693)"/>
<path d="M5.03182 9.64512L0.238084 9.93543C-0.0917407 8.61679 -0.0895991 7.19605 0.311855 5.79541L5.03182 9.64529V9.64512Z" fill="#E53121"/>
<path d="M0.23792 9.93484L5.03166 9.64504L4.75271 9.55579L0.212891 9.83012C0.220795 9.86519 0.229357 9.89993 0.23792 9.93501V9.93484Z" fill="#CA2D0A"/>
<path d="M0.311966 5.79517C0.301427 5.83304 0.290559 5.87058 0.280679 5.90796L4.75299 9.55579L5.03193 9.64521L0.311966 5.79533V5.79517ZM0.46214 6.05534C0.132809 7.32886 0.139397 8.61424 0.428549 9.81563L0.238195 9.93535C-0.102685 8.5731 -0.0772906 7.14493 0.311801 5.79566L0.462304 6.05534H0.46214Z" fill="#ED6F50"/>
<path d="M13.5568 13.7541C14.5677 12.7796 15.303 11.5551 15.6879 10.2047L9.64514 10.9678L13.5568 13.7539V13.7541Z" fill="url(#paint16_linear_1999_4693)"/>
<path d="M15.6879 10.2051L9.64514 10.9683L9.92968 11.0391L15.6535 10.3217C15.665 10.2828 15.6765 10.2439 15.6877 10.2051H15.6879Z" fill="#7B73B3"/>
<path d="M13.6337 13.6788L9.93001 11.0387L9.64514 10.9679L13.5568 13.7547C13.5823 13.7297 13.6078 13.704 13.6337 13.6789V13.6788Z" fill="#D1CEE8"/>
<path d="M13.5568 13.7549C14.5356 12.8114 15.2865 11.6052 15.6879 10.2047L15.4216 10.3496C15.04 11.5625 14.3654 12.6626 13.4575 13.5529L13.5568 13.7551V13.7549Z" fill="#655EA5"/>
<path d="M9.64514 10.9679L13.5568 13.754C12.5456 14.7279 11.297 15.4199 9.93528 15.7613L9.64514 10.9679V10.9679Z" fill="url(#paint17_linear_1999_4693)"/>
<path d="M13.5566 13.7547L9.64514 10.9679L9.76485 11.1836L13.4774 13.8293C13.5041 13.8051 13.5306 13.7799 13.5568 13.7549L13.5566 13.7547ZM10.0407 15.7343L9.76485 11.1838L9.64514 10.9681L9.93495 15.7615C9.97052 15.7526 10.0058 15.7434 10.0407 15.7343Z" fill="#E53121"/>
<path d="M10.0285 15.5166C11.2499 15.1855 12.3728 14.563 13.3008 13.7026L13.5567 13.7548C12.5453 14.7284 11.2968 15.4204 9.93518 15.7621L10.0285 15.5168V15.5166Z" fill="url(#paint18_linear_1999_4693)"/>
<path d="M9.64545 10.9679L9.93559 15.7613C8.61695 16.0911 7.19622 16.089 5.79541 15.6882L9.64528 10.9679H9.64545Z" fill="url(#paint19_linear_1999_4693)"/>
<path d="M9.93477 15.7617L9.64496 10.9683L9.55505 11.2469L9.83004 15.787C9.86462 15.7788 9.8997 15.7699 9.93477 15.7617V15.7617Z" fill="#F5B0AC"/>
<path d="M5.79557 15.6882L5.90854 15.7195L9.55587 11.2467L9.64562 10.9679L5.79541 15.6882H5.79557Z" fill="#FAD9D5"/>
<path d="M6.05549 15.5377C7.32918 15.8671 8.61472 15.8605 9.81562 15.5715L9.9355 15.762C8.57333 16.1026 7.14534 16.0772 5.79614 15.6884L6.05565 15.5379L6.05549 15.5377Z" fill="url(#paint20_linear_1999_4693)"/>
<defs>
<linearGradient id="paint0_linear_1999_4693" x1="11.3982" y1="7.76863" x2="14.4517" y2="8.63078" gradientUnits="userSpaceOnUse">
<stop stop-color="#E53121"/>
<stop offset="1" stop-color="#C22C1A"/>
</linearGradient>
<linearGradient id="paint1_linear_1999_4693" x1="0.339605" y1="7.12124" x2="8.00228" y2="9.28482" gradientUnits="userSpaceOnUse">
<stop stop-color="#DCDAEE"/>
<stop offset="1" stop-color="#8F88C0"/>
</linearGradient>
<linearGradient id="paint2_linear_1999_4693" x1="13.4901" y1="4.11115" x2="9.42653" y2="3.02234" gradientUnits="userSpaceOnUse">
<stop stop-color="#7B73B3"/>
<stop offset="1" stop-color="#C6C2E2"/>
</linearGradient>
<linearGradient id="paint3_linear_1999_4693" x1="13.8267" y1="2.4492" x2="10.1622" y2="0.333519" gradientUnits="userSpaceOnUse">
<stop stop-color="#6C62A8"/>
<stop offset="1" stop-color="#CBCAE6"/>
</linearGradient>
<linearGradient id="paint4_linear_1999_4693" x1="11.944" y1="3.44067" x2="14.1274" y2="7.22232" gradientUnits="userSpaceOnUse">
<stop stop-color="#E53121"/>
<stop offset="1" stop-color="#A62714"/>
</linearGradient>
<linearGradient id="paint5_linear_1999_4693" x1="13.7087" y1="2.4894" x2="15.8245" y2="6.15408" gradientUnits="userSpaceOnUse">
<stop stop-color="#E84D2C"/>
<stop offset="1" stop-color="#811F08"/>
</linearGradient>
<linearGradient id="paint6_linear_1999_4693" x1="13.1156" y1="5.52536" x2="14.9826" y2="10.6548" gradientUnits="userSpaceOnUse">
<stop stop-color="#F3F2F9"/>
<stop offset="1" stop-color="#BBB7DB"/>
</linearGradient>
<linearGradient id="paint7_linear_1999_4693" x1="15.0437" y1="7.97116" x2="16.294" y2="8.32969" gradientUnits="userSpaceOnUse">
<stop stop-color="white"/>
<stop offset="1" stop-color="#BBB7DB"/>
</linearGradient>
<linearGradient id="paint8_linear_1999_4693" x1="1.27175" y1="4.0732" x2="6.33922" y2="5.50402" gradientUnits="userSpaceOnUse">
<stop stop-color="#FFF098"/>
<stop offset="1" stop-color="#FFD530"/>
</linearGradient>
<linearGradient id="paint9_linear_1999_4693" x1="2.7138" y1="1.36259" x2="7.27611" y2="3.02313" gradientUnits="userSpaceOnUse">
<stop stop-color="#F4A286"/>
<stop offset="1" stop-color="#E53121"/>
</linearGradient>
<linearGradient id="paint10_linear_1999_4693" x1="2.3603" y1="2.29432" x2="6.14177" y2="0.111108" gradientUnits="userSpaceOnUse">
<stop stop-color="#F4A286"/>
<stop offset="1" stop-color="#E53121"/>
</linearGradient>
<linearGradient id="paint11_linear_1999_4693" x1="5.90314" y1="2.07596" x2="9.73547" y2="3.15803" gradientUnits="userSpaceOnUse">
<stop stop-color="#4464AC"/>
<stop offset="1" stop-color="#1D3584"/>
</linearGradient>
<linearGradient id="paint12_linear_1999_4693" x1="6.11563" y1="0.230998" x2="10.2553" y2="0.230998" gradientUnits="userSpaceOnUse">
<stop stop-color="#4464AC"/>
<stop offset="0.373" stop-color="#2F4B97"/>
<stop offset="0.728" stop-color="#223B89"/>
<stop offset="1" stop-color="#1D3584"/>
</linearGradient>
<linearGradient id="paint13_linear_1999_4693" x1="2.04802" y1="14.0433" x2="5.98029" y2="15.1709" gradientUnits="userSpaceOnUse">
<stop stop-color="#5B62A2"/>
<stop offset="0.152" stop-color="#4C579A"/>
<stop offset="0.482" stop-color="#31438C"/>
<stop offset="0.776" stop-color="#213783"/>
<stop offset="1" stop-color="#1B3380"/>
</linearGradient>
<linearGradient id="paint14_linear_1999_4693" x1="2.62445" y1="9.67187" x2="2.97389" y2="13.6656" gradientUnits="userSpaceOnUse">
<stop stop-color="white"/>
<stop offset="1" stop-color="#DAD8ED"/>
</linearGradient>
<linearGradient id="paint15_linear_1999_4693" x1="-0.245759" y1="11.3776" x2="2.65228" y2="12.2086" gradientUnits="userSpaceOnUse">
<stop stop-color="white"/>
<stop offset="1" stop-color="#D1CEE8"/>
</linearGradient>
<linearGradient id="paint16_linear_1999_4693" x1="10.0892" y1="10.7103" x2="15.4541" y2="12.2251" gradientUnits="userSpaceOnUse">
<stop stop-color="#D1CEE8"/>
<stop offset="1" stop-color="#7B73B3"/>
</linearGradient>
<linearGradient id="paint17_linear_1999_4693" x1="9.55951" y1="10.9706" x2="12.0259" y2="15.2427" gradientUnits="userSpaceOnUse">
<stop stop-color="#E53121"/>
<stop offset="1" stop-color="#B02916"/>
</linearGradient>
<linearGradient id="paint18_linear_1999_4693" x1="9.8877" y1="15.8717" x2="13.669" y2="13.6885" gradientUnits="userSpaceOnUse">
<stop stop-color="#E53121"/>
<stop offset="1" stop-color="#9D2511"/>
</linearGradient>
<linearGradient id="paint19_linear_1999_4693" x1="7.47611" y1="13.0838" x2="10.178" y2="15.7857" gradientUnits="userSpaceOnUse">
<stop stop-color="#F5B0AC"/>
<stop offset="1" stop-color="#EF8495"/>
</linearGradient>
<linearGradient id="paint20_linear_1999_4693" x1="5.84854" y1="15.7689" x2="9.98809" y2="15.7689" gradientUnits="userSpaceOnUse">
<stop stop-color="#F5B0AC"/>
<stop offset="1" stop-color="#EE788F"/>
</linearGradient>
</defs>
</svg>
