<svg width="16" height="16" viewBox="0 0 16 16" fill="none" xmlns="http://www.w3.org/2000/svg">
<path d="M0 2.03781V13.9622C0 14.533 0.470434 15 1.04541 15H8.22215C13.6478 15 16 11.9852 16 7.98443C16 4.00445 13.6478 1 8.22215 1H1.04541C0.470434 1 0 1.46701 0 2.03781Z" fill="white"/>
<path d="M4.80469 3.92689V12.7379H8.66747C12.1748 12.7379 13.6959 10.7712 13.6959 7.9899C13.6959 5.32793 12.1748 3.2627 8.66747 3.2627H5.47375C5.10263 3.2627 4.80469 3.56366 4.80469 3.92689Z" fill="#CC0066"/>
<path d="M8.22125 14.0496H1.98016C1.42609 14.0496 0.976562 13.6034 0.976562 13.0533V2.95027C0.976562 2.40024 1.42609 1.95398 1.98016 1.95398H8.22125C14.1435 1.95398 15.0269 5.73678 15.0269 7.98882C15.0269 11.8962 12.6067 14.0496 8.22125 14.0496ZM1.98016 2.28608C1.60904 2.28608 1.31109 2.58185 1.31109 2.95027V13.0533C1.31109 13.4217 1.60904 13.7175 1.98016 13.7175H8.22125C12.3924 13.7175 14.6923 11.6834 14.6923 7.98882C14.6923 3.02811 10.6362 2.28608 8.22125 2.28608H1.98016Z" fill="black"/>
<path d="M6.1621 6.80255C6.298 6.80255 6.42345 6.82331 6.54367 6.86482C6.66389 6.90633 6.76321 6.97379 6.85207 7.05681C6.9357 7.14503 7.00365 7.254 7.05593 7.37853C7.10297 7.50826 7.1291 7.65874 7.1291 7.83517C7.1291 7.99084 7.1082 8.13094 7.07161 8.26067C7.02979 8.39039 6.97229 8.50455 6.89389 8.59796C6.81548 8.69136 6.71617 8.76401 6.59594 8.82108C6.47572 8.87297 6.33459 8.90411 6.17255 8.90411H5.25781V6.79736H6.1621V6.80255ZM6.13073 8.52012C6.19869 8.52012 6.26141 8.50974 6.32936 8.48899C6.39209 8.46823 6.44958 8.43191 6.49663 8.38002C6.54367 8.32813 6.58549 8.26586 6.61685 8.18283C6.64821 8.09981 6.66389 8.00641 6.66389 7.88706C6.66389 7.78328 6.65344 7.68469 6.63253 7.60166C6.61162 7.51864 6.57503 7.4408 6.52799 7.38372C6.48095 7.32664 6.41822 7.27475 6.33982 7.24362C6.26141 7.21249 6.16732 7.19692 6.05233 7.19692H5.71779V8.52531H6.13073V8.52012Z" fill="white"/>
<path d="M9.01738 6.80255V7.19173H7.8988V7.64318H8.92852V8.00122H7.8988V8.51493H9.04351V8.90411H7.43359V6.79736H9.01738V6.80255Z" fill="white"/>
<path d="M10.6179 6.80127L11.4124 8.90802H10.9263L10.7642 8.441H9.96973L9.80247 8.90802H9.33203L10.1318 6.80127H10.6179ZM10.644 8.09334L10.3774 7.32017H10.3722L10.0952 8.09334H10.644Z" fill="white"/>
<path d="M12.1683 6.80127V8.51884H13.2033V8.90802H11.7031V6.80127H12.1683Z" fill="white"/>
<path d="M3.05559 8.82533C3.59542 8.82533 4.03305 8.3909 4.03305 7.85499C4.03305 7.31908 3.59542 6.88464 3.05559 6.88464C2.51575 6.88464 2.07812 7.31908 2.07812 7.85499C2.07812 8.3909 2.51575 8.82533 3.05559 8.82533Z" fill="black"/>
<path d="M3.79566 12.738C2.97501 12.738 2.31641 12.079 2.31641 11.2695V10.1227C2.31641 9.71796 2.64571 9.38586 3.05865 9.38586C3.46635 9.38586 3.80088 9.71277 3.80088 10.1227V12.738H3.79566Z" fill="black"/>
</svg>
