<svg width="16" height="16" viewBox="0 0 16 16" fill="none" xmlns="http://www.w3.org/2000/svg">
<g clip-path="url(#clip0_1999_4677)">
<path fill-rule="evenodd" clip-rule="evenodd" d="M2.02784 9.05319C1.8658 8.6047 1.71068 8.2046 1.65538 8.09094C1.55555 7.87361 1.3793 7.65628 1.12434 7.61135C1.1278 7.61135 1.14853 7.6079 1.16236 7.6079C1.63158 7.54224 1.83508 7.19743 1.83508 6.84916C1.83508 6.54928 1.66959 6.08006 0.903942 6.08006H0.106807C0.0515139 6.08006 6.10352e-05 6.12498 6.10352e-05 6.17989V9.07699C6.10352e-05 9.13229 0.0518979 9.17683 0.106807 9.17683H0.327593C0.382886 9.17683 0.427427 9.1319 0.427427 9.07699V7.78376H0.644758C0.958466 7.78376 1.10015 7.9769 1.2069 8.17695C1.33438 8.41502 1.42423 8.74946 1.5448 9.10809C1.56208 9.16684 1.60355 9.18067 1.655 9.18067H1.95834C2.04166 9.17721 2.05549 9.12576 2.02784 9.05319ZM0.844809 7.41476H0.430883V6.45597H0.896646C1.22763 6.45597 1.40004 6.65257 1.40004 6.90445C1.39697 7.22162 1.18655 7.41476 0.844809 7.41476ZM2.84187 6.91828C2.33502 6.91828 1.99328 7.35639 1.99328 8.05293C1.99328 8.80821 2.34846 9.2014 2.97972 9.2014C3.24889 9.2014 3.40401 9.15993 3.55223 9.09466C3.60406 9.07047 3.63171 9.02554 3.61098 8.97063L3.55914 8.82242C3.54186 8.77058 3.50385 8.73602 3.43511 8.75676C3.30072 8.79477 3.17631 8.83624 3.00045 8.83624C2.58653 8.83624 2.44868 8.59817 2.42794 8.16697H3.57642C3.63171 8.16697 3.67625 8.12204 3.67625 8.06713C3.68009 7.21816 3.31109 6.91828 2.84187 6.91828V6.91828ZM2.4314 7.84942C2.47633 7.36983 2.68674 7.25618 2.85569 7.25618C3.14214 7.25618 3.24197 7.55606 3.25234 7.84942H2.4314ZM4.99406 8.78402H4.61123C4.44574 8.78402 4.37317 8.75637 4.37317 8.65999C4.37317 8.60816 4.41118 8.56016 4.45611 8.51869C4.52868 8.53597 4.60432 8.54634 4.68035 8.54634C5.19065 8.54634 5.51857 8.23608 5.51857 7.72885C5.51857 7.57372 5.44946 7.4186 5.35308 7.28728L5.50475 7.27C5.56004 7.26654 5.59805 7.23199 5.59805 7.17324V7.05267C5.59805 6.99392 5.56004 6.94592 5.49822 6.94592H4.96718C4.87042 6.94592 4.7775 6.92173 4.68073 6.92173C4.18732 6.92173 3.85288 7.21164 3.85288 7.72885C3.85288 8.03219 3.98036 8.26335 4.18387 8.39812C4.07367 8.49796 3.98036 8.61891 3.98036 8.78095C3.98036 9.04666 4.21497 9.13958 4.48721 9.13958H4.93569C5.18413 9.13958 5.28051 9.23942 5.28051 9.42948C5.28051 9.63299 5.05972 9.75702 4.77711 9.75702C4.55978 9.75702 4.32172 9.71555 4.2837 9.47057C4.27334 9.41182 4.23878 9.37726 4.18387 9.37381L3.95271 9.36344C3.89742 9.36344 3.85288 9.40491 3.85288 9.4602V9.46366C3.85634 9.96014 4.3221 10.1087 4.76674 10.1087C5.19104 10.1087 5.68406 9.9156 5.68406 9.3811C5.68061 9.00135 5.41144 8.78402 4.99406 8.78402V8.78402ZM4.68381 7.23544C4.90805 7.23544 5.09428 7.31492 5.09428 7.71848C5.09428 8.13241 4.89768 8.22188 4.68381 8.22188C4.46302 8.22188 4.27679 8.14931 4.27679 7.71848C4.27679 7.31147 4.46302 7.23544 4.68381 7.23544V7.23544ZM6.35295 6.16645C6.35295 6.01132 6.22893 5.88 6.06996 5.88C5.91483 5.88 5.78351 6.00403 5.78351 6.163V6.16645C5.78351 6.32849 5.90754 6.45635 6.06996 6.45635C6.22893 6.45597 6.35295 6.32849 6.35295 6.16645ZM6.28076 9.07392V7.04576C6.28076 6.99046 6.22893 6.94592 6.18093 6.94592H5.97397C5.91867 6.94592 5.86722 6.99085 5.86722 7.04576V9.07392C5.86722 9.12921 5.91906 9.17376 5.97397 9.17376H6.18093C6.22893 9.17721 6.28076 9.12921 6.28076 9.07392ZM7.38777 6.91828C6.83599 6.91828 6.48773 7.35294 6.48773 8.05984C6.48773 8.77365 6.83254 9.19795 7.38777 9.19795C7.94645 9.19795 8.2809 8.76328 8.2809 8.05984C8.2809 7.35639 7.93954 6.91828 7.38777 6.91828V6.91828ZM7.84316 8.05984C7.84316 8.61852 7.6673 8.84622 7.3774 8.84622C7.09095 8.84622 6.91509 8.61507 6.91509 8.05984C6.91509 7.51152 7.09095 7.27346 7.3774 7.27346C7.6673 7.27346 7.84316 7.51152 7.84316 8.05984ZM9.85059 7.5288C10.2231 7.4186 10.3816 7.18744 10.3816 6.84225C10.3816 6.38685 10.0714 6.07315 9.5365 6.07315H8.64337C8.58808 6.07315 8.53663 6.11807 8.53663 6.17298V9.07047C8.53663 9.12576 8.58846 9.1703 8.64337 9.1703H9.58488C10.1643 9.1703 10.516 8.85313 10.516 8.29752C10.5126 7.90126 10.2922 7.58025 9.85059 7.5288V7.5288ZM8.96399 6.44215H9.45395C9.78148 6.44215 9.9439 6.60764 9.9439 6.90445C9.9439 7.1909 9.76804 7.37022 9.42323 7.37022H8.96783V6.44253H8.96399V6.44215ZM10.0506 8.25644C10.0506 8.59433 9.86096 8.79439 9.5438 8.79439H8.96438V7.71119H9.45779C9.82986 7.71157 10.0506 7.94273 10.0506 8.25644V8.25644ZM12.3234 9.07392L12.2958 8.93953C12.2681 8.80168 12.2716 8.67727 12.2716 8.56362V7.76341C12.2716 7.39095 12.2128 6.92173 11.4783 6.92173C11.2817 6.92173 11.054 6.97357 10.9196 7.00813C10.8643 7.02195 10.8401 7.06688 10.8539 7.1287L10.8919 7.29765C10.9058 7.35639 10.9507 7.39095 11.0125 7.37022C11.1365 7.33912 11.2748 7.29073 11.4541 7.29073C11.7816 7.29073 11.8542 7.41476 11.8542 7.68393V7.79413L11.3473 7.82523C10.9749 7.85288 10.6573 8.04602 10.6573 8.53904C10.6573 8.95297 10.8816 9.19795 11.2506 9.19795C11.5059 9.19795 11.744 9.10464 11.8853 8.88078L11.9164 9.08429C11.9268 9.14995 11.9682 9.17759 12.0231 9.17759H12.2336C12.2992 9.17375 12.3303 9.13267 12.3234 9.07392V9.07392ZM11.858 8.43575C11.858 8.6047 11.6683 8.86005 11.375 8.86005C11.206 8.86005 11.0851 8.76021 11.0851 8.53597C11.0851 8.19116 11.2886 8.10822 11.5681 8.09785L11.858 8.08749V8.43575ZM14.1377 9.07392V7.49424C14.1377 7.14943 13.9169 6.91828 13.5721 6.91828C13.3271 6.91828 13.134 7.01158 12.9408 7.23544L12.8959 7.02848C12.8821 6.96973 12.851 6.94554 12.7857 6.94554H12.6479C12.5926 6.94554 12.5411 6.98701 12.5411 7.0423V9.07392C12.5411 9.12921 12.593 9.17376 12.6479 9.17376H12.8583C12.9136 9.17376 12.9581 9.12883 12.9581 9.07392V7.82177C12.9581 7.51498 13.1754 7.27691 13.4546 7.27691C13.6443 7.27691 13.7169 7.37367 13.7169 7.58716V9.07354C13.7169 9.12883 13.7687 9.17337 13.8236 9.17337H14.0344C14.0893 9.17375 14.1377 9.12921 14.1377 9.07392V9.07392ZM15.9865 9.05319L15.2313 7.90126L15.8487 7.05958C15.8867 7.00774 15.8625 6.94592 15.7969 6.94592H15.5035C15.4378 6.94592 15.3968 6.97703 15.3691 7.02541L14.8104 7.87745V6.00787C14.8104 5.95258 14.7689 5.90804 14.7137 5.90804H14.5032C14.4479 5.90804 14.4034 5.9495 14.4034 6.0048V9.07776C14.4034 9.13305 14.4483 9.17759 14.5032 9.17759H14.7102C14.7655 9.17759 14.81 9.13267 14.81 9.07776V7.97767L15.4793 9.09158C15.5104 9.14688 15.5519 9.17798 15.6033 9.17798H15.9309C15.9934 9.17376 16.0176 9.10502 15.9865 9.05319V9.05319Z" fill="#CA031A"/>
</g>
<defs>
<clipPath id="clip0_1999_4677">
<rect width="16" height="16" fill="white"/>
</clipPath>
</defs>
</svg>
