<svg width="16" height="16" viewBox="0 0 16 16" fill="none" xmlns="http://www.w3.org/2000/svg">
<path fill-rule="evenodd" clip-rule="evenodd" d="M13.6687 2.32503C12.1648 0.826459 10.1647 0.000760312 8.03362 0C3.64227 0 0.0683761 3.55636 0.0668481 7.92777C0.0660841 9.32522 0.433176 10.6892 1.13031 11.8913L0 16L4.22327 14.8975C5.38681 15.5294 6.69703 15.862 8.03018 15.8624H8.03362C8.034 15.8624 8.03323 15.8624 8.03362 15.8624C12.4242 15.8624 15.9985 12.3056 16 7.93423C16.0008 5.81562 15.173 3.82361 13.6687 2.32503ZM8.03362 14.5235H8.03094C6.84295 14.5231 5.67751 14.2053 4.66065 13.605L4.41885 13.4621L1.91262 14.1163L2.58148 11.6845L2.4241 11.4351C1.76135 10.3859 1.41107 9.17316 1.41183 7.92815C1.41336 4.295 4.38371 1.33891 8.03629 1.33891C9.8049 1.33967 11.4673 2.02585 12.7176 3.27162C13.9678 4.51701 14.6558 6.17297 14.655 7.93347C14.6535 11.567 11.6831 14.5235 8.03362 14.5235ZM11.6656 9.58791C11.4666 9.48869 10.4879 9.00969 10.3053 8.94355C10.1227 8.8774 9.99016 8.84433 9.85761 9.04277C9.72506 9.24121 9.34346 9.68751 9.22733 9.81943C9.11121 9.95172 8.99508 9.96807 8.79607 9.86885C8.59705 9.76963 7.95569 9.56054 7.19515 8.88576C6.60345 8.36039 6.20389 7.71184 6.08776 7.5134C5.97164 7.31496 6.07554 7.20775 6.17486 7.10929C6.26424 7.02034 6.37387 6.87778 6.47357 6.76221C6.57327 6.64665 6.60612 6.56377 6.67259 6.43186C6.73905 6.29956 6.70582 6.184 6.65616 6.08477C6.6065 5.98555 6.20847 5.01045 6.0423 4.61395C5.88072 4.22771 5.71647 4.28017 5.59461 4.27371C5.47849 4.26801 5.34594 4.26687 5.21301 4.26687C5.08046 4.26687 4.86463 4.31629 4.68204 4.51473C4.49945 4.71317 3.98529 5.19255 3.98529 6.16727C3.98529 7.14237 4.69847 8.08439 4.79817 8.21669C4.89787 8.34898 6.20198 10.3497 8.19863 11.2081C8.67345 11.4123 9.04436 11.5343 9.33352 11.6255C9.81025 11.7765 10.2442 11.7552 10.5872 11.7042C10.9696 11.6472 11.7649 11.2249 11.9307 10.7622C12.0965 10.2996 12.0965 9.90268 12.0468 9.82019C11.9971 9.73693 11.8646 9.68713 11.6656 9.58791Z" fill="#363636"/>
</svg>
