<svg width="16" height="16" viewBox="0 0 16 16" fill="none" xmlns="http://www.w3.org/2000/svg">
<path fill-rule="evenodd" clip-rule="evenodd" d="M0.170257 5.39002H1.17908L1.17638 8.04421C1.17638 8.04421 2.12772 7.01918 2.19601 6.94241C2.28628 6.84133 2.41745 6.84211 2.41745 6.84211H3.64925L2.31483 8.20122L3.74609 10.475C3.74609 10.475 2.68904 10.4727 2.54668 10.475C2.40433 10.4773 2.30788 10.3234 2.30788 10.3234L1.5043 9.06113L1.17908 9.37709V10.4735C1.17908 10.4735 0.326114 10.4777 0.157912 10.4735C-0.0102896 10.4696 0.000126503 10.2563 0.000126503 10.2563V5.59217C0.000126503 5.38732 0.170257 5.39002 0.170257 5.39002ZM5.02226 6.85715V7.38953C5.44855 6.72598 6.12676 6.78077 6.12637 6.78077C7.49706 6.7881 7.40602 8.18039 7.40602 8.18039V10.4866H6.44889C6.24481 10.4866 6.2286 10.2729 6.2286 10.2729V8.47204C6.2286 8.47204 6.29419 7.74291 5.64183 7.76104C4.98947 7.77917 5.02226 8.59202 5.02226 8.59202V10.4862H4.03079C3.84485 10.4862 3.84485 10.269 3.84485 10.269V7.05043C3.84485 6.83902 4.03427 6.85715 4.03427 6.85715H5.02226ZM8.13939 7.04657C8.13939 7.04657 8.78751 6.73679 9.73615 6.78964C11.3626 6.8803 11.2453 8.34203 11.2453 8.34203V10.4642L10.2273 10.4669C10.2273 10.4669 10.1188 10.4284 10.1161 10.352C10.1131 10.2756 10.0996 10.0896 10.0996 10.0896C9.62659 10.6745 8.8392 10.5433 8.8392 10.5433C8.8392 10.5433 7.7293 10.4229 7.7374 9.38944C7.74589 8.35631 9.02245 8.30153 9.02245 8.30153L10.0641 8.26603C10.0641 7.99791 10.0147 7.92423 10.0147 7.92423C10.0147 7.92423 9.90242 7.60982 9.35036 7.58783C8.79831 7.56622 8.21037 7.92423 8.21037 7.92423C8.21037 7.92423 8.05799 7.61792 7.96424 7.29C7.91139 7.10405 8.13939 7.04657 8.13939 7.04657ZM9.44102 9.80801C9.44102 9.80801 9.82912 9.8327 10.0753 9.4936V8.89486L9.44372 8.93305C9.44372 8.93305 8.95416 8.91646 8.91867 9.34854C8.88318 9.78062 9.44102 9.80801 9.44102 9.80801ZM13.9346 6.77691C14.609 6.80623 15.4801 7.27997 15.5603 8.44658C15.6406 9.6128 15.0241 10.0904 15.0241 10.0904C15.0241 10.0904 13.9558 11.1093 12.8151 10.1706V10.4731H11.8784C11.8784 10.4731 11.7218 10.4696 11.6963 10.269C11.6709 10.0688 11.6963 5.62149 11.6963 5.62149C11.6963 5.62149 11.689 5.39889 11.9151 5.40082C12.1411 5.40275 12.8664 5.40082 12.8664 5.40082L12.8637 7.13684C12.8637 7.13684 13.2603 6.74759 13.9346 6.77691ZM12.7684 8.63986C12.7684 9.17108 13.1403 9.602 13.5994 9.602C14.0581 9.602 14.4304 9.17108 14.4304 8.63986C14.4304 8.10863 14.0585 7.67771 13.5994 7.67771C13.1407 7.67771 12.7684 8.10863 12.7684 8.63986ZM15.8284 10.2262C15.8284 10.3226 15.7482 10.3327 15.7482 10.3327L15.8443 10.4739H15.7586L15.6876 10.3327H15.6502V10.4739H15.5754V10.124H15.722C15.722 10.124 15.8284 10.1298 15.8284 10.2262ZM15.6491 10.2837H15.7146C15.7146 10.2837 15.7544 10.274 15.7551 10.2351C15.7559 10.1961 15.7135 10.1865 15.7135 10.1865H15.6491V10.2837ZM15.3943 10.2983C15.3943 10.1313 15.5297 9.9955 15.6972 9.9955C15.8646 9.9955 16 10.1313 16 10.2983C16 10.4654 15.8642 10.6012 15.6972 10.6012C15.5301 10.6012 15.3943 10.4654 15.3943 10.2983ZM15.5145 10.4817C15.5629 10.5301 15.6284 10.5572 15.6968 10.5572C15.7651 10.5572 15.8307 10.5301 15.879 10.4817C15.9273 10.4334 15.9545 10.3678 15.9545 10.2995C15.9545 10.2312 15.9273 10.1656 15.879 10.1173C15.8307 10.0689 15.7651 10.0418 15.6968 10.0418C15.6284 10.0418 15.5629 10.0689 15.5145 10.1173C15.4662 10.1656 15.4391 10.2312 15.4391 10.2995C15.4391 10.3678 15.4662 10.4334 15.5145 10.4817Z" fill="#3E4A59"/>
</svg>
