<svg width="16" height="15" viewBox="0 0 16 15" fill="none" xmlns="http://www.w3.org/2000/svg">
<path d="M11.7367 4.27174H9.97891C9.97891 4.27174 7.81719 4.625 7.47874 2.25V5.74457C6.70358 4.84239 5.54629 4.27174 4.25799 4.27174C1.90521 4.27174 6.10352e-05 6.16848 6.10352e-05 8.51087C6.10352e-05 10.8533 1.90521 12.75 4.25799 12.75H8.51593V11.2772C9.29655 12.1793 10.4484 12.75 11.7421 12.75C14.0949 12.75 16.0001 10.8533 16.0001 8.51087C15.9946 6.16848 14.0894 4.27174 11.7367 4.27174Z" fill="black"/>
<path fill-rule="evenodd" clip-rule="evenodd" d="M2.75425 7.63096L2.89618 8.00596H3.32197L2.61778 6.20161H2.31754L1.61334 8.00596H2.02822L2.16469 7.63096H2.75425ZM2.50384 6.89761C2.50865 6.91452 2.51316 6.93035 2.51952 6.94618L2.65053 7.30487H2.27387L2.40488 6.94618C2.40893 6.92602 2.41598 6.90587 2.42381 6.8835C2.42653 6.87571 2.42935 6.86765 2.43218 6.85922C2.44309 6.82661 2.45401 6.794 2.45947 6.76139H2.46493C2.47039 6.7777 2.47448 6.794 2.47858 6.81031C2.48267 6.82661 2.48676 6.84292 2.49222 6.85922C2.49678 6.87283 2.50039 6.8855 2.50384 6.89761ZM4.73583 6.58748C4.80679 6.60922 4.86138 6.6364 4.91051 6.66357L4.94326 6.28313C4.88867 6.25596 4.81771 6.22879 4.73037 6.20705C4.64302 6.18531 4.54476 6.17444 4.43013 6.17444C4.31549 6.17444 4.1954 6.19618 4.08076 6.23422C3.96612 6.2777 3.8624 6.33748 3.7696 6.41357C3.67134 6.49509 3.60038 6.59292 3.54033 6.70705C3.48028 6.82661 3.45299 6.96248 3.45299 7.11466C3.45299 7.27226 3.48574 7.40813 3.54033 7.52226C3.59492 7.64183 3.67134 7.73966 3.76414 7.81574C3.85694 7.89726 3.96612 7.95705 4.08076 7.99509C4.20085 8.03313 4.31549 8.05487 4.43559 8.05487C4.54476 8.05487 4.63757 8.044 4.71399 8.0277C4.79041 8.0114 4.85592 7.98966 4.90505 7.95705L4.94326 7.56574C4.89413 7.59835 4.83409 7.62009 4.75766 7.64183C4.6867 7.65813 4.59935 7.669 4.50109 7.669C4.41375 7.669 4.33733 7.65813 4.2609 7.63096C4.18448 7.60379 4.12443 7.56574 4.06984 7.51683C4.01525 7.46792 3.97704 7.41357 3.94429 7.34292C3.91153 7.27226 3.89516 7.19618 3.89516 7.11466C3.89516 7.03313 3.91153 6.95705 3.94429 6.8864C3.97704 6.81574 4.01525 6.75596 4.06984 6.70705C4.12443 6.65813 4.18448 6.62009 4.25544 6.59292C4.32641 6.56574 4.40283 6.55487 4.48472 6.55487C4.58298 6.55487 4.66486 6.56574 4.73583 6.58748ZM6.30798 7.29944V8.00596H6.7447V6.21792H6.30798V6.92444H5.61471V6.21792H5.178V8.00596H5.61471V7.29944H6.30798ZM7.90744 8.00596V6.56574H8.44241V6.21792H6.92484V6.56031H7.47073V8.00596H7.90744ZM8.62801 6.21792V8.00596L9.75254 8.00053V7.64726H9.06472V7.28857H9.56148V6.92444H9.06472V6.57118H9.67612V6.21792H8.62801ZM10.5386 7.30487L11.0245 8.00596H11.4823L11.4822 8.00618H11.8916L12.0281 7.63118H12.6176L12.7595 8.00618H13.1908L12.4866 6.20183H12.1864L11.4921 7.98064L10.9371 7.20705C11.0135 7.17444 11.0791 7.11466 11.1336 7.03857C11.1882 6.96248 11.2155 6.87009 11.2155 6.76139C11.2155 6.67444 11.1991 6.59835 11.1664 6.53313C11.1391 6.46792 11.0954 6.40813 11.0408 6.36466C10.9862 6.31574 10.9262 6.28313 10.8552 6.25596C10.7843 6.22879 10.7133 6.21792 10.6369 6.21792H9.96544V8.00596H10.3858V7.30487H10.5386ZM10.7242 6.60922C10.7734 6.64183 10.7952 6.69618 10.7952 6.76139C10.7952 6.83205 10.7734 6.88096 10.7242 6.91357C10.6806 6.94618 10.626 6.96248 10.5714 6.96248H10.3858V6.56031H10.5714C10.626 6.56031 10.6751 6.57661 10.7242 6.60922ZM12.3672 6.89783C12.372 6.91473 12.3765 6.93056 12.3829 6.94639L12.5139 7.30509H12.1372L12.2683 6.94639C12.2723 6.92624 12.2794 6.90609 12.2872 6.88372C12.2899 6.87592 12.2927 6.86786 12.2955 6.85944L12.2956 6.85942C12.3065 6.82681 12.3174 6.79421 12.3228 6.76161H12.3283C12.3338 6.77792 12.3379 6.79422 12.3419 6.81053C12.346 6.82683 12.3501 6.84313 12.3556 6.85944C12.3601 6.87305 12.3638 6.88571 12.3672 6.89783ZM13.8131 6.93009V6.57683L14.4463 6.57139V6.21813H13.3764V8.00618H13.8131V7.29422H14.3372V6.93009H13.8131Z" fill="#EFBB16"/>
<path d="M3.20348 10.1071C3.20348 10.2158 3.18164 10.3081 3.14343 10.3897C3.10522 10.4712 3.05063 10.5418 2.98512 10.6016C2.91962 10.6614 2.83774 10.7049 2.75039 10.7321C2.66305 10.7647 2.56479 10.7755 2.46107 10.7755H1.63678V8.60706H2.36827C2.45015 8.60706 2.53204 8.62336 2.60846 8.6451C2.68489 8.67228 2.75585 8.71032 2.81044 8.75923C2.87049 8.80815 2.91416 8.86793 2.95237 8.93858C2.98512 9.00923 3.0015 9.09076 3.0015 9.17771C3.0015 9.21032 2.99604 9.24293 2.99058 9.28097C2.98512 9.31902 2.96875 9.35163 2.95237 9.38424C2.93599 9.41684 2.91962 9.44945 2.89778 9.47663C2.87595 9.5038 2.84865 9.52554 2.82136 9.54184C2.86503 9.55815 2.91416 9.57989 2.95783 9.61793C3.0015 9.65597 3.04517 9.69945 3.07793 9.74837C3.11068 9.79728 3.14343 9.85163 3.16527 9.91684C3.19256 9.98206 3.20348 10.0418 3.20348 10.1071ZM2.52112 9.22119C2.52112 9.13967 2.49928 9.08532 2.45015 9.05271C2.40102 9.0201 2.34644 9.0038 2.28639 9.0038H2.11716V9.44402H2.28639C2.34644 9.44402 2.40102 9.42771 2.45015 9.3951C2.49928 9.35706 2.52112 9.30271 2.52112 9.22119ZM2.69034 10.1071C2.69034 10.0092 2.65759 9.93858 2.59209 9.8951C2.52658 9.84619 2.45015 9.82445 2.36827 9.82445H2.11716V10.3842H2.36827C2.40648 10.3842 2.45015 10.3788 2.48837 10.3679C2.52658 10.3571 2.55933 10.3408 2.59209 10.319C2.61938 10.2973 2.64667 10.2701 2.66305 10.2321C2.67943 10.1995 2.69034 10.156 2.69034 10.1071ZM3.4928 10.781V8.6125H4.75926V9.04184H4.01685V9.47119H4.62279V9.91141H4.01685V10.3462H4.85206V10.7755H3.4928V10.781ZM6.15128 9.03641V10.781H5.62177V9.03097H4.96124V8.6125H6.80089V9.03097H6.15128V9.03641ZM8.42218 10.781L8.25295 10.3299H7.53784L7.36861 10.781H6.87185L7.7289 8.59619H8.09464L8.95169 10.781H8.42218ZM7.96363 9.49837C7.95271 9.46576 7.94179 9.43315 7.93088 9.3951L7.89812 9.28097H7.89266L7.85991 9.3951C7.84899 9.43315 7.83808 9.47119 7.8217 9.49837L7.66339 9.93315H8.12194L7.96363 9.49837ZM9.17004 10.781V8.6125H9.69956V10.3299H10.573V10.781H9.17004ZM10.7913 10.781V8.6125H12.0578V9.04184H11.3154V9.47119H11.9213V9.91141H11.3154V10.3462H12.1506V10.7755H10.7913V10.781ZM14.1868 10.8081L13.3406 9.88424C13.2751 9.80815 13.2042 9.73206 13.1332 9.6451C13.0622 9.55815 12.9967 9.48206 12.9367 9.41141L12.9312 9.41684C12.9367 9.49293 12.9367 9.57445 12.9421 9.65054V10.7918H12.4126V8.62337H12.8384L13.5754 9.43315C13.63 9.4875 13.69 9.55815 13.7555 9.63423C13.821 9.71032 13.8811 9.78097 13.9302 9.84619L13.9357 9.84076C13.9302 9.71032 13.9247 9.57445 13.9247 9.43858V8.62337H14.4542V10.8136L14.1868 10.8081Z" fill="white"/>
</svg>
