<svg width="16" height="16" viewBox="0 0 16 16" fill="none" xmlns="http://www.w3.org/2000/svg">
<g clip-path="url(#clip0_1999_4678)">
<path d="M15.9992 8.32274C16.0261 6.06913 15.0569 3.87962 13.7645 2.57897C12.9528 1.76394 12.2075 1.26291 11.1187 0.760264L11.0006 0.996782C11.5192 1.29943 11.9474 1.63453 12.4709 2.10837C13.8838 3.50882 14.8147 5.88373 14.8232 7.85417C14.8147 8.13044 14.8147 8.51991 14.7646 8.84892C14.4797 8.01847 13.9957 7.31419 13.353 6.68172C13.1763 6.47888 12.9162 6.21842 12.7062 6.09469C12.6923 6.53405 12.5063 7.4996 12.2946 8.03024C12.5621 8.27852 12.7106 8.44567 13.0001 8.67326C13.5675 9.30005 13.9579 10.0782 13.9412 10.7248C13.9579 11.1001 13.7914 11.4892 13.4706 11.7796C13.1946 12.0827 12.5804 12.3046 11.9417 12.307C11.2404 12.3042 10.1593 11.9147 9.58938 11.4851C10.7364 10.3561 11.4264 9.11262 11.8831 7.55801C12.0398 6.88538 12.1334 6.2168 12.118 5.56526C12.1334 4.34129 11.8351 3.19116 11.2945 2.28404C10.4755 0.836128 9.2096 0.0202845 7.53092 0C5.57708 0.0182561 3.73354 0.9838 2.35608 2.40169C0.773463 3.97171 -0.00929602 5.92146 0.00372962 7.91137C-0.00880752 8.28411 0.010803 8.65722 0.062345 9.02661H0.297621C0.30739 8.40996 0.38188 7.85295 0.532896 7.15111C0.865864 5.92308 1.72271 4.54982 2.82622 3.45932C3.58537 2.69297 4.44222 2.13596 5.23759 1.8179C4.66487 2.48769 4.2741 3.24958 4.00219 4.10234C3.95783 4.36117 3.88456 4.7336 3.88456 4.98066C4.25579 4.77011 5.18712 4.43663 5.76635 4.33724C5.9133 3.49056 6.22998 2.54246 6.88371 1.93312C7.17923 1.5968 7.55127 1.39274 8.00107 1.40572C8.72521 1.39152 9.28368 1.9108 9.64759 2.51772C9.99073 3.11773 10.2146 4.21188 10.1181 4.97945C9.37764 4.73951 8.60302 4.62072 7.8244 4.62771C7.10514 4.62081 6.35902 4.73238 5.53108 4.97945C4.25579 5.30724 3.06394 5.97582 2.17901 6.85617C1.29408 7.73652 0.587441 9.00227 0.591919 10.3147C0.587441 11.6567 1.27617 12.7894 2.17942 13.7156C3.71522 15.2394 5.89458 16.0195 8.06049 16C9.77011 16.0195 11.3145 15.4248 12.7062 14.4178L12.5885 14.2405C11.4873 14.8328 10.2528 15.1353 9.0016 15.1197C7.17964 15.1266 5.22375 14.57 3.88496 13.5375C4.25619 13.5854 4.61033 13.6227 4.9433 13.5951C5.59458 13.6227 6.73432 13.4555 7.29605 13.1277C6.95576 12.8989 6.21085 12.2494 5.82578 11.7792C5.26161 12.0084 4.57247 12.1748 3.94358 12.1886C3.38103 12.1748 2.74644 12.045 2.35608 11.6019C2.09289 11.3379 1.94498 10.981 1.94455 10.6088C1.94455 9.838 2.3744 9.18889 2.88525 8.67326C3.26869 8.26026 3.7714 7.90691 4.17885 7.7353C4.59038 9.30005 5.3186 10.5613 6.47218 11.7212C7.86877 13.086 9.71271 13.8661 11.3535 13.8912C12.5621 13.8844 13.6049 13.531 14.4703 12.6588C15.4114 11.7127 16.0261 10.0425 15.9992 8.32274ZM9.88327 7.03224C9.48843 8.24201 8.76307 9.33656 7.88383 10.1966C7.03147 9.28017 6.45305 8.09353 6.1787 6.91702C6.67886 6.79521 7.19232 6.73606 7.70717 6.74095C8.4421 6.74611 9.17337 6.84468 9.88327 7.03427V7.03224Z" fill="#0573BA"/>
</g>
<defs>
<clipPath id="clip0_1999_4678">
<rect width="16" height="16" fill="white"/>
</clipPath>
</defs>
</svg>
