<svg width="16" height="16" viewBox="0 0 16 16" fill="none" xmlns="http://www.w3.org/2000/svg">
<path d="M0.973732 6.10766C0.688065 5.63625 0.500061 5.08086 0.500061 4.4991C0.500061 1.85562 2.7561 0 5.37554 0C8.82552 0 10.0435 3.00535 10.0435 6.71214C10.0435 6.74338 7.64257 8.61117 7.64257 11.8587C7.64257 14.376 8.82268 15.1789 10.0101 15.6316L10.0793 15.8832C10.0793 15.8832 3.59724 17.1647 3.59724 11.2112C3.59724 9.06514 4.83757 8.01602 4.83757 6.11618C4.83757 5.50764 4.27153 4.65123 3.03933 4.65123C1.86695 4.65123 1.22115 5.46545 1.22115 6.1036L0.973732 6.10766V6.10766ZM14.9828 12.8579C14.9828 12.8579 14.9165 11.7565 14.2386 11.7565C13.631 11.7565 13.2961 12.3009 13.2961 12.3009C13.2961 12.3009 13.9981 12.8555 13.9981 13.7172C13.9981 14.6077 12.1721 15.4823 11.3888 15.6304C11.205 15.1924 11.1082 14.723 11.1039 14.2482C11.1039 12.2936 12.4265 10.4717 14.5629 10.4717C16.1455 10.4717 15.2449 12.9135 15.2449 12.9135L14.9808 12.8579H14.9828ZM12.4639 7.13933C12.4635 7.23225 12.4355 7.32298 12.3834 7.40004C12.3313 7.47711 12.2575 7.53706 12.1713 7.57232C12.085 7.60759 11.9902 7.61658 11.8989 7.59818C11.8075 7.57978 11.7237 7.5348 11.6579 7.46892C11.5922 7.40304 11.5475 7.31922 11.5295 7.22804C11.5115 7.13686 11.521 7.04241 11.5569 6.95662C11.5927 6.87083 11.6532 6.79754 11.7308 6.74601C11.8083 6.69448 11.8995 6.66703 11.9927 6.66711C12.0547 6.66721 12.1162 6.67952 12.1735 6.70332C12.2307 6.72712 12.2828 6.76194 12.3265 6.8058C12.3703 6.84966 12.405 6.9017 12.4285 6.95893C12.4521 7.01616 12.4641 7.07746 12.4639 7.13933V7.13933ZM14.5735 4.79566C14.5735 4.79566 14.9869 3.36439 14.1531 1.92703L13.898 2.02155C13.9854 3.28487 13.5724 4.1928 13.5724 4.18712C13.198 4.05284 12.4277 4.10599 12.4277 4.10599C12.4277 4.10599 11.9642 3.23416 11.9715 2.01668L11.72 1.93027C11.3371 2.58424 11.0803 3.5579 11.1931 4.27191C11.4079 5.59162 11.5764 5.22894 13.1004 6.38921C14.7541 7.6505 14.0436 9.05094 14.0436 9.05094L14.4367 9.13208C14.4367 9.13208 15.2506 7.65415 15.2506 6.56771C15.2477 5.91478 15.0065 5.28521 14.5722 4.79647" fill="#D11317"/>
</svg>
