<svg width="16" height="16" viewBox="0 0 16 16" fill="none" xmlns="http://www.w3.org/2000/svg">
<path d="M13.0123 10.1899C13.2581 10.4299 13.4629 10.7083 13.6185 11.014C14.0846 11.9553 13.9134 12.9966 12.9849 13.9033C11.9204 14.9429 10.1084 15.5828 8.00466 15.5828C5.90095 15.5828 4.08809 14.9429 3.02357 13.9033C2.09467 12.9966 1.92351 11.9553 2.3896 11.0124C2.5449 10.7068 2.74878 10.4283 2.99334 10.1875C2.69596 10.4722 2.46231 10.7269 2.24826 11.1515C1.79239 12.0582 1.93904 13.3533 2.89939 14.2917C3.99046 15.3587 5.69753 16.0001 8.02141 16.0001C10.3518 16.0001 12.0589 15.3383 13.1046 14.2917C14.1287 13.2651 14.1695 11.9284 13.7492 11.1226C13.5634 10.7692 13.3135 10.453 13.0123 10.1899Z" fill="url(#paint0_linear_1999_4676)"/>
<path d="M11.3055 9.09517C10.319 8.68841 9.17078 8.47852 8.00496 8.47852C6.83913 8.47852 5.69088 8.688 4.70479 9.09517C3.62557 9.54261 2.79062 10.202 2.39071 11.011C1.92463 11.9539 2.09578 12.9952 3.02427 13.9019C4.08879 14.9416 5.90084 15.5814 8.00537 15.5814C10.1099 15.5814 11.9211 14.9416 12.986 13.9019C13.9149 12.9944 14.0861 11.9539 13.62 11.011C13.2197 10.202 12.3843 9.54098 11.3055 9.09517Z" fill="#ED730C"/>
<path d="M8.20123 9.55106C8.0072 9.15447 8.04682 8.79571 8.08645 8.48047H8.00475C6.83893 8.48047 5.69067 8.68995 4.70458 9.09712C3.62536 9.54456 2.79041 10.2039 2.39009 11.0126C1.92483 11.9554 2.09598 12.9963 3.02488 13.9034C3.08983 13.9669 3.15805 14.0291 3.22913 14.0897C7.14815 13.8619 9.19549 11.578 8.20123 9.55106Z" fill="url(#paint1_linear_1999_4676)"/>
<path fill-rule="evenodd" clip-rule="evenodd" d="M5.48356 9.62009C6.20282 9.80359 6.91185 10.0248 7.6077 10.2827C7.74699 9.86577 7.89364 9.45128 8.06439 9.04492C8.2335 9.45169 8.38178 9.86496 8.52148 10.2819C9.21337 10.0268 9.91847 9.8087 10.6338 9.62863C10.1356 9.94314 9.65504 10.2845 9.19426 10.6512C10.1571 10.7733 11.0578 10.9319 12.0063 11.1365C11.061 11.1158 10.171 11.1491 9.22857 11.2097C9.894 11.7711 10.4642 12.3145 11.0827 12.9259C10.2347 12.4438 9.43854 12.0387 8.55498 11.6242C8.38396 12.3599 8.22056 13.0975 8.06479 13.837C7.90875 13.0983 7.76537 12.395 7.59422 11.6596C6.71066 12.0753 5.90676 12.4711 5.03096 12.9336C5.64982 12.3234 6.2364 11.7922 6.90224 11.2309C5.95822 11.1703 5.05343 11.1577 4.08694 11.1438C5.03464 10.9404 5.9717 10.7806 6.9341 10.6586C6.46966 10.2867 5.98544 9.94007 5.48356 9.62009ZM8.06602 10.9067V9.27962C7.90262 9.73154 7.75434 10.19 7.61668 10.6508C7.76673 10.7338 7.91651 10.8184 8.06602 10.9046V10.9067ZM5.90839 9.79906C6.49171 10.0553 7.05992 10.3433 7.61627 10.6533C7.47821 10.6671 7.33973 10.6817 7.20166 10.6972C6.78255 10.3787 6.35282 10.0769 5.90839 9.79703V9.79906ZM8.06602 10.9067C9.19018 10.9091 10.3119 10.9655 11.4311 11.0759C10.4508 10.8994 9.49613 10.7643 8.51209 10.6504C8.36258 10.7329 8.21389 10.8176 8.06602 10.9046V10.9067ZM10.2224 9.79866C9.63829 10.0545 9.06926 10.3417 8.51209 10.6504C8.48921 10.5744 8.46675 10.4983 8.44346 10.4226C9.02637 10.1896 9.62031 9.97844 10.2224 9.79662V9.79866ZM8.00515 10.9051C8.02885 11.6897 8.05785 12.5223 8.06479 13.2822C8.21144 12.5793 8.36381 11.878 8.52638 11.1784C8.37484 11.0844 8.16161 10.9949 8.00515 10.9051ZM10.5415 12.5232C9.88583 12.0517 9.21509 11.6014 8.52638 11.1784C8.66731 11.1674 8.80824 11.1568 8.94917 11.1475C9.49777 11.5876 10.0272 12.0481 10.5431 12.5232H10.5415ZM8.06439 10.9046C6.93288 10.9205 6.04973 10.9714 4.94681 11.0674C5.89899 11.0706 6.63917 11.106 7.60647 11.1825C7.75925 11.0878 7.91243 10.9952 8.06602 10.9046H8.06439ZM5.58895 12.524C6.24539 12.0529 6.91654 11.6031 7.60647 11.1817L7.66652 11.444C6.9631 11.7808 6.27113 12.1408 5.59059 12.524H5.58895Z" fill="white"/>
<path d="M8.06428 9.07022C8.23339 9.47699 8.38168 9.89027 8.52138 10.3072C9.18985 10.0611 9.87061 9.84942 10.561 9.67305L10.6337 9.62668C9.91837 9.80675 9.21326 10.0248 8.52138 10.2799C8.38168 9.86301 8.23544 9.44892 8.06428 9.04297C7.89517 9.44974 7.74689 9.86382 7.60759 10.2808C6.91175 10.0228 6.20272 9.80164 5.48346 9.61814L5.55617 9.66451C6.25098 9.84409 6.9361 10.059 7.60882 10.3084C7.74689 9.89108 7.89517 9.47658 8.06428 9.07022Z" fill="#C41D1D"/>
<path fill-rule="evenodd" clip-rule="evenodd" d="M6.90399 11.2285C6.25041 11.7825 5.64503 12.3292 5.03516 12.9312L5.13115 12.8751C5.72959 12.2865 6.26021 11.8098 6.90277 11.2684L6.90399 11.2285Z" fill="#C7431C"/>
<path fill-rule="evenodd" clip-rule="evenodd" d="M8.06755 10.9043V10.9316V10.9043ZM8.04426 10.9181L8.02139 10.932C7.88331 11.0133 7.74606 11.0962 7.60962 11.1805L7.61575 11.2073C7.76567 11.115 7.91599 11.0267 8.06755 10.9372V10.9043L8.04426 10.9181Z" fill="#BF1818"/>
<path fill-rule="evenodd" clip-rule="evenodd" d="M7.61507 10.6514L7.57422 10.6555C7.4495 10.6679 7.32518 10.6815 7.20128 10.6961C6.78217 10.3805 6.35244 10.0787 5.90801 9.79883V9.83137C6.35244 10.1112 6.78217 10.413 7.20128 10.7291C7.33935 10.7136 7.47782 10.699 7.61589 10.6848C7.75069 10.7596 7.87773 10.83 8.01131 10.9068H8.06563C7.91817 10.8206 7.76335 10.7332 7.61507 10.6514ZM5.58939 12.5632C6.2702 12.1814 6.96272 11.8211 7.66695 11.4824V11.4442C6.96245 11.7815 6.26993 12.1418 5.58939 12.525V12.5632Z" fill="#C7431C"/>
<path fill-rule="evenodd" clip-rule="evenodd" d="M8.5319 11.1777C8.37137 11.8692 8.21532 12.5868 8.07031 13.2815V13.3092C8.21696 12.6063 8.3681 11.9095 8.53068 11.2103C9.00043 11.4987 9.68301 11.9424 10.547 12.5636V12.5229C9.89134 12.0511 9.22061 11.6008 8.5319 11.1777ZM9.26268 11.2322L9.23449 11.2058V11.2493C9.87663 11.7911 10.3893 12.2764 10.9877 12.865L11.0886 12.9219C10.46 12.3016 9.89665 11.7684 9.26268 11.2322Z" fill="#A71A17"/>
<path fill-rule="evenodd" clip-rule="evenodd" d="M6.9055 10.6599C5.95332 10.7819 5.02646 10.9398 4.08694 11.1415C4.1327 11.1415 4.18866 11.1448 4.23563 11.144C5.12847 10.9554 6.02872 10.8036 6.9341 10.6888V10.6562L6.9055 10.6599ZM7.60851 11.1818C6.72209 11.1053 5.83976 11.0618 4.95089 11.0687V11.096C5.82791 11.0895 6.69799 11.1318 7.57215 11.2062L7.60851 11.1818Z" fill="#C7431C"/>
<path fill-rule="evenodd" clip-rule="evenodd" d="M9.19587 10.6495C10.1587 10.7715 11.0594 10.9301 12.0079 11.1347L11.8494 11.1315C10.9475 10.9411 10.1109 10.7983 9.19424 10.684L9.19587 10.6495ZM8.06641 10.9049C9.19056 10.9073 10.3123 10.9638 11.4315 11.0741V11.1042C10.3289 10.9939 9.2242 10.9373 8.11747 10.9346L8.08969 10.9187L8.06641 10.9049H8.11297H8.06641ZM8.51247 10.6486C8.52636 10.6486 8.53903 10.6519 8.55332 10.6535C9.09743 10.3537 9.65256 10.0739 10.222 9.82453V9.79688C9.63786 10.0531 9.07006 10.3399 8.51288 10.6486" fill="#A71A17"/>
<path fill-rule="evenodd" clip-rule="evenodd" d="M8.51351 10.6477C8.49074 10.5716 8.46837 10.4956 8.44519 10.4199V10.4472C8.46593 10.5151 8.48586 10.5834 8.5066 10.6506L8.51351 10.6469" fill="#BF1818"/>
<path fill-rule="evenodd" clip-rule="evenodd" d="M8.17491 15.368C8.14182 15.3924 8.09648 15.4172 8.06339 15.4416C8.02989 15.4172 7.98414 15.3924 7.95065 15.368V14.4548C7.98373 14.4321 8.03234 14.4097 8.06421 14.3873C8.09648 14.4097 8.141 14.4321 8.17368 14.4548C8.17395 14.7591 8.17436 15.0635 8.17491 15.368ZM2.73059 13.1601L2.67667 13.2634C2.71016 13.2764 2.77511 13.2968 2.80371 13.3086C3.12437 13.1382 3.44136 12.9681 3.75671 12.8042C3.76523 12.7664 3.77615 12.7292 3.78939 12.6927L3.69217 12.6675C3.37028 12.8259 3.04975 12.9901 2.73059 13.1601ZM2.49448 11.2849L2.40625 11.3553C2.42218 11.3761 2.44015 11.4013 2.45486 11.4216C2.75442 11.3788 3.05397 11.3423 3.35353 11.3122C3.38172 11.2853 3.41521 11.2528 3.44176 11.228L3.38907 11.1743C3.09115 11.2052 2.79295 11.2421 2.49448 11.2849ZM3.64478 9.77301L3.5541 9.81368C3.55696 9.83158 3.56023 9.86453 3.56309 9.88242C3.78367 9.91334 4.00398 9.95022 4.22402 9.99306C4.2522 9.97639 4.29019 9.95239 4.31674 9.93978C4.31307 9.92066 4.30898 9.90154 4.30531 9.88242C4.08554 9.83985 3.86537 9.80338 3.64478 9.77301ZM10.3893 8.84193H10.4735L10.507 8.87487C10.3915 8.94782 10.2778 9.02361 10.1659 9.10225H10.078L10.0454 9.06565C10.1581 8.98958 10.2729 8.91392 10.3893 8.84193ZM7.98455 8.52302L8.04746 8.50391L8.112 8.52302V8.79189L8.04542 8.81427L7.98006 8.79189L7.98455 8.52302ZM5.56957 8.88138C5.5806 8.8704 5.6047 8.85087 5.61573 8.84071H5.7007C5.81725 8.91257 5.93177 8.98768 6.04424 9.06605C6.03321 9.07826 6.02177 9.09046 6.01074 9.10307C5.98174 9.10307 5.93926 9.11039 5.91025 9.10998C5.79887 9.03053 5.68531 8.95433 5.56957 8.88138ZM4.86698 14.8099C4.82163 14.8209 4.76363 14.8205 4.71829 14.8319C4.70848 14.7998 4.68602 14.7676 4.67744 14.7359C4.90129 14.4693 5.128 14.205 5.35757 13.9427C5.4025 13.9334 5.45969 13.9236 5.50463 13.9143C5.51484 13.9415 5.53567 13.9883 5.54752 14.0139C5.3174 14.2775 5.09056 14.5428 4.86698 14.8099ZM13.3214 13.1601C13.3394 13.1947 13.3574 13.2289 13.3749 13.2634C13.3415 13.2764 13.2769 13.2968 13.2479 13.3086C12.9277 13.1382 12.6107 12.9681 12.2953 12.8042C12.2864 12.7665 12.2755 12.7293 12.2626 12.6927L12.3594 12.6675C12.6819 12.8259 13.0025 12.9901 13.3214 13.1601ZM13.558 11.2849L13.6458 11.3553C13.6294 11.3761 13.6119 11.4013 13.5972 11.4216C13.2976 11.3788 12.998 11.3423 12.6985 11.3122C12.6707 11.2853 12.6368 11.2528 12.6103 11.228L12.663 11.1743C12.9601 11.2052 13.2584 11.2421 13.558 11.2849ZM12.4072 9.77301L12.4979 9.81368C12.4951 9.83158 12.4918 9.86453 12.4889 9.88242C12.2684 9.91334 12.048 9.95022 11.828 9.99306C11.7998 9.97639 11.7618 9.95239 11.7349 9.93978C11.739 9.92066 11.7426 9.90154 11.7467 9.88242C11.9665 9.83985 12.1867 9.80338 12.4072 9.77301ZM11.185 14.8099C11.2218 14.8156 11.288 14.8246 11.3333 14.8319C11.348 14.8006 11.3627 14.7685 11.3742 14.7359C11.1503 14.4693 10.9235 14.205 10.6936 13.9427C10.6491 13.9334 10.5915 13.9236 10.547 13.9143C10.5364 13.9415 10.5159 13.9883 10.5037 14.0139C10.7344 14.2775 10.9615 14.5428 11.185 14.8099Z" fill="white"/>
<path fill-rule="evenodd" clip-rule="evenodd" d="M2.72691 13.2131C2.71833 13.2294 2.70485 13.2538 2.69668 13.27L2.67626 13.2623L2.73018 13.1602C3.04935 12.991 3.36987 12.8268 3.69176 12.6676L3.78898 12.6929C3.78204 12.7124 3.77714 12.7299 3.77142 12.7474C3.74527 12.74 3.71014 12.7343 3.68441 12.7278C3.36252 12.8857 3.04594 13.0439 2.72691 13.2131ZM2.50388 11.3265C2.48754 11.3396 2.44342 11.3713 2.42708 11.3843C2.4185 11.3733 2.41728 11.3701 2.40625 11.3554L2.49407 11.285C2.79227 11.2419 3.09074 11.2051 3.38948 11.1744L3.44218 11.2281C3.43602 11.2338 3.43015 11.2397 3.42461 11.246C3.41644 11.2375 3.39969 11.2224 3.39316 11.2163C3.09455 11.2484 2.80248 11.2834 2.50388 11.3265ZM3.55941 9.85812C3.55941 9.84063 3.55614 9.8325 3.55369 9.81216L3.64438 9.77148C3.86496 9.80158 4.08514 9.83752 4.3049 9.87928C4.30858 9.89839 4.31266 9.91751 4.31634 9.93663C4.31144 9.93948 3.867 9.84958 3.64601 9.81948L3.55941 9.85812Z" fill="#C9581B"/>
<path fill-rule="evenodd" clip-rule="evenodd" d="M10.475 8.88817L10.4799 8.89305L10.5085 8.87474L10.475 8.8418H10.3908C10.2744 8.91379 10.1596 8.98945 10.0469 9.06714L10.0726 9.09643C10.1772 9.02457 10.2833 8.95515 10.3908 8.88817H10.475Z" fill="#A71A17"/>
<path d="M7.98438 8.57141L8.04702 8.55189L8.11128 8.57141V8.52302L8.04702 8.50391L7.98438 8.52302V8.57141Z" fill="#B51918"/>
<path fill-rule="evenodd" clip-rule="evenodd" d="M5.70375 8.87816C5.81118 8.94488 5.91493 9.02055 6.0191 9.09215L6.04524 9.06326C5.9325 8.98516 5.81799 8.91003 5.7017 8.83789H5.61674C5.60571 8.84887 5.58079 8.8684 5.56976 8.87857L5.59795 8.89647L5.61878 8.87776L5.70375 8.87816Z" fill="#C7431C"/>
<path fill-rule="evenodd" clip-rule="evenodd" d="M5.49708 13.9526C5.50934 13.9693 5.52363 14.0079 5.53793 14.0274L5.54937 14.014C5.54569 14.0022 5.51832 13.9416 5.50648 13.9144C5.46154 13.9237 5.40436 13.9335 5.35942 13.9428C5.12985 14.2051 4.90314 14.4695 4.67929 14.736C4.68297 14.7474 4.69277 14.7621 4.69645 14.7734C4.84023 14.603 5.15069 14.2337 5.37658 13.9754C5.4113 13.9672 5.45991 13.9607 5.49708 13.9526ZM13.327 13.2131L13.3572 13.27L13.3772 13.2623C13.3596 13.2277 13.3417 13.1936 13.3237 13.159C13.0043 12.9898 12.6836 12.8256 12.3617 12.6664L12.2649 12.6916C12.2714 12.7112 12.2763 12.7286 12.2825 12.7461C12.3082 12.7388 12.3433 12.7331 12.3691 12.7266C12.6914 12.8857 13.0075 13.0439 13.327 13.2131ZM13.55 11.3265C13.5659 11.3396 13.6105 11.3713 13.6264 11.3843C13.635 11.3733 13.6366 11.3701 13.6476 11.3554L13.5602 11.285C13.2607 11.2419 12.962 11.2051 12.6644 11.1744L12.6117 11.2281C12.618 11.2338 12.624 11.2397 12.6297 11.246C12.6378 11.2375 12.6542 11.2224 12.6607 11.2163C12.9593 11.2484 13.2514 11.2834 13.55 11.3265ZM12.4941 9.85812C12.4965 9.84063 12.4973 9.8325 12.5002 9.81216L12.4095 9.77148C12.1889 9.80158 11.9687 9.83752 11.749 9.87928C11.7449 9.89839 11.7412 9.91751 11.7371 9.93663C11.7424 9.93948 12.1885 9.84958 12.4075 9.81948L12.4941 9.85812ZM10.5595 13.9526C10.5472 13.9693 10.5325 14.0079 10.5186 14.0274L10.5068 14.014C10.5109 14.0022 10.5382 13.9416 10.5501 13.9144C10.5946 13.9237 10.6522 13.9335 10.6967 13.9428C10.9266 14.2051 11.1534 14.4695 11.3773 14.736C11.3724 14.7482 11.3675 14.7604 11.3617 14.7734C11.2179 14.6026 10.9059 14.2337 10.6796 13.9754C10.6448 13.9672 10.5966 13.9607 10.5595 13.9526ZM8.15552 14.4879L8.17717 15.3681V14.4549C8.14449 14.4322 8.09996 14.4098 8.06769 14.3874C8.0346 14.4098 7.98599 14.4322 7.95413 14.4549V15.3681L7.97497 14.4875C8.00152 14.4696 8.04114 14.4517 8.06728 14.4342C8.09179 14.4517 8.12978 14.47 8.15552 14.4879Z" fill="#A71A17"/>
<path fill-rule="evenodd" clip-rule="evenodd" d="M3.62453 11.1866C4.02321 9.41193 6.49415 8.88477 8.04641 8.88477C9.59866 8.88477 12.068 9.41356 12.4671 11.187C12.9642 13.3958 9.65299 14.2182 8.04641 14.2182C6.43982 14.2182 3.1274 13.3958 3.62453 11.1866ZM3.78792 11.174C4.16332 9.45912 6.5542 8.95066 8.04681 8.95066C9.53943 8.95066 11.927 9.45952 12.3041 11.174C12.7689 13.2957 9.58927 14.0799 8.04518 14.0799C6.5011 14.0799 3.32143 13.2957 3.78629 11.174H3.78792Z" fill="#C7431C"/>
<path fill-rule="evenodd" clip-rule="evenodd" d="M3.63618 11.2406C4.03527 9.46588 6.40409 8.92773 8.05682 8.92773C9.70956 8.92773 12.0784 9.46466 12.4779 11.239C12.9746 13.4481 9.66381 14.2706 8.05723 14.2706C6.45065 14.2706 3.13946 13.4493 3.63618 11.2406ZM3.79958 11.2276C4.17498 9.51307 6.56626 9.00461 8.05846 9.00461C9.55066 9.00461 11.9419 9.51347 12.3173 11.228C12.7826 13.3496 9.60131 14.1343 8.05723 14.1343C6.51315 14.1343 3.33349 13.3492 3.79794 11.2276H3.79958Z" fill="white"/>
<path opacity="0.45" d="M13.3349 11.6073L12.6102 11.4979L12.5142 11.4759C12.3917 11.4511 12.1605 11.3201 12.0592 11.1647C11.9579 11.0093 11.714 10.7413 11.5804 10.5745C11.3958 10.343 10.9738 10.1315 10.9126 10.0359C10.8426 9.93005 10.7786 9.82032 10.721 9.70728C10.7042 9.66864 10.6751 9.63659 10.6382 9.61608C10.6012 9.59557 10.5586 9.58773 10.5167 9.59379C10.4073 9.6003 10.3979 9.63772 10.3043 9.64342C10.2293 9.64507 10.1543 9.6403 10.0801 9.62918C10.0356 9.61862 9.99015 9.61248 9.94445 9.61087C9.88644 9.70646 9.7978 9.76504 9.58253 9.76504C9.56985 9.76526 9.55721 9.76375 9.54495 9.76056C9.567 9.80815 9.76757 9.83663 9.80148 9.83419C9.83538 9.83175 10.0253 9.88544 10.0682 9.89317C10.1552 9.90903 10.1385 9.87893 10.2782 9.95947C10.5094 10.0925 10.8558 10.4594 10.9244 10.7779C10.9624 10.9536 11.2651 11.2408 11.3014 11.4027C10.8962 11.373 10.3578 11.1057 10.3578 11.1057L10.29 11.0736C10.0976 10.9889 9.89047 10.9421 9.68015 10.9357C8.98328 10.8739 8.71898 10.7811 8.64954 10.7579C8.50575 10.7095 8.527 10.6855 8.40853 10.6798L8.34522 10.6766C8.33017 10.7064 8.30983 10.7333 8.28517 10.7559C8.15988 10.8687 8.05001 10.9974 7.95838 11.1387C7.92502 11.1844 7.87582 11.2161 7.82031 11.2278C7.95348 11.1973 8.21328 11.1277 8.21328 11.1277C8.45837 11.0952 8.83377 11.2042 8.83377 11.2042C8.95866 11.235 9.08145 11.2737 9.20141 11.3201C9.20141 11.3201 10.1944 11.6223 10.4375 11.7993C10.5976 11.9152 11.4228 12.2227 11.6417 12.298C11.8607 12.3732 12.3937 12.662 12.3937 12.662C12.5306 12.7783 13.3275 13.1257 13.5465 13.1989C13.8279 12.7108 13.926 12.217 13.8475 11.7134L13.3349 11.6073Z" fill="#4F2644"/>
<path opacity="0.45" d="M12.9676 10.7842C12.9168 10.7851 12.8663 10.7911 12.8168 10.8021L12.6179 10.9185C12.593 10.9591 12.6824 11.012 12.6824 11.012C12.6824 11.012 12.932 11.0283 12.9312 11.0934C13.115 11.1906 13.506 11.2024 13.7073 11.2117C13.6801 11.1448 13.6506 11.0781 13.6187 11.0116C13.5868 10.9474 13.5521 10.8843 13.5154 10.8221C13.5039 10.8184 13.3532 10.7761 12.9676 10.7842ZM11.4933 13.2057C11.4933 13.2057 11.4464 13.1451 11.1931 13.1447C11.0326 13.1447 11.2629 13.5226 11.2629 13.5226C11.4075 13.619 11.9292 13.7666 12.0391 13.7817C12.149 13.7967 12.5117 13.9037 12.5117 13.9037C12.6417 13.9225 12.7701 13.9505 12.8961 13.9875C12.9267 13.9594 12.9569 13.931 12.9864 13.9021C13.0948 13.7969 13.1964 13.6849 13.2907 13.5669C12.8507 13.558 12.2258 13.5506 11.7519 13.3045C11.7025 13.1634 11.4933 13.2057 11.4933 13.2057Z" fill="#4F2644"/>
<path d="M10.1594 6.32075C10.1594 6.32075 10.0128 6.18815 10.0103 6.18042C9.99968 6.13405 10.0511 6.07181 10.0646 5.99412C10.0495 5.98883 10.034 5.98151 10.0197 5.97541C9.98416 5.84077 9.95475 5.59834 10.0197 5.46899C10.0516 5.40554 10.0891 5.32215 10.0675 5.24853C9.94698 4.83648 9.70761 4.47771 9.53891 4.08681C9.49356 3.98065 9.50092 3.90418 9.49438 3.79598C9.36407 3.6528 9.21293 3.27817 9.14022 3.04713C8.98827 3.42949 8.88737 3.8692 8.88737 3.97089C8.88737 4.40165 9.32568 4.61032 9.17331 5.32581C9.1439 5.46411 9.09161 5.65529 9.03973 5.85216C9.13083 6.35126 9.13083 6.71287 9.26481 7.29088C9.46896 7.48976 9.61641 7.73906 9.69209 8.01329C9.74397 8.19959 9.90164 8.63686 10.103 8.70479C10.228 8.74546 9.67943 8.84553 9.52379 8.6515C9.37429 8.4648 9.1153 8.31592 8.99276 8.11742C8.89513 7.95919 8.74358 7.62239 8.648 7.46254L8.53239 8.0739C8.69211 8.72838 8.59693 8.87319 8.45519 9.40442C8.39392 9.63424 7.92824 8.56039 7.92783 8.47659C7.93342 8.29906 7.90982 8.12182 7.85798 7.95187C7.76035 7.76232 7.77097 7.49386 7.78445 7.28966C7.80651 6.94839 7.80365 6.30489 7.81877 6.13568C7.70112 5.8481 7.40048 5.32907 7.36943 5.03742C7.32286 4.58225 7.40007 4.12139 7.33634 3.66785C7.25791 3.89523 7.17295 4.18322 6.99689 4.35934C6.73347 4.62439 6.48357 4.90242 6.24813 5.19239C6.16153 5.31036 6.23792 5.36771 6.10394 5.55604C5.96995 5.74437 6.04266 5.65773 6.01489 5.83508C6.01137 5.85924 6.00087 5.88185 5.98466 5.90016C5.91399 5.95914 5.83924 6.00958 5.73957 5.96728C5.54431 5.86965 5.53001 5.72322 5.51653 5.53855C5.49121 5.18345 5.75468 5.16677 5.90419 4.95159C6.19748 4.52937 6.34617 3.8216 6.6603 3.50311C6.6799 3.44006 6.75343 3.21268 6.89395 2.87425C6.89804 2.45448 7.00261 2.08025 7.43642 1.90819C7.61411 1.83742 7.84491 1.81952 7.85594 1.57465C7.85761 1.5298 7.84952 1.48512 7.83225 1.44367C7.76035 1.38632 7.7097 1.38469 7.6758 1.34401C7.60554 1.25412 7.54753 0.676517 7.55325 0.639502C7.65537 0.151387 7.89066 -0.0137584 8.18886 0.000885067C8.54342 0.0200029 8.8216 0.186775 8.80771 0.65862C8.79546 1.03813 8.40168 1.52543 8.99072 1.7101C9.21579 1.78047 9.25868 1.73166 9.4519 1.92528C9.6688 2.14208 9.7215 2.52769 9.75745 2.88483L9.97885 3.39613C10.3841 4.07542 10.2374 4.29101 10.3873 4.9825C10.4257 5.16189 10.4923 5.32012 10.5066 5.71142C10.5123 5.89731 10.364 6.31384 10.1594 6.32075Z" fill="#F9B550"/>
<path d="M5.93376 5.80665C5.95173 5.62564 5.92559 5.64069 6.0416 5.47311C6.14944 5.31732 6.09756 5.238 6.19274 5.10417C6.42639 4.81334 6.64738 4.51925 6.91004 4.25404C7.08569 4.07628 7.32425 3.47834 7.38021 3.26845C7.39083 3.23754 7.40799 3.22249 7.41493 3.24893C7.45169 3.64959 7.50847 3.98354 7.49418 4.37729C7.46436 5.20383 7.48723 5.11719 7.8324 5.88922C7.861 5.57886 7.93616 5.12858 8.11834 4.97564C7.90634 5.78062 7.89327 6.9281 7.8708 7.28035C7.85936 7.46014 7.81035 7.74325 7.89694 7.9088C7.92595 8.02066 7.92799 8.18906 7.93085 8.31556C7.93085 8.39366 7.93616 9.72703 7.93616 9.72703L7.81361 10.3461C7.76909 10.5247 7.53748 10.8253 7.36428 10.9188C7.30995 10.9485 7.18209 11.0165 7.18209 11.0771C7.18209 11.1747 7.81525 11.3573 7.95822 11.1352C8.04984 10.994 8.15971 10.8653 8.28501 10.7525C8.48435 10.5625 8.26336 10.3669 8.2895 10.1094C8.33525 9.66195 8.52887 9.27186 8.5926 8.84842C8.63936 8.58883 8.60986 8.32131 8.50763 8.07801L8.59137 7.26896C8.68451 7.40848 8.77274 7.63017 8.86138 7.81443C9.01947 8.14228 9.02192 8.17441 9.29519 8.44328C9.39203 8.53572 9.47809 8.63874 9.55172 8.75039C9.6804 8.95377 9.76904 9.15715 9.75597 9.39836C9.6612 9.5692 9.62035 9.55863 9.49862 9.66195C9.50271 9.66764 9.46512 9.76201 9.58032 9.76201C9.99207 9.76201 9.94101 9.54764 10.0966 9.27023C10.1971 9.09085 10.4859 8.81791 10.1694 8.72314C10.0654 8.69497 9.97586 8.62891 9.91854 8.53806C9.69919 8.17197 9.69061 8.18214 9.57664 7.84656C9.5072 7.64318 9.36668 7.48048 9.20043 7.34503C9.1089 7.14347 9.05003 6.92875 9.026 6.70885C8.98188 6.37815 8.95166 6.14142 8.89529 5.8034C9.05623 5.16885 9.14038 5.03462 8.86547 4.42447C8.80036 4.2815 8.76679 4.12629 8.76702 3.96931C8.76702 3.76592 8.87895 3.31076 8.98801 3.07443C9.026 2.97843 9.0791 2.88813 9.15427 2.85925C9.22085 3.10534 9.44879 3.61135 9.58154 3.73542C9.58971 3.83467 9.58563 3.93514 9.62484 4.0291C9.79191 4.42813 10.0333 4.79097 10.1518 5.21196C10.1926 5.35636 10.1383 5.42633 10.0971 5.54266C10.0815 5.65534 10.0846 5.76979 10.106 5.8815L10.1632 5.91241C10.148 5.97521 10.1293 6.03713 10.1073 6.09789C10.115 6.15525 10.1853 6.18738 10.1853 6.18738C10.2772 6.16704 10.4079 5.83634 10.4034 5.70415C10.3891 5.29942 10.3037 5.11841 10.2809 4.9976C10.1453 4.31139 10.2233 4.12265 9.83766 3.45841L9.6179 2.91864C9.59094 2.64163 9.48024 2.01074 9.12486 1.89766C9.06481 1.87855 9.00476 1.87489 8.91448 1.84601C8.44881 1.6955 8.45004 1.33959 8.57707 0.951128C8.68982 0.60538 8.70493 0.197397 8.19351 0.154281C7.87734 0.127841 7.78134 0.375966 7.71353 0.661513C7.71598 0.692427 7.73151 1.15695 7.80054 1.25661C7.93575 1.35667 8.01173 1.32738 8.00479 1.57836C7.99743 1.78906 7.86304 1.91353 7.68045 1.97739C7.38266 2.08152 7.23111 2.14254 7.13062 2.44801C7.08779 2.59043 7.0678 2.73869 7.07139 2.88732V2.90115C6.98643 3.11104 6.8794 3.35143 6.81446 3.57719C6.44682 3.94327 6.26667 4.77469 5.89577 5.12573C5.65068 5.35921 5.57511 5.37386 5.66538 5.73384C5.67437 5.77045 5.79242 5.864 5.81775 5.87743C5.83654 5.88434 5.93417 5.8274 5.93376 5.80665Z" fill="url(#paint2_linear_1999_4676)"/>
<defs>
<linearGradient id="paint0_linear_1999_4676" x1="2.00072" y1="13.0942" x2="14.0008" y2="13.0942" gradientUnits="userSpaceOnUse">
<stop stop-color="#C9581B"/>
<stop offset="1" stop-color="#6E2E2C"/>
</linearGradient>
<linearGradient id="paint1_linear_1999_4676" x1="1.01268" y1="12.0543" x2="8.42727" y2="10.7415" gradientUnits="userSpaceOnUse">
<stop stop-color="#FFDF7E"/>
<stop offset="1" stop-color="#ED730C"/>
</linearGradient>
<linearGradient id="paint2_linear_1999_4676" x1="6.07509" y1="3.9148" x2="10.3513" y2="8.20918" gradientUnits="userSpaceOnUse">
<stop stop-color="#2B3081"/>
<stop offset="1" stop-color="#2C2C6F"/>
</linearGradient>
</defs>
</svg>
