<svg width="16" height="16" viewBox="0 0 16 16" fill="none" xmlns="http://www.w3.org/2000/svg">
<path d="M0 8C0 3.58172 3.58172 0 8 0C12.4183 0 16 3.58172 16 8C16 12.4183 12.4183 16 8 16C3.58172 16 0 12.4183 0 8Z" fill="#363636"/>
<path d="M8 4.72C9.06667 4.72 9.19333 4.72333 9.61667 4.74333C10.0067 4.76333 10.2167 4.82667 10.36 4.88333C10.5467 4.95333 10.68 5.04 10.82 5.18C10.96 5.32 11.0467 5.45333 11.1167 5.64C11.1733 5.78333 11.2367 5.99333 11.2567 6.38333C11.2767 6.80667 11.28 6.93333 11.28 8C11.28 9.06667 11.2767 9.19333 11.2567 9.61667C11.2367 10.0067 11.1733 10.2167 11.1167 10.36C11.0467 10.5467 10.96 10.68 10.82 10.82C10.68 10.96 10.5467 11.0467 10.36 11.1167C10.2167 11.1733 10.0067 11.2367 9.61667 11.2567C9.19333 11.2767 9.06667 11.28 8 11.28C6.93333 11.28 6.80667 11.2767 6.38333 11.2567C5.99333 11.2367 5.78333 11.1733 5.64 11.1167C5.45333 11.0467 5.32 10.96 5.18 10.82C5.04 10.68 4.95333 10.5467 4.88333 10.36C4.82667 10.2167 4.76333 10.0067 4.74333 9.61667C4.72333 9.19333 4.72 9.06667 4.72 8C4.72 6.93333 4.72333 6.80667 4.74333 6.38333C4.76333 5.99333 4.82667 5.78333 4.88333 5.64C4.95333 5.45333 5.04 5.32 5.18 5.18C5.32 5.04 5.45333 4.95333 5.64 4.88333C5.78333 4.82667 5.99333 4.76333 6.38333 4.74333C6.80667 4.72333 6.93333 4.72 8 4.72ZM8 4C6.91333 4 6.77667 4.00333 6.35 4.02333C5.92667 4.04333 5.63333 4.11 5.38 4.21C5.11667 4.31333 4.89333 4.45 4.67 4.67C4.45 4.89333 4.31333 5.11667 4.21 5.38C4.11 5.63333 4.04333 5.92667 4.02333 6.35C4.00333 6.77667 4 6.91333 4 8C4 9.08667 4.00333 9.22333 4.02333 9.65C4.04333 10.0733 4.11 10.3667 4.21 10.62C4.31333 10.8833 4.45 11.1067 4.67 11.33C4.89333 11.55 5.11667 11.6867 5.38 11.79C5.63333 11.89 5.92667 11.9567 6.35 11.9767C6.77667 11.9967 6.91333 12 8 12C9.08667 12 9.22333 11.9967 9.65 11.9767C10.0733 11.9567 10.3667 11.89 10.62 11.79C10.8833 11.6867 11.1067 11.55 11.33 11.33C11.55 11.1067 11.6867 10.8833 11.79 10.62C11.89 10.3667 11.9567 10.0733 11.9767 9.65C11.9967 9.22333 12 9.08667 12 8C12 6.91333 11.9967 6.77667 11.9767 6.35C11.9567 5.92667 11.89 5.63333 11.79 5.38C11.6867 5.11667 11.55 4.89333 11.33 4.67C11.1067 4.45 10.8833 4.31333 10.62 4.21C10.3667 4.11 10.0733 4.04333 9.65 4.02333C9.22333 4.00333 9.08667 4 8 4ZM8 5.94667C6.86667 5.94667 5.94667 6.86667 5.94667 8C5.94667 9.13333 6.86667 10.0533 8 10.0533C9.13333 10.0533 10.0533 9.13333 10.0533 8C10.0533 6.86667 9.13333 5.94667 8 5.94667ZM8 9.33333C7.26333 9.33333 6.66667 8.73667 6.66667 8C6.66667 7.26333 7.26333 6.66667 8 6.66667C8.73667 6.66667 9.33333 7.26333 9.33333 8C9.33333 8.73667 8.73667 9.33333 8 9.33333ZM10.6167 5.86333C10.6167 6.13 10.4 6.34333 10.1367 6.34333C9.87 6.34333 9.65667 6.13 9.65667 5.86333C9.65667 5.6 9.87 5.38333 10.1367 5.38333C10.4 5.38333 10.6167 5.6 10.6167 5.86333Z" fill="white"/>
</svg>
