<svg width="16" height="16" viewBox="0 0 16 16" fill="none" xmlns="http://www.w3.org/2000/svg">
<path d="M0 7.41248V4.99981H1.40676V5.48007H0.58615V5.96034H1.2555V6.44817H0.58615V6.93221H1.51264V7.41248H0ZM3.35807 6.32716C3.35807 6.38388 3.35051 6.4406 3.33916 6.49733L3.11605 6.71666H2.2614C2.27275 6.75448 2.28788 6.79229 2.31435 6.83389C2.34082 6.87171 2.37485 6.90574 2.41267 6.93978C2.45427 6.97003 2.50343 6.9965 2.56015 7.01541C2.61688 7.03432 2.68494 7.04566 2.76058 7.04566C2.8589 7.04566 2.94588 7.03432 3.02907 7.01163C3.11227 6.98894 3.18412 6.9549 3.25975 6.91331L3.21059 7.37088C3.15386 7.39735 3.08201 7.42004 2.99882 7.43895C2.91562 7.45786 2.81352 7.46542 2.70007 7.46542C2.56015 7.46542 2.42779 7.44273 2.30678 7.40113C2.18577 7.35954 2.07989 7.29525 1.98913 7.21583C1.89837 7.13642 1.82652 7.0381 1.77736 6.92465C1.7282 6.8112 1.69794 6.68641 1.69794 6.54271C1.69794 6.40279 1.72063 6.27799 1.76979 6.16833C1.81896 6.05866 1.88324 5.96412 1.96266 5.88471C2.04207 5.80529 2.14039 5.74479 2.24628 5.70319C2.35216 5.66159 2.46939 5.6389 2.5904 5.6389C2.70763 5.6389 2.81352 5.65781 2.90806 5.69563C3.0026 5.73344 3.08201 5.7826 3.15008 5.84689C3.21815 5.91118 3.26731 5.98303 3.30513 6.06622C3.33916 6.1532 3.35807 6.24018 3.35807 6.32716ZM2.85134 6.32337C2.85134 6.25531 2.82865 6.1948 2.77948 6.14186C2.73032 6.08891 2.66982 6.06622 2.58662 6.06622C2.50343 6.06622 2.43158 6.0927 2.36351 6.14942C2.29922 6.20236 2.25762 6.27421 2.23493 6.36119H2.83999C2.85134 6.35363 2.85134 6.34228 2.85134 6.32337ZM4.73458 7.41248V6.39144C4.73458 6.32716 4.71189 6.27421 4.67029 6.22505C4.62869 6.17589 4.56062 6.1532 4.47365 6.1532C4.38667 6.1532 4.3186 6.17589 4.26944 6.22505C4.22028 6.27421 4.19381 6.33094 4.19381 6.39901V7.41248H3.63791V5.69941H4.12574L4.14086 5.86958C4.19003 5.80529 4.25809 5.75235 4.34507 5.71075C4.42827 5.67294 4.53415 5.65403 4.65516 5.65403C4.7497 5.65403 4.8329 5.66916 4.91231 5.69941C4.99173 5.72966 5.05602 5.76748 5.11274 5.82042C5.16946 5.87336 5.21106 5.93765 5.2451 6.01706C5.27535 6.0927 5.29047 6.17967 5.29047 6.27421V7.41626L4.73458 7.41248ZM7.76743 7.41248V6.35741C7.76743 6.2969 7.74474 6.24774 7.69936 6.21371C7.65398 6.17967 7.59348 6.15698 7.51784 6.15698C7.43843 6.15698 7.37414 6.17589 7.32876 6.21371C7.2796 6.25152 7.25313 6.30068 7.25313 6.36497V7.41248H6.69723V6.35741C6.69723 6.2969 6.67454 6.24774 6.62917 6.21371C6.58379 6.17967 6.52328 6.15698 6.44008 6.15698C6.36445 6.15698 6.30395 6.17589 6.251 6.21371C6.20184 6.25152 6.17537 6.30068 6.17537 6.36497V7.41248H5.61948V5.69941H6.1073L6.12243 5.86958C6.16403 5.81286 6.22831 5.75991 6.31151 5.71832C6.39471 5.67672 6.50059 5.65403 6.61782 5.65403C6.73505 5.65403 6.83337 5.67672 6.91279 5.71832C6.9922 5.75991 7.05649 5.81286 7.10565 5.87336C7.15481 5.81286 7.23422 5.75991 7.33255 5.71832C7.43465 5.67672 7.5481 5.65403 7.67289 5.65403C7.87332 5.65403 8.03214 5.71075 8.14181 5.81664C8.25148 5.9263 8.3082 6.07001 8.3082 6.24018V7.4087L7.76743 7.41248ZM10.0667 7.46542C9.89648 7.45408 9.77547 7.38979 9.70362 7.27256C9.64689 7.33685 9.57504 7.38601 9.49185 7.41626C9.40865 7.44651 9.31789 7.46164 9.22713 7.46164C9.14016 7.46164 9.05696 7.45029 8.98133 7.42382C8.9057 7.39735 8.84141 7.35954 8.78468 7.31416C8.72796 7.26878 8.68258 7.20449 8.65233 7.13642C8.62208 7.06835 8.60695 6.98894 8.60695 6.90196C8.60695 6.74313 8.66367 6.61456 8.77334 6.51624C8.88301 6.41791 9.02293 6.36119 9.18932 6.34228L9.52966 6.30825V6.24774C9.52966 6.1948 9.51075 6.1532 9.46916 6.11917C9.42756 6.08513 9.35949 6.07001 9.26117 6.07001C9.16285 6.07001 9.06831 6.08135 8.97755 6.10404C8.88679 6.12673 8.81494 6.1532 8.75821 6.18724L8.71662 5.7637C8.7809 5.72966 8.86788 5.69941 8.97377 5.67672C9.07965 5.65403 9.18554 5.64268 9.29142 5.64268C9.52966 5.64268 9.71874 5.70319 9.85866 5.82042C9.99858 5.93765 10.0667 6.10782 10.0667 6.33094V6.82255C10.0667 6.89818 10.0856 6.95868 10.1196 7.00028C10.1536 7.04188 10.2028 7.06835 10.2633 7.0797L10.0667 7.46542ZM9.54101 6.66372L9.31033 6.68641C9.23091 6.69397 9.17419 6.72044 9.14016 6.76582C9.10612 6.8112 9.08721 6.85658 9.08721 6.90952C9.08721 6.9549 9.10612 6.99272 9.14016 7.02675C9.17419 7.06079 9.21579 7.07591 9.27251 7.07591C9.34058 7.07591 9.40487 7.05323 9.46159 7.00406C9.51832 6.9549 9.54479 6.8944 9.54479 6.82255L9.54101 6.66372ZM11.065 7.48811C11.0083 7.48433 10.9478 7.4692 10.8873 7.44273C10.8268 7.41626 10.77 7.37466 10.7209 7.32172C10.6717 7.26878 10.6301 7.20449 10.5999 7.12886C10.5696 7.05323 10.5545 6.96625 10.5545 6.86793V4.71997H11.1028V6.82633C11.1028 6.90574 11.1217 6.97003 11.1633 7.01541C11.2049 7.06079 11.2541 7.09104 11.3146 7.10239L11.065 7.48811ZM12.1844 5.13595C12.1844 5.15864 12.173 5.18511 12.1503 5.21914C12.1276 5.25318 12.1049 5.28343 12.0747 5.31368C12.0444 5.34394 12.0142 5.37041 11.9801 5.38932C11.9461 5.40822 11.9196 5.41957 11.897 5.41957C11.8743 5.41957 11.8478 5.40822 11.8138 5.38932C11.7797 5.37041 11.7495 5.34394 11.7192 5.31368C11.689 5.28343 11.6663 5.25318 11.6436 5.21914C11.6209 5.18511 11.6095 5.15864 11.6095 5.13595C11.6095 5.11326 11.6209 5.08679 11.6436 5.05275C11.6663 5.01872 11.689 4.98847 11.7192 4.95821C11.7495 4.92796 11.7797 4.90149 11.8138 4.88258C11.8478 4.85989 11.8743 4.84855 11.897 4.84855C11.9196 4.84855 11.9461 4.85989 11.9801 4.88258C12.0142 4.90527 12.0444 4.92796 12.0747 4.95821C12.1049 4.98847 12.1314 5.01872 12.1503 5.05275C12.173 5.08679 12.1844 5.11326 12.1844 5.13595ZM11.6209 7.41248V5.69941H12.1806V7.41248H11.6209ZM14.1319 7.6961C14.1319 7.78308 14.113 7.86627 14.0752 7.9419C14.0373 8.01754 13.9806 8.08182 13.9088 8.13855C13.8369 8.19527 13.7499 8.23687 13.6478 8.26712C13.5457 8.29738 13.4361 8.3125 13.3113 8.3125C13.1865 8.3125 13.0693 8.29738 12.9709 8.26334C12.8688 8.22931 12.7818 8.18393 12.71 8.12342C12.6381 8.0667 12.5814 7.99863 12.5398 7.91921C12.4982 7.8398 12.4793 7.7566 12.4793 7.66206C12.4793 7.53727 12.5096 7.43517 12.5739 7.35197C12.6381 7.26878 12.7176 7.20827 12.8121 7.17802L12.6155 6.98137C12.623 6.92465 12.6457 6.87171 12.6873 6.82633C12.7289 6.78095 12.7705 6.74691 12.8121 6.72044C12.7478 6.67506 12.6911 6.61456 12.6419 6.53893C12.5928 6.46329 12.5701 6.37632 12.5701 6.27799C12.5701 6.18345 12.5852 6.10026 12.6155 6.02085C12.6457 5.94143 12.6911 5.87714 12.7516 5.82042C12.8121 5.7637 12.884 5.71832 12.9747 5.68806C13.0617 5.65781 13.16 5.64268 13.2735 5.64268C13.3226 5.64268 13.368 5.64647 13.4096 5.65025C13.4512 5.65403 13.489 5.66537 13.5268 5.67672C13.5646 5.68806 13.6025 5.69563 13.6441 5.69941C13.6857 5.70319 13.7273 5.70697 13.7726 5.70697C13.8331 5.70697 13.8899 5.69941 13.939 5.68806C13.9882 5.67672 14.0336 5.66159 14.0714 5.64268L14.1092 6.07757C14.0978 6.08891 14.0714 6.10026 14.0373 6.10782C14.0033 6.11539 13.9693 6.11917 13.9428 6.11539C13.9617 6.14942 13.9731 6.19858 13.9731 6.26287C13.9731 6.34606 13.9579 6.4217 13.9315 6.49355C13.905 6.56162 13.8634 6.62212 13.8142 6.67506C13.7651 6.72801 13.7046 6.7696 13.6365 6.80364C13.5684 6.83767 13.4928 6.85658 13.4096 6.86414C13.3756 6.86793 13.3453 6.87171 13.3226 6.88305C13.2999 6.8944 13.2886 6.90952 13.2886 6.93221C13.2886 6.95868 13.3037 6.97381 13.334 6.98516L13.61 7.0797C13.7764 7.13642 13.905 7.21583 13.992 7.31416C14.0865 7.4087 14.1319 7.53727 14.1319 7.6961ZM13.6327 7.70366C13.6327 7.65828 13.6176 7.61669 13.5836 7.57887C13.5495 7.54105 13.5041 7.5108 13.4436 7.49567L13.2167 7.43139C13.1449 7.43517 13.0844 7.46164 13.0314 7.50324C12.9823 7.54862 12.9558 7.60534 12.9558 7.67719C12.9558 7.74148 12.9861 7.7982 13.039 7.84736C13.0919 7.89652 13.1827 7.91921 13.2961 7.91921C13.4058 7.91921 13.4852 7.89652 13.542 7.85493C13.6025 7.80955 13.6327 7.76039 13.6327 7.70366ZM13.5193 6.25909C13.5193 6.1948 13.4966 6.14186 13.4512 6.10026C13.4058 6.05488 13.3491 6.03219 13.2772 6.03219C13.2092 6.03219 13.1524 6.05488 13.1071 6.10026C13.0617 6.14564 13.0352 6.19858 13.0352 6.25909C13.0352 6.31959 13.0579 6.37632 13.1071 6.41791C13.1562 6.45951 13.213 6.48598 13.2772 6.48598C13.3415 6.48598 13.3983 6.46329 13.4474 6.41791C13.4966 6.37632 13.5193 6.32337 13.5193 6.25909ZM16 6.32716C16 6.38388 15.9924 6.4406 15.9811 6.49733L15.758 6.71666H14.9033C14.9147 6.75448 14.9298 6.79229 14.9563 6.83389C14.9827 6.87171 15.013 6.90574 15.0546 6.93978C15.0962 6.97381 15.1454 6.9965 15.2059 7.01541C15.2664 7.03432 15.3307 7.04566 15.4063 7.04566C15.5046 7.04566 15.5954 7.03432 15.6748 7.01163C15.7542 6.98894 15.8298 6.9549 15.9017 6.91331L15.8525 7.37088C15.7958 7.39735 15.7239 7.42004 15.637 7.43895C15.5538 7.45786 15.4517 7.4692 15.3382 7.4692C15.1983 7.4692 15.0659 7.44651 14.9449 7.40492C14.8239 7.36332 14.718 7.29903 14.6273 7.21962C14.5365 7.1402 14.4647 7.04188 14.4155 6.92843C14.3663 6.81498 14.3399 6.69019 14.3399 6.54649C14.3399 6.40657 14.3626 6.28178 14.4117 6.17211C14.4609 6.06244 14.5252 5.9679 14.6046 5.88849C14.6878 5.80907 14.7823 5.74857 14.8882 5.70697C14.9941 5.66537 15.1113 5.64268 15.2286 5.64268C15.3458 5.64268 15.4554 5.66159 15.55 5.69941C15.6445 5.73722 15.7239 5.78639 15.792 5.85067C15.8601 5.91496 15.9092 5.98681 15.9433 6.07001C15.9811 6.1532 16 6.24018 16 6.32716ZM15.4933 6.32337C15.4933 6.25531 15.4706 6.1948 15.4214 6.14186C15.3723 6.08891 15.3117 6.06622 15.2323 6.06622C15.1491 6.06622 15.0773 6.0927 15.0092 6.14942C14.9449 6.20236 14.9033 6.27421 14.8806 6.36119H15.4857C15.4933 6.35363 15.4933 6.34228 15.4933 6.32337Z" fill="#27276F"/>
<path d="M3.33425 10.5708L3.25105 9.56867C3.24349 9.48548 3.23971 9.3985 3.23593 9.3153C3.23215 9.23211 3.22836 9.14891 3.2208 9.06572H3.21324C3.1792 9.14513 3.14139 9.23211 3.09601 9.32287C3.05441 9.40984 3.01659 9.49304 2.975 9.58002L2.48339 10.5897H2.4191L1.92749 9.58002L1.81026 9.33043C1.76866 9.23967 1.72706 9.1527 1.68925 9.0695H1.68168C1.6779 9.1527 1.67412 9.23589 1.66656 9.32287C1.66278 9.40984 1.65521 9.48926 1.65143 9.56867L1.57202 10.5708H1.38672L1.54176 8.64218H1.67034L2.20355 9.72372C2.24514 9.81069 2.28674 9.89767 2.33212 9.99221C2.37372 10.083 2.41532 10.1737 2.45313 10.2645H2.4607C2.49851 10.1737 2.53633 10.0868 2.57793 9.99977C2.61952 9.90902 2.66112 9.81826 2.71028 9.72372L3.23971 8.64218H3.36828L3.52711 10.5708H3.33425ZM4.84689 10.601C4.80151 10.5897 4.75614 10.567 4.71832 10.5292C4.6805 10.4914 4.65403 10.446 4.64269 10.3931C4.60487 10.4573 4.55193 10.5103 4.48008 10.5443C4.40823 10.5784 4.32881 10.601 4.24562 10.601C4.18133 10.601 4.12082 10.5897 4.06788 10.5708C4.01494 10.5481 3.96956 10.5216 3.92796 10.4838C3.88636 10.446 3.85989 10.4044 3.8372 10.3552C3.81451 10.3061 3.80695 10.2531 3.80695 10.2002C3.80695 10.1321 3.8183 10.0754 3.84477 10.0262C3.87124 9.97708 3.90149 9.93171 3.94309 9.89767C3.98469 9.86364 4.03007 9.83717 4.08301 9.81448C4.13595 9.79557 4.18889 9.78422 4.24562 9.77666L4.61243 9.73884V9.61027C4.61243 9.52707 4.58218 9.45901 4.52924 9.40984C4.4763 9.36068 4.3931 9.33799 4.291 9.33799C4.22671 9.33799 4.16242 9.34556 4.09435 9.36447C4.02628 9.38337 3.97334 9.40606 3.92796 9.43632L3.89015 9.27749C3.94309 9.23967 4.00359 9.2132 4.07923 9.19429C4.15108 9.17539 4.22671 9.16782 4.30234 9.16782C4.37419 9.16782 4.44226 9.17917 4.50655 9.19807C4.57084 9.21698 4.62378 9.24724 4.66916 9.28505C4.71454 9.32287 4.74857 9.37203 4.77504 9.42875C4.80151 9.48548 4.81286 9.54976 4.81286 9.6254V10.2531C4.81286 10.3212 4.82799 10.3742 4.8658 10.412C4.89984 10.4498 4.94143 10.4725 4.98303 10.48L4.84689 10.601ZM4.60865 9.89767L4.27209 9.92792C4.18133 9.93549 4.11326 9.96574 4.0641 10.0111C4.01494 10.0565 3.98847 10.1208 3.98847 10.1964C3.98847 10.2645 4.01494 10.3212 4.0641 10.3666C4.11326 10.412 4.17755 10.4347 4.2494 10.4347C4.291 10.4347 4.33259 10.4271 4.37419 10.4082C4.41579 10.3893 4.45361 10.3666 4.49142 10.3363C4.52546 10.3061 4.55571 10.2683 4.5784 10.2267C4.60109 10.1851 4.61243 10.1359 4.61243 10.0792V9.89767H4.60865ZM6.27634 9.44388C6.2234 9.40984 6.16289 9.38337 6.09861 9.36447C6.03432 9.34556 5.96625 9.33799 5.8944 9.33799C5.81877 9.33799 5.74692 9.35312 5.67885 9.37581C5.61078 9.40228 5.55406 9.4401 5.50489 9.48926C5.45573 9.53842 5.41792 9.59514 5.38766 9.66321C5.35741 9.73128 5.34607 9.80691 5.34607 9.88633C5.34607 9.96574 5.36119 10.0414 5.39145 10.1057C5.4217 10.1737 5.45951 10.2305 5.50868 10.2796C5.55784 10.3288 5.61834 10.3666 5.68263 10.3931C5.7507 10.4195 5.82255 10.4309 5.90196 10.4309C5.97381 10.4309 6.0381 10.4233 6.10239 10.4082C6.16668 10.3931 6.23475 10.3666 6.30281 10.3326L6.25365 10.5254C6.20827 10.5519 6.15155 10.5708 6.08726 10.5821C6.02297 10.5935 5.95491 10.601 5.88306 10.601C5.78473 10.601 5.69397 10.5859 5.60322 10.5519C5.51246 10.5179 5.43683 10.4725 5.36876 10.4082C5.30069 10.3439 5.24774 10.272 5.20615 10.1813C5.16455 10.0905 5.14564 9.99599 5.14564 9.88633C5.14564 9.77666 5.16455 9.67834 5.20615 9.59136C5.24396 9.5006 5.30069 9.42875 5.36497 9.36447C5.42926 9.30018 5.51246 9.2548 5.59943 9.22076C5.69019 9.18673 5.78095 9.16782 5.87927 9.16782C5.97003 9.16782 6.04945 9.17917 6.1213 9.19807C6.19315 9.21698 6.25743 9.24345 6.31038 9.27371L6.27634 9.44388ZM7.57722 10.5708V9.66699C7.57722 9.56867 7.54318 9.49304 7.48268 9.42875C7.42217 9.36447 7.32763 9.33799 7.20284 9.33799C7.08561 9.33799 6.99107 9.36825 6.91922 9.42875C6.84737 9.48926 6.81333 9.56867 6.81333 9.66699V10.5708H6.62047V8.41528H6.81333L6.80955 9.35312C6.84359 9.30396 6.89653 9.26236 6.9646 9.22455C7.03267 9.18673 7.12721 9.16782 7.24444 9.16782C7.32007 9.16782 7.38814 9.17917 7.45242 9.20186C7.51671 9.22455 7.56965 9.2548 7.61882 9.2964C7.66419 9.33799 7.70201 9.38715 7.72848 9.44766C7.75495 9.50817 7.7663 9.57623 7.7663 9.64809V10.5708H7.57722ZM8.92347 9.35312H8.46968V10.2229C8.46968 10.291 8.48859 10.3401 8.53018 10.3704C8.568 10.4044 8.61716 10.4195 8.67388 10.4195C8.73817 10.4195 8.79112 10.412 8.83271 10.3931L8.78733 10.5746C8.75708 10.5859 8.71548 10.5897 8.65876 10.5897C8.55287 10.5897 8.46211 10.5595 8.38648 10.4952C8.31085 10.4309 8.27682 10.3401 8.27682 10.2191V9.35312H7.99319V9.19429H8.27682V8.89933L8.46968 8.80101V9.19807H8.96129L8.92347 9.35312ZM9.48315 8.78588C9.48315 8.79722 9.47937 8.81235 9.46802 8.83126C9.45668 8.85017 9.44912 8.86529 9.43399 8.88042C9.41886 8.89555 9.40374 8.90689 9.39239 8.91824C9.38105 8.92958 9.36592 8.93336 9.35457 8.93336C9.34323 8.93336 9.3281 8.92958 9.31676 8.91824C9.30541 8.90689 9.29029 8.89555 9.27516 8.88042C9.26004 8.86529 9.25247 8.85017 9.24113 8.83126C9.22978 8.81235 9.226 8.80101 9.226 8.78588C9.226 8.77075 9.22978 8.75941 9.24113 8.7405C9.25247 8.72159 9.26004 8.70647 9.27516 8.69134C9.29029 8.67621 9.30163 8.66109 9.31676 8.65352C9.33189 8.64596 9.34323 8.6384 9.35457 8.6384C9.36592 8.6384 9.38105 8.64218 9.39239 8.65352C9.40752 8.66487 9.42264 8.67621 9.43399 8.69134C9.44533 8.70647 9.46046 8.72159 9.46802 8.7405C9.47937 8.75941 9.48315 8.77454 9.48315 8.78588ZM9.25625 10.5708V9.20186H9.44911V10.5708H9.25625ZM10.992 10.8317C10.992 10.8922 10.9769 10.9527 10.9466 11.0057C10.9164 11.0586 10.8748 11.104 10.8218 11.1418C10.7689 11.1796 10.7046 11.2137 10.6328 11.2326C10.5609 11.2515 10.4777 11.2666 10.3907 11.2666C10.3 11.2666 10.2168 11.2553 10.1412 11.2288C10.0655 11.2023 10.0012 11.1721 9.94829 11.1305C9.89535 11.0889 9.85375 11.0397 9.82349 10.9792C9.79324 10.9225 9.77812 10.8582 9.77812 10.7939C9.77812 10.7372 9.78568 10.6842 9.80459 10.6389C9.82349 10.5935 9.84618 10.5519 9.87644 10.5141C9.90669 10.4763 9.94073 10.446 9.98232 10.4233C10.0239 10.4006 10.0617 10.3817 10.1033 10.3742L9.93694 10.2267C9.93694 10.204 9.94451 10.1775 9.95585 10.1586C9.9672 10.1359 9.98232 10.117 10.0012 10.0943C10.0201 10.0716 10.039 10.0565 10.0655 10.0414C10.0882 10.0262 10.1109 10.0149 10.1336 10.0111C10.0655 9.97708 10.005 9.92792 9.95585 9.85986C9.90669 9.79179 9.88022 9.71237 9.88022 9.62161C9.88022 9.55355 9.89156 9.49304 9.91803 9.4401C9.94451 9.38715 9.97854 9.33799 10.0239 9.2964C10.0693 9.2548 10.1222 9.22455 10.1827 9.20186C10.2433 9.17917 10.3113 9.16782 10.3832 9.16782C10.421 9.16782 10.4512 9.1716 10.4815 9.17539C10.5117 9.17917 10.5344 9.18673 10.5571 9.19051C10.6025 9.20564 10.6592 9.2132 10.7273 9.2132C10.7689 9.2132 10.8067 9.20942 10.8407 9.19807C10.8748 9.18673 10.9088 9.17538 10.9353 9.16404L10.9731 9.32287C10.958 9.33421 10.9277 9.34178 10.8899 9.35312C10.8483 9.36068 10.8143 9.36825 10.7878 9.36825C10.8181 9.3985 10.8407 9.43253 10.8597 9.47791C10.8786 9.52329 10.8899 9.57245 10.8899 9.6254C10.8899 9.6859 10.8786 9.74263 10.8559 9.79935C10.8332 9.85607 10.7992 9.90523 10.7576 9.94683C10.716 9.98843 10.663 10.0225 10.5987 10.0452C10.5344 10.0678 10.4664 10.083 10.3907 10.083C10.3151 10.083 10.2546 10.0943 10.2168 10.1132C10.179 10.1321 10.1563 10.1586 10.1563 10.1889C10.1563 10.1964 10.1676 10.2115 10.1941 10.2342C10.2206 10.2569 10.247 10.2758 10.2811 10.2872L10.6365 10.4082C10.7538 10.4498 10.8445 10.5027 10.9088 10.567C10.958 10.6275 10.992 10.7183 10.992 10.8317ZM10.8067 10.8317C10.8067 10.7674 10.784 10.7145 10.7424 10.6691C10.7008 10.6237 10.6403 10.5897 10.5647 10.567L10.2886 10.4838C10.1903 10.4876 10.1071 10.5179 10.0466 10.5746C9.9861 10.6313 9.95207 10.7069 9.95207 10.7977C9.95207 10.8393 9.95963 10.8771 9.98232 10.9149C10.005 10.9527 10.0277 10.9868 10.0655 11.0132C10.1033 11.0397 10.1487 11.0662 10.2017 11.0851C10.2546 11.104 10.3151 11.1116 10.3832 11.1116C10.4512 11.1116 10.508 11.104 10.5609 11.0889C10.6139 11.0737 10.6592 11.0511 10.6933 11.0246C10.7273 10.9981 10.7576 10.9679 10.7765 10.9338C10.7954 10.8998 10.8067 10.8658 10.8067 10.8317ZM10.7046 9.62161C10.7046 9.58002 10.697 9.5422 10.6819 9.50817C10.6668 9.47413 10.6441 9.4401 10.6139 9.41363C10.5836 9.38715 10.5496 9.36447 10.5117 9.34934C10.4739 9.33421 10.4323 9.32665 10.387 9.32665C10.2924 9.32665 10.213 9.3569 10.1525 9.41363C10.092 9.47035 10.0617 9.5422 10.0617 9.62161C10.0617 9.70481 10.092 9.77666 10.1525 9.83338C10.213 9.89011 10.2924 9.91658 10.387 9.91658C10.4286 9.91658 10.4701 9.90902 10.508 9.89389C10.5458 9.87876 10.5836 9.85607 10.6101 9.8296C10.6403 9.80313 10.663 9.77288 10.6781 9.73506C10.6933 9.70481 10.7046 9.66321 10.7046 9.62161ZM11.5593 8.78588C11.5593 8.79722 11.5555 8.81235 11.5441 8.83126C11.5328 8.85017 11.5252 8.86529 11.5101 8.88042C11.495 8.89555 11.4798 8.90689 11.4685 8.91824C11.4572 8.92958 11.442 8.93336 11.4307 8.93336C11.4193 8.93336 11.4042 8.92958 11.3929 8.91824C11.3815 8.90689 11.3664 8.89555 11.3513 8.88042C11.3361 8.86529 11.3286 8.85017 11.3172 8.83126C11.3059 8.81235 11.3021 8.80101 11.3021 8.78588C11.3021 8.77075 11.3059 8.75941 11.3172 8.7405C11.3286 8.72159 11.3361 8.70647 11.3513 8.69134C11.3664 8.67621 11.3777 8.66109 11.3929 8.65352C11.408 8.64596 11.4193 8.6384 11.4307 8.6384C11.442 8.6384 11.4572 8.64218 11.4685 8.65352C11.4836 8.66487 11.4987 8.67621 11.5101 8.69134C11.5214 8.70647 11.5366 8.72159 11.5441 8.7405C11.5555 8.75941 11.5593 8.77454 11.5593 8.78588ZM11.3324 10.5708V9.20186H11.5252V10.5708H11.3324ZM12.9131 10.5708V9.66699C12.9131 9.56867 12.879 9.49304 12.8185 9.42875C12.758 9.36447 12.6635 9.33799 12.5387 9.33799C12.4215 9.33799 12.3269 9.36825 12.2551 9.42875C12.1832 9.48926 12.1492 9.56867 12.1492 9.66699V10.5708H11.9563V9.20186H12.1303L12.1341 9.36825C12.1719 9.3153 12.2248 9.26993 12.2929 9.23211C12.3647 9.19429 12.4593 9.1716 12.5803 9.1716C12.6559 9.1716 12.724 9.18295 12.7883 9.20564C12.8526 9.22833 12.9055 9.25858 12.9547 9.30018C13 9.34178 13.0379 9.39094 13.0643 9.45144C13.0908 9.51195 13.1022 9.58002 13.1022 9.65187V10.5746H12.9131V10.5708ZM14.5732 10.8317C14.5732 10.8922 14.5581 10.9527 14.5278 11.0057C14.4976 11.0586 14.456 11.104 14.403 11.1418C14.3501 11.1796 14.2858 11.2137 14.2139 11.2326C14.1421 11.2515 14.0589 11.2666 13.9719 11.2666C13.8812 11.2666 13.798 11.2553 13.7223 11.2288C13.6467 11.2023 13.5824 11.1721 13.5295 11.1305C13.4765 11.0889 13.4349 11.0397 13.4047 10.9792C13.3744 10.9225 13.3593 10.8582 13.3593 10.7939C13.3593 10.7372 13.3669 10.6842 13.3858 10.6389C13.4047 10.5935 13.4274 10.5519 13.4576 10.5141C13.4879 10.4763 13.5219 10.446 13.5635 10.4233C13.6051 10.4006 13.6429 10.3817 13.6845 10.3742L13.5181 10.2267C13.5181 10.204 13.5257 10.1775 13.537 10.1586C13.5484 10.1359 13.5635 10.117 13.5824 10.0943C13.6013 10.0716 13.6202 10.0565 13.6467 10.0414C13.6694 10.0262 13.6921 10.0149 13.7148 10.0111C13.6467 9.97708 13.5862 9.92792 13.537 9.85986C13.4879 9.79179 13.4614 9.71237 13.4614 9.62161C13.4614 9.55355 13.4727 9.49304 13.4992 9.4401C13.5257 9.38715 13.5597 9.33799 13.6051 9.2964C13.6505 9.2548 13.7034 9.22455 13.7639 9.20186C13.8244 9.17917 13.8925 9.16782 13.9644 9.16782C14.0022 9.16782 14.0324 9.1716 14.0627 9.17539C14.0929 9.17917 14.1156 9.18673 14.1383 9.19051C14.1837 9.20564 14.2404 9.2132 14.3085 9.2132C14.3501 9.2132 14.3879 9.20942 14.4219 9.19807C14.456 9.18673 14.49 9.17538 14.5165 9.16404L14.5543 9.32287C14.5392 9.33421 14.5089 9.34178 14.4711 9.35312C14.4295 9.36068 14.3955 9.36825 14.369 9.36825C14.3992 9.3985 14.4219 9.43253 14.4408 9.47791C14.4598 9.52329 14.4711 9.57245 14.4711 9.6254C14.4711 9.6859 14.4598 9.74263 14.4371 9.79935C14.4144 9.85607 14.3803 9.90523 14.3387 9.94683C14.2971 9.98843 14.2442 10.0225 14.1799 10.0452C14.1156 10.0678 14.0476 10.083 13.9719 10.083C13.8963 10.083 13.8358 10.0943 13.798 10.1132C13.7602 10.1321 13.7375 10.1586 13.7375 10.1889C13.7375 10.1964 13.7488 10.2115 13.7753 10.2342C13.8017 10.2569 13.8282 10.2758 13.8623 10.2872L14.2177 10.4082C14.335 10.4498 14.4257 10.5027 14.49 10.567C14.5429 10.6275 14.5732 10.7183 14.5732 10.8317ZM14.3879 10.8317C14.3879 10.7674 14.3652 10.7145 14.3236 10.6691C14.282 10.6237 14.2215 10.5897 14.1459 10.567L13.8698 10.4838C13.7715 10.4876 13.6883 10.5179 13.6278 10.5746C13.5673 10.6313 13.5333 10.7069 13.5333 10.7977C13.5333 10.8393 13.5408 10.8771 13.5635 10.9149C13.5862 10.9527 13.6089 10.9868 13.6467 11.0132C13.6845 11.0397 13.7299 11.0662 13.7828 11.0851C13.8358 11.104 13.8963 11.1116 13.9644 11.1116C14.0324 11.1116 14.0892 11.104 14.1421 11.0889C14.195 11.0737 14.2404 11.0511 14.2745 11.0246C14.3085 10.9981 14.3387 10.9679 14.3576 10.9338C14.3803 10.8998 14.3879 10.8658 14.3879 10.8317ZM14.2858 9.62161C14.2858 9.58002 14.2782 9.5422 14.2631 9.50817C14.248 9.47413 14.2253 9.4401 14.195 9.41363C14.1648 9.38715 14.1308 9.36447 14.0929 9.34934C14.0551 9.33421 14.0135 9.32665 13.9681 9.32665C13.8736 9.32665 13.7942 9.3569 13.7337 9.41363C13.6732 9.47035 13.6429 9.5422 13.6429 9.62161C13.6429 9.70481 13.6732 9.77666 13.7337 9.83338C13.7942 9.89011 13.8736 9.91658 13.9681 9.91658C14.0097 9.91658 14.0513 9.90902 14.0892 9.89389C14.127 9.87876 14.1648 9.85607 14.1913 9.8296C14.2215 9.80313 14.2442 9.77288 14.2593 9.73506C14.2782 9.70481 14.2858 9.66321 14.2858 9.62161Z" fill="#127BC0"/>
</svg>
