<svg width="16" height="16" viewBox="0 0 16 16" fill="none" xmlns="http://www.w3.org/2000/svg">
<path d="M6.10352e-05 7.41248V4.99981H1.40682V5.48007H0.586211V5.96034H1.25556V6.44817H0.586211V6.93221H1.51271V7.41248H6.10352e-05ZM3.35813 6.32716C3.35813 6.38388 3.35057 6.4406 3.33922 6.49733L3.11611 6.71666H2.26146C2.27281 6.75448 2.28794 6.79229 2.31441 6.83389C2.34088 6.87171 2.37491 6.90574 2.41273 6.93978C2.45433 6.97003 2.50349 6.9965 2.56021 7.01541C2.61694 7.03432 2.68501 7.04566 2.76064 7.04566C2.85896 7.04566 2.94594 7.03432 3.02913 7.01163C3.11233 6.98894 3.18418 6.9549 3.25981 6.91331L3.21065 7.37088C3.15393 7.39735 3.08207 7.42004 2.99888 7.43895C2.91568 7.45786 2.81358 7.46542 2.70013 7.46542C2.56021 7.46542 2.42786 7.44273 2.30684 7.40113C2.18583 7.35954 2.07995 7.29525 1.98919 7.21583C1.89843 7.13642 1.82658 7.0381 1.77742 6.92465C1.72826 6.8112 1.698 6.68641 1.698 6.54271C1.698 6.40279 1.72069 6.27799 1.76986 6.16833C1.81902 6.05866 1.8833 5.96412 1.96272 5.88471C2.04213 5.80529 2.14045 5.74479 2.24634 5.70319C2.35222 5.66159 2.46945 5.6389 2.59047 5.6389C2.7077 5.6389 2.81358 5.65781 2.90812 5.69563C3.00266 5.73344 3.08207 5.7826 3.15014 5.84689C3.21821 5.91118 3.26737 5.98303 3.30519 6.06622C3.33922 6.1532 3.35813 6.24018 3.35813 6.32716ZM2.8514 6.32337C2.8514 6.25531 2.82871 6.1948 2.77955 6.14186C2.73038 6.08891 2.66988 6.06622 2.58668 6.06622C2.50349 6.06622 2.43164 6.0927 2.36357 6.14942C2.29928 6.20236 2.25768 6.27421 2.23499 6.36119H2.84005C2.8514 6.35363 2.8514 6.34228 2.8514 6.32337ZM4.73464 7.41248V6.39144C4.73464 6.32716 4.71195 6.27421 4.67035 6.22505C4.62875 6.17589 4.56069 6.1532 4.47371 6.1532C4.38673 6.1532 4.31866 6.17589 4.2695 6.22505C4.22034 6.27421 4.19387 6.33094 4.19387 6.39901V7.41248H3.63797V5.69941H4.1258L4.14093 5.86958C4.19009 5.80529 4.25816 5.75235 4.34513 5.71075C4.42833 5.67294 4.53421 5.65403 4.65523 5.65403C4.74977 5.65403 4.83296 5.66916 4.91237 5.69941C4.99179 5.72966 5.05608 5.76748 5.1128 5.82042C5.16952 5.87336 5.21112 5.93765 5.24516 6.01706C5.27541 6.0927 5.29054 6.17967 5.29054 6.27421V7.41626L4.73464 7.41248ZM7.76749 7.41248V6.35741C7.76749 6.2969 7.7448 6.24774 7.69942 6.21371C7.65404 6.17967 7.59354 6.15698 7.51791 6.15698C7.43849 6.15698 7.3742 6.17589 7.32882 6.21371C7.27966 6.25152 7.25319 6.30068 7.25319 6.36497V7.41248H6.6973V6.35741C6.6973 6.2969 6.67461 6.24774 6.62923 6.21371C6.58385 6.17967 6.52334 6.15698 6.44015 6.15698C6.36451 6.15698 6.30401 6.17589 6.25107 6.21371C6.2019 6.25152 6.17543 6.30068 6.17543 6.36497V7.41248H5.61954V5.69941H6.10736L6.12249 5.86958C6.16409 5.81286 6.22838 5.75991 6.31157 5.71832C6.39477 5.67672 6.50065 5.65403 6.61788 5.65403C6.73511 5.65403 6.83343 5.67672 6.91285 5.71832C6.99226 5.75991 7.05655 5.81286 7.10571 5.87336C7.15487 5.81286 7.23428 5.75991 7.33261 5.71832C7.43471 5.67672 7.54816 5.65403 7.67295 5.65403C7.87338 5.65403 8.0322 5.71075 8.14187 5.81664C8.25154 5.9263 8.30826 6.07001 8.30826 6.24018V7.4087L7.76749 7.41248ZM10.0667 7.46542C9.89654 7.45408 9.77553 7.38979 9.70368 7.27256C9.64695 7.33685 9.5751 7.38601 9.49191 7.41626C9.40871 7.44651 9.31795 7.46164 9.22719 7.46164C9.14022 7.46164 9.05702 7.45029 8.98139 7.42382C8.90576 7.39735 8.84147 7.35954 8.78475 7.31416C8.72802 7.26878 8.68264 7.20449 8.65239 7.13642C8.62214 7.06835 8.60701 6.98894 8.60701 6.90196C8.60701 6.74313 8.66373 6.61456 8.7734 6.51624C8.88307 6.41791 9.02299 6.36119 9.18938 6.34228L9.52972 6.30825V6.24774C9.52972 6.1948 9.51081 6.1532 9.46922 6.11917C9.42762 6.08513 9.35955 6.07001 9.26123 6.07001C9.16291 6.07001 9.06837 6.08135 8.97761 6.10404C8.88685 6.12673 8.815 6.1532 8.75827 6.18724L8.71668 5.7637C8.78096 5.72966 8.86794 5.69941 8.97383 5.67672C9.07971 5.65403 9.1856 5.64268 9.29148 5.64268C9.52972 5.64268 9.7188 5.70319 9.85872 5.82042C9.99864 5.93765 10.0667 6.10782 10.0667 6.33094V6.82255C10.0667 6.89818 10.0856 6.95868 10.1197 7.00028C10.1537 7.04188 10.2028 7.06835 10.2634 7.0797L10.0667 7.46542ZM9.54107 6.66372L9.31039 6.68641C9.23098 6.69397 9.17425 6.72044 9.14022 6.76582C9.10618 6.8112 9.08727 6.85658 9.08727 6.90952C9.08727 6.9549 9.10618 6.99272 9.14022 7.02675C9.17425 7.06079 9.21585 7.07591 9.27257 7.07591C9.34064 7.07591 9.40493 7.05323 9.46165 7.00406C9.51838 6.9549 9.54485 6.8944 9.54485 6.82255L9.54107 6.66372ZM11.0651 7.48811C11.0083 7.48433 10.9478 7.4692 10.8873 7.44273C10.8268 7.41626 10.7701 7.37466 10.7209 7.32172C10.6718 7.26878 10.6302 7.20449 10.5999 7.12886C10.5697 7.05323 10.5545 6.96625 10.5545 6.86793V4.71997H11.1029V6.82633C11.1029 6.90574 11.1218 6.97003 11.1634 7.01541C11.205 7.06079 11.2541 7.09104 11.3146 7.10239L11.0651 7.48811ZM12.1844 5.13595C12.1844 5.15864 12.1731 5.18511 12.1504 5.21914C12.1277 5.25318 12.105 5.28343 12.0747 5.31368C12.0445 5.34394 12.0142 5.37041 11.9802 5.38932C11.9462 5.40822 11.9197 5.41957 11.897 5.41957C11.8743 5.41957 11.8479 5.40822 11.8138 5.38932C11.7798 5.37041 11.7495 5.34394 11.7193 5.31368C11.689 5.28343 11.6663 5.25318 11.6436 5.21914C11.621 5.18511 11.6096 5.15864 11.6096 5.13595C11.6096 5.11326 11.621 5.08679 11.6436 5.05275C11.6663 5.01872 11.689 4.98847 11.7193 4.95821C11.7495 4.92796 11.7798 4.90149 11.8138 4.88258C11.8479 4.85989 11.8743 4.84855 11.897 4.84855C11.9197 4.84855 11.9462 4.85989 11.9802 4.88258C12.0142 4.90527 12.0445 4.92796 12.0747 4.95821C12.105 4.98847 12.1315 5.01872 12.1504 5.05275C12.1731 5.08679 12.1844 5.11326 12.1844 5.13595ZM11.621 7.41248V5.69941H12.1806V7.41248H11.621ZM14.1319 7.6961C14.1319 7.78308 14.113 7.86627 14.0752 7.9419C14.0374 8.01754 13.9807 8.08182 13.9088 8.13855C13.837 8.19527 13.75 8.23687 13.6479 8.26712C13.5458 8.29738 13.4361 8.3125 13.3113 8.3125C13.1865 8.3125 13.0693 8.29738 12.971 8.26334C12.8689 8.22931 12.7819 8.18393 12.7101 8.12342C12.6382 8.0667 12.5815 7.99863 12.5399 7.91921C12.4983 7.8398 12.4794 7.7566 12.4794 7.66206C12.4794 7.53727 12.5096 7.43517 12.5739 7.35197C12.6382 7.26878 12.7176 7.20827 12.8122 7.17802L12.6155 6.98137C12.6231 6.92465 12.6458 6.87171 12.6874 6.82633C12.729 6.78095 12.7706 6.74691 12.8122 6.72044C12.7479 6.67506 12.6911 6.61456 12.642 6.53893C12.5928 6.46329 12.5701 6.37632 12.5701 6.27799C12.5701 6.18345 12.5853 6.10026 12.6155 6.02085C12.6458 5.94143 12.6912 5.87714 12.7517 5.82042C12.8122 5.7637 12.884 5.71832 12.9748 5.68806C13.0617 5.65781 13.1601 5.64268 13.2735 5.64268C13.3227 5.64268 13.3681 5.64647 13.4097 5.65025C13.4513 5.65403 13.4891 5.66537 13.5269 5.67672C13.5647 5.68806 13.6025 5.69563 13.6441 5.69941C13.6857 5.70319 13.7273 5.70697 13.7727 5.70697C13.8332 5.70697 13.8899 5.69941 13.9391 5.68806C13.9882 5.67672 14.0336 5.66159 14.0714 5.64268L14.1093 6.07757C14.0979 6.08891 14.0714 6.10026 14.0374 6.10782C14.0034 6.11539 13.9693 6.11917 13.9429 6.11539C13.9618 6.14942 13.9731 6.19858 13.9731 6.26287C13.9731 6.34606 13.958 6.4217 13.9315 6.49355C13.905 6.56162 13.8635 6.62212 13.8143 6.67506C13.7651 6.72801 13.7046 6.7696 13.6366 6.80364C13.5685 6.83767 13.4929 6.85658 13.4097 6.86414C13.3756 6.86793 13.3454 6.87171 13.3227 6.88305C13.3 6.8944 13.2886 6.90952 13.2886 6.93221C13.2886 6.95868 13.3038 6.97381 13.334 6.98516L13.6101 7.0797C13.7765 7.13642 13.905 7.21583 13.992 7.31416C14.0866 7.4087 14.1319 7.53727 14.1319 7.6961ZM13.6328 7.70366C13.6328 7.65828 13.6176 7.61669 13.5836 7.57887C13.5496 7.54105 13.5042 7.5108 13.4437 7.49567L13.2168 7.43139C13.1449 7.43517 13.0844 7.46164 13.0315 7.50324C12.9823 7.54862 12.9559 7.60534 12.9559 7.67719C12.9559 7.74148 12.9861 7.7982 13.0391 7.84736C13.092 7.89652 13.1828 7.91921 13.2962 7.91921C13.4059 7.91921 13.4853 7.89652 13.542 7.85493C13.6025 7.80955 13.6328 7.76039 13.6328 7.70366ZM13.5193 6.25909C13.5193 6.1948 13.4966 6.14186 13.4513 6.10026C13.4059 6.05488 13.3492 6.03219 13.2773 6.03219C13.2092 6.03219 13.1525 6.05488 13.1071 6.10026C13.0617 6.14564 13.0353 6.19858 13.0353 6.25909C13.0353 6.31959 13.058 6.37632 13.1071 6.41791C13.1563 6.45951 13.213 6.48598 13.2773 6.48598C13.3416 6.48598 13.3983 6.46329 13.4475 6.41791C13.4966 6.37632 13.5193 6.32337 13.5193 6.25909ZM16.0001 6.32716C16.0001 6.38388 15.9925 6.4406 15.9812 6.49733L15.758 6.71666H14.9034C14.9147 6.75448 14.9299 6.79229 14.9563 6.83389C14.9828 6.87171 15.0131 6.90574 15.0547 6.93978C15.0963 6.97381 15.1454 6.9965 15.2059 7.01541C15.2664 7.03432 15.3307 7.04566 15.4063 7.04566C15.5047 7.04566 15.5954 7.03432 15.6748 7.01163C15.7543 6.98894 15.8299 6.9549 15.9017 6.91331L15.8526 7.37088C15.7959 7.39735 15.724 7.42004 15.637 7.43895C15.5538 7.45786 15.4517 7.4692 15.3383 7.4692C15.1984 7.4692 15.066 7.44651 14.945 7.40492C14.824 7.36332 14.7181 7.29903 14.6273 7.21962C14.5366 7.1402 14.4647 7.04188 14.4156 6.92843C14.3664 6.81498 14.3399 6.69019 14.3399 6.54649C14.3399 6.40657 14.3626 6.28178 14.4118 6.17211C14.4609 6.06244 14.5252 5.9679 14.6046 5.88849C14.6878 5.80907 14.7824 5.74857 14.8883 5.70697C14.9942 5.66537 15.1114 5.64268 15.2286 5.64268C15.3458 5.64268 15.4555 5.66159 15.55 5.69941C15.6446 5.73722 15.724 5.78639 15.7921 5.85067C15.8601 5.91496 15.9093 5.98681 15.9433 6.07001C15.9812 6.1532 16.0001 6.24018 16.0001 6.32716ZM15.4933 6.32337C15.4933 6.25531 15.4706 6.1948 15.4215 6.14186C15.3723 6.08891 15.3118 6.06622 15.2324 6.06622C15.1492 6.06622 15.0773 6.0927 15.0093 6.14942C14.945 6.20236 14.9034 6.27421 14.8807 6.36119H15.4858C15.4933 6.35363 15.4933 6.34228 15.4933 6.32337Z" fill="#27276F"/>
<path d="M3.33431 10.5708L3.25111 9.56867C3.24355 9.48548 3.23977 9.3985 3.23599 9.3153C3.23221 9.23211 3.22842 9.14891 3.22086 9.06572H3.2133C3.17926 9.14513 3.14145 9.23211 3.09607 9.32287C3.05447 9.40984 3.01665 9.49304 2.97506 9.58002L2.48345 10.5897H2.41916L1.92755 9.58002L1.81032 9.33043C1.76872 9.23967 1.72712 9.1527 1.68931 9.0695H1.68175C1.67796 9.1527 1.67418 9.23589 1.66662 9.32287C1.66284 9.40984 1.65527 9.48926 1.65149 9.56867L1.57208 10.5708H1.38678L1.54183 8.64218H1.6704L2.20361 9.72372C2.24521 9.81069 2.2868 9.89767 2.33218 9.99221C2.37378 10.083 2.41538 10.1737 2.45319 10.2645H2.46076C2.49857 10.1737 2.53639 10.0868 2.57799 9.99977C2.61959 9.90902 2.66118 9.81826 2.71034 9.72372L3.23977 8.64218H3.36834L3.52717 10.5708H3.33431ZM4.84695 10.601C4.80158 10.5897 4.7562 10.567 4.71838 10.5292C4.68056 10.4914 4.65409 10.446 4.64275 10.3931C4.60493 10.4573 4.55199 10.5103 4.48014 10.5443C4.40829 10.5784 4.32887 10.601 4.24568 10.601C4.18139 10.601 4.12088 10.5897 4.06794 10.5708C4.015 10.5481 3.96962 10.5216 3.92802 10.4838C3.88643 10.446 3.85995 10.4044 3.83726 10.3552C3.81457 10.3061 3.80701 10.2531 3.80701 10.2002C3.80701 10.1321 3.81836 10.0754 3.84483 10.0262C3.8713 9.97708 3.90155 9.93171 3.94315 9.89767C3.98475 9.86364 4.03013 9.83717 4.08307 9.81448C4.13601 9.79557 4.18895 9.78422 4.24568 9.77666L4.61249 9.73884V9.61027C4.61249 9.52707 4.58224 9.45901 4.5293 9.40984C4.47636 9.36068 4.39316 9.33799 4.29106 9.33799C4.22677 9.33799 4.16248 9.34556 4.09441 9.36447C4.02635 9.38337 3.9734 9.40606 3.92802 9.43632L3.89021 9.27749C3.94315 9.23967 4.00365 9.2132 4.07929 9.19429C4.15114 9.17539 4.22677 9.16782 4.3024 9.16782C4.37425 9.16782 4.44232 9.17917 4.50661 9.19807C4.5709 9.21698 4.62384 9.24724 4.66922 9.28505C4.7146 9.32287 4.74863 9.37203 4.7751 9.42875C4.80158 9.48548 4.81292 9.54976 4.81292 9.6254V10.2531C4.81292 10.3212 4.82805 10.3742 4.86586 10.412C4.8999 10.4498 4.9415 10.4725 4.98309 10.48L4.84695 10.601ZM4.60871 9.89767L4.27215 9.92792C4.18139 9.93549 4.11332 9.96574 4.06416 10.0111C4.015 10.0565 3.98853 10.1208 3.98853 10.1964C3.98853 10.2645 4.015 10.3212 4.06416 10.3666C4.11332 10.412 4.17761 10.4347 4.24946 10.4347C4.29106 10.4347 4.33266 10.4271 4.37425 10.4082C4.41585 10.3893 4.45367 10.3666 4.49148 10.3363C4.52552 10.3061 4.55577 10.2683 4.57846 10.2267C4.60115 10.1851 4.61249 10.1359 4.61249 10.0792V9.89767H4.60871ZM6.2764 9.44388C6.22346 9.40984 6.16296 9.38337 6.09867 9.36447C6.03438 9.34556 5.96631 9.33799 5.89446 9.33799C5.81883 9.33799 5.74698 9.35312 5.67891 9.37581C5.61084 9.40228 5.55412 9.4401 5.50496 9.48926C5.45579 9.53842 5.41798 9.59514 5.38773 9.66321C5.35747 9.73128 5.34613 9.80691 5.34613 9.88633C5.34613 9.96574 5.36125 10.0414 5.39151 10.1057C5.42176 10.1737 5.45958 10.2305 5.50874 10.2796C5.5579 10.3288 5.6184 10.3666 5.68269 10.3931C5.75076 10.4195 5.82261 10.4309 5.90202 10.4309C5.97388 10.4309 6.03816 10.4233 6.10245 10.4082C6.16674 10.3931 6.23481 10.3666 6.30288 10.3326L6.25371 10.5254C6.20833 10.5519 6.15161 10.5708 6.08732 10.5821C6.02304 10.5935 5.95497 10.601 5.88312 10.601C5.78479 10.601 5.69404 10.5859 5.60328 10.5519C5.51252 10.5179 5.43689 10.4725 5.36882 10.4082C5.30075 10.3439 5.24781 10.272 5.20621 10.1813C5.16461 10.0905 5.1457 9.99599 5.1457 9.88633C5.1457 9.77666 5.16461 9.67834 5.20621 9.59136C5.24402 9.5006 5.30075 9.42875 5.36504 9.36447C5.42932 9.30018 5.51252 9.2548 5.5995 9.22076C5.69025 9.18673 5.78101 9.16782 5.87933 9.16782C5.97009 9.16782 6.04951 9.17917 6.12136 9.19807C6.19321 9.21698 6.2575 9.24345 6.31044 9.27371L6.2764 9.44388ZM7.57728 10.5708V9.66699C7.57728 9.56867 7.54324 9.49304 7.48274 9.42875C7.42223 9.36447 7.32769 9.33799 7.2029 9.33799C7.08567 9.33799 6.99113 9.36825 6.91928 9.42875C6.84743 9.48926 6.81339 9.56867 6.81339 9.66699V10.5708H6.62053V8.41528H6.81339L6.80961 9.35312C6.84365 9.30396 6.89659 9.26236 6.96466 9.22455C7.03273 9.18673 7.12727 9.16782 7.2445 9.16782C7.32013 9.16782 7.3882 9.17917 7.45249 9.20186C7.51677 9.22455 7.56972 9.2548 7.61888 9.2964C7.66426 9.33799 7.70207 9.38715 7.72854 9.44766C7.75501 9.50817 7.76636 9.57623 7.76636 9.64809V10.5708H7.57728ZM8.92353 9.35312H8.46974V10.2229C8.46974 10.291 8.48865 10.3401 8.53024 10.3704C8.56806 10.4044 8.61722 10.4195 8.67395 10.4195C8.73823 10.4195 8.79118 10.412 8.83277 10.3931L8.78739 10.5746C8.75714 10.5859 8.71554 10.5897 8.65882 10.5897C8.55293 10.5897 8.46218 10.5595 8.38654 10.4952C8.31091 10.4309 8.27688 10.3401 8.27688 10.2191V9.35312H7.99326V9.19429H8.27688V8.89933L8.46974 8.80101V9.19807H8.96135L8.92353 9.35312ZM9.48321 8.78588C9.48321 8.79722 9.47943 8.81235 9.46808 8.83126C9.45674 8.85017 9.44918 8.86529 9.43405 8.88042C9.41892 8.89555 9.4038 8.90689 9.39245 8.91824C9.38111 8.92958 9.36598 8.93336 9.35464 8.93336C9.34329 8.93336 9.32816 8.92958 9.31682 8.91824C9.30547 8.90689 9.29035 8.89555 9.27522 8.88042C9.2601 8.86529 9.25253 8.85017 9.24119 8.83126C9.22984 8.81235 9.22606 8.80101 9.22606 8.78588C9.22606 8.77075 9.22984 8.75941 9.24119 8.7405C9.25253 8.72159 9.2601 8.70647 9.27522 8.69134C9.29035 8.67621 9.30169 8.66109 9.31682 8.65352C9.33195 8.64596 9.34329 8.6384 9.35464 8.6384C9.36598 8.6384 9.38111 8.64218 9.39245 8.65352C9.40758 8.66487 9.4227 8.67621 9.43405 8.69134C9.44539 8.70647 9.46052 8.72159 9.46808 8.7405C9.47943 8.75941 9.48321 8.77454 9.48321 8.78588ZM9.25631 10.5708V9.20186H9.44918V10.5708H9.25631ZM10.9921 10.8317C10.9921 10.8922 10.9769 10.9527 10.9467 11.0057C10.9164 11.0586 10.8748 11.104 10.8219 11.1418C10.769 11.1796 10.7047 11.2137 10.6328 11.2326C10.561 11.2515 10.4778 11.2666 10.3908 11.2666C10.3 11.2666 10.2168 11.2553 10.1412 11.2288C10.0656 11.2023 10.0013 11.1721 9.94835 11.1305C9.89541 11.0889 9.85381 11.0397 9.82355 10.9792C9.7933 10.9225 9.77818 10.8582 9.77818 10.7939C9.77818 10.7372 9.78574 10.6842 9.80465 10.6389C9.82355 10.5935 9.84625 10.5519 9.8765 10.5141C9.90675 10.4763 9.94079 10.446 9.98238 10.4233C10.024 10.4006 10.0618 10.3817 10.1034 10.3742L9.937 10.2267C9.937 10.204 9.94457 10.1775 9.95591 10.1586C9.96726 10.1359 9.98238 10.117 10.0013 10.0943C10.0202 10.0716 10.0391 10.0565 10.0656 10.0414C10.0883 10.0262 10.111 10.0149 10.1336 10.0111C10.0656 9.97708 10.0051 9.92792 9.95591 9.85986C9.90675 9.79179 9.88028 9.71237 9.88028 9.62161C9.88028 9.55355 9.89162 9.49304 9.9181 9.4401C9.94457 9.38715 9.9786 9.33799 10.024 9.2964C10.0694 9.2548 10.1223 9.22455 10.1828 9.20186C10.2433 9.17917 10.3114 9.16782 10.3832 9.16782C10.4211 9.16782 10.4513 9.1716 10.4816 9.17539C10.5118 9.17917 10.5345 9.18673 10.5572 9.19051C10.6026 9.20564 10.6593 9.2132 10.7274 9.2132C10.769 9.2132 10.8068 9.20942 10.8408 9.19807C10.8748 9.18673 10.9089 9.17538 10.9354 9.16404L10.9732 9.32287C10.958 9.33421 10.9278 9.34178 10.89 9.35312C10.8484 9.36068 10.8143 9.36825 10.7879 9.36825C10.8181 9.3985 10.8408 9.43253 10.8597 9.47791C10.8786 9.52329 10.89 9.57245 10.89 9.6254C10.89 9.6859 10.8786 9.74263 10.8559 9.79935C10.8332 9.85607 10.7992 9.90523 10.7576 9.94683C10.716 9.98843 10.6631 10.0225 10.5988 10.0452C10.5345 10.0678 10.4664 10.083 10.3908 10.083C10.3152 10.083 10.2547 10.0943 10.2168 10.1132C10.179 10.1321 10.1563 10.1586 10.1563 10.1889C10.1563 10.1964 10.1677 10.2115 10.1942 10.2342C10.2206 10.2569 10.2471 10.2758 10.2811 10.2872L10.6366 10.4082C10.7538 10.4498 10.8446 10.5027 10.9089 10.567C10.958 10.6275 10.9921 10.7183 10.9921 10.8317ZM10.8068 10.8317C10.8068 10.7674 10.7841 10.7145 10.7425 10.6691C10.7009 10.6237 10.6404 10.5897 10.5648 10.567L10.2887 10.4838C10.1904 10.4876 10.1072 10.5179 10.0467 10.5746C9.98617 10.6313 9.95213 10.7069 9.95213 10.7977C9.95213 10.8393 9.95969 10.8771 9.98238 10.9149C10.0051 10.9527 10.0278 10.9868 10.0656 11.0132C10.1034 11.0397 10.1488 11.0662 10.2017 11.0851C10.2547 11.104 10.3152 11.1116 10.3832 11.1116C10.4513 11.1116 10.508 11.104 10.561 11.0889C10.6139 11.0737 10.6593 11.0511 10.6933 11.0246C10.7274 10.9981 10.7576 10.9679 10.7765 10.9338C10.7954 10.8998 10.8068 10.8658 10.8068 10.8317ZM10.7047 9.62161C10.7047 9.58002 10.6971 9.5422 10.682 9.50817C10.6669 9.47413 10.6442 9.4401 10.6139 9.41363C10.5837 9.38715 10.5496 9.36447 10.5118 9.34934C10.474 9.33421 10.4324 9.32665 10.387 9.32665C10.2925 9.32665 10.2131 9.3569 10.1526 9.41363C10.0921 9.47035 10.0618 9.5422 10.0618 9.62161C10.0618 9.70481 10.0921 9.77666 10.1526 9.83338C10.2131 9.89011 10.2925 9.91658 10.387 9.91658C10.4286 9.91658 10.4702 9.90902 10.508 9.89389C10.5458 9.87876 10.5837 9.85607 10.6101 9.8296C10.6404 9.80313 10.6631 9.77288 10.6782 9.73506C10.6933 9.70481 10.7047 9.66321 10.7047 9.62161ZM11.5593 8.78588C11.5593 8.79722 11.5555 8.81235 11.5442 8.83126C11.5328 8.85017 11.5253 8.86529 11.5102 8.88042C11.495 8.89555 11.4799 8.90689 11.4686 8.91824C11.4572 8.92958 11.4421 8.93336 11.4307 8.93336C11.4194 8.93336 11.4043 8.92958 11.3929 8.91824C11.3816 8.90689 11.3665 8.89555 11.3513 8.88042C11.3362 8.86529 11.3286 8.85017 11.3173 8.83126C11.3059 8.81235 11.3022 8.80101 11.3022 8.78588C11.3022 8.77075 11.3059 8.75941 11.3173 8.7405C11.3286 8.72159 11.3362 8.70647 11.3513 8.69134C11.3665 8.67621 11.3778 8.66109 11.3929 8.65352C11.4081 8.64596 11.4194 8.6384 11.4307 8.6384C11.4421 8.6384 11.4572 8.64218 11.4686 8.65352C11.4837 8.66487 11.4988 8.67621 11.5102 8.69134C11.5215 8.70647 11.5366 8.72159 11.5442 8.7405C11.5555 8.75941 11.5593 8.77454 11.5593 8.78588ZM11.3324 10.5708V9.20186H11.5253V10.5708H11.3324ZM12.9131 10.5708V9.66699C12.9131 9.56867 12.8791 9.49304 12.8186 9.42875C12.7581 9.36447 12.6635 9.33799 12.5388 9.33799C12.4215 9.33799 12.327 9.36825 12.2551 9.42875C12.1833 9.48926 12.1492 9.56867 12.1492 9.66699V10.5708H11.9564V9.20186H12.1303L12.1341 9.36825C12.1719 9.3153 12.2249 9.26993 12.2929 9.23211C12.3648 9.19429 12.4593 9.1716 12.5804 9.1716C12.656 9.1716 12.7241 9.18295 12.7883 9.20564C12.8526 9.22833 12.9056 9.25858 12.9547 9.30018C13.0001 9.34178 13.0379 9.39094 13.0644 9.45144C13.0909 9.51195 13.1022 9.58002 13.1022 9.65187V10.5746H12.9131V10.5708ZM14.5733 10.8317C14.5733 10.8922 14.5581 10.9527 14.5279 11.0057C14.4976 11.0586 14.456 11.104 14.4031 11.1418C14.3501 11.1796 14.2859 11.2137 14.214 11.2326C14.1422 11.2515 14.059 11.2666 13.972 11.2666C13.8812 11.2666 13.798 11.2553 13.7224 11.2288C13.6468 11.2023 13.5825 11.1721 13.5295 11.1305C13.4766 11.0889 13.435 11.0397 13.4047 10.9792C13.3745 10.9225 13.3594 10.8582 13.3594 10.7939C13.3594 10.7372 13.3669 10.6842 13.3858 10.6389C13.4047 10.5935 13.4274 10.5519 13.4577 10.5141C13.4879 10.4763 13.522 10.446 13.5636 10.4233C13.6052 10.4006 13.643 10.3817 13.6846 10.3742L13.5182 10.2267C13.5182 10.204 13.5258 10.1775 13.5371 10.1586C13.5484 10.1359 13.5636 10.117 13.5825 10.0943C13.6014 10.0716 13.6203 10.0565 13.6468 10.0414C13.6695 10.0262 13.6921 10.0149 13.7148 10.0111C13.6468 9.97708 13.5863 9.92792 13.5371 9.85986C13.4879 9.79179 13.4615 9.71237 13.4615 9.62161C13.4615 9.55355 13.4728 9.49304 13.4993 9.4401C13.5258 9.38715 13.5598 9.33799 13.6052 9.2964C13.6505 9.2548 13.7035 9.22455 13.764 9.20186C13.8245 9.17917 13.8926 9.16782 13.9644 9.16782C14.0022 9.16782 14.0325 9.1716 14.0627 9.17539C14.093 9.17917 14.1157 9.18673 14.1384 9.19051C14.1838 9.20564 14.2405 9.2132 14.3085 9.2132C14.3501 9.2132 14.388 9.20942 14.422 9.19807C14.456 9.18673 14.4901 9.17538 14.5165 9.16404L14.5544 9.32287C14.5392 9.33421 14.509 9.34178 14.4712 9.35312C14.4296 9.36068 14.3955 9.36825 14.3691 9.36825C14.3993 9.3985 14.422 9.43253 14.4409 9.47791C14.4598 9.52329 14.4712 9.57245 14.4712 9.6254C14.4712 9.6859 14.4598 9.74263 14.4371 9.79935C14.4144 9.85607 14.3804 9.90523 14.3388 9.94683C14.2972 9.98843 14.2443 10.0225 14.18 10.0452C14.1157 10.0678 14.0476 10.083 13.972 10.083C13.8964 10.083 13.8358 10.0943 13.798 10.1132C13.7602 10.1321 13.7375 10.1586 13.7375 10.1889C13.7375 10.1964 13.7489 10.2115 13.7753 10.2342C13.8018 10.2569 13.8283 10.2758 13.8623 10.2872L14.2178 10.4082C14.335 10.4498 14.4258 10.5027 14.4901 10.567C14.543 10.6275 14.5733 10.7183 14.5733 10.8317ZM14.388 10.8317C14.388 10.7674 14.3653 10.7145 14.3237 10.6691C14.2821 10.6237 14.2216 10.5897 14.1459 10.567L13.8699 10.4838C13.7716 10.4876 13.6884 10.5179 13.6279 10.5746C13.5674 10.6313 13.5333 10.7069 13.5333 10.7977C13.5333 10.8393 13.5409 10.8771 13.5636 10.9149C13.5863 10.9527 13.6089 10.9868 13.6468 11.0132C13.6846 11.0397 13.73 11.0662 13.7829 11.0851C13.8358 11.104 13.8964 11.1116 13.9644 11.1116C14.0325 11.1116 14.0892 11.104 14.1422 11.0889C14.1951 11.0737 14.2405 11.0511 14.2745 11.0246C14.3085 10.9981 14.3388 10.9679 14.3577 10.9338C14.3804 10.8998 14.388 10.8658 14.388 10.8317ZM14.2859 9.62161C14.2859 9.58002 14.2783 9.5422 14.2632 9.50817C14.248 9.47413 14.2254 9.4401 14.1951 9.41363C14.1648 9.38715 14.1308 9.36447 14.093 9.34934C14.0552 9.33421 14.0136 9.32665 13.9682 9.32665C13.8737 9.32665 13.7942 9.3569 13.7337 9.41363C13.6732 9.47035 13.643 9.5422 13.643 9.62161C13.643 9.70481 13.6732 9.77666 13.7337 9.83338C13.7942 9.89011 13.8737 9.91658 13.9682 9.91658C14.0098 9.91658 14.0514 9.90902 14.0892 9.89389C14.127 9.87876 14.1648 9.85607 14.1913 9.8296C14.2216 9.80313 14.2443 9.77288 14.2594 9.73506C14.2783 9.70481 14.2859 9.66321 14.2859 9.62161Z" fill="#127BC0"/>
</svg>
