<svg width="16" height="16" viewBox="0 0 16 16" fill="none" xmlns="http://www.w3.org/2000/svg">
<path fill-rule="evenodd" clip-rule="evenodd" d="M10.9033 5.43759C10.8518 5.42867 10.8001 5.41972 10.7485 5.41016V5.41606H10.1433C10.1361 5.41786 10.1289 5.41992 10.1217 5.42202C10.105 5.42681 10.088 5.43172 10.0695 5.43377C9.61488 5.48691 9.18979 5.61975 8.82964 5.91495C8.41636 6.25444 8.21562 6.69134 8.27466 7.22861C8.31599 7.58875 8.51968 7.85739 8.80012 8.06108C8.94199 8.16134 9.09356 8.24705 9.24551 8.33297L9.24552 8.33298L9.24553 8.33298L9.24554 8.33299C9.33071 8.38115 9.41599 8.42937 9.49975 8.48027C9.53204 8.49989 9.5646 8.51911 9.59711 8.53831C9.71619 8.60859 9.83462 8.6785 9.93665 8.76661C10.1344 8.94078 10.1138 9.21532 9.89532 9.35997C9.79495 9.42787 9.67392 9.47805 9.55584 9.50167C9.10122 9.58728 8.66137 9.50757 8.23628 9.33636C8.16411 9.30749 8.09195 9.2747 8.01818 9.24119L7.96765 9.21827C7.88794 9.59023 7.81119 9.95038 7.73444 10.3105L7.74214 10.3168C7.75261 10.3254 7.76026 10.3317 7.76986 10.3341C7.80528 10.3489 7.84071 10.3637 7.87613 10.3755C8.42226 10.5526 8.98019 10.6175 9.54993 10.5644C9.95731 10.526 10.3499 10.4257 10.6953 10.1954C11.2474 9.82934 11.4894 9.31274 11.4068 8.65739C11.3625 8.28543 11.1411 8.01385 10.84 7.81311C10.6869 7.71109 10.5266 7.62165 10.3664 7.5323L10.3664 7.5323L10.3664 7.53229C10.2577 7.47168 10.1491 7.41111 10.0429 7.34669C9.92484 7.27584 9.80971 7.19909 9.7123 7.10757C9.5706 6.97178 9.57355 6.78875 9.72115 6.66182C9.80676 6.58802 9.91894 6.52898 10.0282 6.49945C10.2968 6.4227 10.5743 6.44632 10.8459 6.50536C10.9817 6.53576 11.1147 6.5773 11.2497 6.61946L11.2497 6.61946C11.3113 6.63871 11.3734 6.65808 11.4363 6.67658C11.4832 6.45883 11.5301 6.2375 11.5778 6.0126L11.5779 6.01234L11.5779 6.01226L11.6606 5.6227C11.6131 5.60898 11.5669 5.59498 11.5216 5.58122C11.4206 5.55057 11.3236 5.52113 11.2237 5.49872C11.118 5.47477 11.0109 5.45622 10.9033 5.43759ZM14.7907 10.4978H15.9951C15.9951 10.486 15.9951 10.4742 15.9922 10.4624C15.9776 10.3971 15.9625 10.3323 15.9475 10.2677C15.9232 10.1629 15.899 10.0587 15.8771 9.95461C15.7383 9.29344 15.6003 8.63152 15.4623 7.96961C15.3243 7.30754 15.1863 6.64547 15.0475 5.98413C15.0151 5.82472 14.9796 5.66236 14.9442 5.5H13.8874C13.5745 5.5 13.3915 5.62103 13.2704 5.91033C12.9901 6.58018 12.7098 7.2493 12.4294 7.91841L12.4283 7.921C12.1482 8.58977 11.868 9.25854 11.5878 9.92804C11.511 10.117 11.4343 10.303 11.3516 10.5007C11.8003 10.5007 12.2343 10.5007 12.6712 10.4978C12.6918 10.4978 12.7273 10.4624 12.7361 10.4358L12.7361 10.4357L12.7362 10.4357L12.7362 10.4357C12.8099 10.2379 12.8837 10.0402 12.9487 9.84243C12.9693 9.77454 12.9988 9.75092 13.0726 9.75092C13.5568 9.75683 14.038 9.75683 14.5221 9.75092C14.6165 9.74797 14.6461 9.78339 14.6608 9.869C14.6874 10.0141 14.7182 10.1577 14.7493 10.3029L14.7493 10.303L14.7494 10.3031C14.7632 10.3676 14.7771 10.4324 14.7907 10.4978ZM14.038 6.89041C14.1649 7.49852 14.2918 8.10664 14.4188 8.72066H13.359C13.5804 8.10369 13.8018 7.49557 14.0232 6.88745C14.0237 6.88745 14.0243 6.88755 14.025 6.8877C14.026 6.88791 14.027 6.88822 14.0282 6.88855C14.031 6.88939 14.0345 6.89041 14.038 6.89041ZM6.07239 5.50323L6.01523 5.6401L6.01512 5.64035C5.96756 5.75431 5.92108 5.86569 5.8746 5.97555C5.25467 7.45452 4.63475 8.93348 4.01777 10.4125C3.98825 10.4833 3.95283 10.501 3.88198 10.501C3.49231 10.4981 3.09969 10.4981 2.70707 10.501C2.62442 10.501 2.59785 10.4744 2.57718 10.3977C2.44055 9.86456 2.3024 9.33144 2.1642 8.79811C1.96798 8.0409 1.77166 7.28327 1.5794 6.52463C1.52036 6.28847 1.39932 6.1261 1.17202 6.02573C0.808917 5.86632 0.434009 5.75415 0.0502455 5.66263C0.0400508 5.66094 0.029856 5.65826 0.0202241 5.65573L0.0202101 5.65573C0.0131128 5.65386 0.00632141 5.65208 6.10352e-05 5.65083C0.00156717 5.57401 0.00230487 5.53639 0.0214848 5.51796C0.0398977 5.50027 0.0753073 5.50027 0.14471 5.50027H2.19932C2.52405 5.50027 2.75726 5.6892 2.81925 6.01097C2.90633 6.46559 2.99194 6.92094 3.07755 7.3763C3.16316 7.83165 3.24877 8.28699 3.33585 8.7416C3.34065 8.77519 3.3474 8.80682 3.3561 8.8476L3.36242 8.87739L3.37057 8.8625C3.38388 8.83823 3.39338 8.82091 3.4008 8.80359C3.82589 7.72906 4.25098 6.65156 4.67312 5.57703C4.69674 5.51799 4.72626 5.49732 4.78825 5.50027C4.98604 5.50175 5.18456 5.50175 5.38346 5.50175C5.58235 5.50175 5.78161 5.50175 5.98087 5.50323C5.99976 5.50134 6.01624 5.50187 6.03571 5.50249H6.03572C6.04667 5.50284 6.05857 5.50323 6.07239 5.50323ZM5.76703 9.48732C5.69506 9.82407 5.62301 10.1612 5.55084 10.4987H5.65712C5.74558 10.4987 5.83422 10.4986 5.92296 10.4984C6.18957 10.4978 6.45702 10.4973 6.7228 10.5017C6.82317 10.5046 6.85564 10.4722 6.8763 10.3777C7.14001 9.12376 7.40862 7.87227 7.67766 6.61876C7.70378 6.4971 7.72989 6.37542 7.75601 6.25372C7.80915 6.00575 7.86228 5.75778 7.91542 5.50391H6.61948C6.33445 6.83247 6.0513 8.15727 5.76703 9.48732Z" fill="white"/>
</svg>
