<svg width="16" height="16" viewBox="0 0 16 16" fill="none" xmlns="http://www.w3.org/2000/svg">
<path d="M15.5483 7.56624C15.6114 7.70865 15.6674 7.85417 15.7162 8.00227L15.715 8.00062C15.9879 8.81394 16.085 9.76917 15.9 10.6239C15.862 10.8036 15.8099 10.98 15.7443 11.1513C15.6564 11.426 15.5206 11.6556 15.3486 11.9009C15.1482 12.1835 14.9111 12.4372 14.6439 12.6551C14.1151 13.0266 13.4666 13.1781 12.8314 13.0787C12.7073 13.1953 12.5498 13.2139 12.3924 13.2326C12.356 13.2369 12.3197 13.2412 12.2837 13.2467C9.09097 13.2467 9.75682 13.25 0.205409 13.25C0.0549485 13.0456 -0.0369541 12.7685 0.0142836 12.502C0.0453104 12.3773 0.116983 12.2669 0.217608 12.1889C0.212288 12.1085 0.224796 12.0279 0.254206 11.9531C0.300512 11.8475 0.373644 11.7564 0.46607 11.6891C0.607997 11.5976 0.779354 11.5659 0.943883 11.6006C1.13501 11.3958 1.43796 11.3396 1.69984 11.4281C1.76285 11.4536 1.82297 11.4859 1.87917 11.5245C1.95913 11.3658 2.00441 11.1926 2.04963 11.0195C2.08306 10.8916 2.11646 10.7638 2.16383 10.6421C2.17684 10.6073 2.19148 10.5738 2.20693 10.5407C2.25112 10.4467 2.28962 10.3475 2.32833 10.2477C2.38723 10.0959 2.44664 9.94279 2.52737 9.80474C2.32351 9.2482 2.16399 8.67586 2.05037 8.09329C2.05768 8.05913 2.07447 8.02783 2.09877 8.0031C2.12116 7.97988 2.14598 7.95922 2.17278 7.94146C2.22215 7.82402 2.26293 7.70303 2.29477 7.57948C2.2651 7.58344 2.23613 7.59914 2.20637 7.61526C2.18025 7.62941 2.15352 7.64389 2.1252 7.65105C2.11331 7.67014 2.099 7.688 2.08472 7.70582C2.05846 7.73858 2.0323 7.77122 2.0215 7.81115C1.99705 7.80297 1.98805 7.75913 1.98018 7.72081C1.97849 7.71261 1.97686 7.70467 1.97514 7.69738C1.97924 7.64444 1.96857 7.58771 1.9579 7.53102C1.9368 7.41893 1.91573 7.30695 2.0089 7.22453L2.1496 7.10249C2.15158 7.00799 2.16162 6.91568 2.17165 6.82356L2.17847 6.75995H2.15448C2.13342 6.77986 2.10849 6.79888 2.08305 6.8183C2.01809 6.86789 1.94974 6.92007 1.93367 6.99617H1.92187L1.91699 6.49353C1.93593 6.47835 1.9577 6.46431 1.98019 6.44979C2.01228 6.42908 2.04584 6.40741 2.07477 6.38017C2.05241 5.81796 2.09145 5.26899 2.2415 4.77255C2.27345 4.69238 2.32525 4.62285 2.37695 4.55345C2.40287 4.51864 2.42878 4.48387 2.45214 4.4478C2.45413 4.41164 2.45529 4.37514 2.45644 4.33869C2.45976 4.23379 2.46306 4.12928 2.4863 4.03411C2.53152 4.00692 2.57446 3.96885 2.61768 3.93053C2.65997 3.89303 2.70253 3.85529 2.74778 3.82726C2.7174 3.80217 2.67124 3.797 2.62655 3.79198C2.61081 3.79022 2.59526 3.78848 2.58064 3.78589C2.66075 3.56456 2.83073 3.37716 2.99746 3.21168C3.06719 3.14943 3.14557 3.09799 3.23006 3.05903C3.25371 3.05687 3.26755 3.07155 3.28196 3.08682L3.28862 3.09378C3.35623 3.10057 3.42135 3.11573 3.4862 3.13083C3.58321 3.15341 3.6796 3.17585 3.7827 3.1699C3.72699 3.07888 3.6298 2.98746 3.51594 2.98746L3.53749 2.97546C3.67219 2.91036 3.81422 2.86229 3.9604 2.83232C3.97399 2.91057 4.02474 2.97422 4.07499 3.03725C4.11348 3.08553 4.15168 3.13344 4.17267 3.18727L4.2723 3.27001C4.26795 3.22678 4.26889 3.18016 4.26985 3.1328C4.27257 2.9989 4.2754 2.85915 4.15885 2.77358C4.15153 2.74131 4.18813 2.74917 4.2052 2.75662C4.39063 2.83699 4.57051 2.93 4.74361 3.03503C4.76607 3.02396 4.7888 3.01255 4.81164 3.00107C4.89629 2.95856 4.98311 2.91495 5.06893 2.88238C5.05805 2.93386 5.04268 2.98698 5.02686 3.04168C4.99361 3.15667 4.95832 3.27869 4.95832 3.40736C5.0044 3.37349 5.0419 3.32243 5.0804 3.27C5.10679 3.23407 5.13365 3.19748 5.16408 3.16535C5.15969 3.09331 5.19981 3.03229 5.23903 2.97265C5.26152 2.93844 5.28372 2.90469 5.29706 2.86956C5.42556 2.83274 5.63376 2.80791 5.75982 2.86956C5.64239 2.88959 5.64663 2.97922 5.65052 3.06135C5.65096 3.07078 5.6514 3.08011 5.65166 3.08923L5.66345 3.09874C5.76308 3.07682 5.90296 3.03752 5.98023 2.95809C6.11361 2.98125 6.20104 2.99946 6.30799 3.08219C6.29423 3.08888 6.27992 3.09551 6.26533 3.10227C6.1824 3.14066 6.08998 3.18346 6.03431 3.26753C6.18589 3.26397 6.33714 3.25154 6.48732 3.2303L6.55279 3.18893C6.89798 3.40827 7.03167 3.77593 7.15896 4.126C7.17188 4.16152 7.18473 4.19687 7.19773 4.23185C7.17473 4.2274 7.1518 4.21643 7.12804 4.20507C7.09888 4.19112 7.06846 4.17657 7.03507 4.1727C7.0376 4.18299 7.03993 4.19413 7.04235 4.20573C7.05666 4.27424 7.07429 4.35867 7.15707 4.37954C7.24351 4.38858 7.28103 4.45023 7.32047 4.51503C7.3352 4.53924 7.3502 4.56388 7.36812 4.58639C7.4254 4.6441 7.49163 4.69442 7.55785 4.74472C7.68719 4.84297 7.81647 4.94118 7.87887 5.09441C7.99514 5.28949 8.04009 5.51507 8.08497 5.74035C8.11215 5.87672 8.1393 6.01298 8.18223 6.1423C8.14793 6.09599 8.09147 6.08153 8.03328 6.06663C7.97972 6.05291 7.9247 6.03882 7.88416 5.99916C7.89184 6.05599 7.9108 6.11063 7.93988 6.15977C7.96896 6.20891 8.00755 6.25152 8.05332 6.28502C8.10972 6.3157 8.16879 6.33916 8.22858 6.3629C8.25588 6.37374 8.28332 6.38464 8.31073 6.39631C8.40589 6.56385 8.44208 6.75374 8.47339 6.94611C8.40607 6.90213 8.33386 6.86645 8.25827 6.83979L8.24607 6.8522C8.25583 7.01271 8.36685 7.14799 8.50226 7.21956C8.50491 7.28762 8.50806 7.35182 8.51116 7.41491C8.51426 7.47797 8.51731 7.54 8.51975 7.60388C8.75601 7.79625 9.06628 7.96463 9.37371 8.0031C9.43356 8.01102 9.49398 8.01351 9.55426 8.01055C9.59204 8.01079 9.62967 8.00312 9.66684 7.99555C9.6933 7.99017 9.71952 7.98482 9.74539 7.98242C9.99293 7.96533 10.2326 7.88663 10.4432 7.75323C10.4317 7.66896 10.4412 7.58309 10.4709 7.50355C10.5006 7.42402 10.5495 7.35338 10.6132 7.29816C10.7994 7.08842 11.1048 7.10083 11.3521 7.16744C11.7555 7.31885 12.0702 7.62622 12.3227 7.98076C12.5243 8.27464 12.6991 8.58662 12.8449 8.91282C13.0677 9.44898 13.1917 10.0222 13.2108 10.604V10.6582C13.2307 11.0759 13.2009 11.4946 13.1222 11.9051C13.1089 11.976 13.0941 12.0457 13.0779 12.1144C13.0707 12.1525 13.1006 12.1652 13.1283 12.1771C13.1383 12.1813 13.1479 12.1854 13.1555 12.1905C13.6163 12.3188 14.0656 12.1947 14.4296 11.9051C14.5469 11.8114 14.6535 11.7047 14.7476 11.5869C15.0013 11.3036 15.1599 10.9759 15.3039 10.628C15.5743 9.79233 15.5231 8.8065 15.253 8.00476C15.2387 7.96173 15.2236 7.91912 15.2079 7.87692C14.8854 6.99906 14.1441 6.07445 13.2763 5.66986C13.1085 5.64061 12.9478 5.66519 12.7861 5.68992C12.607 5.7173 12.4268 5.74487 12.2345 5.69964C11.9799 5.6227 11.7306 5.49445 11.5489 5.27768L11.5558 5.25575C11.6955 5.27164 11.8324 5.30729 11.9624 5.36166C11.9651 5.32738 11.9476 5.29694 11.9298 5.26608C11.9156 5.24143 11.9013 5.21651 11.897 5.18915C12.0476 5.14753 12.2017 5.11983 12.3573 5.10641C12.3036 4.98783 12.1973 4.9796 12.0908 4.97135C12.0245 4.96622 11.9581 4.96108 11.9043 4.92934C11.8899 4.92853 11.8751 4.92636 11.8603 4.92417C11.8226 4.91863 11.7844 4.91302 11.7514 4.92934C11.7561 4.95139 11.764 4.97235 11.772 4.99342C11.7854 5.02887 11.7989 5.06463 11.7973 5.10641C11.753 5.11843 11.7093 5.10338 11.665 5.08811C11.6346 5.07763 11.6039 5.06706 11.5725 5.06504C11.555 5.06666 11.5365 5.06404 11.518 5.06142C11.4799 5.05603 11.442 5.05068 11.4147 5.08241C11.3635 5.01581 11.3231 4.93863 11.2824 4.86079C11.1999 4.70314 11.116 4.54274 10.9377 4.46187L10.945 4.43746C11.0701 4.40531 11.1928 4.36332 11.3158 4.32123C11.6186 4.21761 11.9233 4.11336 12.2703 4.15367C12.3244 4.16281 12.3772 4.1785 12.4276 4.20041L12.2991 4.31873C12.4154 4.43001 12.5488 4.52103 12.7184 4.51606L12.7282 4.50365C12.7174 4.4276 12.6787 4.3634 12.6396 4.29865L12.6236 4.27198C12.7529 4.29289 12.8579 4.39657 12.9584 4.49581C12.9812 4.5183 13.0037 4.54055 13.0262 4.56157C13.272 4.99122 13.6153 5.35478 14.0274 5.62187C14.7431 6.07693 15.2071 6.84889 15.5483 7.56624Z" fill="white"/>
<path fill-rule="evenodd" clip-rule="evenodd" d="M15.7201 7.99773C15.6713 7.84976 15.6153 7.70435 15.5522 7.56207C15.211 6.84534 14.747 6.07406 14.0313 5.61938C13.6192 5.35252 13.2759 4.98928 13.0301 4.56C13.0076 4.539 12.9851 4.51677 12.9623 4.4943C12.8618 4.39515 12.7568 4.29156 12.6276 4.27067L12.6435 4.29731C12.6826 4.362 12.7213 4.42615 12.7321 4.50213L12.7223 4.51453C12.5527 4.51949 12.4193 4.42856 12.303 4.31737L12.4315 4.19916C12.3811 4.17727 12.3283 4.16158 12.2742 4.15245C11.9272 4.11218 11.6225 4.21634 11.3197 4.31987C11.1967 4.36192 11.074 4.40388 10.9489 4.436L10.9416 4.46039C11.1199 4.54118 11.2038 4.70145 11.2863 4.85896C11.327 4.93674 11.3674 5.01385 11.4186 5.08039C11.446 5.04868 11.4838 5.05404 11.5219 5.05942C11.5404 5.06203 11.5589 5.06466 11.5764 5.06303C11.6078 5.06505 11.6385 5.07562 11.6689 5.08608C11.7132 5.10134 11.7569 5.11638 11.8012 5.10437C11.8028 5.06262 11.7893 5.0269 11.7759 4.99148C11.7679 4.97043 11.76 4.94949 11.7553 4.92746C11.7883 4.91115 11.8265 4.91675 11.8642 4.92229C11.8791 4.92447 11.8938 4.92664 11.9082 4.92746C11.962 4.95917 12.0284 4.9643 12.0947 4.96943C12.2012 4.97767 12.3076 4.98589 12.3612 5.10437C12.2056 5.11778 12.0516 5.14545 11.9009 5.18703C11.9052 5.21438 11.9196 5.23927 11.9337 5.2639C11.9515 5.29474 11.9691 5.32515 11.9663 5.3594C11.8363 5.30508 11.6994 5.26946 11.5597 5.25358L11.5528 5.27549C11.7346 5.49208 11.9838 5.62021 12.2384 5.69709C12.4307 5.74228 12.6109 5.71474 12.79 5.68737C12.9517 5.66267 13.1124 5.63811 13.2802 5.66733C14.148 6.07158 14.8893 6.99539 15.2118 7.87249C15.2275 7.91465 15.2426 7.95722 15.2569 8.00021C15.527 8.80126 15.5782 9.78624 15.3078 10.6212C15.1638 10.9688 15.0052 11.2962 14.7515 11.5793C14.6574 11.6969 14.5508 11.8035 14.4335 11.8972C14.0695 12.1865 13.6202 12.3105 13.1594 12.1824C13.1518 12.1772 13.1422 12.1731 13.1322 12.1689C13.1045 12.1571 13.0746 12.1444 13.0818 12.1063C13.098 12.0377 13.1128 11.968 13.1261 11.8972C13.2048 11.487 13.2346 11.0687 13.2148 10.6514V10.5972C13.1956 10.0159 13.0716 9.44318 12.8488 8.90748C12.703 8.58157 12.5282 8.26986 12.3266 7.97623C12.0741 7.622 11.7594 7.31489 11.356 7.16361C11.1087 7.09707 10.8033 7.08467 10.6171 7.29423C10.5535 7.3494 10.5045 7.41997 10.4748 7.49944C10.4451 7.57891 10.4356 7.6647 10.4471 7.7489C10.2365 7.88218 9.99684 7.96082 9.74929 7.97789C9.72342 7.98029 9.6972 7.98563 9.67075 7.99101C9.63358 7.99858 9.59594 8.00624 9.55817 8.00599C9.49789 8.00895 9.43747 8.00646 9.37762 7.99856C9.07019 7.96011 8.75992 7.79189 8.52365 7.59968C8.52122 7.53585 8.51817 7.47388 8.51507 7.41087L8.51507 7.4108C8.51196 7.34776 8.50881 7.28369 8.50617 7.21569C8.37075 7.14419 8.25974 7.00903 8.24998 6.84865L8.26218 6.83625C8.33777 6.86288 8.40998 6.89854 8.4773 6.94248C8.44598 6.75028 8.40979 6.56055 8.31464 6.39315C8.28723 6.38149 8.25978 6.3706 8.23248 6.35977C8.1727 6.33605 8.11362 6.31261 8.05723 6.28196C8.01146 6.24849 7.97286 6.20592 7.94378 6.15682C7.9147 6.10772 7.89575 6.05312 7.88806 5.99635C7.9286 6.03597 7.98363 6.05005 8.03719 6.06376C8.09538 6.07864 8.15184 6.09309 8.18614 6.13936C8.1432 6.01016 8.11605 5.87402 8.08888 5.73776C8.04399 5.51268 7.99905 5.28729 7.88278 5.09238C7.82038 4.93929 7.69109 4.84116 7.56175 4.74299C7.49554 4.69273 7.42931 4.64246 7.37203 4.5848C7.35411 4.56231 7.33911 4.53769 7.32437 4.5135C7.28494 4.44876 7.24742 4.38716 7.16097 4.37813C7.0782 4.35728 7.06057 4.27292 7.04626 4.20447C7.04384 4.19288 7.04151 4.18175 7.03898 4.17146C7.07236 4.17534 7.10278 4.18987 7.13194 4.20381C7.15571 4.21516 7.17863 4.22612 7.20164 4.23057C7.18864 4.19561 7.17579 4.1603 7.16287 4.12481C7.03558 3.77505 6.90188 3.4077 6.55669 3.18855L6.49122 3.22988C6.34105 3.2511 6.1898 3.26352 6.03822 3.26708C6.09389 3.18308 6.18631 3.14032 6.26923 3.10196C6.28383 3.09521 6.29813 3.08859 6.31189 3.08191C6.20494 2.99924 6.11751 2.98105 5.98413 2.95791C5.90687 3.03727 5.76698 3.07653 5.66735 3.09844L5.65556 3.08893C5.65531 3.07983 5.65487 3.0705 5.65442 3.06108L5.65442 3.06102C5.65054 2.97897 5.6463 2.88947 5.76373 2.86945C5.63767 2.80786 5.42946 2.83266 5.30096 2.86945C5.28762 2.90455 5.26543 2.93828 5.24294 2.97245C5.20371 3.03205 5.1636 3.09301 5.16799 3.16499C5.13756 3.19709 5.11069 3.23365 5.0843 3.26955L5.0843 3.26956C5.0458 3.32194 5.00831 3.37295 4.96222 3.40679C4.96222 3.27823 4.99751 3.15632 5.03077 3.04143C5.04659 2.98677 5.06195 2.9337 5.07283 2.88226C4.98702 2.91481 4.9002 2.95838 4.81554 3.00086L4.8155 3.00088C4.79266 3.01234 4.76998 3.02372 4.74751 3.03479C4.57441 2.92985 4.39454 2.83691 4.20911 2.75661C4.19203 2.74917 4.15543 2.74132 4.16275 2.77356C4.27931 2.85905 4.27647 2.99869 4.27376 3.13247C4.2728 3.17978 4.27185 3.22637 4.27621 3.26956L4.17658 3.18689C4.15559 3.13311 4.11739 3.08524 4.0789 3.037C4.02864 2.97402 3.97789 2.91043 3.96431 2.83225C3.81812 2.86219 3.67609 2.91022 3.54139 2.97527L3.51984 2.98725C3.6337 2.98725 3.73089 3.0786 3.7866 3.16953C3.6835 3.17548 3.58712 3.15306 3.4901 3.1305C3.42526 3.11542 3.36013 3.10027 3.29253 3.09348L3.28587 3.08653C3.27146 3.07127 3.25761 3.05661 3.23397 3.05876C3.14947 3.09769 3.07109 3.14908 3.00136 3.21128C2.83464 3.37662 2.66466 3.56386 2.58455 3.78499C2.59917 3.78758 2.61472 3.78932 2.63046 3.79108C2.67514 3.79609 2.72131 3.80126 2.75168 3.82633C2.70643 3.85433 2.66387 3.89204 2.62158 3.9295C2.57836 3.9678 2.53543 4.00584 2.49021 4.033C2.46697 4.12809 2.46367 4.23251 2.46035 4.33731V4.33732C2.4592 4.37373 2.45804 4.4102 2.45605 4.44633C2.43269 4.48237 2.40678 4.51711 2.38085 4.55189C2.32916 4.62123 2.27736 4.6907 2.2454 4.7708C2.09535 5.26681 2.05631 5.81531 2.07868 6.37703C2.04975 6.40425 2.01618 6.42589 1.98409 6.44659C1.9616 6.46109 1.93984 6.47513 1.9209 6.49029L1.92578 6.99249H1.93757C1.95364 6.91646 2.022 6.86433 2.08696 6.81478C2.1124 6.79538 2.13732 6.77637 2.15838 6.75648H2.18237L2.17555 6.82004C2.16553 6.91208 2.15549 7.00431 2.1535 7.09872L2.0128 7.22065C1.91963 7.303 1.94071 7.41489 1.9618 7.52688C1.97247 7.58353 1.98315 7.6402 1.97905 7.6931C1.98077 7.70038 1.9824 7.70832 1.98408 7.71651C1.99195 7.7548 2.00095 7.79859 2.02541 7.80677C2.03621 7.76687 2.06236 7.73426 2.08862 7.70153C2.1029 7.68372 2.11721 7.66588 2.1291 7.6468C2.15743 7.63966 2.18415 7.62519 2.21027 7.61105C2.24003 7.59494 2.26901 7.57926 2.29868 7.5753C2.26683 7.69874 2.22606 7.81963 2.17668 7.93697C2.14989 7.95471 2.12507 7.97536 2.10267 7.99856C2.07838 8.02326 2.06158 8.05453 2.05428 8.08866C2.1679 8.67074 2.32742 9.24257 2.53128 9.79864C2.45055 9.93657 2.39114 10.0895 2.33223 10.2412L2.33223 10.2412C2.29352 10.3409 2.25502 10.44 2.21084 10.534C2.19539 10.567 2.18075 10.6005 2.16774 10.6352C2.12037 10.7568 2.08697 10.8845 2.05353 11.0124C2.00831 11.1853 1.96304 11.3584 1.88308 11.5169C1.82688 11.4783 1.76675 11.446 1.70375 11.4206C1.44187 11.3321 1.13891 11.3883 0.947789 11.5929C0.783261 11.5582 0.611903 11.59 0.469977 11.6814C0.377551 11.7486 0.304419 11.8396 0.258113 11.9451C0.228702 12.0199 0.216195 12.1004 0.221514 12.1807C0.120889 12.2586 0.0492167 12.3689 0.0181899 12.4936C-0.0330479 12.7598 0.0588548 13.0367 0.209315 13.2409H4.49133C4.42627 13.1565 4.37088 13.0648 4.32623 12.9677C4.26408 12.8724 4.27278 12.7504 4.28128 12.6312C4.28535 12.5741 4.28938 12.5177 4.28556 12.4651C4.37258 12.2861 4.46123 12.1059 4.56127 11.931C4.5816 11.8959 4.60193 11.8612 4.62227 11.8269L4.81868 11.7508C4.86371 11.7508 4.90562 11.7365 4.94672 11.7225C5.00063 11.7041 5.05313 11.6862 5.10943 11.7016C5.18557 11.779 5.21825 11.724 5.25618 11.6602C5.28469 11.6122 5.31617 11.5592 5.37131 11.5537C5.67183 11.5123 5.9699 11.5437 6.13907 11.8017C6.13907 11.8183 6.15133 11.8269 6.16271 11.835C6.17514 11.8438 6.18653 11.8518 6.17973 11.8686C6.15573 11.8755 6.13386 11.8698 6.11152 11.864C6.09601 11.8599 6.08026 11.8558 6.06343 11.8558C6.02223 11.8454 5.97944 11.8313 5.93581 11.817C5.78436 11.7673 5.62272 11.7142 5.48192 11.7967C5.47567 11.8367 5.46741 11.8774 5.45927 11.9176L5.45671 11.9302C5.44776 11.9744 5.43963 12.0232 5.43556 12.0679C5.55431 12.1022 5.65353 12.1881 5.7434 12.282C5.80399 12.1613 5.93249 12.1071 6.04635 12.0679C6.07036 12.0732 6.09494 12.0773 6.11959 12.0815L6.11962 12.0815C6.19681 12.0946 6.27464 12.1078 6.33751 12.1563C6.45989 12.2711 6.4356 12.4508 6.41388 12.6116C6.40854 12.6511 6.40335 12.6895 6.40054 12.7255C6.4735 12.767 6.55055 12.7993 6.62773 12.8317C6.69638 12.8605 6.76513 12.8893 6.83118 12.9247C6.77804 12.973 6.71096 12.9974 6.64474 13.0214L6.64473 13.0214L6.64466 13.0214C6.62933 13.027 6.61404 13.0325 6.59899 13.0384L6.36638 12.9913C6.35701 12.9844 6.34512 12.9799 6.3333 12.9755L6.3333 12.9755C6.31181 12.9675 6.29056 12.9595 6.28505 12.9371C6.19694 13.0262 6.12263 13.1284 6.06465 13.2401H9.38412C9.34066 13.1445 9.28881 13.053 9.22919 12.9669C9.17944 12.8585 9.18076 12.721 9.18198 12.5933C9.18243 12.5467 9.18287 12.5014 9.1808 12.4593L9.4931 11.9782C9.55756 11.9772 9.62518 11.9674 9.69436 11.9573H9.69437C9.80722 11.9409 9.92423 11.9239 10.0384 11.9439C10.0476 11.9398 10.0564 11.9349 10.0649 11.9294C10.0918 11.9105 10.1121 11.8827 10.1321 11.8554L10.1321 11.8554C10.1689 11.8051 10.2046 11.7564 10.2783 11.7665C10.4817 11.7099 10.6366 11.8033 10.7895 11.8972C10.7853 11.9084 10.7802 11.9192 10.774 11.9294C10.7361 11.9911 10.6783 11.975 10.6194 11.9585C10.5793 11.9473 10.5386 11.9359 10.5032 11.9488C10.4796 11.9745 10.4943 12.0033 10.5092 12.0326C10.5172 12.0482 10.5252 12.0639 10.5276 12.0794C10.5518 12.1133 10.5198 12.118 10.494 12.1218C10.4863 12.123 10.4793 12.124 10.4743 12.1257C10.4483 12.1306 10.4214 12.129 10.3961 12.1209C10.3708 12.1128 10.3478 12.0986 10.3292 12.0794C10.3253 12.0747 10.324 12.0697 10.3229 12.0652C10.321 12.0577 10.3193 12.0515 10.3072 12.0497C10.2946 12.071 10.2803 12.0918 10.2661 12.1126C10.2312 12.1635 10.1962 12.2144 10.1852 12.2737C10.1979 12.2861 10.2117 12.2984 10.2256 12.311C10.2726 12.3534 10.322 12.3979 10.343 12.4514C10.3797 12.5059 10.349 12.5505 10.3183 12.5951C10.3024 12.6181 10.2865 12.6412 10.28 12.6655C10.2781 12.6688 10.2754 12.6715 10.2722 12.6734C10.269 12.6753 10.2654 12.6763 10.2617 12.6763C10.258 12.6763 10.2543 12.6753 10.2511 12.6734C10.2479 12.6715 10.2452 12.6688 10.2434 12.6655C10.2265 12.6559 10.2105 12.6414 10.1947 12.6269C10.1624 12.5976 10.1307 12.5687 10.0933 12.5829C10.0666 12.7029 10.0741 12.8229 10.0816 12.9428C10.0878 13.0422 10.094 13.1416 10.0807 13.2409C10.1382 13.2547 10.2018 13.2499 10.2656 13.2452C10.307 13.2421 10.3485 13.239 10.3885 13.2409L10.4292 12.778C10.4727 12.4775 10.6476 12.2262 10.8533 11.9968C11.0117 11.8867 11.13 12.0098 11.2438 12.128C11.2898 12.1759 11.3351 12.2229 11.382 12.2534C11.399 12.2566 11.4015 12.2696 11.404 12.283C11.4055 12.2907 11.407 12.2985 11.4113 12.3047C11.4089 12.3532 11.3602 12.3729 11.3265 12.3865L11.3242 12.3874C11.2381 12.4181 11.1713 12.3421 11.1147 12.2777C11.1042 12.2658 11.0941 12.2543 11.0843 12.2439C11.0591 12.2716 11.0397 12.3032 11.0207 12.3343C10.9939 12.3779 10.9676 12.4207 10.9265 12.4506L10.9505 12.4576C11.0319 12.5403 11.1083 12.623 11.1258 12.7337C11.1224 12.7833 11.1074 12.8313 11.082 12.8737C11.0566 12.9162 11.0215 12.9518 10.9798 12.9776C10.9162 12.8639 10.8618 12.7452 10.8172 12.6226C10.819 12.6263 10.8165 12.6286 10.8131 12.6318L10.8094 12.6354C10.676 12.6717 10.6403 12.8243 10.6179 12.9483C10.6213 13.0052 10.6035 13.0461 10.586 13.086C10.5665 13.1307 10.5475 13.1742 10.5597 13.2376H12.2876C12.3236 13.2321 12.3599 13.2278 12.3963 13.2235L12.3964 13.2235C12.5537 13.2049 12.7112 13.1863 12.8354 13.0698C13.4705 13.1691 14.119 13.0177 14.6478 12.6465C14.9151 12.4288 15.1521 12.1754 15.3525 11.893C15.5245 11.6479 15.6603 11.4185 15.7482 11.1441C15.8138 10.9729 15.8659 10.7967 15.9039 10.617C16.0889 9.76309 15.9918 8.8087 15.7189 7.99607L15.7201 7.99773ZM6.45736 5.44727C6.41227 5.49807 6.34996 5.52967 6.28291 5.53573C6.38498 5.34683 6.43337 5.08105 6.35326 4.8686C6.40901 4.85356 6.46342 4.83379 6.51592 4.80949L6.51104 4.80453L6.64442 4.68632C6.7589 4.60607 6.77068 4.48011 6.78248 4.35382C6.78892 4.28498 6.79537 4.21604 6.81846 4.15435C6.78578 4.10265 6.76158 4.0467 6.73743 3.99085C6.69728 3.898 6.65725 3.80543 6.57854 3.73316L6.58627 3.7282C6.52207 3.64564 6.42478 3.62245 6.32747 3.59926C6.27376 3.58646 6.22005 3.57366 6.17189 3.55088C6.0182 3.49822 5.89514 3.58246 5.78159 3.66018L5.78157 3.6602C5.76234 3.67336 5.74337 3.68634 5.72458 3.69844C5.69762 3.70344 5.6917 3.72297 5.68601 3.74178C5.67993 3.76185 5.6741 3.78111 5.64325 3.78111C5.60407 3.87532 5.5708 3.97196 5.54362 4.07044C5.3037 4.03614 5.04466 4.063 4.85232 4.20106C4.7734 4.14193 4.68183 4.11987 4.58947 4.09762L4.58946 4.09762C4.56237 4.0911 4.53522 4.08456 4.50829 4.07706C4.4751 4.07047 4.4402 4.07097 4.40625 4.07145C4.35079 4.07225 4.29786 4.073 4.25902 4.04275C4.22724 4.00632 4.20409 3.95966 4.18095 3.91302C4.13688 3.8242 4.09287 3.73549 3.98941 3.71787C3.9337 3.69761 3.92191 3.6352 3.92191 3.58229C3.86521 3.57265 3.81223 3.55389 3.75938 3.53517C3.71481 3.51939 3.67034 3.50364 3.62383 3.49343C3.48908 3.43123 3.37801 3.50849 3.27485 3.58026L3.27482 3.58027L3.2748 3.58029L3.27477 3.58031C3.25934 3.59104 3.2441 3.60164 3.22898 3.61164C3.17503 3.62739 3.1223 3.64714 3.0712 3.67075C2.98131 3.80595 2.9058 3.95046 2.84591 4.10186C2.86677 4.22404 2.91218 4.34054 2.97929 4.4441C3.035 4.60448 3.20905 4.73013 3.35707 4.7942C3.28712 5.04947 3.28712 5.31931 3.35707 5.57458C3.35707 5.57458 3.353 5.57789 3.353 5.57706C3.35064 5.57975 3.34805 5.58224 3.34528 5.5845C3.32266 5.5882 3.29948 5.58563 3.27818 5.57706H3.27533C3.31115 5.81408 3.42361 6.03223 3.59496 6.19707C3.63611 6.21137 3.64398 6.24892 3.65196 6.28696C3.6562 6.30719 3.66047 6.32755 3.66978 6.34463C3.67758 6.35785 3.68267 6.37253 3.68477 6.3878C3.68687 6.40307 3.68592 6.41861 3.68198 6.43349C3.32594 6.42111 2.97365 6.51078 2.66536 6.69224C2.60887 6.72247 2.61173 6.78738 2.61448 6.85V6.85V6.85C2.6155 6.87302 2.6165 6.89572 2.61453 6.91627C2.82462 6.7692 3.06209 6.66736 3.31234 6.61702C3.34012 6.61522 3.36886 6.61212 3.39799 6.60897C3.48311 6.59976 3.57159 6.59019 3.64945 6.61206L3.66124 6.82451C3.58005 6.86746 3.49673 6.90537 3.4134 6.94327C3.20084 7.03997 2.98826 7.13667 2.81094 7.31721C2.81248 7.34333 2.81181 7.371 2.81114 7.39865C2.80986 7.45151 2.80858 7.50426 2.82273 7.54578L3.04354 7.3635C3.24954 7.19732 3.47904 7.06368 3.72427 6.96711L3.73349 6.97818C3.79615 7.05347 3.86173 7.13227 3.94468 7.17915C4.09167 7.08304 4.25284 7.01146 4.42208 6.96711C4.45748 6.94569 4.50135 6.94044 4.54504 6.93521C4.61178 6.92723 4.6781 6.9193 4.71324 6.85386L4.75391 6.62983C4.75218 6.62848 4.75058 6.62686 4.74896 6.62521C4.7441 6.62027 4.73907 6.61516 4.72992 6.61702C4.67327 6.58721 4.62624 6.54148 4.59444 6.48527C4.56265 6.42906 4.54742 6.36474 4.55058 6.29999C4.5105 6.32014 4.46675 6.33168 4.42208 6.33388C4.38386 6.32437 4.34726 6.31445 4.33018 6.27477C4.33018 6.26243 4.32849 6.24849 4.32673 6.23395V6.23394V6.23394C4.32148 6.19052 4.31558 6.14185 4.35214 6.11522C4.50951 6.01644 4.71324 6.01148 4.91169 6.02594C4.933 6.02881 4.95569 6.0311 4.97906 6.03347C5.11757 6.04749 5.28019 6.06395 5.32403 6.21567C5.32273 6.22495 5.32181 6.23437 5.32089 6.24379C5.31667 6.28722 5.31246 6.33049 5.27035 6.35868C5.22462 6.3893 5.16981 6.36328 5.12386 6.34146L5.10769 6.33388C5.06703 6.45499 5.00359 6.59015 4.87021 6.62983L4.88688 6.77243C4.88941 6.7819 4.89166 6.79229 4.894 6.80305C4.90748 6.86508 4.92363 6.93937 5.00888 6.91999C5.23904 6.97703 5.44318 7.09773 5.64406 7.22793C5.70729 7.16049 5.76394 7.08698 5.81323 7.00845C6.15865 7.12773 6.45854 7.38511 6.74439 7.63044L6.7444 7.63045L6.77821 7.65945L6.79 7.45278C6.51677 7.21171 6.20643 7.01789 5.87138 6.87907C5.88639 6.81244 5.89631 6.74472 5.90106 6.67654C6.27782 6.69962 6.64387 6.81293 6.96933 7.00721L6.96445 6.8303C6.62978 6.64802 6.2642 6.52732 5.8665 6.52236C5.85291 6.49954 5.84692 6.47287 5.84942 6.44631C6.04339 6.41407 6.18125 6.20988 6.2276 6.03297C6.24129 6.01713 6.25583 6.00109 6.27062 5.98476C6.36351 5.88224 6.46673 5.76831 6.43621 5.61963C6.44028 5.60517 6.44516 5.59029 6.45045 5.57499C6.46701 5.53442 6.47043 5.48954 6.46021 5.44686L6.45736 5.44727ZM3.43827 3.7327L3.50903 3.74014C3.54927 3.76063 3.59486 3.779 3.64184 3.79792C3.81469 3.86754 4.00644 3.94476 4.02018 4.16381C3.82244 4.23688 3.64224 4.35185 3.49154 4.50109C3.44522 4.45303 3.38014 4.43466 3.31611 4.41659L3.31611 4.41659C3.21937 4.38928 3.12505 4.36266 3.10156 4.23532C3.13775 4.03568 3.2077 3.78437 3.43827 3.7327ZM3.62004 4.9818C3.73068 4.97186 3.83938 4.97489 3.94895 4.97795H3.94896H3.94896C4.05807 4.98099 4.16804 4.98406 4.28166 4.97436C4.34162 5.0003 4.39111 5.04622 4.42195 5.10457C4.4182 5.24103 4.39542 5.37423 4.37247 5.50847L4.37247 5.50847C4.35065 5.63608 4.32868 5.76461 4.32273 5.89776C4.22351 5.93909 4.12632 6.02176 4.10233 6.13419C4.04421 6.15164 3.98987 6.1813 3.93496 6.21128C3.90534 6.22745 3.87555 6.24371 3.84492 6.25819C3.80669 6.17552 3.81361 6.04904 3.88152 5.9796C3.91855 5.92677 3.97851 5.89945 4.03665 5.87296C4.12725 5.83168 4.21344 5.79242 4.20155 5.66174C4.24417 5.5926 4.23081 5.50984 4.21794 5.43013C4.21166 5.39119 4.20549 5.35298 4.20602 5.31743C4.19177 5.26833 4.17752 5.28704 4.16011 5.3099C4.14822 5.32552 4.13485 5.34307 4.119 5.34223C4.04448 5.36503 3.96428 5.35869 3.89412 5.32446C3.88311 5.31283 3.87158 5.30163 3.8601 5.29049C3.81817 5.24979 3.77703 5.20986 3.76521 5.1521C3.6973 5.11779 3.6176 5.06365 3.58385 4.99214L3.62004 4.98263V4.9818ZM3.8868 6.58721C3.92692 6.59296 3.96789 6.58944 4.00823 6.58597C4.07215 6.58048 4.1345 6.57511 4.18935 6.60705C4.17024 6.64177 4.119 6.65623 4.07833 6.66615L3.91568 6.74262C3.87054 6.73185 3.87776 6.67428 3.88353 6.62819C3.88551 6.6124 3.88732 6.59796 3.8868 6.58721ZM4.31053 4.53085C4.33565 4.52248 4.36122 4.51198 4.3871 4.50136C4.46846 4.46796 4.55286 4.43332 4.63585 4.45935C4.55795 4.54667 4.48977 4.64245 4.43253 4.74496L4.1007 4.73752C4.1373 4.64865 4.2292 4.57508 4.30891 4.53085H4.31053ZM5.28242 4.45191C5.35574 4.43872 5.38799 4.4841 5.42109 4.53067C5.45022 4.57166 5.48 4.61356 5.53902 4.61724C5.54261 4.62204 5.54646 4.62679 5.55034 4.63156C5.57016 4.65597 5.59057 4.6811 5.57969 4.7181C5.5382 4.73496 5.48614 4.73762 5.43379 4.7403C5.39376 4.74234 5.35357 4.7444 5.3178 4.75282C5.27209 4.72698 5.25757 4.67817 5.24358 4.63111C5.22421 4.56598 5.20584 4.50423 5.10716 4.51143C5.0974 4.49655 5.07829 4.4672 5.10228 4.45728C5.16094 4.44192 5.22227 4.44036 5.28161 4.45273L5.28242 4.45191ZM5.19499 5.10953C5.24932 5.03259 5.32815 5.01827 5.40621 5.00409L5.43492 4.99875L6.06238 5.01074C6.0781 5.02551 6.06717 5.03914 6.05542 5.0538C6.04711 5.06417 6.03839 5.07505 6.03839 5.08721C6.01859 5.10531 5.99562 5.11696 5.97335 5.12824C5.94988 5.14014 5.92721 5.15163 5.90988 5.16987C5.86158 5.17135 5.84426 5.20664 5.82598 5.2439C5.81348 5.26937 5.80053 5.29577 5.77691 5.31289C5.70121 5.38948 5.59638 5.37165 5.50274 5.35572L5.50271 5.35572C5.48519 5.35274 5.46806 5.34982 5.45159 5.34761C5.41181 5.32076 5.37924 5.28425 5.35684 5.24138L5.32756 5.27073C5.34815 5.34861 5.3542 5.43042 5.36025 5.51232C5.36496 5.57604 5.36968 5.63981 5.38124 5.70184L5.5317 5.80311C5.5332 5.94199 5.63244 5.97264 5.73518 6.00435C5.79968 6.02427 5.86556 6.04461 5.90948 6.09244C5.87794 6.17386 5.83112 6.24827 5.77162 6.31151C5.68404 6.22605 5.57891 6.16139 5.46379 6.1222C5.45548 6.01374 5.35857 5.9409 5.27993 5.8818C5.26238 5.8686 5.24573 5.8561 5.23119 5.84403C5.22383 5.7632 5.2184 5.68182 5.21296 5.60053L5.21296 5.6005C5.20217 5.43903 5.19141 5.27794 5.16572 5.12234L5.19459 5.10994L5.19499 5.10953ZM5.42272 6.62937H5.71388L5.67728 6.78437L5.38612 6.66037C5.37921 6.63598 5.40605 6.62854 5.42272 6.63102V6.62937ZM5.94648 3.83893L6.16201 3.7699C6.28645 3.83049 6.40491 3.90301 6.51579 3.98649C6.60526 4.15389 6.59102 4.3804 6.54954 4.56764C6.52103 4.59968 6.47787 4.60381 6.43383 4.60803C6.37673 4.61351 6.31814 4.61912 6.28807 4.68586H6.27831C6.19698 4.45439 5.97048 4.2473 5.75983 4.14149C5.79358 4.02369 5.83018 3.90754 5.94648 3.83893ZM6.79378 6.07889L6.99223 6.01483L7.01459 5.90157C7.05685 5.77618 6.99875 5.67455 6.94249 5.57615C6.92457 5.54481 6.90684 5.5138 6.8926 5.48245L6.79297 6.07889H6.79378ZM7.29721 6.85928C7.31384 6.87792 7.33038 6.89852 7.34725 6.91954C7.42654 7.0183 7.51326 7.12632 7.6514 7.08372C7.64344 7.03704 7.62404 6.99565 7.60486 6.95471L7.60486 6.95471L7.60485 6.9547C7.59465 6.93292 7.5845 6.91128 7.57617 6.88904C7.56283 6.87319 7.5522 6.84828 7.54135 6.82287C7.51684 6.76542 7.49121 6.70537 7.43059 6.74147C7.38709 6.71208 7.36549 6.66937 7.34396 6.62679C7.33309 6.6053 7.32224 6.58384 7.3086 6.56415C7.29544 6.62676 7.29693 6.69995 7.29834 6.76914C7.29898 6.80045 7.2996 6.83095 7.29884 6.85928H7.29721ZM7.32934 7.58138C7.34732 7.60684 7.35888 7.63618 7.37024 7.66504C7.38176 7.69427 7.39307 7.723 7.41067 7.74671C7.47614 7.79094 7.57333 7.7835 7.65466 7.77647C7.68693 7.76855 7.71404 7.78035 7.74015 7.79171C7.77259 7.80584 7.8035 7.8193 7.8409 7.79342C7.79196 7.76209 7.75432 7.71595 7.71577 7.6687L7.71577 7.6687L7.71576 7.66869C7.68769 7.63428 7.65913 7.59928 7.62538 7.56898C7.55331 7.51088 7.47674 7.53599 7.40036 7.56104C7.37676 7.56878 7.35317 7.57652 7.32974 7.58179L7.32934 7.58138ZM7.45987 8.72673C7.62701 8.82718 7.83968 8.92596 8.06253 8.89207C8.07028 8.88813 8.07972 8.88569 8.08914 8.88326L8.08915 8.88325C8.10938 8.87803 8.12955 8.87282 8.13288 8.8528C8.07201 8.83097 8.00957 8.79159 7.94649 8.7518L7.94647 8.7518C7.86626 8.70121 7.78502 8.64998 7.70467 8.63332C7.65426 8.55645 7.59556 8.58727 7.53429 8.61945C7.49673 8.63918 7.4582 8.65941 7.42002 8.65564C7.42158 8.6744 7.43394 8.69012 7.4451 8.70431L7.4451 8.70432L7.44512 8.70433L7.44512 8.70434C7.45141 8.71234 7.45731 8.71985 7.46069 8.72715L7.45987 8.72673ZM7.96127 10.9013L7.99746 10.9798C8.0096 11.065 8.03525 11.1478 8.06093 11.2308C8.11269 11.398 8.16461 11.5658 8.10644 11.7536C8.15526 11.7885 8.18103 11.8387 8.20669 11.8886L8.2067 11.8887L8.20671 11.8887C8.21931 11.9132 8.23188 11.9377 8.24714 11.9603H8.25934C8.31032 11.7629 8.28183 11.5589 8.25414 11.3605L8.24714 11.3101C8.26524 11.1496 8.1364 11.0445 8.0277 10.9558L8.02768 10.9558C8.00449 10.9369 7.98222 10.9187 7.96249 10.9009L7.96127 10.9013ZM8.00275 8.37746C8.12881 8.47625 8.3301 8.48576 8.47527 8.43657C8.37957 8.38762 8.28944 8.32816 8.20648 8.25925L8.00315 8.37746H8.00275ZM8.60093 9.13511C8.58914 9.23886 8.65664 9.32483 8.72943 9.37691C8.73785 9.3573 8.748 9.33865 8.75808 9.32013C8.77966 9.28048 8.80093 9.2414 8.80425 9.19463C8.78164 9.08453 8.71943 8.98696 8.6298 8.921C8.60784 8.99009 8.59807 9.06257 8.60093 9.13511ZM8.60825 10.2586C8.59682 10.336 8.64933 10.3683 8.70152 10.4004C8.72731 10.4162 8.75302 10.4321 8.77091 10.4532C8.79763 10.4862 8.78114 10.5127 8.76414 10.5401C8.75319 10.5577 8.74204 10.5756 8.74204 10.5958C8.83642 10.7143 8.88795 10.8621 8.88802 11.0146C8.90077 10.9611 8.91606 10.9085 8.93133 10.856C8.95892 10.7611 8.98647 10.6663 8.99904 10.5665C8.99449 10.5159 8.95529 10.4938 8.9174 10.4724C8.87393 10.4479 8.8322 10.4243 8.84654 10.3598C8.88598 10.2588 8.85465 10.1604 8.82498 10.0673C8.81824 10.0462 8.8116 10.0253 8.80588 10.0048C8.79653 9.98782 8.77457 9.9531 8.75546 9.96344C8.73966 9.9997 8.71546 10.0322 8.69127 10.0646L8.69127 10.0646C8.64819 10.1224 8.60519 10.1801 8.60987 10.259L8.60825 10.2586ZM8.94048 9.67245L9.06613 9.92045C9.10825 9.91451 9.13944 9.88236 9.17095 9.84988L9.17096 9.84987L9.17097 9.84986C9.18114 9.83938 9.19134 9.82886 9.20195 9.81918C9.22423 9.75099 9.19266 9.69881 9.16137 9.6471L9.16136 9.64709C9.14524 9.62045 9.1292 9.59392 9.12063 9.5654C9.1118 9.54119 9.1102 9.51373 9.1086 9.48618C9.10629 9.44647 9.10397 9.4066 9.07996 9.37609C9.07444 9.37259 9.06877 9.3687 9.06299 9.36473C9.036 9.34621 9.00641 9.3259 8.97626 9.33475L8.94251 9.67245H8.94048ZM9.10233 9.0169L9.10371 9.01775L9.10233 9.01772V9.0169ZM9.10371 9.01775C9.22256 9.02041 9.36213 9.04656 9.45652 9.12891C9.46384 9.19753 9.48051 9.27151 9.55086 9.30127C9.67624 9.32604 9.72052 9.42101 9.76674 9.52016L9.76674 9.52017C9.79457 9.57987 9.82311 9.64108 9.87049 9.6894C9.89201 9.72192 9.8621 9.74393 9.83618 9.763C9.82685 9.76987 9.81804 9.77636 9.81234 9.78281C9.76191 9.77454 9.72775 9.82414 9.71799 9.86548V9.88325C9.73599 9.89512 9.75425 9.90604 9.77244 9.91692L9.77246 9.91693L9.77247 9.91694C9.83029 9.95153 9.88743 9.98571 9.93352 10.0486C9.93191 10.1765 9.91558 10.2979 9.89925 10.4193C9.89072 10.4827 9.88219 10.5461 9.87577 10.6103C9.82586 10.6151 9.81784 10.5706 9.81032 10.5288C9.80755 10.5134 9.80485 10.4983 9.80013 10.4863C9.76362 10.3536 9.73789 10.2303 9.7107 10.1L9.68912 9.99733C9.64789 9.8964 9.60046 9.79852 9.55302 9.70063L9.55302 9.70062C9.48584 9.56199 9.41866 9.42336 9.36909 9.27606C9.31566 9.16785 9.203 9.07931 9.10371 9.01775ZM9.21903 10.3524C9.32261 10.4503 9.30894 10.586 9.29548 10.7197V10.7197C9.29308 10.7434 9.2907 10.7671 9.28898 10.7905C9.27768 10.846 9.31353 10.8496 9.3523 10.8535C9.37914 10.8562 9.40739 10.8591 9.42236 10.8794C9.49219 10.9845 9.45936 11.1342 9.43315 11.2536L9.43314 11.2536L9.42724 11.2807C9.44784 11.2489 9.46937 11.2183 9.49079 11.1878L9.4908 11.1878L9.49081 11.1878C9.53744 11.1215 9.58353 11.056 9.61836 10.9798C9.6174 10.9603 9.62879 10.9455 9.64081 10.9298C9.65423 10.9124 9.66845 10.8938 9.66716 10.8666C9.68363 10.8133 9.64132 10.8167 9.60473 10.8196H9.60472C9.59252 10.8206 9.58095 10.8215 9.57241 10.8203C9.53825 10.8153 9.51182 10.7934 9.52199 10.7537C9.57216 10.6537 9.54432 10.5387 9.51886 10.4335C9.51275 10.4083 9.50678 10.3836 9.50206 10.3598C9.48921 10.3148 9.4903 10.2629 9.49137 10.2114C9.49271 10.1472 9.49404 10.0834 9.46831 10.0341C9.44153 10.0716 9.3966 10.0991 9.35164 10.1266C9.26623 10.1788 9.18067 10.2311 9.21903 10.3524ZM9.44391 8.60356C9.53475 8.69676 9.6153 8.79019 9.69543 8.88313C9.80577 9.0111 9.91531 9.13815 10.0498 9.26242C10.0506 9.16941 10.0467 9.07642 10.038 8.98383C10.0105 8.92951 9.96315 8.88703 9.91749 8.84606L9.91744 8.84601C9.90718 8.8368 9.89701 8.82767 9.88716 8.81849C9.80978 8.81085 9.74902 8.75875 9.68896 8.70725C9.61582 8.64454 9.54372 8.58272 9.44391 8.60315V8.60356ZM10.0083 9.77702C10.0146 9.79913 10.0229 9.82059 10.0331 9.84109C10.1301 9.99689 10.2136 10.1609 10.2828 10.3313C10.2763 10.2706 10.2854 10.205 10.2945 10.1393L10.2946 10.1393C10.3128 10.0077 10.3311 9.87571 10.2243 9.78198C10.2044 9.72842 10.1434 9.73799 10.0976 9.74518L10.084 9.74726L10.0083 9.77702ZM10.5911 11.5763L10.5917 11.5766L10.5915 11.5767L10.5911 11.5763ZM10.5917 11.5766C10.651 11.5461 10.6815 11.4986 10.7138 11.4483C10.7443 11.4009 10.7763 11.351 10.8355 11.3109C10.8617 11.2743 10.8901 11.2868 10.9206 11.3003C10.9293 11.3041 10.9382 11.3081 10.9473 11.3109C11.0049 11.3516 11.0732 11.3737 11.1433 11.3746C11.1496 11.4234 11.1419 11.473 11.1213 11.5176C11.1426 11.5449 11.1768 11.5504 11.2117 11.556C11.237 11.5601 11.2627 11.5642 11.284 11.5767C11.3617 11.6354 11.4442 11.7123 11.434 11.8181L11.3934 11.8594C11.2645 11.7773 11.1239 11.7158 10.9766 11.6771C10.9736 11.6621 10.975 11.6471 10.9764 11.6319C10.9785 11.6098 10.9806 11.5873 10.9692 11.5643C10.9229 11.5321 10.8721 11.4973 10.8115 11.5122L10.8008 11.5187C10.7369 11.5572 10.6559 11.6061 10.5917 11.5766ZM10.7602 8.47708C10.8233 8.46398 10.8827 8.43688 10.9343 8.39772C11.05 8.291 11.2021 8.31141 11.3485 8.33106C11.4079 8.33904 11.4664 8.34689 11.5211 8.34605C11.482 8.27899 11.4372 8.21551 11.3873 8.15633C11.3223 8.1232 11.2516 8.10326 11.1791 8.09763C11.0534 8.02241 10.959 8.10033 10.8655 8.17755L10.8655 8.17756C10.8362 8.20175 10.807 8.22587 10.7769 8.2452C10.7427 8.31174 10.7261 8.41053 10.7602 8.47708ZM10.7643 8.98383C10.7643 8.97639 10.7643 8.96895 10.772 8.96688C10.7815 8.9753 10.7824 8.98891 10.7832 9.0024C10.7842 9.02007 10.7853 9.03755 10.8058 9.04294C10.8685 9.00836 10.9285 8.96884 10.9851 8.92472C11.0668 8.92472 11.1319 8.88438 11.1967 8.84421C11.2609 8.8044 11.3248 8.76476 11.4044 8.76476C11.6711 8.81436 11.935 8.86851 12.1676 9.00078C12.151 8.84123 12.0147 8.69573 11.8773 8.62464C11.7992 8.59736 11.7386 8.63911 11.6829 8.68375C11.5913 8.74216 11.5784 8.68711 11.5642 8.62695C11.5533 8.58026 11.5416 8.5305 11.4918 8.52833L11.4693 8.53545C11.3283 8.58013 11.1826 8.6263 11.0266 8.611C10.9913 8.62452 10.9598 8.64513 10.9289 8.66542C10.8746 8.70097 10.8219 8.73553 10.7525 8.72921L10.7503 8.76268C10.7452 8.83732 10.7396 8.9195 10.7643 8.983V8.98383ZM10.8757 9.53481C10.9146 9.5765 10.9731 9.58054 11.0312 9.58455C11.0492 9.58579 11.0671 9.58703 11.0843 9.58937L11.295 9.5067C11.2961 9.48896 11.283 9.47725 11.27 9.46552C11.2544 9.45155 11.2388 9.43755 11.247 9.41329C11.2818 9.37312 11.3247 9.37436 11.3693 9.37566C11.3986 9.37652 11.4286 9.37739 11.4576 9.36658C11.4907 9.36171 11.5242 9.34743 11.5578 9.33309C11.627 9.30357 11.6968 9.27378 11.7655 9.32525C11.7642 9.33007 11.7646 9.33559 11.765 9.34123C11.7656 9.35008 11.7663 9.35926 11.7606 9.36658C11.7289 9.44305 11.7821 9.49058 11.8419 9.51951C11.8847 9.5274 11.9264 9.54684 11.9678 9.56616C12.0416 9.60052 12.1144 9.63446 12.1904 9.60218C12.176 9.50441 12.1551 9.40774 12.1278 9.31285C12.0709 9.30288 12.0234 9.27115 11.9759 9.23934C11.9406 9.21572 11.9053 9.19207 11.8659 9.17727C11.8474 9.1976 11.8249 9.2138 11.8 9.22483C11.775 9.23586 11.748 9.24148 11.7207 9.24134C11.6806 9.23182 11.6387 9.21888 11.5959 9.20564L11.5959 9.20564C11.4396 9.15732 11.2702 9.10495 11.1222 9.2C11.0788 9.25276 11.0138 9.26225 10.9485 9.27178C10.9115 9.27718 10.8744 9.28259 10.8412 9.2959C10.8439 9.37659 10.8555 9.45672 10.8757 9.53481ZM10.9571 10.9976C10.9551 11.0032 10.9526 11.0094 10.95 11.0159C10.9334 11.0568 10.9116 11.1107 10.9766 11.1282C11.0219 11.1296 11.0709 11.1235 11.1206 11.1174L11.1207 11.1174C11.2411 11.1026 11.3658 11.0874 11.4515 11.1745C11.4842 11.2004 11.4783 11.2483 11.4735 11.2881C11.4723 11.2978 11.4711 11.3071 11.4706 11.3155L11.674 11.4874C11.6806 11.4523 11.6891 11.4185 11.6976 11.3847L11.6976 11.3847C11.7143 11.3185 11.7309 11.2528 11.7325 11.1795C11.7176 11.0979 11.6743 11.0246 11.6105 10.9728C11.548 10.9728 11.4979 10.938 11.4474 10.9029C11.3902 10.8632 11.3326 10.8232 11.2563 10.8335C11.215 10.8242 11.1766 10.8406 11.1377 10.8573C11.1062 10.8708 11.0745 10.8844 11.0408 10.8844C11.0115 10.9204 10.9844 10.9582 10.9595 10.9976H10.9571ZM11.0303 9.87219L11.0303 9.87219L11.0303 9.8722C11.0585 9.93605 11.0924 10.0126 11.1429 10.0184C11.2856 9.95476 11.4946 9.91508 11.654 9.9841C11.7073 9.99361 11.7073 10.0552 11.6947 10.0949C11.7332 10.1182 11.776 10.1392 11.8197 10.1607C11.8682 10.1846 11.9177 10.209 11.9635 10.2375L11.9391 10.0899C11.9366 10.0083 11.884 9.96449 11.8314 9.9206C11.7805 9.87823 11.7296 9.83579 11.7236 9.75925C11.5575 9.70125 11.379 9.69095 11.2075 9.72949C11.167 9.76707 11.1134 9.7736 11.0613 9.77993C11.0418 9.78231 11.0225 9.78466 11.0042 9.7886C11.0008 9.80107 11.0045 9.81082 11.0082 9.82068C11.0102 9.82618 11.0123 9.83172 11.0132 9.83778L11.014 9.83613C11.0193 9.8472 11.0247 9.85944 11.0303 9.87219ZM11.0555 10.6339L11.0582 10.6331L11.0583 10.6347L11.0555 10.6339ZM11.0582 10.6331C11.0566 10.6075 11.0692 10.5881 11.082 10.5685C11.0881 10.5591 11.0943 10.5495 11.099 10.5392C11.103 10.5143 11.104 10.4866 11.1051 10.4584C11.1086 10.3688 11.1123 10.2744 11.2104 10.2499L11.3893 10.2375C11.4382 10.3431 11.5304 10.3572 11.6217 10.3712C11.7053 10.3839 11.7881 10.3966 11.8366 10.4789C11.8387 10.5309 11.833 10.5806 11.8273 10.6297C11.8195 10.6974 11.8119 10.7638 11.8248 10.8335C11.7808 10.8335 11.7663 10.8 11.7508 10.7642C11.7394 10.7379 11.7275 10.7103 11.7028 10.6938C11.6587 10.6306 11.6002 10.5792 11.5323 10.544C11.4644 10.5087 11.3891 10.4906 11.3129 10.4913C11.2569 10.4967 11.2134 10.531 11.1699 10.5653C11.1348 10.5929 11.0998 10.6205 11.0582 10.6331ZM11.9452 11.7119C11.9736 11.7697 12.015 11.8223 12.0563 11.8748L12.0563 11.8748C12.124 11.9607 12.1915 12.0465 12.2018 12.155C12.238 12.1076 12.2688 12.0563 12.2937 12.002C12.2923 11.9739 12.2731 11.962 12.2527 11.9493C12.2378 11.94 12.2222 11.9303 12.2124 11.9136C12.1966 11.8683 12.209 11.8267 12.2211 11.7863C12.2261 11.7695 12.2311 11.7529 12.2339 11.7362C12.1961 11.6402 12.129 11.5591 12.0424 11.5048L11.9436 11.7114L11.9452 11.7119ZM12.2429 11.3225L12.4173 11.5643C12.4921 11.4436 12.4921 11.2659 12.4633 11.1208C12.4466 11.0935 12.4149 11.0489 12.3718 11.0691C12.3345 11.1079 12.3152 11.1588 12.2958 11.2099C12.2809 11.2491 12.266 11.2884 12.2429 11.3225ZM11.5329 4.58055L11.5333 4.58083L11.5329 4.58096V4.58055ZM11.5333 4.58083C11.5966 4.56322 11.6541 4.53195 11.7114 4.50076C11.7755 4.46588 11.8394 4.4311 11.911 4.41563C12.0216 4.46348 12.1239 4.52908 12.214 4.60989C12.175 4.6082 12.1354 4.61708 12.0965 4.62581C12.0309 4.64051 11.9672 4.65482 11.911 4.61775C11.8498 4.60446 11.7858 4.61493 11.7317 4.64709C11.6618 4.63933 11.5942 4.61675 11.5333 4.58083ZM12.4804 4.81202C12.5975 4.82332 12.6846 4.92049 12.765 5.01023L12.7882 5.03604C12.8972 5.05299 12.9793 5.13235 13.0448 5.21337L13.0041 5.08317C12.9748 4.95255 12.8947 4.85128 12.8122 4.74795C12.6987 4.74885 12.5863 4.77055 12.4804 4.81202ZM6.46043 11.9751L6.45779 11.9728V11.9761L6.46043 11.9751ZM6.46043 11.9751C6.47578 11.9884 6.49125 12.0035 6.50713 12.019L6.50715 12.019L6.50716 12.019C6.57074 12.0811 6.64089 12.1496 6.73675 12.1381C6.82566 12.1802 6.83976 12.2685 6.85366 12.3556C6.86322 12.4154 6.87269 12.4747 6.90632 12.518L6.99335 12.4386L6.98603 12.4337L6.99823 12.4217L7.00311 12.4287C7.0275 12.3551 6.99335 12.2245 6.95187 12.1394C6.9235 12.1182 6.89215 12.1195 6.8613 12.1208C6.83201 12.122 6.80318 12.1232 6.77782 12.1051C6.77023 12.0275 6.72379 11.9882 6.66934 11.9422L6.6664 11.9397C6.641 11.9209 6.61228 11.9293 6.58368 11.9376L6.58368 11.9376C6.56649 11.9427 6.54935 11.9477 6.53302 11.9467L6.46043 11.9751ZM7.02933 9.218C6.92804 9.14704 6.82311 9.07353 6.76074 8.96989L6.76237 8.96865C6.82779 8.91003 6.91898 8.89755 7.00908 8.88521L7.00914 8.8852L7.00919 8.8852C7.03722 8.88136 7.06515 8.87754 7.09216 8.87234C7.11966 8.89858 7.13328 8.93092 7.14686 8.96316C7.15617 8.98527 7.16545 9.00733 7.17918 9.02734C7.26525 9.13236 7.36052 9.2292 7.46384 9.31668C7.34832 9.34143 7.22811 9.3296 7.11941 9.28278C7.09064 9.26095 7.06024 9.23965 7.0295 9.21812L7.02943 9.21806L7.02935 9.21801L7.02933 9.218ZM7.22 8.17911C7.09892 8.18633 6.97898 8.19349 6.89494 8.08741H6.89331C6.95047 8.02993 7.0178 7.98393 7.09176 7.95184L7.33574 8.1585V8.17587C7.29782 8.17446 7.25887 8.17678 7.22003 8.1791H7.22003H7.22002L7.22 8.17911ZM2.57389 6.20879L2.43359 5.76528C2.44285 5.63749 2.48098 5.51358 2.54502 5.4032L2.76542 5.33417L2.66172 5.49207C2.67471 5.63051 2.64721 5.7554 2.61962 5.88068C2.59623 5.98693 2.57277 6.09347 2.57389 6.20879ZM2.71987 4.88363L2.52834 4.99689V4.99565L2.53322 4.79353C2.55639 4.76983 2.57647 4.7438 2.59645 4.71791L2.59646 4.71791L2.59646 4.7179L2.59646 4.7179C2.63224 4.67153 2.66769 4.62559 2.71987 4.5943V4.88363ZM10.6693 7.76841C10.675 7.74626 10.6807 7.72401 10.6815 7.70254L10.6823 7.70089C10.7224 7.62855 10.778 7.56626 10.8449 7.5186C10.862 7.51739 10.8812 7.51395 10.9015 7.51031C10.9643 7.49907 11.0376 7.48595 11.0889 7.53059C11.1022 7.64701 11.1879 7.64467 11.2764 7.64225C11.3155 7.64119 11.3552 7.6401 11.3894 7.64922C11.4221 7.6933 11.4472 7.7425 11.4726 7.79231L11.4726 7.79232C11.4906 7.8275 11.5087 7.863 11.5297 7.89722C11.4952 7.88877 11.4604 7.87972 11.4256 7.87063L11.4255 7.87062C11.2575 7.82681 11.086 7.78208 10.9072 7.79885C10.8825 7.80817 10.8559 7.81428 10.8292 7.82041C10.7719 7.83358 10.7141 7.84685 10.6741 7.89226C10.6468 7.85598 10.658 7.81239 10.6693 7.76841ZM3.27233 5.57303L3.27558 5.57551H3.27233V5.57303ZM4.30196 7.62235L4.15679 7.76537L4.15476 7.76413C4.10455 7.69528 4.06875 7.61669 4.04959 7.53323C4.03042 7.44977 4.0283 7.3632 4.04334 7.27887C4.44104 7.06972 4.96887 7.09659 5.3804 7.23175C5.39971 7.24647 5.42131 7.25537 5.44289 7.26425C5.47584 7.27782 5.50873 7.29136 5.5333 7.32558C5.49955 7.52274 5.44139 7.71246 5.30069 7.85754C5.28272 7.81551 5.25715 7.7743 5.232 7.73378C5.20992 7.6982 5.18817 7.66315 5.17219 7.62855C5.13579 7.62855 5.13887 7.64765 5.14237 7.66935C5.1447 7.68377 5.14721 7.69934 5.13844 7.71122C5.13386 7.73972 5.12731 7.76713 5.12078 7.79446L5.12078 7.79447L5.12077 7.79447L5.12077 7.79448C5.1076 7.84958 5.09451 7.90436 5.09778 7.96708C5.00942 8.01162 4.91172 8.03361 4.81312 8.03114L4.80911 8.00236C4.80489 7.97223 4.8001 7.93807 4.79645 7.90714C4.76807 7.8585 4.76139 7.80096 4.75466 7.74299C4.75156 7.71623 4.74844 7.68938 4.74318 7.66327L4.7261 7.64633C4.69317 7.66932 4.68697 7.70733 4.68079 7.7452C4.67697 7.76859 4.67316 7.79194 4.66307 7.81166C4.65201 7.83458 4.63803 7.85564 4.6242 7.87647L4.6242 7.87648C4.59838 7.91537 4.57309 7.95347 4.56832 8.00138C4.47684 8.00195 4.38827 7.96876 4.31904 7.90797L4.33124 7.63434C4.32767 7.63009 4.32314 7.62679 4.31805 7.6247C4.31295 7.62261 4.30743 7.62181 4.30196 7.62235ZM0.317621 12.9437C0.300256 12.7592 0.296314 12.5736 0.305828 12.3885L0.572183 12.0868C0.724676 12.1856 0.766154 12.3753 0.737282 12.5378C0.6754 12.5024 0.610475 12.4727 0.543311 12.4493C0.484262 12.5392 0.495014 12.643 0.506071 12.7497C0.513213 12.8187 0.520483 12.8888 0.509152 12.9573L0.49736 13.0813C0.427009 13.0768 0.358286 13.0052 0.317621 12.9437ZM0.853177 13.0681C0.741756 12.7647 0.809666 12.4105 0.904415 12.1211L0.903602 12.1219C0.939166 12.0153 1.00552 11.9216 1.07179 11.8281L1.07179 11.8281L1.10245 11.7847L1.3928 11.7549C1.31615 11.7965 1.30339 11.8742 1.29082 11.9506C1.28793 11.9683 1.28504 11.9859 1.28138 12.0029C1.30139 12.0185 1.32886 12.0257 1.3561 12.0328C1.408 12.0464 1.45903 12.0597 1.45583 12.131C1.47223 12.1967 1.47398 12.2652 1.46096 12.3317C1.44795 12.3981 1.42049 12.4608 1.3806 12.515C1.33546 12.4018 1.25535 12.286 1.13661 12.2493C1.01504 12.4218 1.02785 12.6387 1.04027 12.849L1.04027 12.849C1.04169 12.873 1.0431 12.8968 1.0443 12.9205C0.986198 12.9768 0.922092 13.0263 0.853177 13.0681ZM1.5094 13.0033C1.50843 12.9923 1.50742 12.9808 1.5026 12.9722C1.51235 12.6374 1.53635 12.3257 1.68437 12.05C1.79744 11.9201 1.95553 11.8397 2.12558 11.8256L2.27075 11.8772L2.16625 12.0128C2.28295 12.0818 2.46229 12.1901 2.44033 12.358L2.42365 12.4981C2.33627 12.6571 2.23224 12.8061 2.11338 12.9424H2.0963C2.08924 12.8355 2.11051 12.7414 2.13224 12.6453C2.14553 12.5866 2.15899 12.527 2.16625 12.4634C2.16732 12.454 2.17421 12.4454 2.18083 12.4372C2.19178 12.4236 2.20199 12.4109 2.18373 12.3972C2.14049 12.3935 2.10247 12.3764 2.06451 12.3593C2.02178 12.34 1.97912 12.3208 1.92917 12.3208C1.88578 12.3494 1.87007 12.393 1.85437 12.4365C1.84447 12.4639 1.83458 12.4914 1.81775 12.515C1.7838 12.584 1.73917 12.6462 1.69483 12.7079L1.69482 12.7079C1.62178 12.8095 1.54951 12.9101 1.52699 13.0387C1.51225 13.0357 1.51087 13.0201 1.5094 13.0033ZM2.23147 11.5061C2.20622 11.5123 2.18104 11.5184 2.15486 11.5102H2.15649C2.15886 11.4611 2.17152 11.413 2.1936 11.3693C2.21569 11.3255 2.24671 11.287 2.28458 11.2564L2.33785 11.2444C2.33434 11.253 2.33862 11.258 2.34281 11.2629C2.34444 11.2648 2.34606 11.2667 2.3472 11.2688C2.35216 11.2644 2.35795 11.261 2.36421 11.2588C2.37048 11.2567 2.3771 11.2559 2.3837 11.2564C2.39029 11.2569 2.39671 11.2587 2.4026 11.2618C2.40848 11.2648 2.41371 11.269 2.41796 11.2742L2.44195 11.3035C2.45887 11.3058 2.47917 11.3054 2.50015 11.305H2.50017C2.56543 11.3037 2.63718 11.3023 2.63349 11.3821C2.65971 11.4045 2.69841 11.4189 2.73764 11.4335C2.82373 11.4655 2.91239 11.4985 2.87747 11.6189C2.87403 11.6298 2.86884 11.6413 2.8635 11.6532C2.84615 11.6916 2.82713 11.7338 2.8604 11.7714C2.87245 11.7721 2.88515 11.7725 2.89826 11.7729H2.8983C2.99883 11.776 3.12383 11.78 3.17311 11.8896L3.23858 12.062L3.13895 12.3799L2.94051 11.8648C2.77297 11.6755 2.54077 11.5879 2.31752 11.5052C2.28775 11.4924 2.25957 11.4993 2.23147 11.5061ZM2.34558 11.0266C2.3208 11.005 2.30319 10.9761 2.29515 10.9439L2.29759 10.9448C2.33756 10.9166 2.36466 10.8717 2.39124 10.8277C2.43633 10.753 2.47991 10.6809 2.58225 10.6968C2.66707 10.7122 2.74925 10.7401 2.82624 10.7794C2.89722 10.7954 2.94334 10.8467 2.9908 10.8994L2.9908 10.8994C3.01566 10.927 3.04087 10.9551 3.07023 10.9787C3.12311 11.0286 3.18229 11.0641 3.24132 11.0995C3.29849 11.1337 3.35551 11.1679 3.40652 11.2151C3.40613 11.245 3.4142 11.2743 3.42977 11.2997C3.44535 11.3251 3.46777 11.3453 3.49436 11.3581C3.60696 11.3639 3.61851 11.4541 3.62992 11.5431C3.63467 11.5802 3.63939 11.617 3.65133 11.6474L3.47728 11.8834C3.44879 11.8419 3.44 11.7922 3.4312 11.7424C3.41914 11.6743 3.40706 11.6059 3.34431 11.5582C3.35148 11.5401 3.36379 11.5238 3.37602 11.5076C3.40052 11.4751 3.4247 11.443 3.40652 11.3986C3.38229 11.3592 3.34674 11.3495 3.31154 11.34C3.30245 11.3375 3.29338 11.335 3.28453 11.3321L3.21377 11.344C3.02018 11.2664 2.85335 11.1176 2.69314 10.9746L2.69313 10.9746L2.68513 10.9675C2.59332 10.9331 2.5128 10.9646 2.43342 10.9957L2.43341 10.9957L2.4334 10.9957C2.40414 11.0072 2.37504 11.0186 2.34558 11.0266ZM2.52831 10.4589L2.52816 10.4587V10.4591L2.52831 10.4589ZM2.52831 10.4589L2.55704 10.5058C2.61271 10.5022 2.66551 10.4891 2.71771 10.4761L2.71772 10.4761C2.77989 10.4606 2.84121 10.4453 2.90553 10.4467C2.94885 10.4727 2.99828 10.4841 3.04749 10.4955L3.0475 10.4955L3.04751 10.4955L3.04752 10.4955C3.0907 10.5055 3.13372 10.5154 3.17229 10.5351L3.1855 10.5535C3.24729 10.6397 3.31456 10.7335 3.40449 10.791C3.60131 10.8203 3.70988 11.0353 3.77779 11.1923V11.1163C3.80707 11.0101 3.77535 10.8869 3.73713 10.791C3.70827 10.7619 3.67188 10.7383 3.63645 10.7153L3.63644 10.7153C3.61195 10.6995 3.58792 10.6839 3.56715 10.667C3.5597 10.6415 3.56233 10.6141 3.57447 10.5905C3.52665 10.538 3.4642 10.5021 3.40144 10.4661L3.40143 10.4661L3.40142 10.4661C3.36546 10.4454 3.32939 10.4247 3.29592 10.4008C3.20609 10.2682 3.05844 10.2537 2.91061 10.2392C2.84696 10.233 2.78328 10.2268 2.72417 10.2111L2.52831 10.4589ZM2.5238 8.65197L2.52369 8.65156V8.65239L2.5238 8.65197ZM2.5238 8.65197C2.54533 8.72878 2.5713 8.82407 2.58631 8.90577C2.6307 8.8046 2.70533 8.74015 2.78456 8.67174L2.78456 8.67173L2.78457 8.67173L2.78457 8.67172L2.78458 8.67172C2.82511 8.63672 2.86685 8.60068 2.90635 8.55815C2.83659 8.51549 2.75918 8.48739 2.67862 8.47548V8.47052C2.66519 8.48407 2.64997 8.49765 2.6344 8.51154C2.5879 8.55304 2.53828 8.59732 2.5238 8.65197ZM3.07267 9.34928L2.96409 9.46212C2.96559 9.33484 2.9886 9.21544 3.01135 9.09745L3.01135 9.09743C3.0194 9.05565 3.02742 9.01404 3.03444 8.97231C3.10926 8.94545 3.21093 8.9132 3.28819 8.9595C3.27192 9.10499 3.18205 9.23561 3.07267 9.34928ZM3.12641 9.81583C3.09906 9.81358 3.07149 9.81131 3.04379 9.80973C3.25153 9.69976 3.41766 9.52305 3.51632 9.30712C3.5436 9.29696 3.57213 9.30248 3.60097 9.30806C3.61555 9.31089 3.63021 9.31372 3.64482 9.31456L3.509 9.75765C3.39603 9.838 3.26409 9.82715 3.12641 9.81583ZM3.57 8.63462C3.38416 8.58253 3.20198 8.40067 3.093 8.23822H3.09218C3.08819 8.21681 3.08379 8.19534 3.07937 8.17378C3.06084 8.08338 3.042 7.99143 3.05152 7.89598C3.13486 7.93453 3.21182 7.98598 3.27965 8.0485L3.28534 8.10761C3.31702 8.17097 3.35965 8.22995 3.40235 8.28902L3.40235 8.28903C3.47915 8.39527 3.55615 8.5018 3.57 8.63462ZM4.06896 9.79237C3.94488 9.83426 3.81303 9.84684 3.68345 9.82916H3.68427C3.76577 9.75805 3.85342 9.69455 3.94615 9.63944L4.17875 9.40838H4.39427C4.33572 9.55842 4.24097 9.75104 4.06896 9.79237ZM3.88312 8.54451C3.77337 8.38507 3.69659 8.20466 3.65743 8.0142V8.01213L3.91199 8.17746L3.88312 8.54451ZM4.42538 8.71577C4.44319 8.80254 4.46143 8.89139 4.45161 8.97231C4.30644 8.84666 4.15679 8.68132 4.15191 8.48705C4.18937 8.51154 4.23328 8.52261 4.27696 8.53362C4.32102 8.54473 4.36484 8.55577 4.40159 8.58047C4.40654 8.62398 4.4159 8.66958 4.42538 8.71577ZM4.67242 10.0412C4.53172 10.1167 4.38391 10.1776 4.23121 10.2231L4.23039 10.2239C4.24587 10.1992 4.26802 10.1757 4.29071 10.1516C4.32884 10.1111 4.36847 10.0691 4.38045 10.0172C4.47357 9.95371 4.51818 9.8609 4.56245 9.76881L4.56245 9.7688L4.56246 9.76879L4.56246 9.76878C4.5758 9.74103 4.58911 9.71335 4.6037 9.68656C4.66254 9.65723 4.71881 9.65622 4.77671 9.65517H4.77672C4.82164 9.65436 4.86755 9.65352 4.91641 9.63944C4.90294 9.75017 4.82894 9.84182 4.75502 9.93338L4.75501 9.93339C4.72629 9.96897 4.69757 10.0045 4.67242 10.0412ZM4.65046 10.7674L4.46869 10.526C4.60695 10.5488 4.75944 10.5628 4.88795 10.5141L4.95301 10.7335C4.90784 10.7607 4.85749 10.7778 4.80533 10.7836C4.75316 10.7895 4.70037 10.7839 4.65046 10.7674ZM4.84281 9.10747L4.77286 8.78259C4.88432 8.7307 4.94051 8.66514 5.03054 8.56008L5.04247 8.54616C5.04613 8.76275 5.01238 8.96735 4.84281 9.10747ZM5.24905 9.3564L5.24905 9.3563H5.24864L5.24905 9.3564ZM5.24905 9.3564C5.24993 9.40221 5.26408 9.44675 5.28971 9.48444C5.38912 9.52073 5.44155 9.60248 5.49433 9.68478C5.54195 9.75903 5.58985 9.83372 5.67278 9.87587C5.78407 9.92677 5.9109 9.86671 6.0096 9.81998L6.0164 9.81676C5.98242 9.77772 5.94643 9.74422 5.91045 9.71072L5.91044 9.71072L5.91043 9.71071C5.86718 9.67045 5.82393 9.63019 5.7842 9.58033C5.73337 9.55842 5.68213 9.52618 5.68457 9.46212L5.24905 9.3564ZM5.70938 10.6914C5.5906 10.6691 5.48198 10.6087 5.39951 10.519C5.38169 10.4682 5.37021 10.4153 5.36535 10.3615C5.40632 10.3645 5.45012 10.3601 5.4946 10.3556L5.49461 10.3556H5.49462H5.49463C5.52343 10.3527 5.55251 10.3497 5.58128 10.3487L5.72646 10.674C5.72416 10.6822 5.71591 10.6805 5.70986 10.6792C5.70306 10.6778 5.69905 10.6769 5.70938 10.6914ZM5.54021 8.46969C5.56014 8.6466 5.58819 8.8417 5.65611 9.00166C5.62902 8.98411 5.59224 8.96814 5.55295 8.95108L5.55294 8.95108C5.4377 8.90104 5.30093 8.84165 5.32428 8.70571C5.36116 8.65655 5.40033 8.61726 5.44001 8.57745L5.44001 8.57745L5.44002 8.57744C5.4734 8.54396 5.50714 8.5101 5.54021 8.46969ZM6.33806 8.87518C6.23111 8.91073 6.03998 8.9504 5.95215 8.83384L5.95255 8.83302C5.80363 8.60862 5.90345 8.36183 5.98765 8.15367L5.98956 8.14894C6.04354 8.30752 6.07863 8.4721 6.09407 8.63916C6.1098 8.69118 6.1656 8.73032 6.22142 8.76947L6.22143 8.76948L6.22144 8.76948C6.26808 8.80219 6.31473 8.83492 6.33806 8.87518ZM6.17115 9.40612C6.14886 9.38942 6.12658 9.37273 6.10423 9.3563C6.24389 9.34403 6.38201 9.31772 6.51657 9.27777H6.56944L6.68574 9.44972C6.72597 9.47301 6.76683 9.49483 6.80767 9.51664L6.80771 9.51666C6.87049 9.55018 6.93322 9.58368 6.99357 9.62249C6.99043 9.64273 6.97209 9.64907 6.95303 9.65567C6.9425 9.65931 6.93176 9.66302 6.92322 9.6692C6.61514 9.73866 6.39229 9.57175 6.17116 9.40612L6.17115 9.40612ZM6.12619 11.3552H6.10911H6.10789C6.14106 11.2521 6.17989 11.1509 6.22419 11.0522C6.25326 11.0429 6.28228 11.032 6.31141 11.021L6.31142 11.021C6.38213 10.9942 6.45341 10.9673 6.52715 10.9638C6.60177 10.93 6.68254 10.9125 6.76422 10.9125L6.77195 10.9468C7.09686 10.9402 7.4478 10.9613 7.67308 11.2295L7.69016 11.4023C7.64641 11.3721 7.5945 11.3562 7.54285 11.3405L7.54284 11.3405C7.46824 11.3178 7.3942 11.2952 7.34614 11.2295C7.24429 11.1741 7.14244 11.1706 7.01737 11.1662L7.00903 11.1659C6.95965 11.183 6.90596 11.1901 6.85217 11.1972L6.85216 11.1972L6.85215 11.1972C6.79033 11.2054 6.72839 11.2136 6.67273 11.237C6.65267 11.2276 6.64916 11.2107 6.64564 11.1937C6.64188 11.1756 6.63812 11.1575 6.61417 11.1485L6.55981 11.164L6.55981 11.164L6.5598 11.164C6.40718 11.2069 6.25596 11.2495 6.12619 11.3552ZM6.69875 8.51681C6.53853 8.54864 6.39824 8.45109 6.30349 8.32709C6.24981 8.24174 6.23399 8.14155 6.21812 8.04108C6.20971 7.9878 6.20128 7.93444 6.18719 7.88317C6.22437 7.91937 6.27393 7.94582 6.32337 7.9722C6.4286 8.02836 6.5333 8.08423 6.51698 8.23327C6.52143 8.33876 6.60122 8.41883 6.6769 8.49479L6.6769 8.49479L6.69875 8.51681ZM6.30634 11.7896H6.27746H6.27624C6.28215 11.7725 6.28727 11.7536 6.29254 11.7341C6.31523 11.6505 6.34068 11.5566 6.44297 11.5482C6.49795 11.4974 6.56687 11.494 6.63896 11.4904C6.67833 11.4885 6.71863 11.4865 6.75812 11.4767L6.96145 11.4131C7.11971 11.4131 7.25741 11.4654 7.39531 11.5178L7.39533 11.5178L7.39535 11.5179C7.47074 11.5465 7.54619 11.5752 7.6251 11.5954C7.67606 11.6322 7.7185 11.68 7.74947 11.7352C7.78044 11.7905 7.79919 11.8519 7.80443 11.9153C7.82094 11.9263 7.84261 11.9339 7.86459 11.9416C7.9135 11.9588 7.96389 11.9764 7.96221 12.0335C7.94087 12.0841 7.92588 12.1374 7.91082 12.191C7.89661 12.2416 7.88233 12.2925 7.86258 12.3414C7.84896 12.3129 7.83616 12.2812 7.82292 12.2484L7.82291 12.2483C7.76777 12.1117 7.70493 11.9561 7.54295 11.9281C7.51652 11.8372 7.4848 11.7384 7.39778 11.6842L7.14078 11.6499L7.13061 11.6619C7.14248 11.6935 7.17017 11.7213 7.19817 11.7494C7.25075 11.8022 7.30443 11.8562 7.25667 11.9384C7.28364 11.9767 7.32365 11.9998 7.3638 12.023C7.41388 12.0519 7.46418 12.081 7.48968 12.1397C7.52702 12.1914 7.52097 12.2552 7.51491 12.319C7.51114 12.3587 7.50737 12.3985 7.51408 12.4353L7.32743 12.5535C7.32598 12.5192 7.32659 12.4827 7.32721 12.4452C7.32992 12.2826 7.33291 12.1021 7.16965 12.0161C7.06576 12.0485 7.02079 11.975 6.97312 11.897C6.94409 11.8496 6.91407 11.8005 6.86914 11.7727C6.85202 11.7627 6.84052 11.7432 6.82936 11.7243C6.81003 11.6915 6.79175 11.6605 6.74714 11.6838C6.68331 11.7275 6.60395 11.7329 6.52451 11.7383C6.44707 11.7436 6.36957 11.7488 6.30634 11.7896ZM6.45314 10.7989L6.40719 10.7765C6.42025 10.6898 6.48137 10.6242 6.54222 10.5589L6.54224 10.5589L6.54227 10.5589L6.5423 10.5588L6.54231 10.5588C6.55716 10.5429 6.572 10.527 6.58611 10.5108C6.67923 10.5534 6.75509 10.4971 6.82778 10.4431C6.91443 10.3788 6.99657 10.3178 7.09808 10.4318C7.13581 10.4551 7.17824 10.4647 7.22054 10.4741L7.22056 10.4741L7.22057 10.4741C7.25394 10.4816 7.28724 10.4891 7.31808 10.5033C7.48857 10.526 7.55329 10.7038 7.60362 10.8421L7.60924 10.8575C7.58389 10.8503 7.55649 10.8452 7.52873 10.8402L7.52872 10.8402L7.52871 10.8401C7.44465 10.8248 7.35721 10.8087 7.3132 10.7273C7.30665 10.7223 7.29994 10.7166 7.29306 10.7107C7.25973 10.6821 7.22235 10.6501 7.18022 10.6802C7.10478 10.7461 7.03247 10.7178 6.95521 10.6875C6.89339 10.6632 6.8284 10.6377 6.75609 10.6583C6.68443 10.6856 6.61509 10.7198 6.54633 10.7537C6.5152 10.769 6.48419 10.7843 6.45314 10.7989ZM4.68873 12.5246C4.65728 12.5384 4.62625 12.552 4.59982 12.5693V12.5705C4.55515 12.7357 4.62647 12.8625 4.69754 12.9887C4.74294 13.0694 4.78824 13.1499 4.80314 13.2401H5.14717C5.02111 13.031 4.98491 12.7623 4.95564 12.511C4.96526 12.3417 4.99058 12.1737 5.03127 12.0092L4.71205 12.115C4.68752 12.1764 4.66794 12.2397 4.6535 12.3043L4.75231 12.2733C4.79589 12.2903 4.8355 12.3164 4.86861 12.3498C4.8531 12.4524 4.76953 12.4891 4.68873 12.5246ZM5.36391 12.2733H5.3448C5.31029 12.3068 5.28587 12.3533 5.26138 12.3999C5.24777 12.4257 5.23413 12.4517 5.21874 12.4755C5.21132 12.6755 5.25836 12.8715 5.30386 13.061C5.31825 13.121 5.33249 13.1803 5.3448 13.2389H5.59651C5.59895 12.9764 5.61115 12.7317 5.63027 12.4804L5.59651 12.4879L5.36391 12.2733ZM5.89806 12.45C5.88672 12.4718 5.87554 12.4932 5.86206 12.511L5.77544 13.2401H6.01943C6.07821 13.0792 6.12697 12.9146 6.16542 12.7474C6.17167 12.7259 6.18006 12.703 6.18876 12.6793C6.22303 12.5858 6.26207 12.4792 6.19429 12.3932C6.14567 12.3513 6.08303 12.3302 6.01943 12.3341C5.95426 12.3423 5.92569 12.3971 5.89806 12.45ZM9.58854 12.5196C9.57335 12.4894 9.55835 12.4596 9.53816 12.4333C9.50353 12.4728 9.47414 12.5167 9.45073 12.5639C9.44369 12.8055 9.53321 13.0058 9.62612 13.2137C9.62987 13.2221 9.63363 13.2305 9.63738 13.2389H9.90414C9.89752 13.1512 9.88792 13.065 9.87842 12.9796C9.86284 12.8395 9.84751 12.7018 9.84599 12.5639C9.83698 12.4542 9.87186 12.3629 9.90659 12.272C9.92042 12.2359 9.93422 12.1997 9.94521 12.1626C9.90914 12.1694 9.87228 12.1747 9.83524 12.18C9.78041 12.1879 9.72518 12.1958 9.67154 12.2089L9.74148 12.2808C9.75932 12.3438 9.76382 12.41 9.75471 12.475C9.7456 12.54 9.72308 12.6022 9.68862 12.6577C9.63888 12.6195 9.61344 12.569 9.58854 12.5196Z" fill="#EF7D00"/>
</svg>
