<svg width="16" height="16" viewBox="0 0 16 16" fill="none" xmlns="http://www.w3.org/2000/svg">
<path d="M6.77333 1.04C7.38667 0.453329 8.25333 0.259996 9.07333 0.239996C9.94667 0.226662 10.8133 0.239996 11.6867 0.239996C11.6867 1.15333 11.6867 2.08 11.6867 2.99333C11.1267 2.99333 10.56 2.99333 10 2.99333C9.62667 2.98 9.3 3.23333 9.21333 3.59333C9.2 4.20666 9.21333 4.82 9.21333 5.43333C10.04 5.43333 10.86 5.43333 11.6867 5.43333C11.6267 6.32 11.5133 7.20666 11.3867 8.08C10.66 8.09333 9.92667 8.08 9.2 8.08C9.18667 10.6933 9.2 13.32 9.2 15.9267C8.11333 15.9267 7.04 15.9267 5.95333 15.9267C5.92667 13.3133 5.95333 10.6867 5.94 8.08C5.41333 8.08 4.88667 8.08 4.35333 8.08C4.35333 7.20666 4.35333 6.32 4.35333 5.44C4.88 5.44 5.40667 5.44 5.92667 5.44C5.94 4.59333 5.91333 3.72666 5.94 2.88C6.01333 2.18666 6.26 1.51333 6.77333 1.04Z" fill="#363636"/>
</svg>
