<svg width="17" height="16" viewBox="0 0 17 16" fill="none" xmlns="http://www.w3.org/2000/svg">
<path d="M4.78525 12.75C7.42807 12.75 9.5705 10.6234 9.5705 8C9.5705 5.37665 7.42807 3.25 4.78525 3.25C2.14243 3.25 0 5.37665 0 8C0 10.6234 2.14243 12.75 4.78525 12.75Z" fill="#ED2224"/>
<path d="M11.2189 12.75C13.8617 12.75 16.0041 10.6234 16.0041 8C16.0041 5.37665 13.8617 3.25 11.2189 3.25C8.57603 3.25 6.43359 5.37665 6.43359 8C6.43359 10.6234 8.57603 12.75 11.2189 12.75Z" fill="#FFCD05"/>
<path d="M8.00371 4.49854C7.00952 5.39865 6.44141 6.66749 6.44141 8.00139C6.44141 9.33529 7.00952 10.6096 8.00371 11.5042C8.9979 10.6041 9.56602 9.33529 9.56602 8.00139C9.56602 6.66749 8.9979 5.39865 8.00371 4.49854Z" fill="#D25727"/>
<path d="M0.386719 6.93187V8.98071H0.857596V8.17397C0.85115 7.98831 0.85115 7.80265 0.844704 7.61699C0.889826 7.75781 0.935001 7.89868 0.973677 8.03315C1.00591 8.14198 1.03819 8.23801 1.07047 8.34044L1.28974 8.98711H1.67032C1.71545 8.85903 1.76062 8.73101 1.7993 8.60294C1.85092 8.44932 1.90254 8.29565 1.95411 8.14838C2.01217 7.96912 2.07024 7.78985 2.12181 7.61054C2.11536 7.79625 2.10892 7.98191 2.10892 8.16118V8.98711H2.59913V6.93827H1.91543C1.8832 7.04715 1.84442 7.15598 1.80574 7.26481C1.76062 7.41208 1.70905 7.55935 1.65743 7.71302C1.60077 7.88649 1.54914 8.06154 1.50262 8.23796C1.44455 8.05869 1.39293 7.88583 1.33492 7.70657L1.08337 6.93822L0.386719 6.93182V6.93187ZM3.88268 7.50811C3.81822 7.46332 3.69564 7.38009 3.48921 7.38009C3.2506 7.38009 3.03773 7.49531 2.89581 7.68103C2.74105 7.89228 2.72166 8.10354 2.72166 8.19317C2.72166 8.5261 2.90875 8.73741 2.99905 8.82064C3.18609 8.98711 3.36668 9.0063 3.46343 9.0063C3.69559 9.0063 3.82462 8.90388 3.90208 8.85264V8.98071H4.36001V7.41208H3.88268V7.50811ZM3.30217 8.44932C3.23121 8.38528 3.19254 8.29565 3.19254 8.19962C3.19254 8.00751 3.35379 7.84104 3.54728 7.84104C3.74721 7.84104 3.90202 8.00111 3.90847 8.19317C3.90847 8.39163 3.75371 8.54535 3.55372 8.55175C3.45952 8.55196 3.36907 8.51511 3.30217 8.44927V8.44932ZM5.65645 7.87303C5.65645 7.84744 5.65645 7.78985 5.63067 7.71942C5.58549 7.58494 5.44363 7.38009 5.08888 7.38009C4.86956 7.38009 4.64379 7.47606 4.53416 7.68103C4.50837 7.71942 4.48253 7.78985 4.48253 7.90508C4.48253 7.96272 4.48898 8.09714 4.60511 8.21242C4.66957 8.2764 4.75348 8.32124 4.93407 8.36609C5.06305 8.39808 5.12756 8.40448 5.17274 8.46206C5.19207 8.49411 5.19852 8.5261 5.19852 8.53895C5.19852 8.57094 5.17273 8.66058 5.06949 8.66697C5.0566 8.66697 5.02437 8.66697 4.99853 8.64778C4.93407 8.61579 4.92763 8.53895 4.92118 8.5133H4.44386C4.4503 8.5453 4.45675 8.63498 4.50193 8.71822C4.53415 8.7758 4.57928 8.82704 4.6309 8.87188C4.7083 8.93587 4.84378 9.0191 5.07594 9.0191C5.35333 9.0191 5.50814 8.89748 5.57904 8.82064C5.70163 8.69257 5.70807 8.56455 5.70807 8.49411C5.70807 8.35324 5.65645 8.23801 5.54037 8.15478C5.43713 8.07794 5.33394 8.0523 5.21141 8.0267C5.11467 8.00111 5.0566 7.98191 5.02437 7.96272C4.99214 7.93707 4.97275 7.90508 4.97275 7.86024C4.97275 7.79625 5.01792 7.73861 5.08888 7.73861C5.10822 7.73861 5.13401 7.74501 5.15334 7.75781C5.20496 7.7898 5.21141 7.83464 5.21786 7.88588L5.6565 7.87309L5.65645 7.87303ZM5.8371 6.93187V7.40568H5.6629V7.7706H5.8306V8.97431H6.30792V7.77055H6.51435V7.40563H6.31442V6.92542L5.83704 6.93182L5.8371 6.93187ZM6.95295 8.0139C6.96584 7.98191 6.98518 7.95632 7.00451 7.93707C7.01096 7.93067 7.03674 7.89868 7.07553 7.87309C7.14643 7.82185 7.21739 7.8026 7.30124 7.8026C7.52701 7.8026 7.61731 7.94347 7.65598 8.0139H6.95295ZM8.10752 8.35324C8.11397 8.29565 8.12042 8.24441 8.12042 8.19317C8.12042 7.95632 8.00428 7.72576 7.83013 7.57854C7.62376 7.40568 7.39804 7.38648 7.30769 7.38648C7.187 7.38646 7.06779 7.41284 6.95853 7.46374C6.84927 7.51464 6.75266 7.58881 6.67555 7.68097C6.55303 7.82824 6.48852 8.00751 6.48852 8.19962C6.48852 8.44287 6.60465 8.67977 6.78524 8.82704C6.99162 8.99351 7.21739 9.0127 7.31414 9.0127C7.61731 9.0127 7.7979 8.86549 7.87531 8.78225C7.99784 8.66697 8.03657 8.56455 8.06235 8.50051H7.57213C7.5399 8.5325 7.53346 8.53895 7.50768 8.55175C7.44961 8.59014 7.3722 8.60933 7.30124 8.60933C7.17222 8.60933 7.05614 8.55815 6.97873 8.45572C6.95295 8.42373 6.92711 8.36609 6.92066 8.35963L8.10752 8.35324ZM8.22361 7.41208V8.97426H8.70093V8.10354C8.70093 8.0267 8.71382 7.99471 8.73316 7.95632C8.80412 7.84744 8.99116 7.84104 9.01049 7.84104C9.04922 7.84104 9.07501 7.84104 9.10729 7.84744V7.40568C9.04278 7.40568 8.88797 7.39288 8.74605 7.53376C8.70737 7.57215 8.67509 7.61699 8.6622 7.62973V7.41213H8.22361V7.41208ZM11.2358 7.69377C11.2036 7.57215 11.1262 7.33524 10.8746 7.13039C10.6037 6.91268 10.3263 6.88708 10.1974 6.88708C9.93286 6.88708 9.74582 6.97672 9.66202 7.0279C9.49432 7.12399 9.12663 7.41208 9.12663 7.96912C9.12663 8.2636 9.23627 8.44932 9.30722 8.54535C9.41047 8.69902 9.68775 9.01276 10.2102 9.01276C10.3328 9.01276 10.4231 8.99351 10.4682 8.98071C10.6166 8.94872 10.9455 8.82064 11.1455 8.45572C11.1777 8.39168 11.2036 8.33404 11.2487 8.20602H10.6746C10.6424 8.25721 10.6295 8.2764 10.6102 8.30199C10.5328 8.39808 10.4166 8.44932 10.3844 8.45572C10.3522 8.46852 10.2877 8.48771 10.2038 8.48771C9.88774 8.48771 9.73937 8.25081 9.7007 8.15478C9.67503 8.09172 9.66188 8.02433 9.66197 7.95632C9.66197 7.73861 9.78455 7.54655 9.98448 7.46332C10.0232 7.44407 10.1006 7.41848 10.2038 7.41848C10.3715 7.41848 10.5198 7.48891 10.6166 7.62339C10.636 7.64898 10.6488 7.67457 10.6682 7.70022L11.2357 7.69377H11.2358ZM12.4226 7.50811C12.3582 7.46332 12.2356 7.38009 12.0291 7.38009C11.7905 7.38009 11.5777 7.49531 11.4357 7.68103C11.2809 7.89228 11.2616 8.10354 11.2616 8.19317C11.2616 8.5261 11.4486 8.73741 11.539 8.82064C11.726 8.98711 11.9066 9.0063 12.0034 9.0063C12.2355 9.0063 12.3645 8.90388 12.442 8.85264V8.98071H12.8999V7.41208H12.4226V7.50811ZM11.8421 8.44932C11.7711 8.38528 11.7325 8.29565 11.7325 8.19962C11.7325 8.00751 11.8937 7.84104 12.0872 7.84104C12.2871 7.84104 12.4419 8.00111 12.4484 8.19317C12.4484 8.39163 12.2936 8.54535 12.0936 8.55175C11.9994 8.55196 11.909 8.51511 11.8421 8.44927V8.44932ZM13.0676 7.41208V8.97426H13.5449V8.10354C13.5449 8.0267 13.5578 7.99471 13.5771 7.95632C13.6481 7.84744 13.8352 7.84104 13.8545 7.84104C13.8933 7.84104 13.919 7.84104 13.9513 7.84744V7.40568C13.8868 7.40568 13.732 7.39288 13.5901 7.53376C13.5514 7.57215 13.5191 7.61699 13.5062 7.62973V7.41213H13.0676L13.0676 7.41208ZM15.1123 7.50811C15.0478 7.46332 14.9253 7.38009 14.7189 7.38009C14.603 7.38015 14.4889 7.40745 14.3857 7.45976C14.2826 7.51207 14.1934 7.5879 14.1254 7.68103C13.9707 7.88588 13.9513 8.10354 13.9513 8.19317C13.9513 8.5261 14.1384 8.73741 14.2287 8.82064C14.4157 8.98711 14.5963 9.0063 14.693 9.0063C14.9253 9.0063 15.0543 8.90388 15.1252 8.85264V8.97431H15.5832V6.92548H15.1123V7.50811ZM14.5254 8.44932C14.4609 8.37883 14.4222 8.28925 14.4222 8.19962C14.4221 8.15334 14.4311 8.10748 14.4489 8.06469C14.4667 8.0219 14.4928 7.98302 14.5258 7.95029C14.5587 7.91756 14.5979 7.89162 14.641 7.87397C14.6841 7.85632 14.7303 7.8473 14.7769 7.84744C14.8236 7.8473 14.8698 7.85632 14.9129 7.87397C14.956 7.89162 14.9951 7.91756 15.0281 7.95029C15.0611 7.98302 15.0872 8.0219 15.105 8.06469C15.1228 8.10748 15.1318 8.15334 15.1317 8.19962C15.1318 8.2459 15.1227 8.29175 15.105 8.33454C15.0872 8.37732 15.0611 8.41619 15.0281 8.44892C14.9951 8.48164 14.956 8.50757 14.9129 8.52522C14.8698 8.54287 14.8236 8.55188 14.7769 8.55175C14.6827 8.55196 14.5923 8.51511 14.5254 8.44927V8.44932Z" fill="white"/>
</svg>
