<svg width="16" height="16" viewBox="0 0 16 16" fill="none" xmlns="http://www.w3.org/2000/svg">
<path d="M13.0124 10.1899C13.2582 10.4299 13.4629 10.7083 13.6186 11.014C14.0846 11.9553 13.9135 12.9966 12.985 13.9033C11.9205 14.9429 10.1084 15.5828 8.00472 15.5828C5.90101 15.5828 4.08815 14.9429 3.02363 13.9033C2.09473 12.9966 1.92357 11.9553 2.38966 11.0124C2.54496 10.7068 2.74884 10.4283 2.9934 10.1875C2.69602 10.4722 2.46237 10.7269 2.24832 11.1515C1.79245 12.0582 1.9391 13.3533 2.89945 14.2917C3.99052 15.3587 5.69759 16.0001 8.02147 16.0001C10.3519 16.0001 12.059 15.3383 13.1047 14.2917C14.1288 13.2651 14.1696 11.9284 13.7493 11.1226C13.5634 10.7692 13.3136 10.453 13.0124 10.1899Z" fill="url(#paint0_linear_1999_4676)"/>
<path d="M11.3056 9.09517C10.3191 8.68841 9.17084 8.47852 8.00502 8.47852C6.8392 8.47852 5.69094 8.688 4.70485 9.09517C3.62563 9.54261 2.79068 10.202 2.39077 11.011C1.92469 11.9539 2.09584 12.9952 3.02433 13.9019C4.08885 14.9416 5.9009 15.5814 8.00543 15.5814C10.11 15.5814 11.9212 14.9416 12.9861 13.9019C13.915 12.9944 14.0862 11.9539 13.6201 11.011C13.2198 10.202 12.3844 9.54098 11.3056 9.09517Z" fill="#ED730C"/>
<path d="M8.20129 9.55106C8.00726 9.15447 8.04689 8.79571 8.08651 8.48047H8.00481C6.83899 8.48047 5.69073 8.68995 4.70464 9.09712C3.62542 9.54456 2.79047 10.2039 2.39016 11.0126C1.92489 11.9554 2.09605 12.9963 3.02494 13.9034C3.08989 13.9669 3.15811 14.0291 3.22919 14.0897C7.14821 13.8619 9.19555 11.578 8.20129 9.55106Z" fill="url(#paint1_linear_1999_4676)"/>
<path fill-rule="evenodd" clip-rule="evenodd" d="M5.48362 9.62009C6.20288 9.80359 6.91192 10.0248 7.60776 10.2827C7.74705 9.86577 7.8937 9.45128 8.06445 9.04492C8.23356 9.45169 8.38184 9.86496 8.52154 10.2819C9.21343 10.0268 9.91854 9.8087 10.6338 9.62863C10.1357 9.94314 9.6551 10.2845 9.19432 10.6512C10.1571 10.7733 11.0578 10.9319 12.0063 11.1365C11.0611 11.1158 10.171 11.1491 9.22864 11.2097C9.89406 11.7711 10.4643 12.3145 11.0828 12.9259C10.2347 12.4438 9.4386 12.0387 8.55504 11.6242C8.38402 12.3599 8.22063 13.0975 8.06486 13.837C7.90881 13.0983 7.76543 12.395 7.59428 11.6596C6.71072 12.0753 5.90682 12.4711 5.03102 12.9336C5.64988 12.3234 6.23647 11.7922 6.9023 11.2309C5.95829 11.1703 5.05349 11.1577 4.08701 11.1438C5.0347 10.9404 5.97177 10.7806 6.93416 10.6586C6.46972 10.2867 5.9855 9.94007 5.48362 9.62009ZM8.06608 10.9067V9.27962C7.90269 9.73154 7.75441 10.19 7.61674 10.6508C7.7668 10.7338 7.91657 10.8184 8.06608 10.9046V10.9067ZM5.90845 9.79906C6.49177 10.0553 7.05998 10.3433 7.61634 10.6533C7.47827 10.6671 7.33979 10.6817 7.20172 10.6972C6.78261 10.3787 6.35288 10.0769 5.90845 9.79703V9.79906ZM8.06608 10.9067C9.19024 10.9091 10.3119 10.9655 11.4312 11.0759C10.4508 10.8994 9.49619 10.7643 8.51215 10.6504C8.36264 10.7329 8.21395 10.8176 8.06608 10.9046V10.9067ZM10.2225 9.79866C9.63835 10.0545 9.06933 10.3417 8.51215 10.6504C8.48927 10.5744 8.46681 10.4983 8.44352 10.4226C9.02643 10.1896 9.62037 9.97844 10.2225 9.79662V9.79866ZM8.00522 10.9051C8.02891 11.6897 8.05791 12.5223 8.06486 13.2822C8.2115 12.5793 8.36387 11.878 8.52645 11.1784C8.3749 11.0844 8.16167 10.9949 8.00522 10.9051ZM10.5415 12.5232C9.88589 12.0517 9.21516 11.6014 8.52645 11.1784C8.66737 11.1674 8.8083 11.1568 8.94923 11.1475C9.49783 11.5876 10.0272 12.0481 10.5431 12.5232H10.5415ZM8.06445 10.9046C6.93294 10.9205 6.04979 10.9714 4.94687 11.0674C5.89906 11.0706 6.63923 11.106 7.60653 11.1825C7.75931 11.0878 7.91249 10.9952 8.06608 10.9046H8.06445ZM5.58901 12.524C6.24545 12.0529 6.9166 11.6031 7.60653 11.1817L7.66658 11.444C6.96317 11.7808 6.27119 12.1408 5.59065 12.524H5.58901Z" fill="white"/>
<path d="M8.06434 9.07022C8.23346 9.47699 8.38174 9.89027 8.52144 10.3072C9.18991 10.0611 9.87067 9.84942 10.561 9.67305L10.6337 9.62668C9.91843 9.80675 9.21333 10.0248 8.52144 10.2799C8.38174 9.86301 8.2355 9.44892 8.06434 9.04297C7.89523 9.44974 7.74695 9.86382 7.60765 10.2808C6.91181 10.0228 6.20278 9.80164 5.48352 9.61814L5.55623 9.66451C6.25104 9.84409 6.93616 10.059 7.60888 10.3084C7.74695 9.89108 7.89523 9.47658 8.06434 9.07022Z" fill="#C41D1D"/>
<path fill-rule="evenodd" clip-rule="evenodd" d="M6.90405 11.2285C6.25047 11.7825 5.64509 12.3292 5.03522 12.9312L5.13121 12.8751C5.72965 12.2865 6.26028 11.8098 6.90283 11.2684L6.90405 11.2285Z" fill="#C7431C"/>
<path fill-rule="evenodd" clip-rule="evenodd" d="M8.06761 10.9043V10.9316V10.9043ZM8.04432 10.9181L8.02145 10.932C7.88338 11.0133 7.74612 11.0962 7.60968 11.1805L7.61581 11.2073C7.76573 11.115 7.91606 11.0267 8.06761 10.9372V10.9043L8.04432 10.9181Z" fill="#BF1818"/>
<path fill-rule="evenodd" clip-rule="evenodd" d="M7.61513 10.6514L7.57429 10.6555C7.44956 10.6679 7.32525 10.6815 7.20134 10.6961C6.78223 10.3805 6.3525 10.0787 5.90807 9.79883V9.83137C6.3525 10.1112 6.78223 10.413 7.20134 10.7291C7.33941 10.7136 7.47788 10.699 7.61595 10.6848C7.75075 10.7596 7.87779 10.83 8.01137 10.9068H8.0657C7.91823 10.8206 7.76342 10.7332 7.61513 10.6514ZM5.58945 12.5632C6.27026 12.1814 6.96278 11.8211 7.66701 11.4824V11.4442C6.96251 11.7815 6.26999 12.1418 5.58945 12.525V12.5632Z" fill="#C7431C"/>
<path fill-rule="evenodd" clip-rule="evenodd" d="M8.53196 11.1777C8.37143 11.8692 8.21539 12.5868 8.07037 13.2815V13.3092C8.21702 12.6063 8.36816 11.9095 8.53074 11.2103C9.00049 11.4987 9.68307 11.9424 10.547 12.5636V12.5229C9.8914 12.0511 9.22067 11.6008 8.53196 11.1777ZM9.26274 11.2322L9.23456 11.2058V11.2493C9.87669 11.7911 10.3893 12.2764 10.9878 12.865L11.0887 12.9219C10.46 12.3016 9.89671 11.7684 9.26274 11.2322Z" fill="#A71A17"/>
<path fill-rule="evenodd" clip-rule="evenodd" d="M6.90556 10.6599C5.95338 10.7819 5.02653 10.9398 4.08701 11.1415C4.13276 11.1415 4.18872 11.1448 4.23569 11.144C5.12853 10.9554 6.02878 10.8036 6.93416 10.6888V10.6562L6.90556 10.6599ZM7.60857 11.1818C6.72215 11.1053 5.83982 11.0618 4.95096 11.0687V11.096C5.82798 11.0895 6.69805 11.1318 7.57221 11.2062L7.60857 11.1818Z" fill="#C7431C"/>
<path fill-rule="evenodd" clip-rule="evenodd" d="M9.19593 10.6495C10.1587 10.7715 11.0595 10.9301 12.008 11.1347L11.8495 11.1315C10.9475 10.9411 10.1109 10.7983 9.1943 10.684L9.19593 10.6495ZM8.06647 10.9049C9.19062 10.9073 10.3123 10.9638 11.4316 11.0741V11.1042C10.3289 10.9939 9.22426 10.9373 8.11753 10.9346L8.08975 10.9187L8.06647 10.9049H8.11303H8.06647ZM8.51254 10.6486C8.52642 10.6486 8.53909 10.6519 8.55338 10.6535C9.09749 10.3537 9.65262 10.0739 10.2221 9.82453V9.79688C9.63792 10.0531 9.07012 10.3399 8.51294 10.6486" fill="#A71A17"/>
<path fill-rule="evenodd" clip-rule="evenodd" d="M8.51357 10.6477C8.4908 10.5716 8.46843 10.4956 8.44525 10.4199V10.4472C8.46599 10.5151 8.48592 10.5834 8.50666 10.6506L8.51357 10.6469" fill="#BF1818"/>
<path fill-rule="evenodd" clip-rule="evenodd" d="M8.17497 15.368C8.14188 15.3924 8.09654 15.4172 8.06345 15.4416C8.02995 15.4172 7.9842 15.3924 7.95071 15.368V14.4548C7.98379 14.4321 8.0324 14.4097 8.06427 14.3873C8.09654 14.4097 8.14106 14.4321 8.17374 14.4548C8.17401 14.7591 8.17442 15.0635 8.17497 15.368ZM2.73065 13.1601L2.67673 13.2634C2.71023 13.2764 2.77518 13.2968 2.80377 13.3086C3.12443 13.1382 3.44142 12.9681 3.75677 12.8042C3.76529 12.7664 3.77621 12.7292 3.78945 12.6927L3.69223 12.6675C3.37034 12.8259 3.04981 12.9901 2.73065 13.1601ZM2.49454 11.2849L2.40631 11.3553C2.42224 11.3761 2.44022 11.4013 2.45492 11.4216C2.75448 11.3788 3.05404 11.3423 3.35359 11.3122C3.38178 11.2853 3.41527 11.2528 3.44183 11.228L3.38913 11.1743C3.09121 11.2052 2.79301 11.2421 2.49454 11.2849ZM3.64484 9.77301L3.55416 9.81368C3.55702 9.83158 3.56029 9.86453 3.56315 9.88242C3.78373 9.91334 4.00404 9.95022 4.22408 9.99306C4.25226 9.97639 4.29025 9.95239 4.31681 9.93978C4.31313 9.92066 4.30904 9.90154 4.30537 9.88242C4.0856 9.83985 3.86543 9.80338 3.64484 9.77301ZM10.3894 8.84193H10.4735L10.507 8.87487C10.3916 8.94782 10.2779 9.02361 10.1659 9.10225H10.0781L10.0454 9.06565C10.1582 8.98958 10.273 8.91392 10.3894 8.84193ZM7.98461 8.52302L8.04752 8.50391L8.11206 8.52302V8.79189L8.04548 8.81427L7.98012 8.79189L7.98461 8.52302ZM5.56964 8.88138C5.58066 8.8704 5.60477 8.85087 5.6158 8.84071H5.70076C5.81731 8.91257 5.93183 8.98768 6.0443 9.06605C6.03327 9.07826 6.02183 9.09046 6.0108 9.10307C5.9818 9.10307 5.93932 9.11039 5.91031 9.10998C5.79893 9.03053 5.68537 8.95433 5.56964 8.88138ZM4.86704 14.8099C4.8217 14.8209 4.76369 14.8205 4.71835 14.8319C4.70854 14.7998 4.68608 14.7676 4.6775 14.7359C4.90135 14.4693 5.12806 14.205 5.35763 13.9427C5.40256 13.9334 5.45975 13.9236 5.50469 13.9143C5.5149 13.9415 5.53573 13.9883 5.54758 14.0139C5.31746 14.2775 5.09062 14.5428 4.86704 14.8099ZM13.3215 13.1601C13.3395 13.1947 13.3574 13.2289 13.375 13.2634C13.3415 13.2764 13.277 13.2968 13.248 13.3086C12.9277 13.1382 12.6107 12.9681 12.2954 12.8042C12.2865 12.7665 12.2756 12.7293 12.2627 12.6927L12.3595 12.6675C12.6819 12.8259 13.0026 12.9901 13.3215 13.1601ZM13.558 11.2849L13.6458 11.3553C13.6295 11.3761 13.6119 11.4013 13.5972 11.4216C13.2977 11.3788 12.9981 11.3423 12.6986 11.3122C12.6708 11.2853 12.6369 11.2528 12.6103 11.228L12.663 11.1743C12.9601 11.2052 13.2585 11.2421 13.558 11.2849ZM12.4073 9.77301L12.498 9.81368C12.4951 9.83158 12.4919 9.86453 12.489 9.88242C12.2684 9.91334 12.0481 9.95022 11.8281 9.99306C11.7999 9.97639 11.7619 9.95239 11.7349 9.93978C11.739 9.92066 11.7427 9.90154 11.7468 9.88242C11.9665 9.83985 12.1867 9.80338 12.4073 9.77301ZM11.1851 14.8099C11.2219 14.8156 11.288 14.8246 11.3334 14.8319C11.3481 14.8006 11.3628 14.7685 11.3742 14.7359C11.1504 14.4693 10.9235 14.205 10.6937 13.9427C10.6492 13.9334 10.5916 13.9236 10.5471 13.9143C10.5364 13.9415 10.516 13.9883 10.5038 14.0139C10.7344 14.2775 10.9615 14.5428 11.1851 14.8099Z" fill="white"/>
<path fill-rule="evenodd" clip-rule="evenodd" d="M2.72697 13.2131C2.7184 13.2294 2.70492 13.2538 2.69675 13.27L2.67632 13.2623L2.73024 13.1602C3.04941 12.991 3.36993 12.8268 3.69182 12.6676L3.78904 12.6929C3.7821 12.7124 3.7772 12.7299 3.77148 12.7474C3.74533 12.74 3.7102 12.7343 3.68447 12.7278C3.36258 12.8857 3.046 13.0439 2.72697 13.2131ZM2.50394 11.3265C2.4876 11.3396 2.44348 11.3713 2.42714 11.3843C2.41857 11.3733 2.41734 11.3701 2.40631 11.3554L2.49414 11.285C2.79233 11.2419 3.0908 11.2051 3.38954 11.1744L3.44224 11.2281C3.43608 11.2338 3.43022 11.2397 3.42467 11.246C3.4165 11.2375 3.39975 11.2224 3.39322 11.2163C3.09461 11.2484 2.80254 11.2834 2.50394 11.3265ZM3.55947 9.85812C3.55947 9.84063 3.5562 9.8325 3.55375 9.81216L3.64444 9.77148C3.86502 9.80158 4.0852 9.83752 4.30496 9.87928C4.30864 9.89839 4.31272 9.91751 4.3164 9.93663C4.3115 9.93948 3.86706 9.84958 3.64607 9.81948L3.55947 9.85812Z" fill="#C9581B"/>
<path fill-rule="evenodd" clip-rule="evenodd" d="M10.475 8.88817L10.4799 8.89305L10.5085 8.87474L10.475 8.8418H10.3909C10.2745 8.91379 10.1597 8.98945 10.0469 9.06714L10.0727 9.09643C10.1772 9.02457 10.2833 8.95515 10.3909 8.88817H10.475Z" fill="#A71A17"/>
<path d="M7.98444 8.57141L8.04708 8.55189L8.11135 8.57141V8.52302L8.04708 8.50391L7.98444 8.52302V8.57141Z" fill="#B51918"/>
<path fill-rule="evenodd" clip-rule="evenodd" d="M5.70381 8.87816C5.81124 8.94488 5.915 9.02055 6.01916 9.09215L6.0453 9.06326C5.93256 8.98516 5.81805 8.91003 5.70177 8.83789H5.6168C5.60577 8.84887 5.58085 8.8684 5.56982 8.87857L5.59801 8.89647L5.61884 8.87776L5.70381 8.87816Z" fill="#C7431C"/>
<path fill-rule="evenodd" clip-rule="evenodd" d="M5.49714 13.9526C5.5094 13.9693 5.52369 14.0079 5.53799 14.0274L5.54943 14.014C5.54575 14.0022 5.51838 13.9416 5.50654 13.9144C5.4616 13.9237 5.40442 13.9335 5.35948 13.9428C5.12991 14.2051 4.9032 14.4695 4.67935 14.736C4.68303 14.7474 4.69283 14.7621 4.69651 14.7734C4.8403 14.603 5.15075 14.2337 5.37664 13.9754C5.41136 13.9672 5.45997 13.9607 5.49714 13.9526ZM13.327 13.2131L13.3573 13.27L13.3773 13.2623C13.3597 13.2277 13.3417 13.1936 13.3238 13.159C13.0043 12.9898 12.6837 12.8256 12.3618 12.6664L12.265 12.6916C12.2715 12.7112 12.2764 12.7286 12.2825 12.7461C12.3083 12.7388 12.3434 12.7331 12.3691 12.7266C12.6914 12.8857 13.0076 13.0439 13.327 13.2131ZM13.5501 11.3265C13.566 11.3396 13.6105 11.3713 13.6264 11.3843C13.635 11.3733 13.6367 11.3701 13.6477 11.3554L13.5603 11.285C13.2607 11.2419 12.9621 11.2051 12.6645 11.1744L12.6118 11.2281C12.6181 11.2338 12.6241 11.2397 12.6297 11.246C12.6379 11.2375 12.6542 11.2224 12.6608 11.2163C12.9594 11.2484 13.2515 11.2834 13.5501 11.3265ZM12.4941 9.85812C12.4966 9.84063 12.4974 9.8325 12.5002 9.81216L12.4096 9.77148C12.189 9.80158 11.9688 9.83752 11.749 9.87928C11.745 9.89839 11.7413 9.91751 11.7372 9.93663C11.7425 9.93948 12.1886 9.84958 12.4075 9.81948L12.4941 9.85812ZM10.5595 13.9526C10.5473 13.9693 10.5326 14.0079 10.5187 14.0274L10.5068 14.014C10.5109 14.0022 10.5383 13.9416 10.5501 13.9144C10.5947 13.9237 10.6523 13.9335 10.6968 13.9428C10.9266 14.2051 11.1535 14.4695 11.3773 14.736C11.3724 14.7482 11.3675 14.7604 11.3618 14.7734C11.218 14.6026 10.9059 14.2337 10.6796 13.9754C10.6449 13.9672 10.5967 13.9607 10.5595 13.9526ZM8.15558 14.4879L8.17723 15.3681V14.4549C8.14455 14.4322 8.10002 14.4098 8.06775 14.3874C8.03467 14.4098 7.98606 14.4322 7.95419 14.4549V15.3681L7.97503 14.4875C8.00158 14.4696 8.0412 14.4517 8.06734 14.4342C8.09185 14.4517 8.12984 14.47 8.15558 14.4879Z" fill="#A71A17"/>
<path fill-rule="evenodd" clip-rule="evenodd" d="M3.62459 11.1866C4.02327 9.41193 6.49421 8.88477 8.04647 8.88477C9.59872 8.88477 12.068 9.41356 12.4671 11.187C12.9643 13.3958 9.65305 14.2182 8.04647 14.2182C6.43988 14.2182 3.12746 13.3958 3.62459 11.1866ZM3.78798 11.174C4.16338 9.45912 6.55426 8.95066 8.04688 8.95066C9.53949 8.95066 11.9271 9.45952 12.3041 11.174C12.769 13.2957 9.58933 14.0799 8.04524 14.0799C6.50116 14.0799 3.32149 13.2957 3.78635 11.174H3.78798Z" fill="#C7431C"/>
<path fill-rule="evenodd" clip-rule="evenodd" d="M3.63624 11.2406C4.03533 9.46588 6.40415 8.92773 8.05688 8.92773C9.70962 8.92773 12.0784 9.46466 12.4779 11.239C12.9747 13.4481 9.66387 14.2706 8.05729 14.2706C6.45072 14.2706 3.13952 13.4493 3.63624 11.2406ZM3.79964 11.2276C4.17504 9.51307 6.56632 9.00461 8.05852 9.00461C9.55072 9.00461 11.942 9.51347 12.3174 11.228C12.7827 13.3496 9.60137 14.1343 8.05729 14.1343C6.51321 14.1343 3.33356 13.3492 3.798 11.2276H3.79964Z" fill="white"/>
<path opacity="0.45" d="M13.335 11.6073L12.6103 11.4979L12.5143 11.4759C12.3918 11.4511 12.1605 11.3201 12.0592 11.1647C11.9579 11.0093 11.7141 10.7413 11.5805 10.5745C11.3959 10.343 10.9739 10.1315 10.9126 10.0359C10.8426 9.93005 10.7787 9.82032 10.721 9.70728C10.7042 9.66864 10.6751 9.63659 10.6382 9.61608C10.6013 9.59557 10.5586 9.58773 10.5168 9.59379C10.4073 9.6003 10.3979 9.63772 10.3044 9.64342C10.2294 9.64507 10.1543 9.6403 10.0801 9.62918C10.0356 9.61862 9.99021 9.61248 9.94451 9.61087C9.8865 9.70646 9.79786 9.76504 9.58259 9.76504C9.56991 9.76526 9.55727 9.76375 9.54501 9.76056C9.56706 9.80815 9.76763 9.83663 9.80154 9.83419C9.83544 9.83175 10.0254 9.88544 10.0683 9.89317C10.1553 9.90903 10.1385 9.87893 10.2782 9.95947C10.5094 10.0925 10.8558 10.4594 10.9245 10.7779C10.9625 10.9536 11.2651 11.2408 11.3015 11.4027C10.8963 11.373 10.3579 11.1057 10.3579 11.1057L10.2901 11.0736C10.0976 10.9889 9.89054 10.9421 9.68022 10.9357C8.98334 10.8739 8.71905 10.7811 8.6496 10.7579C8.50582 10.7095 8.52706 10.6855 8.40859 10.6798L8.34528 10.6766C8.33023 10.7064 8.30989 10.7333 8.28523 10.7559C8.15994 10.8687 8.05007 10.9974 7.95844 11.1387C7.92508 11.1844 7.87588 11.2161 7.82037 11.2278C7.95354 11.1973 8.21334 11.1277 8.21334 11.1277C8.45843 11.0952 8.83383 11.2042 8.83383 11.2042C8.95872 11.235 9.08151 11.2737 9.20147 11.3201C9.20147 11.3201 10.1945 11.6223 10.4376 11.7993C10.5977 11.9152 11.4228 12.2227 11.6418 12.298C11.8607 12.3732 12.3938 12.662 12.3938 12.662C12.5306 12.7783 13.3276 13.1257 13.5465 13.1989C13.828 12.7108 13.926 12.217 13.8476 11.7134L13.335 11.6073Z" fill="#4F2644"/>
<path opacity="0.45" d="M12.9676 10.7842C12.9169 10.7851 12.8664 10.7911 12.8169 10.8021L12.618 10.9185C12.593 10.9591 12.6825 11.012 12.6825 11.012C12.6825 11.012 12.9321 11.0283 12.9313 11.0934C13.1151 11.1906 13.506 11.2024 13.7074 11.2117C13.6802 11.1448 13.6506 11.0781 13.6188 11.0116C13.5869 10.9474 13.5522 10.8843 13.5154 10.8221C13.504 10.8184 13.3532 10.7761 12.9676 10.7842ZM11.4934 13.2057C11.4934 13.2057 11.4464 13.1451 11.1932 13.1447C11.0326 13.1447 11.263 13.5226 11.263 13.5226C11.4076 13.619 11.9292 13.7666 12.0391 13.7817C12.149 13.7967 12.5118 13.9037 12.5118 13.9037C12.6417 13.9225 12.7702 13.9505 12.8961 13.9875C12.9268 13.9594 12.957 13.931 12.9864 13.9021C13.0949 13.7969 13.1965 13.6849 13.2907 13.5669C12.8508 13.558 12.2258 13.5506 11.752 13.3045C11.7025 13.1634 11.4934 13.2057 11.4934 13.2057Z" fill="#4F2644"/>
<path d="M10.1595 6.32075C10.1595 6.32075 10.0128 6.18815 10.0104 6.18042C9.99974 6.13405 10.0512 6.07181 10.0647 5.99412C10.0496 5.98883 10.0341 5.98151 10.0198 5.97541C9.98422 5.84077 9.95481 5.59834 10.0198 5.46899C10.0516 5.40554 10.0892 5.32215 10.0675 5.24853C9.94705 4.83648 9.70767 4.47771 9.53897 4.08681C9.49362 3.98065 9.50098 3.90418 9.49444 3.79598C9.36413 3.6528 9.21299 3.27817 9.14028 3.04713C8.98833 3.42949 8.88743 3.8692 8.88743 3.97089C8.88743 4.40165 9.32574 4.61032 9.17337 5.32581C9.14396 5.46411 9.09167 5.65529 9.0398 5.85216C9.13089 6.35126 9.13089 6.71287 9.26487 7.29088C9.46902 7.48976 9.61647 7.73906 9.69215 8.01329C9.74403 8.19959 9.9017 8.63686 10.1031 8.70479C10.2281 8.74546 9.67949 8.84553 9.52385 8.6515C9.37435 8.4648 9.11537 8.31592 8.99282 8.11742C8.89519 7.95919 8.74364 7.62239 8.64806 7.46254L8.53245 8.0739C8.69217 8.72838 8.597 8.87319 8.45525 9.40442C8.39398 9.63424 7.9283 8.56039 7.92789 8.47659C7.93348 8.29906 7.90988 8.12182 7.85804 7.95187C7.76041 7.76232 7.77103 7.49386 7.78451 7.28966C7.80657 6.94839 7.80371 6.30489 7.81883 6.13568C7.70118 5.8481 7.40054 5.32907 7.36949 5.03742C7.32292 4.58225 7.40013 4.12139 7.3364 3.66785C7.25797 3.89523 7.17301 4.18322 6.99695 4.35934C6.73353 4.62439 6.48363 4.90242 6.24819 5.19239C6.1616 5.31036 6.23798 5.36771 6.104 5.55604C5.97001 5.74437 6.04273 5.65773 6.01495 5.83508C6.01143 5.85924 6.00093 5.88185 5.98472 5.90016C5.91405 5.95914 5.8393 6.00958 5.73963 5.96728C5.54437 5.86965 5.53007 5.72322 5.51659 5.53855C5.49127 5.18345 5.75474 5.16677 5.90425 4.95159C6.19754 4.52937 6.34623 3.8216 6.66036 3.50311C6.67997 3.44006 6.75349 3.21268 6.89401 2.87425C6.8981 2.45448 7.00267 2.08025 7.43648 1.90819C7.61418 1.83742 7.84497 1.81952 7.856 1.57465C7.85767 1.5298 7.84959 1.48512 7.83231 1.44367C7.76041 1.38632 7.70976 1.38469 7.67586 1.34401C7.6056 1.25412 7.54759 0.676517 7.55331 0.639502C7.65543 0.151387 7.89072 -0.0137584 8.18892 0.000885067C8.54348 0.0200029 8.82166 0.186775 8.80778 0.65862C8.79552 1.03813 8.40174 1.52543 8.99078 1.7101C9.21585 1.78047 9.25874 1.73166 9.45196 1.92528C9.66887 2.14208 9.72156 2.52769 9.75751 2.88483L9.97891 3.39613C10.3841 4.07542 10.2375 4.29101 10.3874 4.9825C10.4258 5.16189 10.4924 5.32012 10.5067 5.71142C10.5124 5.89731 10.3641 6.31384 10.1595 6.32075Z" fill="#F9B550"/>
<path d="M5.93382 5.80665C5.95179 5.62564 5.92565 5.64069 6.04166 5.47311C6.1495 5.31732 6.09762 5.238 6.1928 5.10417C6.42645 4.81334 6.64745 4.51925 6.9101 4.25404C7.08575 4.07628 7.32431 3.47834 7.38027 3.26845C7.39089 3.23754 7.40805 3.22249 7.41499 3.24893C7.45176 3.64959 7.50853 3.98354 7.49424 4.37729C7.46442 5.20383 7.48729 5.11719 7.83246 5.88922C7.86106 5.57886 7.93622 5.12858 8.11841 4.97564C7.9064 5.78062 7.89333 6.9281 7.87086 7.28035C7.85942 7.46014 7.81041 7.74325 7.89701 7.9088C7.92601 8.02066 7.92805 8.18906 7.93091 8.31556C7.93091 8.39366 7.93622 9.72703 7.93622 9.72703L7.81367 10.3461C7.76915 10.5247 7.53754 10.8253 7.36434 10.9188C7.31001 10.9485 7.18215 11.0165 7.18215 11.0771C7.18215 11.1747 7.81531 11.3573 7.95828 11.1352C8.04991 10.994 8.15978 10.8653 8.28507 10.7525C8.48441 10.5625 8.26342 10.3669 8.28956 10.1094C8.33531 9.66195 8.52893 9.27186 8.59266 8.84842C8.63942 8.58883 8.60992 8.32131 8.50769 8.07801L8.59143 7.26896C8.68457 7.40848 8.7728 7.63017 8.86144 7.81443C9.01953 8.14228 9.02198 8.17441 9.29525 8.44328C9.39209 8.53572 9.47815 8.63874 9.55178 8.75039C9.68046 8.95377 9.7691 9.15715 9.75603 9.39836C9.66126 9.5692 9.62041 9.55863 9.49868 9.66195C9.50277 9.66764 9.46519 9.76201 9.58038 9.76201C9.99213 9.76201 9.94107 9.54764 10.0967 9.27023C10.1972 9.09085 10.486 8.81791 10.1694 8.72314C10.0655 8.69497 9.97592 8.62891 9.91861 8.53806C9.69925 8.17197 9.69067 8.18214 9.5767 7.84656C9.50726 7.64318 9.36674 7.48048 9.20049 7.34503C9.10896 7.14347 9.05009 6.92875 9.02606 6.70885C8.98195 6.37815 8.95172 6.14142 8.89535 5.8034C9.05629 5.16885 9.14044 5.03462 8.86553 4.42447C8.80042 4.2815 8.76685 4.12629 8.76708 3.96931C8.76708 3.76592 8.87901 3.31076 8.98807 3.07443C9.02606 2.97843 9.07917 2.88813 9.15433 2.85925C9.22091 3.10534 9.44885 3.61135 9.5816 3.73542C9.58977 3.83467 9.58569 3.93514 9.6249 4.0291C9.79197 4.42813 10.0334 4.79097 10.1519 5.21196C10.1927 5.35636 10.1384 5.42633 10.0971 5.54266C10.0816 5.65534 10.0846 5.76979 10.1061 5.8815L10.1633 5.91241C10.1481 5.97521 10.1294 6.03713 10.1073 6.09789C10.1151 6.15525 10.1853 6.18738 10.1853 6.18738C10.2773 6.16704 10.408 5.83634 10.4035 5.70415C10.3892 5.29942 10.3038 5.11841 10.2809 4.9976C10.1453 4.31139 10.2233 4.12265 9.83772 3.45841L9.61796 2.91864C9.591 2.64163 9.4803 2.01074 9.12492 1.89766C9.06487 1.87855 9.00482 1.87489 8.91455 1.84601C8.44887 1.6955 8.4501 1.33959 8.57714 0.951128C8.68988 0.60538 8.70499 0.197397 8.19357 0.154281C7.8774 0.127841 7.7814 0.375966 7.71359 0.661513C7.71605 0.692427 7.73157 1.15695 7.8006 1.25661C7.93581 1.35667 8.01179 1.32738 8.00485 1.57836C7.99749 1.78906 7.8631 1.91353 7.68051 1.97739C7.38272 2.08152 7.23117 2.14254 7.13069 2.44801C7.08785 2.59043 7.06786 2.73869 7.07145 2.88732V2.90115C6.98649 3.11104 6.87947 3.35143 6.81452 3.57719C6.44688 3.94327 6.26674 4.77469 5.89583 5.12573C5.65074 5.35921 5.57517 5.37386 5.66544 5.73384C5.67443 5.77045 5.79248 5.864 5.81781 5.87743C5.8366 5.88434 5.93423 5.8274 5.93382 5.80665Z" fill="url(#paint2_linear_1999_4676)"/>
<defs>
<linearGradient id="paint0_linear_1999_4676" x1="2.00078" y1="13.0942" x2="14.0009" y2="13.0942" gradientUnits="userSpaceOnUse">
<stop stop-color="#C9581B"/>
<stop offset="1" stop-color="#6E2E2C"/>
</linearGradient>
<linearGradient id="paint1_linear_1999_4676" x1="1.01274" y1="12.0543" x2="8.42733" y2="10.7415" gradientUnits="userSpaceOnUse">
<stop stop-color="#FFDF7E"/>
<stop offset="1" stop-color="#ED730C"/>
</linearGradient>
<linearGradient id="paint2_linear_1999_4676" x1="6.07516" y1="3.9148" x2="10.3514" y2="8.20918" gradientUnits="userSpaceOnUse">
<stop stop-color="#2B3081"/>
<stop offset="1" stop-color="#2C2C6F"/>
</linearGradient>
</defs>
</svg>
