<svg width="16" height="16" viewBox="0 0 16 16" fill="none" xmlns="http://www.w3.org/2000/svg">
<path d="M8 1.44C10.1333 1.44 10.3867 1.44667 11.2333 1.48667C12.0133 1.52667 12.4333 1.65333 12.72 1.76667C13.0933 1.90667 13.36 2.08 13.64 2.36C13.92 2.64 14.0933 2.90667 14.2333 3.28C14.3467 3.56667 14.4733 3.98667 14.5133 4.76667C14.5533 5.61333 14.56 5.86667 14.56 8C14.56 10.1333 14.5533 10.3867 14.5133 11.2333C14.4733 12.0133 14.3467 12.4333 14.2333 12.72C14.0933 13.0933 13.92 13.36 13.64 13.64C13.36 13.92 13.0933 14.0933 12.72 14.2333C12.4333 14.3467 12.0133 14.4733 11.2333 14.5133C10.3867 14.5533 10.1333 14.56 8 14.56C5.86667 14.56 5.61333 14.5533 4.76667 14.5133C3.98667 14.4733 3.56667 14.3467 3.28 14.2333C2.90667 14.0933 2.64 13.92 2.36 13.64C2.08 13.36 1.90667 13.0933 1.76667 12.72C1.65333 12.4333 1.52667 12.0133 1.48667 11.2333C1.44667 10.3867 1.44 10.1333 1.44 8C1.44 5.86667 1.44667 5.61333 1.48667 4.76667C1.52667 3.98667 1.65333 3.56667 1.76667 3.28C1.90667 2.90667 2.08 2.64 2.36 2.36C2.64 2.08 2.90667 1.90667 3.28 1.76667C3.56667 1.65333 3.98667 1.52667 4.76667 1.48667C5.61333 1.44667 5.86667 1.44 8 1.44ZM8 0C5.82667 0 5.55333 0.00666667 4.7 0.0466667C3.85333 0.0866667 3.26667 0.22 2.76 0.42C2.23333 0.626667 1.78667 0.9 1.34 1.34C0.9 1.78667 0.626667 2.23333 0.42 2.76C0.22 3.26667 0.0866667 3.85333 0.0466667 4.7C0.00666667 5.55333 0 5.82667 0 8C0 10.1733 0.00666667 10.4467 0.0466667 11.3C0.0866667 12.1467 0.22 12.7333 0.42 13.24C0.626667 13.7667 0.9 14.2133 1.34 14.66C1.78667 15.1 2.23333 15.3733 2.76 15.58C3.26667 15.78 3.85333 15.9133 4.7 15.9533C5.55333 15.9933 5.82667 16 8 16C10.1733 16 10.4467 15.9933 11.3 15.9533C12.1467 15.9133 12.7333 15.78 13.24 15.58C13.7667 15.3733 14.2133 15.1 14.66 14.66C15.1 14.2133 15.3733 13.7667 15.58 13.24C15.78 12.7333 15.9133 12.1467 15.9533 11.3C15.9933 10.4467 16 10.1733 16 8C16 5.82667 15.9933 5.55333 15.9533 4.7C15.9133 3.85333 15.78 3.26667 15.58 2.76C15.3733 2.23333 15.1 1.78667 14.66 1.34C14.2133 0.9 13.7667 0.626667 13.24 0.42C12.7333 0.22 12.1467 0.0866667 11.3 0.0466667C10.4467 0.00666667 10.1733 0 8 0ZM8 3.89333C5.73333 3.89333 3.89333 5.73333 3.89333 8C3.89333 10.2667 5.73333 12.1067 8 12.1067C10.2667 12.1067 12.1067 10.2667 12.1067 8C12.1067 5.73333 10.2667 3.89333 8 3.89333ZM8 10.6667C6.52667 10.6667 5.33333 9.47333 5.33333 8C5.33333 6.52667 6.52667 5.33333 8 5.33333C9.47333 5.33333 10.6667 6.52667 10.6667 8C10.6667 9.47333 9.47333 10.6667 8 10.6667ZM13.2333 3.72667C13.2333 4.26 12.8 4.68667 12.2733 4.68667C11.74 4.68667 11.3133 4.26 11.3133 3.72667C11.3133 3.2 11.74 2.76667 12.2733 2.76667C12.8 2.76667 13.2333 3.2 13.2333 3.72667Z" fill="#363636"/>
</svg>
