<svg width="16" height="16" viewBox="0 0 16 16" fill="none" xmlns="http://www.w3.org/2000/svg">
<g clip-path="url(#clip0_2321_4249)">
<path d="M7.99966 15.9995C8.03445 16.0002 8.06896 15.9933 8.10088 15.9793C8.1328 15.9653 8.16137 15.9446 8.18468 15.9186C8.20956 15.8915 8.3127 15.7409 8.35083 15.6952C8.66668 15.324 9.54882 14.5283 11.4315 14.481C13.8459 14.4 14.0001 12.7511 14.0001 12.1035C13.9948 12.1035 14.0001 0.00195312 14.0001 0.00195312L2.00006 0.00519101C2.00006 0.00519101 2.00448 12.1068 2.00006 12.1068C2.00006 12.7544 2.15417 14.4053 4.56862 14.4842C6.4509 14.5324 7.33304 15.3281 7.64889 15.6984C7.68902 15.7441 7.79056 15.8947 7.81504 15.9218C7.83826 15.9478 7.8667 15.9684 7.89847 15.9824C7.93024 15.9963 7.96461 16.0033 7.99926 16.0028L7.99966 15.9995Z" fill="#5FA044"/>
<path d="M8.41008 5.2747V5.6159H8.77474V5.2747H9.26812V5.89193H6.72962V5.2747H7.2157V5.6159H7.58077V5.2747H8.41008ZM7.90942 5.1031V5.09217C7.90984 5.06865 7.9037 5.04547 7.89169 5.02524C7.87968 5.00501 7.86227 4.98852 7.84142 4.97763C7.7625 4.9327 7.33469 4.63441 7.25698 4.21268C7.21408 3.99088 7.21651 3.79904 7.3011 3.68652C7.32741 3.65212 7.37476 3.59586 7.37476 3.57117C7.37476 3.51653 7.29382 3.35707 7.27317 3.24738C7.25982 3.15106 7.25051 2.98633 7.32741 2.89648C7.40431 2.80663 7.4723 2.81836 7.446 2.73175C7.40728 2.62918 7.38621 2.5208 7.38367 2.4112C7.38367 2.31325 7.40431 2.15015 7.51561 2.11493C7.60425 2.08782 7.62691 2.06839 7.63339 2.05139C7.63986 2.03439 7.63339 1.79398 7.64998 1.68713C7.66496 1.59404 7.71596 1.31437 7.9588 1.28685L7.99927 1.2832L8.03974 1.28685C8.28258 1.31437 8.33439 1.59404 8.34896 1.68713C8.36556 1.79479 8.35827 2.03561 8.36556 2.05139C8.37284 2.06718 8.39429 2.08782 8.48252 2.11493C8.59423 2.15015 8.61649 2.31325 8.61649 2.4112C8.61386 2.52091 8.59236 2.62934 8.55295 2.73175C8.52664 2.81836 8.59545 2.80744 8.67154 2.89648C8.74763 2.98552 8.74034 3.15106 8.72537 3.24738C8.70594 3.35626 8.62499 3.51572 8.62337 3.57117C8.62337 3.59586 8.67154 3.65212 8.69744 3.68652C8.78284 3.79985 8.78446 3.99169 8.74236 4.21268C8.66425 4.63441 8.23523 4.9327 8.15671 4.97763C8.13577 4.98849 8.11825 5.00494 8.1061 5.02516C8.09395 5.04538 8.08766 5.06858 8.08791 5.09217V5.10229L7.90942 5.1031ZM7.99927 6.29585H9.03418L9.17138 6.07001H6.82675L6.96396 6.29585H7.99927V6.29585ZM7.99765 9.16988H9.44175L9.71251 11.0175H8.59747L8.4295 10.219C8.4295 10.219 8.37608 9.98421 7.99765 9.98421C7.61922 9.98421 7.56661 10.219 7.56661 10.219L7.39986 11.0175H6.28198L6.55234 9.16988H7.99765V9.16988ZM9.35351 8.98937L9.23128 8.75219H6.76361L6.64219 8.98937H9.35351V8.98937ZM5.57248 4.44135H5.61295C5.87441 4.47049 5.92864 4.77364 5.94362 4.87483C5.96345 4.98775 5.95698 5.24759 5.96345 5.26297C5.96993 5.27835 5.99583 5.30344 6.08932 5.33299C6.2071 5.36982 6.23139 5.54466 6.23139 5.65192C6.22939 5.76809 6.20707 5.88302 6.16541 5.99149C6.13587 6.08701 6.20993 6.07244 6.28967 6.1716C6.3694 6.27076 6.36535 6.44439 6.34835 6.54638C6.32974 6.66254 6.24029 6.83658 6.23827 6.89203C6.23827 6.91833 6.28967 6.97824 6.31921 7.01345C6.41109 7.13892 6.41554 7.34493 6.36859 7.5821C6.28198 8.035 5.84243 8.3511 5.75339 8.40331C5.69025 8.44014 5.69673 8.53121 5.69673 8.56035V10.3537H5.45106V8.56278C5.45106 8.53363 5.45794 8.44136 5.39399 8.40574C5.30778 8.35474 4.86783 8.03743 4.7796 7.58453C4.73306 7.34735 4.73589 7.13932 4.82898 7.01588C4.8565 6.98026 4.90992 6.92036 4.9079 6.89446C4.90547 6.83901 4.81724 6.66497 4.79741 6.54881C4.78284 6.44682 4.77272 6.26914 4.8565 6.17403C4.94028 6.07891 5.01151 6.08944 4.98035 5.99392C4.94005 5.8851 4.91804 5.77036 4.91519 5.65435C4.91519 5.54709 4.94028 5.37103 5.05846 5.33541C5.15236 5.30587 5.17665 5.28361 5.18312 5.2654C5.1896 5.24718 5.18312 4.99018 5.20214 4.87725C5.21671 4.77607 5.27257 4.47252 5.53403 4.44378L5.57248 4.44135ZM10.4236 4.44135H10.3832C10.1225 4.47049 10.0683 4.77364 10.0533 4.87483C10.0331 4.98775 10.0399 5.24759 10.0331 5.26297C10.0262 5.27835 10.0027 5.30344 9.90962 5.33299C9.79022 5.36982 9.76675 5.54466 9.76675 5.65192C9.76908 5.76784 9.79055 5.88257 9.83029 5.99149C9.86186 6.08701 9.78739 6.07244 9.70604 6.1716C9.62469 6.27076 9.63278 6.44439 9.64816 6.54638C9.66799 6.66254 9.75542 6.83658 9.75865 6.89203C9.75865 6.91833 9.70604 6.97824 9.67771 7.01345C9.58462 7.13892 9.58057 7.34493 9.62833 7.5821C9.71454 8.035 10.1545 8.3511 10.2431 8.40331C10.305 8.44014 10.2978 8.53121 10.2978 8.56035V10.3537H10.5459V8.56278C10.5459 8.53363 10.539 8.44136 10.6013 8.40574C10.6891 8.35474 11.1303 8.03743 11.2169 7.58453C11.2639 7.34735 11.2574 7.13932 11.1667 7.01588C11.1392 6.98026 11.0858 6.92036 11.0858 6.89446C11.0882 6.83901 11.1768 6.66497 11.1955 6.54881C11.2117 6.44682 11.2222 6.26914 11.1376 6.17403C11.053 6.07891 10.983 6.08944 11.0137 5.99392C11.055 5.88537 11.0771 5.77046 11.0789 5.65435C11.0789 5.54709 11.0542 5.37103 10.9364 5.33541C10.8437 5.30587 10.8174 5.28361 10.811 5.2654C10.8045 5.24718 10.811 4.99018 10.7923 4.87725C10.7762 4.77607 10.7223 4.47252 10.4605 4.44378L10.4236 4.44135ZM8.95283 6.46422H7.0445L6.84901 8.58099H9.14831L8.95283 6.46422ZM7.59089 7.77921H7.24403V7.12394H7.59089V7.77921ZM8.7537 7.77921H8.40643V7.12394H8.7537V7.77921ZM6.66567 11.759V12.7643L6.68267 12.789L6.8478 12.7967V12.8934H6.20791V12.7967L6.38276 12.787L6.40137 12.7579V11.9779L6.38195 11.9597L6.16582 11.9921V11.8913L6.50984 11.759H6.66567V11.759ZM8.80631 12.5818C8.80631 12.77 8.63309 12.9157 8.35099 12.9157C8.12271 12.9157 7.98956 12.8153 7.98956 12.6878C7.98799 12.6693 7.99039 12.6506 7.99661 12.633C8.00283 12.6154 8.01272 12.5994 8.02563 12.586C8.03854 12.5725 8.05416 12.562 8.07146 12.5551C8.08876 12.5481 8.10733 12.545 8.12595 12.5458C8.15526 12.5463 8.18426 12.5518 8.21176 12.562L8.26235 12.7817C8.29103 12.7888 8.32029 12.7933 8.34977 12.7951C8.45824 12.7951 8.53069 12.7105 8.53069 12.5891C8.53213 12.5618 8.52776 12.5346 8.51787 12.5091C8.50798 12.4836 8.49279 12.4606 8.47331 12.4415C8.45383 12.4223 8.4305 12.4075 8.40488 12.3981C8.37925 12.3887 8.35192 12.3848 8.32468 12.3867C8.28711 12.3854 8.24956 12.3899 8.21337 12.4001V12.256C8.23289 12.2594 8.25265 12.2613 8.27247 12.2617C8.41048 12.2617 8.49467 12.1888 8.49467 12.0743C8.49715 12.0471 8.49363 12.0197 8.48434 11.994C8.47505 11.9683 8.46022 11.945 8.44091 11.9256C8.4216 11.9063 8.39827 11.8915 8.37259 11.8822C8.34691 11.8729 8.3195 11.8694 8.2923 11.8719C8.28299 11.8719 8.27489 11.8739 8.26478 11.8739V12.1079C8.23294 12.1268 8.19657 12.1367 8.15954 12.1366C8.14097 12.1381 8.12229 12.1357 8.10475 12.1294C8.08721 12.1231 8.07123 12.1131 8.05788 12.1001C8.04453 12.0871 8.03412 12.0713 8.02736 12.054C8.02061 12.0366 8.01765 12.018 8.0187 11.9994C8.0187 11.8614 8.16238 11.7513 8.40239 11.7513C8.62863 11.7513 8.76665 11.8674 8.76665 12.0346C8.76665 12.1698 8.66911 12.2689 8.48536 12.3021C8.69258 12.3159 8.8055 12.4191 8.8055 12.5826L8.80631 12.5818ZM9.12079 12.921L9.60526 12.0152H9.19971L9.17624 12.1722H9.04551V11.7707H9.82989V11.9213L9.3183 12.921H9.12079V12.921ZM7.11492 12.921L7.6002 12.0152H7.19506L7.16956 12.1722H7.04045V11.7707H7.82442V11.9213L7.31203 12.921H7.11492V12.921Z" fill="white"/>
</g>
<defs>
<clipPath id="clip0_2321_4249">
<rect width="16" height="16" fill="white"/>
</clipPath>
</defs>
</svg>
