<svg width="16" height="16" viewBox="0 0 16 16" fill="none" xmlns="http://www.w3.org/2000/svg">
<path d="M0 8C0 3.58172 3.58172 0 8 0C12.4183 0 16 3.58172 16 8C16 12.4183 12.4183 16 8 16C3.58172 16 0 12.4183 0 8Z" fill="#363636"/>
<path d="M11.8187 5.48099C11.693 5.53674 11.5638 5.58378 11.4318 5.62197C11.5881 5.4452 11.7073 5.2372 11.78 5.00959C11.7963 4.95857 11.7794 4.90272 11.7375 4.86936C11.6956 4.83596 11.6374 4.83196 11.5913 4.85929C11.3109 5.02559 11.0084 5.1451 10.6912 5.21498C10.3717 4.90277 9.93776 4.7251 9.48914 4.7251C8.54217 4.7251 7.77175 5.4955 7.77175 6.44244C7.77175 6.51702 7.77647 6.59119 7.78581 6.66432C6.61072 6.56115 5.51825 5.98357 4.76806 5.06334C4.74132 5.03054 4.70013 5.01287 4.65797 5.01625C4.61577 5.01955 4.57786 5.04334 4.55655 5.07991C4.40439 5.34099 4.32395 5.6396 4.32395 5.94342C4.32395 6.35722 4.4717 6.74984 4.73268 7.05663C4.65332 7.02915 4.57632 6.9948 4.50282 6.954C4.46336 6.93204 4.41521 6.93237 4.37601 6.95485C4.33678 6.97733 4.31219 7.01867 4.31115 7.06386C4.31097 7.07147 4.31097 7.07908 4.31097 7.0868C4.31097 7.70447 4.64341 8.26058 5.15167 8.56367C5.10801 8.55931 5.06437 8.55299 5.02101 8.54471C4.97632 8.53616 4.93035 8.55183 4.90021 8.58592C4.87002 8.61998 4.86003 8.66747 4.87394 8.71082C5.06207 9.29818 5.54643 9.7302 6.13198 9.86192C5.64633 10.1661 5.09095 10.3254 4.50793 10.3254C4.38628 10.3254 4.26393 10.3183 4.14419 10.3041C4.0847 10.297 4.02782 10.3322 4.00757 10.3887C3.98731 10.4453 4.00878 10.5084 4.05939 10.5409C4.80837 11.0211 5.67441 11.2749 6.56382 11.2749C8.31231 11.2749 9.40612 10.4504 10.0158 9.75872C10.7761 8.89624 11.2121 7.75464 11.2121 6.62667C11.2121 6.57955 11.2114 6.53196 11.2099 6.48453C11.5099 6.25854 11.7681 5.98504 11.9783 5.6707C12.0102 5.62295 12.0067 5.55986 11.9697 5.51591C11.9328 5.47194 11.8713 5.45772 11.8187 5.48099Z" fill="white"/>
</svg>
