<svg width="16" height="16" viewBox="0 0 16 16" fill="none" xmlns="http://www.w3.org/2000/svg">
<path d="M15.9951 10.4977H14.7907C14.7464 10.2851 14.6991 10.0785 14.6608 9.86888C14.646 9.78327 14.6165 9.74785 14.522 9.7508C14.0379 9.7567 13.5567 9.7567 13.0726 9.7508C12.9988 9.7508 12.9693 9.77442 12.9486 9.84231C12.8837 10.0401 12.8099 10.2379 12.7361 10.4357C12.7272 10.4622 12.6918 10.4977 12.6711 10.4977C12.2342 10.5006 11.8003 10.5006 11.3516 10.5006C11.4342 10.3028 11.511 10.1169 11.5877 9.92792C12.1486 8.5877 12.7095 7.25043 13.2704 5.91021C13.3914 5.62091 13.5744 5.49988 13.8873 5.49988H14.9442C14.9796 5.66224 15.015 5.8246 15.0475 5.98401C15.325 7.30652 15.5995 8.63198 15.877 9.95449C15.9124 10.1228 15.9537 10.291 15.9921 10.4622C15.9951 10.474 15.9951 10.4859 15.9951 10.4977ZM14.4187 8.72054C14.2918 8.10652 14.1648 7.4984 14.0379 6.89028C14.032 6.89028 14.0261 6.88733 14.0231 6.88733C13.8017 7.49545 13.5803 8.10357 13.3589 8.72054H14.4187Z" fill="url(#paint0_linear_1999_4680)"/>
<path d="M10.7484 5.41003C10.9078 5.43955 11.0672 5.46317 11.2237 5.4986C11.3683 5.53107 11.5071 5.5783 11.6606 5.62258C11.5838 5.98273 11.51 6.33402 11.4362 6.67645C11.2355 6.61741 11.0436 6.54952 10.8458 6.50524C10.5742 6.4462 10.2967 6.42258 10.0281 6.49933C9.91888 6.52885 9.8067 6.58789 9.72109 6.66169C9.57349 6.78863 9.57054 6.97166 9.71223 7.10745C9.80965 7.19896 9.92478 7.27572 10.0429 7.34657C10.3056 7.50598 10.5831 7.64177 10.8399 7.81299C11.141 8.01372 11.3624 8.28531 11.4067 8.65727C11.4894 9.31262 11.2473 9.82922 10.6953 10.1953C10.3499 10.4255 9.95725 10.5259 9.54987 10.5643C8.98013 10.6174 8.4222 10.5525 7.87607 10.3753C7.84065 10.3635 7.80522 10.3488 7.7698 10.334C7.75799 10.3311 7.74914 10.3222 7.73438 10.3104C7.81113 9.95026 7.88788 9.59011 7.96759 9.21815C8.0591 9.25948 8.14766 9.30081 8.23622 9.33623C8.66131 9.50745 9.10116 9.58716 9.55578 9.50155C9.67386 9.47793 9.79489 9.42775 9.89526 9.35985C10.1137 9.2152 10.1344 8.94066 9.93659 8.76649C9.8067 8.65431 9.65024 8.57166 9.49969 8.48014C9.26648 8.33845 9.02146 8.21741 8.80006 8.06096C8.51962 7.85727 8.31592 7.58863 8.2746 7.22848C8.21556 6.69121 8.41629 6.25431 8.82958 5.91483C9.18973 5.61963 9.61482 5.48679 10.0694 5.43365C10.096 5.4307 10.1196 5.42184 10.1432 5.41594H10.7484V5.41003Z" fill="url(#paint1_linear_1999_4680)"/>
<path d="M6.07233 5.5031C6.00443 5.66546 5.93948 5.82192 5.87454 5.97543C5.25461 7.45439 4.63469 8.93336 4.01771 10.4123C3.98819 10.4832 3.95277 10.5009 3.88192 10.5009C3.49225 10.4979 3.09963 10.4979 2.70701 10.5009C2.62435 10.5009 2.59779 10.4743 2.57712 10.3976C2.24649 9.10753 1.90701 7.81749 1.57934 6.52451C1.5203 6.28834 1.39926 6.12598 1.17196 6.02561C0.808856 5.8662 0.433948 5.75403 0.0501845 5.66251C0.0324723 5.65956 0.0147601 5.65366 0 5.6507C0.00295203 5.50015 0.00295203 5.50015 0.144649 5.50015H2.19926C2.52399 5.50015 2.7572 5.68908 2.81919 6.01085C2.99336 6.92008 3.16162 7.83225 3.33579 8.74148C3.3417 8.78281 3.35055 8.82118 3.36236 8.87727C3.38007 8.8448 3.39188 8.82414 3.40074 8.80347C3.82583 7.72893 4.25092 6.65144 4.67306 5.5769C4.69668 5.51786 4.7262 5.4972 4.78819 5.50015C5.18376 5.5031 5.58229 5.50015 5.98081 5.5031C6.01033 5.50015 6.03395 5.5031 6.07233 5.5031Z" fill="url(#paint2_linear_1999_4680)"/>
<path d="M5.55078 10.4986C5.90798 8.82777 6.26222 7.16873 6.61942 5.50378H7.91536C7.86222 5.75766 7.80908 6.00563 7.75595 6.2536C7.46074 7.62925 7.16554 9.00194 6.87624 10.3776C6.85558 10.472 6.82311 10.5045 6.72274 10.5016C6.36849 10.4957 6.0113 10.4986 5.65705 10.4986H5.55078Z" fill="url(#paint3_linear_1999_4680)"/>
<defs>
<linearGradient id="paint0_linear_1999_4680" x1="0.893918" y1="8.09061" x2="15.9122" y2="7.99181" gradientUnits="userSpaceOnUse">
<stop stop-color="#262860"/>
<stop offset="1" stop-color="#3D429B"/>
</linearGradient>
<linearGradient id="paint1_linear_1999_4680" x1="0.892662" y1="8.0521" x2="15.911" y2="7.9533" gradientUnits="userSpaceOnUse">
<stop stop-color="#262860"/>
<stop offset="1" stop-color="#3D429B"/>
</linearGradient>
<linearGradient id="paint2_linear_1999_4680" x1="0.898214" y1="8.00825" x2="15.9165" y2="7.90945" gradientUnits="userSpaceOnUse">
<stop stop-color="#262860"/>
<stop offset="1" stop-color="#3D429B"/>
</linearGradient>
<linearGradient id="paint3_linear_1999_4680" x1="0.896434" y1="8.03984" x2="15.9148" y2="7.94104" gradientUnits="userSpaceOnUse">
<stop stop-color="#262860"/>
<stop offset="1" stop-color="#3D429B"/>
</linearGradient>
</defs>
</svg>
