<svg width="16" height="16" viewBox="0 0 16 16" fill="none" xmlns="http://www.w3.org/2000/svg">
<path fill-rule="evenodd" clip-rule="evenodd" d="M16 5.5H0V10.5H16V5.5ZM9.05602 9.82363C7.92621 9.82363 6.90639 9.06307 6.90639 7.88954C6.90639 6.80609 7.68783 6.27677 8.38451 6.17593C8.46873 6.16363 8.55173 6.1576 8.63199 6.1576C9.49784 6.1576 10.0305 6.73814 10.0305 7.54842C10.0305 8.25017 9.56244 8.58125 9.06686 8.65329C8.99286 8.66417 8.91824 8.66926 8.84445 8.66895C8.31774 8.66655 7.85862 8.26481 7.85862 7.81497C7.85862 7.37864 8.07831 7.04691 8.47143 6.9925C8.50959 6.98709 8.5494 6.98431 8.5908 6.98431C9.04632 6.98431 9.24708 7.29583 9.24708 7.68233C9.24708 7.73605 9.24428 7.7986 9.23468 7.86515H9.23243C9.23242 7.86526 9.2324 7.86538 9.23238 7.86549H8.26805C8.26671 8.0583 8.4898 8.3158 8.80796 8.3182C8.89126 8.31863 8.96786 8.31328 9.03807 8.30257C9.49 8.23281 9.67591 7.94061 9.67591 7.53993C9.67591 6.92932 9.24758 6.51034 8.62969 6.51034C8.56208 6.51034 8.49513 6.51519 8.42936 6.52475C7.832 6.61265 7.33262 7.09008 7.32542 7.86355C7.31662 8.82578 8.14488 9.45684 8.98433 9.45684C9.159 9.45684 9.35482 9.44639 9.55398 9.41705C10.0787 9.33937 10.6261 9.13036 10.8705 8.63567L10.2762 7.01792H10.2786L10.2785 7.01759H10.7244L10.9348 7.61537C10.9812 7.74969 11.0224 7.90404 11.0576 8.04637H11.0581C11.0926 7.90405 11.1589 7.69738 11.2088 7.54955L11.3936 7.01832H11.3958L11.3959 7.01799H11.8254L11.1859 8.72515C10.942 9.28587 10.3882 9.66991 9.59135 9.78626C9.4235 9.81089 9.24484 9.82363 9.05602 9.82363ZM3.51061 7.74961C3.50896 7.77374 3.50812 7.79828 3.50812 7.8232C3.50812 8.33238 3.75807 8.60181 4.23119 8.60181C4.66653 8.60181 4.98818 8.28454 5.01834 7.83756C5.01992 7.81447 5.02072 7.79102 5.02072 7.76726C5.02072 7.2669 4.76317 6.99106 4.29765 6.99106C3.85588 6.99106 3.5411 7.29922 3.51061 7.74961ZM12.6334 8.59398C12.1663 8.59398 11.9191 8.32736 11.9191 7.82299C11.9191 7.41532 12.1467 7.1115 12.493 7.02588C12.559 7.00916 12.6294 7.0004 12.7033 7.0004C13.164 7.0004 13.4184 7.27303 13.4184 7.76818C13.4184 8.17026 13.1853 8.47995 12.8419 8.56776C12.7762 8.58493 12.7064 8.59398 12.6334 8.59398ZM13.6676 7.02329H13.6671V8.09297C13.6671 8.3191 13.7459 8.58812 14.1258 8.58812C14.3382 8.58812 14.5142 8.4931 14.6194 8.32711C14.6106 8.39808 14.6062 8.48187 14.6062 8.54121V8.55484H14.9981V8.55388H14.9986V7.02233H14.5858V7.02329H14.5854V7.76341C14.5854 7.88065 14.5549 7.98813 14.5044 8.07102C14.4423 8.17245 14.3502 8.23675 14.2475 8.23675C14.1255 8.23675 14.0767 8.16779 14.0767 7.9978V7.02233H13.6676V7.02329ZM6.20811 8.57072V7.58564C6.20811 7.42286 6.16092 7.35631 6.04614 7.35671C6.03434 7.35671 6.02268 7.3576 6.01119 7.35933C5.84799 7.38558 5.71949 7.58305 5.71949 7.82184V8.57037H5.7174V8.57072H5.28708V7.02113H5.6962V7.02119H5.69829V7.04324C5.69829 7.09206 5.69559 7.15713 5.68981 7.21793C5.79868 7.07121 5.96763 6.98785 6.16692 6.98785C6.17526 6.98785 6.1835 6.98798 6.19163 6.98824C6.48445 6.99664 6.63773 7.17009 6.63773 7.49148V8.57077H6.2102V8.57072H6.20811ZM2.81391 8.57072V7.59446C2.81391 7.42757 2.77191 7.35944 2.66589 7.35641C2.66421 7.35638 2.66251 7.35637 2.6608 7.35637C2.50483 7.35637 2.33806 7.546 2.33806 7.82746V8.57077H1.91373V8.57072H1.91127V7.59446C1.91127 7.4276 1.86928 7.35947 1.76293 7.35641C1.76122 7.35638 1.7595 7.35637 1.75776 7.35637C1.60219 7.35637 1.43502 7.546 1.43502 7.82746V8.57077H1.00469V8.57072H1.00182V7.02113H1.41135V7.02119H1.41422V7.04324C1.41422 7.09173 1.41194 7.15624 1.40515 7.21965C1.51093 7.07301 1.67816 6.98785 1.86927 6.98785C1.87481 6.98785 1.88029 6.98792 1.88569 6.98805C2.14675 6.99325 2.2504 7.14872 2.29055 7.25358C2.37308 7.1179 2.53445 6.98785 2.77231 6.98785C2.77848 6.98785 2.78458 6.98792 2.79063 6.98807C3.08976 6.99406 3.2475 7.17529 3.2475 7.51273V8.57077H2.81677V8.57072H2.81391ZM12.6097 7.36118C12.6308 7.35678 12.6519 7.3547 12.6726 7.3547C12.8857 7.3547 12.9889 7.49703 12.9889 7.78971C12.9889 8.02661 12.8972 8.18662 12.7451 8.22708C12.7214 8.23302 12.6962 8.23606 12.6697 8.23606C12.457 8.23606 12.3474 8.08331 12.3474 7.78301C12.3474 7.51235 12.4773 7.391 12.6097 7.36118ZM3.95284 7.72728C3.95157 7.74494 3.95091 7.76333 3.95091 7.78249C3.95091 8.08159 4.05329 8.22632 4.26485 8.22592C4.3844 8.22592 4.47596 8.16147 4.52826 8.04805C4.55999 7.97874 4.57713 7.89126 4.57713 7.78912C4.57713 7.50286 4.47715 7.36374 4.27038 7.36374C4.13248 7.36374 3.97246 7.46018 3.95284 7.72728ZM8.84726 7.59172H8.27445C8.29475 7.42355 8.38896 7.30785 8.52599 7.28453C8.54224 7.28189 8.55909 7.28053 8.5765 7.28053C8.74557 7.28053 8.85233 7.39667 8.84726 7.59172Z" fill="#8D2D43"/>
</svg>
