<svg width="16" height="17" viewBox="0 0 16 17" fill="none" xmlns="http://www.w3.org/2000/svg">
<path d="M7.9996 15.9995C8.03438 16.0002 8.0689 15.9933 8.10082 15.9793C8.13274 15.9653 8.16131 15.9446 8.18462 15.9186C8.2095 15.8915 8.31264 15.7409 8.35077 15.6952C8.66662 15.324 9.54876 14.5283 11.4314 14.481C13.8459 14.4 14 12.7511 14 12.1035C13.9948 12.1035 14 0.00195312 14 0.00195312L2 0.00519101C2 0.00519101 2.00441 12.1068 2 12.1068C2 12.7544 2.15411 14.4053 4.56856 14.4842C6.45084 14.5324 7.33298 15.3281 7.64883 15.6984C7.68896 15.7441 7.7905 15.8947 7.81498 15.9218C7.8382 15.9478 7.86664 15.9684 7.89841 15.9824C7.93018 15.9963 7.96455 16.0033 7.9992 16.0028L7.9996 15.9995Z" fill="#5FA044"/>
<path d="M8.41002 5.2747V5.6159H8.77468V5.2747H9.26805V5.89193H6.72955V5.2747H7.21564V5.6159H7.58071V5.2747H8.41002ZM7.90936 5.1031V5.09217C7.90978 5.06865 7.90364 5.04547 7.89163 5.02524C7.87962 5.00501 7.86221 4.98852 7.84136 4.97763C7.76244 4.9327 7.33463 4.63441 7.25692 4.21268C7.21402 3.99088 7.21645 3.79904 7.30104 3.68652C7.32735 3.65212 7.3747 3.59586 7.3747 3.57117C7.3747 3.51653 7.29376 3.35707 7.27311 3.24738C7.25976 3.15106 7.25045 2.98633 7.32735 2.89648C7.40425 2.80663 7.47224 2.81836 7.44594 2.73175C7.40722 2.62918 7.38614 2.5208 7.38361 2.4112C7.38361 2.31325 7.40425 2.15015 7.51555 2.11493C7.60419 2.08782 7.62685 2.06839 7.63333 2.05139C7.6398 2.03439 7.63333 1.79398 7.64992 1.68713C7.6649 1.59404 7.71589 1.31437 7.95874 1.28685L7.99921 1.2832L8.03968 1.28685C8.28252 1.31437 8.33433 1.59404 8.3489 1.68713C8.36549 1.79479 8.35821 2.03561 8.36549 2.05139C8.37278 2.06718 8.39423 2.08782 8.48246 2.11493C8.59417 2.15015 8.61643 2.31325 8.61643 2.4112C8.6138 2.52091 8.5923 2.62934 8.55289 2.73175C8.52658 2.81836 8.59538 2.80744 8.67147 2.89648C8.74756 2.98552 8.74028 3.15106 8.7253 3.24738C8.70588 3.35626 8.62493 3.51572 8.62331 3.57117C8.62331 3.59586 8.67147 3.65212 8.69738 3.68652C8.78278 3.79985 8.7844 3.99169 8.7423 4.21268C8.66419 4.63441 8.23517 4.9327 8.15665 4.97763C8.13571 4.98849 8.11819 5.00494 8.10604 5.02516C8.09389 5.04538 8.0876 5.06858 8.08785 5.09217V5.10229L7.90936 5.1031ZM7.99921 6.29585H9.03412L9.17132 6.07001H6.82669L6.9639 6.29585H7.99921ZM7.99759 9.16988H9.44169L9.71245 11.0175H8.59741L8.42944 10.219C8.42944 10.219 8.37602 9.98421 7.99759 9.98421C7.61916 9.98421 7.56655 10.219 7.56655 10.219L7.3998 11.0175H6.28192L6.55228 9.16988H7.99759ZM9.35345 8.98937L9.23122 8.75219H6.76355L6.64213 8.98937H9.35345ZM5.57242 4.44135H5.61289C5.87435 4.47049 5.92858 4.77364 5.94356 4.87483C5.96339 4.98775 5.95691 5.24759 5.96339 5.26297C5.96987 5.27835 5.99577 5.30344 6.08926 5.33299C6.20704 5.36982 6.23132 5.54466 6.23132 5.65192C6.22933 5.76809 6.207 5.88302 6.16535 5.99149C6.13581 6.08701 6.20987 6.07244 6.28961 6.1716C6.36934 6.27076 6.36529 6.44439 6.34829 6.54638C6.32968 6.66254 6.24023 6.83658 6.23821 6.89203C6.23821 6.91833 6.28961 6.97824 6.31915 7.01345C6.41103 7.13892 6.41548 7.34493 6.36853 7.5821C6.28192 8.035 5.84237 8.3511 5.75333 8.40331C5.69019 8.44014 5.69667 8.53121 5.69667 8.56035V10.3537H5.45099V8.56278C5.45099 8.53364 5.45788 8.44136 5.39393 8.40574C5.30772 8.35474 4.86777 8.03743 4.77954 7.58453C4.73299 7.34735 4.73583 7.13932 4.82892 7.01588C4.85644 6.98026 4.90986 6.92036 4.90784 6.89446C4.90541 6.83901 4.81718 6.66497 4.79735 6.54881C4.78278 6.44682 4.77266 6.26914 4.85644 6.17403C4.94022 6.07891 5.01145 6.08944 4.98029 5.99392C4.93999 5.8851 4.91797 5.77036 4.91513 5.65435C4.91513 5.54709 4.94022 5.37103 5.0584 5.33541C5.1523 5.30587 5.17658 5.28361 5.18306 5.2654C5.18954 5.24718 5.18306 4.99018 5.20208 4.87725C5.21665 4.77607 5.27251 4.47252 5.53397 4.44378L5.57242 4.44135ZM10.4236 4.44135H10.3831C10.1225 4.47049 10.0682 4.77364 10.0532 4.87483C10.033 4.98775 10.0399 5.24759 10.033 5.26297C10.0261 5.27835 10.0026 5.30344 9.90956 5.33299C9.79016 5.36982 9.76669 5.54466 9.76669 5.65192C9.76902 5.76784 9.79049 5.88257 9.83023 5.99149C9.8618 6.08701 9.78733 6.07244 9.70598 6.1716C9.62463 6.27076 9.63272 6.44439 9.6481 6.54638C9.66793 6.66254 9.75536 6.83658 9.75859 6.89203C9.75859 6.91833 9.70598 6.97824 9.67765 7.01345C9.58456 7.13892 9.58051 7.34493 9.62827 7.5821C9.71448 8.035 10.1544 8.3511 10.2431 8.40331C10.305 8.44014 10.2977 8.53121 10.2977 8.56035V10.3537H10.5458V8.56278C10.5458 8.53364 10.5389 8.44136 10.6013 8.40574C10.6891 8.35474 11.1302 8.03743 11.2169 7.58453C11.2638 7.34735 11.2573 7.13932 11.1667 7.01588C11.1391 6.98026 11.0857 6.92036 11.0857 6.89446C11.0881 6.83901 11.1768 6.66497 11.1954 6.54881C11.2116 6.44682 11.2221 6.26914 11.1375 6.17403C11.0529 6.07891 10.9829 6.08944 11.0137 5.99392C11.055 5.88538 11.077 5.77046 11.0788 5.65435C11.0788 5.54709 11.0542 5.37103 10.9364 5.33541C10.8437 5.30587 10.8174 5.28361 10.8109 5.2654C10.8044 5.24718 10.8109 4.99018 10.7923 4.87725C10.7761 4.77607 10.7223 4.47252 10.4604 4.44378L10.4236 4.44135ZM8.95277 6.46422H7.04444L6.84895 8.58099H9.14825L8.95277 6.46422ZM7.59083 7.77921H7.24397V7.12394H7.59083V7.77921ZM8.75364 7.77921H8.40637V7.12394H8.75364V7.77921ZM6.66561 11.759V12.7643L6.6826 12.789L6.84774 12.7967V12.8934H6.20785V12.7967L6.3827 12.787L6.40131 12.7579V11.9779L6.38189 11.9597L6.16576 11.9921V11.8913L6.50978 11.759H6.66561ZM8.80625 12.5818C8.80625 12.77 8.63302 12.9157 8.35092 12.9157C8.12265 12.9157 7.9895 12.8153 7.9895 12.6878C7.98792 12.6693 7.99033 12.6506 7.99655 12.633C8.00277 12.6154 8.01266 12.5994 8.02557 12.586C8.03848 12.5725 8.0541 12.562 8.0714 12.5551C8.0887 12.5481 8.10727 12.545 8.12589 12.5458C8.1552 12.5463 8.1842 12.5518 8.21169 12.562L8.26229 12.7817C8.29097 12.7888 8.32023 12.7933 8.34971 12.7951C8.45818 12.7951 8.53063 12.7105 8.53063 12.5891C8.53207 12.5618 8.5277 12.5346 8.51781 12.5091C8.50792 12.4836 8.49273 12.4606 8.47325 12.4415C8.45377 12.4223 8.43044 12.4075 8.40482 12.3981C8.37919 12.3887 8.35185 12.3848 8.32462 12.3867C8.28705 12.3854 8.2495 12.3899 8.21331 12.4001V12.256C8.23283 12.2594 8.25259 12.2613 8.27241 12.2617C8.41042 12.2617 8.4946 12.1888 8.4946 12.0743C8.49709 12.0471 8.49357 12.0197 8.48428 11.994C8.47499 11.9683 8.46016 11.945 8.44085 11.9256C8.42154 11.9063 8.39821 11.8915 8.37253 11.8822C8.34685 11.8729 8.31943 11.8694 8.29224 11.8719C8.28293 11.8719 8.27483 11.8739 8.26472 11.8739V12.1079C8.23288 12.1268 8.19651 12.1367 8.15948 12.1366C8.14091 12.1381 8.12223 12.1357 8.10469 12.1294C8.08715 12.1231 8.07117 12.1131 8.05782 12.1001C8.04447 12.0871 8.03406 12.0713 8.0273 12.054C8.02054 12.0366 8.01759 12.018 8.01864 11.9994C8.01864 11.8614 8.16232 11.7513 8.40232 11.7513C8.62857 11.7513 8.76659 11.8674 8.76659 12.0346C8.76659 12.1698 8.66905 12.2689 8.4853 12.3021C8.69252 12.3159 8.80544 12.4191 8.80544 12.5826L8.80625 12.5818ZM9.12073 12.921L9.6052 12.0152H9.19965L9.17618 12.1722H9.04545V11.7707H9.82983V11.9213L9.31824 12.921H9.12073ZM7.11486 12.921L7.60014 12.0152H7.195L7.1695 12.1722H7.04039V11.7707H7.82436V11.9213L7.31197 12.921H7.11486Z" fill="white"/>
</svg>
