<svg width="16" height="16" viewBox="0 0 16 16" fill="none" xmlns="http://www.w3.org/2000/svg">
<g clip-path="url(#clip0_1999_4684)">
<path fill-rule="evenodd" clip-rule="evenodd" d="M6.66798 9.68517C6.45177 9.78443 6.21662 9.83566 5.97872 9.83533C5.06578 9.83533 4.32428 9.09382 4.32428 8.18088V6.25049H5.05959V8.18088C5.05959 8.73894 5.47136 9.19212 5.97872 9.19212C6.2535 9.19212 6.50002 9.05938 6.66798 8.84962V9.68517Z" fill="#89CC53"/>
<path fill-rule="evenodd" clip-rule="evenodd" d="M0.735762 4.68994V6.52861C1.05357 6.28917 1.44082 6.15996 1.83873 6.16057C2.13672 6.16057 2.41691 6.23139 2.66615 6.35717V7.2229C2.45562 6.9667 2.14214 6.80416 1.79306 6.80416C1.15876 6.80416 0.644042 7.33978 0.644042 7.99924C0.644042 8.65869 1.15876 9.19431 1.79306 9.19431C2.14253 9.19431 2.456 9.03177 2.66615 8.77557V9.64131C2.40962 9.77096 2.12615 9.83831 1.83873 9.8379C1.39948 9.8379 0.99583 9.68349 0.679647 9.42574L0.643655 9.7458H6.47665e-05V8.09134H0.00277381C0.000898662 8.06068 -4.81052e-06 8.02996 6.47665e-05 7.99924V4.68994H0.735762V4.68994Z" fill="#238647"/>
<path fill-rule="evenodd" clip-rule="evenodd" d="M1.33209 6.23108C1.49309 6.18503 1.66221 6.16064 1.83752 6.16064C2.85225 6.16064 3.6758 6.98458 3.6758 7.99891C3.6758 9.01325 2.85225 9.83718 1.83752 9.83718C1.66182 9.83718 1.4927 9.81241 1.33209 9.76675V9.09413C1.47646 9.15981 1.63325 9.19373 1.79185 9.19359C2.42616 9.19359 2.94087 8.65798 2.94087 7.99853C2.94087 7.33907 2.42616 6.80346 1.79185 6.80346C1.62815 6.80346 1.47296 6.83906 1.33209 6.90292V6.23108V6.23108Z" fill="#2F9B47"/>
<path fill-rule="evenodd" clip-rule="evenodd" d="M2.67194 6.35791C3.27141 6.66094 3.68318 7.28247 3.68318 7.99998C3.68318 8.71749 3.27141 9.33903 2.67194 9.64205V8.77632C2.84377 8.56733 2.94787 8.29604 2.94787 7.99998C2.94787 7.70353 2.84415 7.43263 2.67194 7.22365V6.35791Z" fill="#62B64F"/>
<path fill-rule="evenodd" clip-rule="evenodd" d="M5.336 8.90264C5.50164 9.08143 5.72958 9.19212 5.97959 9.19212C6.48695 9.19212 6.89873 8.73893 6.89873 8.18087V6.25049H7.63404V8.18087C7.63404 9.09421 6.89215 9.83532 5.97959 9.83532C5.75164 9.83532 5.53376 9.78888 5.336 9.70529V8.90264Z" fill="#3DB8AD"/>
<path fill-rule="evenodd" clip-rule="evenodd" d="M6.66803 8.84962C6.81161 8.67121 6.89791 8.43707 6.89791 8.18087V6.25049H7.63322V8.18087C7.63322 8.84807 7.23693 9.42355 6.66803 9.68516V8.84962Z" fill="#3394D7"/>
<path fill-rule="evenodd" clip-rule="evenodd" d="M10.6653 7.09333C10.4996 6.91453 10.2717 6.80385 10.0217 6.80385C9.51433 6.80385 9.10256 7.25704 9.10256 7.8151V9.74549H8.36725V7.8151C8.36725 6.90176 9.10914 6.16064 10.0217 6.16064C10.2496 6.16064 10.4675 6.20709 10.6653 6.29068V7.09333V7.09333Z" fill="#2872BC"/>
<path fill-rule="evenodd" clip-rule="evenodd" d="M9.33209 6.3108C9.5483 6.21154 9.78345 6.16032 10.0213 6.16065C10.9343 6.16065 11.6758 6.90215 11.6758 7.81509V9.74547H10.9405V7.81509C10.9405 7.25703 10.5287 6.80385 10.0213 6.80385C9.74658 6.80385 9.50005 6.93659 9.33209 7.14635V6.3108V6.3108Z" fill="#1D5C84"/>
<path fill-rule="evenodd" clip-rule="evenodd" d="M10.668 6.28955C11.2617 6.54072 11.6793 7.12935 11.6793 7.81435V9.74472H10.944V7.81435C10.944 7.53183 10.8383 7.27602 10.668 7.09258V6.28955V6.28955Z" fill="#993233"/>
<path fill-rule="evenodd" clip-rule="evenodd" d="M14.6641 9.76679C14.4997 9.81372 14.3296 9.83743 14.1587 9.83722C13.1439 9.83722 12.3204 9.01328 12.3204 7.99893C12.3204 6.98458 13.1439 6.16064 14.1587 6.16064C14.3344 6.16064 14.5035 6.18541 14.6641 6.23108V6.9037C14.5197 6.83802 14.3629 6.8041 14.2043 6.80424C13.57 6.80424 13.0553 7.33986 13.0553 7.99932C13.0553 8.65878 13.57 9.1944 14.2043 9.1944C14.368 9.1944 14.5232 9.1588 14.6641 9.09494V9.76679Z" fill="#E13030"/>
<path fill-rule="evenodd" clip-rule="evenodd" d="M13.3321 6.35725C13.5886 6.2276 13.8721 6.16024 14.1595 6.16065C14.5988 6.16065 15.0024 6.31506 15.3186 6.57281L15.3546 6.25275H15.9982V7.90721H15.9962C15.997 7.93778 15.9982 7.96835 15.9982 7.99931V11.3086H15.2629V9.46994C14.9451 9.70938 14.5578 9.83859 14.1599 9.83798C13.8619 9.83798 13.5817 9.76716 13.3325 9.64138V8.77565C13.543 9.03185 13.8565 9.19439 14.2056 9.19439C14.8399 9.19439 15.3546 8.65877 15.3546 7.99931C15.3546 7.33986 14.8399 6.80424 14.2056 6.80424C13.8561 6.80424 13.5426 6.96678 13.3325 7.22298V6.35725H13.3321Z" fill="#F28825"/>
<path fill-rule="evenodd" clip-rule="evenodd" d="M14.6641 6.23096C14.9029 6.29954 15.1252 6.41579 15.3178 6.57268L15.3538 6.25263H15.9974V7.90708H15.9954C15.9962 7.93766 15.9974 7.96823 15.9974 7.99919V11.3085H15.262V9.46943C15.0827 9.60428 14.8802 9.70515 14.6645 9.76704V9.09442C15.0697 8.90982 15.3538 8.48837 15.3538 7.9988C15.3538 7.50924 15.0697 7.08779 14.6645 6.90319V6.23096H14.6641Z" fill="#F5C836"/>
</g>
<defs>
<clipPath id="clip0_1999_4684">
<rect width="16" height="16" fill="white"/>
</clipPath>
</defs>
</svg>
