<svg width="16" height="16" viewBox="0 0 16 16" fill="none" xmlns="http://www.w3.org/2000/svg">
<path fill-rule="evenodd" clip-rule="evenodd" d="M14.2509 2.35842C14.9397 2.55597 15.4811 3.13594 15.6654 3.87394C15.9987 5.21025 16 8 16 8C16 8 16 10.7898 15.6654 12.1261C15.4811 12.8641 14.9397 13.444 14.2509 13.6416C13.0036 14 7.99997 14 7.99997 14C7.99997 14 2.99637 14 1.74909 13.6416C1.06026 13.444 0.518933 12.8641 0.334541 12.1261C0 10.7898 0 8 0 8C0 8 0 5.21025 0.334541 3.87394C0.518933 3.13594 1.06026 2.55597 1.74909 2.35842C2.99637 2 7.99997 2 7.99997 2C7.99997 2 13.0036 2 14.2509 2.35842ZM10.5552 8.00025L6.39847 10.5713V5.42921L10.5552 8.00025Z" fill="#363636"/>
</svg>
