<svg width="16" height="16" viewBox="0 0 16 16" fill="none" xmlns="http://www.w3.org/2000/svg">
<path d="M0.973671 6.10766C0.688004 5.63625 0.5 5.08086 0.5 4.4991C0.5 1.85562 2.75604 0 5.37548 0C8.82546 0 10.0434 3.00535 10.0434 6.71214C10.0434 6.74338 7.64251 8.61117 7.64251 11.8587C7.64251 14.376 8.82261 15.1789 10.01 15.6316L10.0792 15.8832C10.0792 15.8832 3.59717 17.1647 3.59717 11.2112C3.59717 9.06514 4.83751 8.01602 4.83751 6.11618C4.83751 5.50764 4.27146 4.65123 3.03927 4.65123C1.86689 4.65123 1.22109 5.46545 1.22109 6.1036L0.973671 6.10766ZM14.9828 12.8579C14.9828 12.8579 14.9164 11.7565 14.2385 11.7565C13.6309 11.7565 13.296 12.3009 13.296 12.3009C13.296 12.3009 13.998 12.8555 13.998 13.7172C13.998 14.6077 12.1721 15.4823 11.3887 15.6304C11.2049 15.1924 11.1082 14.723 11.1039 14.2482C11.1039 12.2936 12.4264 10.4717 14.5628 10.4717C16.1454 10.4717 15.2448 12.9135 15.2448 12.9135L14.9807 12.8579H14.9828ZM12.4639 7.13933C12.4635 7.23225 12.4354 7.32298 12.3834 7.40004C12.3313 7.47711 12.2574 7.53706 12.1712 7.57232C12.085 7.60759 11.9902 7.61658 11.8988 7.59818C11.8075 7.57978 11.7236 7.5348 11.6579 7.46892C11.5921 7.40304 11.5474 7.31922 11.5295 7.22804C11.5115 7.13686 11.521 7.04241 11.5568 6.95662C11.5926 6.87083 11.6531 6.79754 11.7307 6.74601C11.8083 6.69448 11.8994 6.66703 11.9926 6.66711C12.0547 6.66721 12.1161 6.67952 12.1734 6.70332C12.2307 6.72712 12.2827 6.76194 12.3265 6.8058C12.3702 6.84966 12.4049 6.9017 12.4285 6.95893C12.452 7.01616 12.4641 7.07746 12.4639 7.13933ZM14.5734 4.79566C14.5734 4.79566 14.9868 3.36439 14.153 1.92703L13.8979 2.02155C13.9854 3.28487 13.5723 4.1928 13.5723 4.18712C13.198 4.05284 12.4276 4.10599 12.4276 4.10599C12.4276 4.10599 11.9641 3.23416 11.9715 2.01668L11.72 1.93027C11.3371 2.58424 11.0803 3.5579 11.193 4.27191C11.4079 5.59162 11.5763 5.22894 13.1003 6.38921C14.7541 7.6505 14.0436 9.05094 14.0436 9.05094L14.4367 9.13208C14.4367 9.13208 15.2505 7.65415 15.2505 6.56771C15.2476 5.91478 15.0065 5.28521 14.5722 4.79647" fill="#D11317"/>
</svg>
