<svg width="16" height="16" viewBox="0 0 16 16" fill="none" xmlns="http://www.w3.org/2000/svg">
<path d="M0 8C0 3.58172 3.58172 0 8 0C12.4183 0 16 3.58172 16 8C16 12.4183 12.4183 16 8 16C3.58172 16 0 12.4183 0 8Z" fill="#363636"/>
<path fill-rule="evenodd" clip-rule="evenodd" d="M10.8344 5.16252C10.0824 4.41323 9.08237 4.00038 8.01681 4C5.82113 4 4.03419 5.77818 4.03342 7.96389C4.03304 8.66261 4.21659 9.34461 4.56515 9.94564L4 12L6.11164 11.4488C6.69341 11.7647 7.34852 11.931 8.01509 11.9312H8.01681C8.017 11.9312 8.01662 11.9312 8.01681 11.9312C10.2121 11.9312 11.9992 10.1528 12 7.96712C12.0004 6.90781 11.5865 5.9118 10.8344 5.16252ZM8.01681 11.2617H8.01547C7.42148 11.2615 6.83875 11.1026 6.33033 10.8025L6.20943 10.731L4.95631 11.0582L5.29074 9.84224L5.21205 9.71754C4.88068 9.19293 4.70553 8.58658 4.70592 7.96408C4.70668 6.1475 6.19185 4.66945 8.01814 4.66945C8.90245 4.66983 9.73366 5.01293 10.3588 5.63581C10.9839 6.25851 11.3279 7.08649 11.3275 7.96674C11.3267 9.7835 9.84157 11.2617 8.01681 11.2617ZM9.83278 8.79396C9.73328 8.74435 9.24395 8.50485 9.15265 8.47177C9.06136 8.4387 8.99508 8.42216 8.92881 8.52138C8.86253 8.6206 8.67173 8.84376 8.61367 8.90971C8.5556 8.97586 8.49754 8.98403 8.39803 8.93442C8.29852 8.88481 7.97784 8.78027 7.59757 8.44288C7.30172 8.18019 7.10194 7.85592 7.04388 7.7567C6.98582 7.65748 7.03777 7.60388 7.08743 7.55465C7.13212 7.51017 7.18694 7.43889 7.23679 7.38111C7.28663 7.32332 7.30306 7.28189 7.33629 7.21593C7.36953 7.14978 7.35291 7.092 7.32808 7.04239C7.30325 6.99278 7.10424 6.50523 7.02115 6.30698C6.94036 6.11386 6.85823 6.14009 6.79731 6.13686C6.73924 6.134 6.67297 6.13343 6.6065 6.13343C6.54023 6.13343 6.43232 6.15814 6.34102 6.25737C6.24973 6.35659 5.99265 6.59627 5.99265 7.08363C5.99265 7.57118 6.34923 8.0422 6.39908 8.10834C6.44893 8.17449 7.10099 9.17487 8.09932 9.60407C8.33672 9.70614 8.52218 9.76715 8.66676 9.81277C8.90512 9.88823 9.12209 9.87759 9.29361 9.85212C9.48479 9.82361 9.88244 9.61243 9.96533 9.38111C10.0482 9.14978 10.0482 8.95134 10.0234 8.91009C9.99857 8.86847 9.93229 8.84357 9.83278 8.79396Z" fill="white"/>
</svg>
