<svg width="16" height="16" viewBox="0 0 16 16" fill="none" xmlns="http://www.w3.org/2000/svg">
<path d="M0 8C0 3.58172 3.58172 0 8 0C12.4183 0 16 3.58172 16 8C16 12.4183 12.4183 16 8 16C3.58172 16 0 12.4183 0 8Z" fill="#363636"/>
<path d="M7.36371 4.41086C7.67638 4.11178 8.1182 4.01322 8.53624 4.00302C8.98146 3.99622 9.42328 4.00302 9.8685 4.00302C9.8685 4.46863 9.8685 4.94104 9.8685 5.40666C9.58301 5.40666 9.29413 5.40666 9.00865 5.40666C8.81832 5.39986 8.65179 5.52901 8.60761 5.71253C8.60081 6.02521 8.60761 6.33788 8.60761 6.65055C9.02904 6.65055 9.44707 6.65055 9.8685 6.65055C9.83791 7.10257 9.78013 7.55459 9.71556 7.99981C9.34511 8.00661 8.97126 7.99981 8.60081 7.99981C8.59401 9.33207 8.60081 10.6711 8.60081 12C8.04683 12 7.49965 12 6.94568 12C6.93208 10.6677 6.94568 9.32868 6.93888 7.99981C6.67039 7.99981 6.4019 7.99981 6.13 7.99981C6.13 7.55459 6.13 7.10257 6.13 6.65395C6.3985 6.65395 6.66699 6.65395 6.93208 6.65395C6.93888 6.22233 6.92528 5.78051 6.93888 5.34888C6.97626 4.99542 7.10201 4.65216 7.36371 4.41086Z" fill="white"/>
</svg>
