<svg width="16" height="16" viewBox="0 0 16 16" fill="none" xmlns="http://www.w3.org/2000/svg">
<path fill-rule="evenodd" clip-rule="evenodd" d="M10.9032 5.43759C10.8517 5.42867 10.8 5.41972 10.7484 5.41016V5.41606H10.1432C10.136 5.41786 10.1289 5.41992 10.1216 5.42202C10.105 5.42681 10.0879 5.43172 10.0694 5.43377C9.61482 5.48691 9.18973 5.61975 8.82958 5.91495C8.41629 6.25444 8.21556 6.69134 8.2746 7.22861C8.31592 7.58875 8.51962 7.85739 8.80006 8.06108C8.94193 8.16134 9.0935 8.24705 9.24545 8.33297L9.24546 8.33298L9.24547 8.33298L9.24548 8.33299C9.33064 8.38115 9.41593 8.42937 9.49969 8.48027C9.53198 8.49989 9.56454 8.51911 9.59705 8.53831C9.71613 8.60859 9.83456 8.6785 9.93659 8.76661C10.1344 8.94078 10.1137 9.21532 9.89526 9.35997C9.79489 9.42787 9.67386 9.47805 9.55578 9.50167C9.10116 9.58728 8.66131 9.50757 8.23622 9.33636C8.16405 9.30749 8.09189 9.2747 8.01812 9.24119L7.96759 9.21827C7.88788 9.59023 7.81113 9.95038 7.73438 10.3105L7.74208 10.3168C7.75254 10.3254 7.7602 10.3317 7.7698 10.3341C7.80522 10.3489 7.84065 10.3637 7.87607 10.3755C8.4222 10.5526 8.98013 10.6175 9.54987 10.5644C9.95725 10.526 10.3499 10.4257 10.6953 10.1954C11.2473 9.82934 11.4894 9.31274 11.4067 8.65739C11.3624 8.28543 11.141 8.01385 10.8399 7.81311C10.6869 7.71109 10.5265 7.62165 10.3663 7.5323L10.3663 7.5323L10.3663 7.53229C10.2576 7.47168 10.149 7.41111 10.0429 7.34669C9.92478 7.27584 9.80965 7.19909 9.71223 7.10757C9.57054 6.97178 9.57349 6.78875 9.72109 6.66182C9.8067 6.58802 9.91888 6.52898 10.0281 6.49945C10.2967 6.4227 10.5742 6.44632 10.8458 6.50536C10.9816 6.53576 11.1146 6.5773 11.2496 6.61946L11.2497 6.61946C11.3113 6.63871 11.3733 6.65808 11.4362 6.67658C11.4831 6.45883 11.5301 6.2375 11.5778 6.0126L11.5778 6.01234L11.5778 6.01226L11.6606 5.6227C11.613 5.60898 11.5669 5.59498 11.5215 5.58122C11.4205 5.55057 11.3235 5.52113 11.2237 5.49872C11.1179 5.47477 11.0108 5.45622 10.9032 5.43759ZM14.7907 10.4978H15.9951C15.9951 10.486 15.9951 10.4742 15.9921 10.4624C15.9775 10.3971 15.9624 10.3323 15.9474 10.2677C15.9231 10.1629 15.8989 10.0587 15.877 9.95461C15.7383 9.29344 15.6003 8.63152 15.4623 7.96961C15.3243 7.30754 15.1862 6.64547 15.0475 5.98413C15.015 5.82472 14.9796 5.66236 14.9442 5.5H13.8873C13.5744 5.5 13.3914 5.62103 13.2704 5.91033C12.99 6.58018 12.7097 7.2493 12.4294 7.91841L12.4283 7.921C12.1481 8.58977 11.8679 9.25854 11.5877 9.92804C11.511 10.117 11.4342 10.303 11.3516 10.5007C11.8003 10.5007 12.2342 10.5007 12.6711 10.4978C12.6918 10.4978 12.7272 10.4624 12.7361 10.4358L12.7361 10.4357L12.7361 10.4357L12.7361 10.4357C12.8099 10.2379 12.8837 10.0402 12.9486 9.84243C12.9693 9.77454 12.9988 9.75092 13.0726 9.75092C13.5567 9.75683 14.0379 9.75683 14.522 9.75092C14.6165 9.74797 14.646 9.78339 14.6608 9.869C14.6873 10.0141 14.7181 10.1577 14.7493 10.3029L14.7493 10.303L14.7493 10.3031C14.7631 10.3676 14.777 10.4324 14.7907 10.4978ZM14.0379 6.89041C14.1648 7.49852 14.2918 8.10664 14.4187 8.72066H13.3589C13.5803 8.10369 13.8017 7.49557 14.0231 6.88745C14.0237 6.88745 14.0243 6.88755 14.025 6.8877C14.0259 6.88791 14.027 6.88822 14.0281 6.88855C14.031 6.88939 14.0344 6.89041 14.0379 6.89041ZM6.07233 5.50323L6.01516 5.6401L6.01506 5.64035C5.9675 5.75431 5.92102 5.86569 5.87454 5.97555C5.25461 7.45452 4.63469 8.93348 4.01771 10.4125C3.98819 10.4833 3.95277 10.501 3.88192 10.501C3.49225 10.4981 3.09963 10.4981 2.70701 10.501C2.62435 10.501 2.59779 10.4744 2.57712 10.3977C2.44049 9.86456 2.30234 9.33144 2.16413 8.79811C1.96792 8.0409 1.77159 7.28327 1.57934 6.52463C1.5203 6.28847 1.39926 6.1261 1.17196 6.02573C0.808856 5.86632 0.433948 5.75415 0.0501845 5.66263C0.0399897 5.66094 0.0297949 5.65826 0.0201631 5.65573L0.020149 5.65573C0.0130518 5.65386 0.00626037 5.65208 0 5.65083C0.00150613 5.57401 0.00224383 5.53639 0.0214238 5.51796C0.0398367 5.50027 0.0752463 5.50027 0.144649 5.50027H2.19926C2.52399 5.50027 2.7572 5.6892 2.81919 6.01097C2.90627 6.46559 2.99188 6.92094 3.07749 7.3763C3.1631 7.83165 3.24871 8.28699 3.33579 8.7416C3.34059 8.77519 3.34734 8.80682 3.35604 8.8476L3.36236 8.87739L3.37051 8.8625C3.38382 8.83823 3.39332 8.82091 3.40074 8.80359C3.82583 7.72906 4.25092 6.65156 4.67306 5.57703C4.69668 5.51799 4.7262 5.49732 4.78819 5.50027C4.98598 5.50175 5.1845 5.50175 5.3834 5.50175C5.58229 5.50175 5.78155 5.50175 5.98081 5.50323C5.9997 5.50134 6.01618 5.50187 6.03565 5.50249H6.03566C6.04661 5.50284 6.05851 5.50323 6.07233 5.50323ZM5.76697 9.48732C5.69499 9.82407 5.62295 10.1612 5.55078 10.4987H5.65705C5.74552 10.4987 5.83416 10.4986 5.9229 10.4984C6.18951 10.4978 6.45695 10.4973 6.72274 10.5017C6.82311 10.5046 6.85558 10.4722 6.87624 10.3777C7.13995 9.12376 7.40856 7.87227 7.6776 6.61876C7.70372 6.4971 7.72983 6.37542 7.75595 6.25372C7.80908 6.00575 7.86222 5.75778 7.91536 5.50391H6.61942C6.33439 6.83247 6.05124 8.15727 5.76697 9.48732Z" fill="white"/>
</svg>
