<svg width="16" height="16" viewBox="0 0 16 16" fill="none" xmlns="http://www.w3.org/2000/svg">
<path d="M0 4.59998H0.673352V5.77546H1.91309V4.59998H2.58644V7.66277H1.91309V6.34146H0.673737V7.66277H0V4.59998ZM3.04586 6.12714C3.0801 5.55652 3.5907 5.38491 4.08821 5.38491C4.52993 5.38491 5.06207 5.4838 5.06207 6.01556V7.16949C5.06207 7.37111 5.08362 7.57273 5.13941 7.66277H4.52146C4.49992 7.59389 4.48299 7.52117 4.47875 7.44845C4.2856 7.65007 4.00241 7.72279 3.73229 7.72279C3.31174 7.72279 2.97737 7.51232 2.97737 7.05791C2.97737 6.55616 3.35483 6.43611 3.73229 6.38455C4.10552 6.32876 4.45297 6.34146 4.45297 6.09289C4.45297 5.83125 4.2729 5.79277 4.0582 5.79277C3.82656 5.79277 3.6765 5.88704 3.65496 6.12752H3.04586V6.12714ZM4.45259 6.57771C4.34947 6.66775 4.13515 6.67198 3.94623 6.70661C3.75769 6.74509 3.58608 6.80934 3.58608 7.03251C3.58608 7.25991 3.76192 7.3157 3.95931 7.3157C4.43527 7.3157 4.45259 6.93824 4.45259 6.80511V6.57771ZM5.49071 5.44494H6.06979V5.75353H6.08249C6.23678 5.50496 6.50266 5.38453 6.76007 5.38453C7.40803 5.38453 7.57079 5.74929 7.57079 6.29836V7.66238H6.96169V6.40995C6.96169 6.04518 6.85434 5.86511 6.57153 5.86511C6.24101 5.86511 6.0998 6.04942 6.0998 6.49998V7.66277H5.49071V5.44494ZM9.5743 7.37958H9.56583C9.42424 7.61967 9.17567 7.72279 8.89248 7.72279C8.22336 7.72279 7.89746 7.14794 7.89746 6.53461C7.89746 5.9386 8.22798 5.38491 8.87978 5.38491C9.14143 5.38491 9.39884 5.4965 9.53621 5.71543H9.54467V4.59998H10.1538V7.66277H9.57468V7.37958H9.5743ZM9.04216 5.84395C8.64315 5.84395 8.50578 6.18716 8.50578 6.55193C8.50578 6.89938 8.66469 7.26376 9.04216 7.26376C9.4454 7.26376 9.56545 6.91208 9.56545 6.5477C9.56583 6.18716 9.43693 5.84395 9.04216 5.84395ZM11.0714 6.70199C11.0888 7.0883 11.2773 7.26376 11.6163 7.26376C11.8606 7.26376 12.058 7.1137 12.0969 6.97633H12.6332C12.4616 7.49963 12.0969 7.72279 11.5951 7.72279C10.896 7.72279 10.4627 7.2426 10.4627 6.55578C10.4627 5.89089 10.9218 5.38491 11.5951 5.38491C12.35 5.38491 12.7148 6.01979 12.6717 6.70161H11.0714V6.70199ZM12.0622 6.31568C12.0064 6.00671 11.8733 5.84395 11.5774 5.84395C11.1915 5.84395 11.0799 6.14445 11.0711 6.31568H12.0622ZM13.0057 4.59998H13.6148V7.66277H13.0057V4.59998ZM14.5244 6.94209C14.5286 7.20835 14.7518 7.31532 14.9919 7.31532C15.1677 7.31532 15.3909 7.24644 15.3909 7.03213C15.3909 6.84743 15.1377 6.78318 14.7002 6.68891C14.3486 6.61195 13.9969 6.48729 13.9969 6.09674C13.9969 5.53074 14.4859 5.38453 14.9619 5.38453C15.4467 5.38453 15.8926 5.54767 15.94 6.09251H15.3609C15.3436 5.85664 15.1635 5.792 14.945 5.792C14.8076 5.792 14.606 5.81778 14.606 5.99786C14.606 6.21679 14.9492 6.2468 15.2966 6.32799C15.6526 6.40918 16 6.53808 16 6.94978C16 7.5331 15.4936 7.72202 14.9877 7.72202C14.4728 7.72202 13.9711 7.52887 13.9453 6.94132H14.5244V6.94209ZM0 8.26417H0.609095V9.37963H0.61756C0.767621 9.15223 1.04235 9.04911 1.31669 9.04911C1.75841 9.04911 2.23476 9.40502 2.23476 10.2161C2.23476 11.0311 1.75841 11.387 1.31669 11.387C0.99079 11.387 0.720294 11.2885 0.587548 11.0438H0.579083V11.327H0V8.26417ZM1.10661 9.50814C0.746459 9.50814 0.587548 9.84713 0.587548 10.2204C0.587548 10.5894 0.746074 10.928 1.10661 10.928C1.46714 10.928 1.62566 10.5894 1.62566 10.2204C1.62566 9.84674 1.46714 9.50814 1.10661 9.50814ZM2.5522 9.79095C2.58644 9.22033 3.09703 9.04872 3.59455 9.04872C4.03665 9.04872 4.56841 9.14761 4.56841 9.67937V10.8333C4.56841 11.0349 4.58995 11.2365 4.64574 11.3266H4.0278C4.00625 11.2577 3.98932 11.185 3.98509 11.1123C3.79193 11.3139 3.50874 11.3866 3.23863 11.3866C2.81846 11.3866 2.48371 11.1761 2.48371 10.7217C2.48371 10.22 2.86117 10.0999 3.23863 10.0484C3.61186 9.99257 3.95931 10.0053 3.95931 9.7567C3.95931 9.49506 3.77924 9.45658 3.56453 9.45658C3.3329 9.45658 3.18284 9.55085 3.16129 9.79133H2.5522V9.79095ZM3.95931 10.2415C3.85619 10.3316 3.64187 10.3358 3.45333 10.3704C3.26441 10.4089 3.0928 10.4732 3.0928 10.6963C3.0928 10.9237 3.26864 10.9795 3.46603 10.9795C3.942 10.9795 3.95931 10.6021 3.95931 10.4689V10.2415ZM4.99743 9.10913H5.57651V9.41772H5.58921C5.7435 9.16916 6.00976 9.04872 6.26718 9.04872C6.91475 9.04872 7.07789 9.41349 7.07789 9.96256V11.3266H6.4688V10.0741C6.4688 9.70938 6.36145 9.5293 6.07825 9.5293C5.74812 9.5293 5.60652 9.71361 5.60652 10.1642V11.327H4.99743V9.10913ZM7.55386 8.26417H8.16295V9.90715L8.93096 9.10913H9.65164L8.81514 9.92408L9.74591 11.327H9.00791L8.39882 10.3362L8.16295 10.5632V11.3266H7.55386V8.26417ZM10.4193 10.3658C10.4366 10.7521 10.6251 10.9276 10.9641 10.9276C11.2084 10.9276 11.4058 10.7775 11.4447 10.6401H11.9807C11.8091 11.1634 11.4447 11.3866 10.9425 11.3866C10.2434 11.3866 9.81016 10.9064 9.81016 10.2196C9.81016 9.5547 10.2692 9.04872 10.9425 9.04872C11.6975 9.04872 12.0622 9.6836 12.0191 10.3654H10.4193V10.3658ZM11.41 9.97987C11.3543 9.6709 11.2211 9.50814 10.9252 9.50814C10.5393 9.50814 10.4277 9.80865 10.4189 9.97987H11.41ZM12.3366 9.10913H12.9157V9.41772H12.9287C13.083 9.16916 13.3489 9.04872 13.6063 9.04872C14.2543 9.04872 14.417 9.41349 14.417 9.96256V11.3266H13.808V10.0741C13.808 9.70938 13.7006 9.5293 13.4178 9.5293C13.0877 9.5293 12.9461 9.71361 12.9461 10.1642V11.327H12.337L12.3366 9.10913Z" fill="#1166B0"/>
</svg>
