<svg width="16" height="16" viewBox="0 0 16 16" fill="none" xmlns="http://www.w3.org/2000/svg">
<g clip-path="url(#clip0_1999_4678)">
<path d="M15.9992 8.32274C16.026 6.06913 15.0568 3.87962 13.7644 2.57897C12.9528 1.76394 12.2075 1.26291 11.1186 0.760264L11.0006 0.996782C11.5191 1.29943 11.9474 1.63453 12.4708 2.10837C13.8837 3.50882 14.8146 5.88373 14.8232 7.85417C14.8146 8.13044 14.8146 8.51991 14.7646 8.84892C14.4796 8.01847 13.9956 7.31419 13.3529 6.68172C13.1763 6.47888 12.9161 6.21842 12.7061 6.09469C12.6923 6.53405 12.5062 7.4996 12.2946 8.03024C12.562 8.27852 12.7106 8.44567 13 8.67326C13.5674 9.30005 13.9578 10.0782 13.9411 10.7248C13.9578 11.1001 13.7913 11.4892 13.4706 11.7796C13.1946 12.0827 12.5803 12.3046 11.9417 12.307C11.2403 12.3042 10.1592 11.9147 9.58932 11.4851C10.7364 10.3561 11.4263 9.11262 11.8831 7.55801C12.0398 6.88538 12.1334 6.2168 12.1179 5.56526C12.1334 4.34129 11.835 3.19116 11.2945 2.28404C10.4755 0.836128 9.20954 0.0202845 7.53086 0C5.57701 0.0182561 3.73348 0.9838 2.35602 2.40169C0.773402 3.97171 -0.00935705 5.92146 0.00366858 7.91137C-0.00886855 8.28411 0.010742 8.65722 0.062284 9.02661H0.29756C0.307329 8.40996 0.381819 7.85295 0.532835 7.15111C0.865803 5.92308 1.72265 4.54982 2.82616 3.45932C3.58531 2.69297 4.44215 2.13596 5.23753 1.8179C4.66481 2.48769 4.27404 3.24958 4.00213 4.10234C3.95776 4.36117 3.8845 4.7336 3.8845 4.98066C4.25573 4.77011 5.18706 4.43663 5.76629 4.33724C5.91324 3.49056 6.22992 2.54246 6.88365 1.93312C7.17917 1.5968 7.55121 1.39274 8.001 1.40572C8.72515 1.39152 9.28362 1.9108 9.64753 2.51772C9.99067 3.11773 10.2145 4.21188 10.1181 4.97945C9.37758 4.73951 8.60296 4.62072 7.82434 4.62771C7.10508 4.62081 6.35896 4.73238 5.53102 4.97945C4.25573 5.30724 3.06388 5.97582 2.17895 6.85617C1.29402 7.73652 0.58738 9.00227 0.591858 10.3147C0.58738 11.6567 1.27611 12.7894 2.17936 13.7156C3.71516 15.2394 5.89451 16.0195 8.06043 16C9.77005 16.0195 11.3144 15.4248 12.7061 14.4178L12.5885 14.2405C11.4873 14.8328 10.2527 15.1353 9.00154 15.1197C7.17957 15.1266 5.22369 14.57 3.8849 13.5375C4.25613 13.5854 4.61027 13.6227 4.94323 13.5951C5.59452 13.6227 6.73426 13.4555 7.29599 13.1277C6.9557 12.8989 6.21079 12.2494 5.82572 11.7792C5.26155 12.0084 4.57241 12.1748 3.94352 12.1886C3.38097 12.1748 2.74638 12.045 2.35602 11.6019C2.09283 11.3379 1.94492 10.981 1.94449 10.6088C1.94449 9.838 2.37433 9.18889 2.88518 8.67326C3.26863 8.26026 3.77133 7.90691 4.17879 7.7353C4.59032 9.30005 5.31854 10.5613 6.47212 11.7212C7.86871 13.086 9.71265 13.8661 11.3535 13.8912C12.562 13.8844 13.6049 13.531 14.4703 12.6588C15.4114 11.7127 16.026 10.0425 15.9992 8.32274ZM9.88321 7.03224C9.48837 8.24201 8.763 9.33656 7.88377 10.1966C7.03141 9.28017 6.45299 8.09353 6.17864 6.91702C6.6788 6.79521 7.19226 6.73606 7.70711 6.74095C8.44204 6.74611 9.17331 6.84468 9.88321 7.03427V7.03224Z" fill="#0573BA"/>
</g>
<defs>
<clipPath id="clip0_1999_4678">
<rect width="16" height="16" fill="white"/>
</clipPath>
</defs>
</svg>
