<svg width="16" height="16" viewBox="0 0 16 16" fill="none" xmlns="http://www.w3.org/2000/svg">
<path fill-rule="evenodd" clip-rule="evenodd" d="M15.8206 7.90322C15.9398 7.79032 16 7.64085 16 7.45268C16.001 7.38171 15.9871 7.31182 15.9602 7.24623C15.9334 7.18279 15.8958 7.12472 15.8496 7.07311C15.8013 7.01935 15.7443 6.97311 15.682 6.93655C15.6144 6.89677 15.5445 6.86451 15.4704 6.83978C15.3566 6.80107 15.2792 6.76666 15.2384 6.7344C15.1976 6.70214 15.1772 6.66343 15.1772 6.6172C15.1772 6.57096 15.1987 6.52795 15.2352 6.49999C15.2739 6.46773 15.3362 6.4516 15.4199 6.4516C15.4941 6.4516 15.5692 6.46343 15.6401 6.48816C15.7014 6.50859 15.7604 6.53548 15.8152 6.56881L15.8517 6.17849C15.8098 6.15053 15.7518 6.12365 15.6767 6.09999C15.6015 6.07633 15.5048 6.06451 15.3845 6.06451C15.2878 6.06343 15.1922 6.07849 15.102 6.10967C15.0247 6.13655 14.9549 6.17956 14.8947 6.2344C14.8388 6.28601 14.7948 6.34945 14.7658 6.42042C14.7357 6.49246 14.7207 6.56988 14.7207 6.6473C14.7196 6.77634 14.7658 6.90214 14.8496 6.99999C14.9366 7.10322 15.0633 7.18386 15.232 7.24193C15.3501 7.28386 15.4307 7.32365 15.4726 7.35913C15.5134 7.39354 15.537 7.44408 15.5359 7.49784C15.5381 7.55161 15.5123 7.60322 15.4672 7.6344C15.421 7.66773 15.3544 7.68386 15.2685 7.68386C15.0515 7.68386 14.8517 7.61075 14.667 7.46236L14.7089 7.90967C14.7841 7.96451 14.87 8.00537 14.9602 8.0301C15.0666 8.05913 15.1761 8.07311 15.2868 8.07204C15.5231 8.07204 15.7003 8.01612 15.8206 7.90322ZM9.14929 7.23237L9.89258 8.04849L10.1278 8.04742V6.11194H9.66272V6.83237C9.66272 6.95602 9.66487 7.07538 9.67131 7.18936L9.66487 7.19258C9.62083 7.13667 9.56927 7.0743 9.5102 7.00549C9.45112 6.93667 9.39849 6.87753 9.3523 6.82699L8.70461 6.11301H8.32974V8.02699H8.79483V7.21731V7.21727C8.79483 7.15814 8.79483 7.09257 8.79376 7.02269C8.79269 6.95172 8.79054 6.88291 8.78624 6.81516L8.79269 6.81194C8.84424 6.87645 8.90117 6.94527 8.96454 7.02054C9.02792 7.09581 9.08914 7.16678 9.14929 7.23237ZM6.86249 8.02799V6.11401H7.97741V6.49466H7.32758V6.8753H7.85819V7.2624H7.32758V7.64627H8.06227V8.02799H6.86249ZM7.78514 9.83661L7.27601 9.27747C7.2352 9.23339 7.19223 9.185 7.14819 9.13339L7.08373 9.0581L7.02575 8.99037L7.02252 8.99253C7.02467 9.04306 7.02575 9.09037 7.02575 9.13661V9.81403H6.85818V8.72263H6.97204L7.43928 9.23554C7.45539 9.25274 7.47258 9.27209 7.49191 9.29468C7.50158 9.30597 7.51151 9.31726 7.52145 9.32855L7.52147 9.32857L7.52147 9.32858L7.52148 9.32858L7.52148 9.32858L7.52149 9.32859L7.52149 9.32859L7.52149 9.32859L7.5215 9.3286L7.5215 9.3286L7.5215 9.32861L7.52151 9.32861L7.52151 9.32861L7.52151 9.32862C7.53143 9.33988 7.54134 9.35115 7.55099 9.36242C7.56065 9.37371 7.57086 9.38527 7.58106 9.39683C7.59127 9.40839 7.60147 9.41994 7.61114 9.43123C7.63154 9.45489 7.6498 9.4764 7.66699 9.49683L7.67021 9.49468C7.66806 9.45274 7.66699 9.40973 7.66699 9.36457V8.72156H7.83455V9.83661H7.78514ZM8.05585 9.81298V8.72266H8.64554V8.86459H8.22341V9.19362H8.5768V9.33556H8.22341V9.67104H8.70462V9.81298H8.05585ZM9.26528 9.81406V8.86459H9.61544V8.72266H8.74756V8.86459H9.09772V9.81406H9.26528ZM10.4103 9.62911C10.3909 9.66889 10.3619 9.70438 10.3276 9.73234C10.2932 9.75922 10.2545 9.78072 10.2126 9.79255C10.1718 9.80545 10.1289 9.81191 10.0859 9.81191H9.73145V8.72266H10.0354C10.073 8.72266 10.1095 8.72911 10.145 8.74094C10.1804 8.75276 10.2137 8.76997 10.2427 8.79362C10.2728 8.81836 10.2964 8.84846 10.3136 8.88287C10.3329 8.92158 10.3415 8.96459 10.3405 9.00868C10.3405 9.04846 10.3319 9.08825 10.3136 9.12373C10.2996 9.15707 10.2728 9.18502 10.2395 9.20008C10.2663 9.2076 10.2911 9.21943 10.3136 9.23556C10.3383 9.25276 10.3598 9.27427 10.3781 9.299C10.3974 9.32481 10.4124 9.35276 10.4232 9.38287C10.435 9.41513 10.4404 9.44846 10.4404 9.4818C10.4425 9.53234 10.4328 9.58287 10.4103 9.62911ZM10.1267 8.89685C10.0923 8.87319 10.0515 8.86137 10.0107 8.86244H9.89793V9.14954H10.0107C10.0515 9.15061 10.0923 9.13879 10.1267 9.11621C10.16 9.09362 10.1761 9.05814 10.1761 9.0076C10.1761 8.95599 10.1589 8.91943 10.1267 8.89685ZM10.2556 9.39685C10.2438 9.37319 10.2266 9.35276 10.2062 9.33664C10.1847 9.32051 10.1611 9.30868 10.1353 9.30115C10.1085 9.29362 10.0805 9.28932 10.0526 9.28932H9.89686V9.67212H10.0526C10.0805 9.67212 10.1085 9.66889 10.1353 9.66137C10.1611 9.65492 10.1847 9.64309 10.2062 9.62696C10.2266 9.61083 10.2438 9.5904 10.2556 9.56674C10.2685 9.53986 10.2749 9.51083 10.2749 9.48072C10.276 9.45277 10.2696 9.42266 10.2556 9.39685ZM10.623 8.72266V9.81298H11.2717V9.67104H10.7905V9.33556H11.1439V9.19362H10.7905V8.86459H11.2126V8.72266H10.623ZM12.1428 9.81298V9.33556H11.5843V9.81298H11.4178V8.72266H11.5853V9.19362H12.1439V8.72266H12.3114V9.81298H12.1428ZM12.5327 8.72266V9.81298H13.1815V9.67104H12.7003V9.33556H13.0537V9.19362H12.7003V8.86459H13.1224V8.72266H12.5327ZM13.3265 9.81298V8.72266H13.9162V8.86459H13.4941V9.19362H13.8474V9.33556H13.4941V9.67104H13.9753V9.81298H13.3265ZM14.436 9.33448L14.7797 9.81298V9.81513H14.9731L14.6004 9.31083C14.653 9.28932 14.7003 9.25384 14.7357 9.20868C14.7733 9.16244 14.7916 9.1033 14.7916 9.03018C14.7937 8.93986 14.755 8.85491 14.6852 8.799C14.6541 8.77319 14.6186 8.75384 14.58 8.74201C14.5424 8.72911 14.5037 8.72266 14.464 8.72266H14.1192V9.81298H14.2824V9.33448H14.436ZM14.5671 8.9033C14.5843 8.91728 14.5993 8.93448 14.609 8.95491C14.6197 8.97749 14.6251 9.00223 14.624 9.02696C14.6251 9.05276 14.6197 9.0775 14.609 9.10115C14.5993 9.12158 14.5853 9.13986 14.5671 9.15384C14.5499 9.16782 14.5284 9.17857 14.5069 9.18395C14.4844 9.1904 14.4607 9.19362 14.4371 9.19362H14.2846V8.86137H14.4371C14.4607 8.86137 14.4844 8.86459 14.5069 8.87212C14.5284 8.87857 14.5488 8.88932 14.5671 8.9033ZM10.5005 8.02799V6.11401H11.6154V6.49466H10.9656V6.8753H11.4962V7.2624H10.9656V7.64627H11.7003V8.02799H10.5005ZM12.827 7.61401L13.0816 8.02799H13.5918L12.9806 7.04412L13.5617 6.11401H13.0795L12.8399 6.50111C12.8217 6.52907 12.8034 6.55918 12.7841 6.59358C12.7647 6.62799 12.7476 6.66025 12.7314 6.69251H12.725C12.711 6.66025 12.6949 6.62799 12.6756 6.59358C12.6563 6.56025 12.638 6.52907 12.6197 6.50111L12.3802 6.11401H11.8711L12.4554 7.05595L11.841 8.02799H12.3233L12.5843 7.61401C12.6047 7.58176 12.6262 7.54735 12.6477 7.51079C12.6691 7.47423 12.6885 7.43875 12.7046 7.40434H12.711C12.7282 7.43767 12.7476 7.47423 12.769 7.51186C12.7894 7.5495 12.8088 7.58391 12.827 7.61401ZM13.8753 8.02799V6.11401H14.3394V8.02799H13.8753Z" fill="#635D63"/>
<path fill-rule="evenodd" clip-rule="evenodd" d="M2.99999 5L0 7.99999L2.99999 11L6 7.99997L2.99999 5Z" fill="#BDDB00"/>
<path fill-rule="evenodd" clip-rule="evenodd" d="M0 7.99999L2.99999 5L3.66772 5.66774L3.67053 6.60212H2.31181V7.52685H3.67331L3.67609 8.45161H2.31181V9.37634H3.67887L3.6817 10.3183L2.99999 11L0 7.99999Z" fill="#DF0073"/>
</svg>
