<svg width="16" height="16" viewBox="0 0 16 16" fill="none" xmlns="http://www.w3.org/2000/svg">
<path d="M0 8C0 3.58172 3.58172 0 8 0C12.4183 0 16 3.58172 16 8C16 12.4183 12.4183 16 8 16C3.58172 16 0 12.4183 0 8Z" fill="#363636"/>
<path fill-rule="evenodd" clip-rule="evenodd" d="M11.1254 5.17921C11.4699 5.27799 11.7405 5.56797 11.8327 5.93697C11.9993 6.60513 12 8 12 8C12 8 12 9.39488 11.8327 10.063C11.7405 10.432 11.4699 10.722 11.1254 10.8208C10.5018 11 7.99999 11 7.99999 11C7.99999 11 5.49819 11 4.87455 10.8208C4.53013 10.722 4.25947 10.432 4.16727 10.063C4 9.39488 4 8 4 8C4 8 4 6.60513 4.16727 5.93697C4.25947 5.56797 4.53013 5.27799 4.87455 5.17921C5.49819 5 7.99999 5 7.99999 5C7.99999 5 10.5018 5 11.1254 5.17921ZM9.27761 8.00015L7.19925 9.28565V6.71463L9.27761 8.00015Z" fill="white"/>
</svg>
