<svg width="16" height="16" viewBox="0 0 16 16" fill="none" xmlns="http://www.w3.org/2000/svg">
<path d="M15.9951 10.4977H14.7907C14.7464 10.2851 14.6992 10.0785 14.6608 9.86888C14.6461 9.78327 14.6165 9.74785 14.5221 9.7508C14.038 9.7567 13.5568 9.7567 13.0726 9.7508C12.9988 9.7508 12.9693 9.77442 12.9487 9.84231C12.8837 10.0401 12.8099 10.2379 12.7361 10.4357C12.7273 10.4622 12.6918 10.4977 12.6712 10.4977C12.2343 10.5006 11.8003 10.5006 11.3516 10.5006C11.4343 10.3028 11.511 10.1169 11.5878 9.92792C12.1487 8.5877 12.7095 7.25043 13.2704 5.91021C13.3915 5.62091 13.5745 5.49988 13.8874 5.49988H14.9442C14.9796 5.66224 15.0151 5.8246 15.0475 5.98401C15.325 7.30652 15.5996 8.63198 15.8771 9.95449C15.9125 10.1228 15.9538 10.291 15.9922 10.4622C15.9951 10.474 15.9951 10.4859 15.9951 10.4977ZM14.4188 8.72054C14.2918 8.10652 14.1649 7.4984 14.038 6.89028C14.032 6.89028 14.0261 6.88733 14.0232 6.88733C13.8018 7.49545 13.5804 8.10357 13.359 8.72054H14.4188Z" fill="url(#paint0_linear_1999_4680)"/>
<path d="M10.7485 5.41003C10.9079 5.43955 11.0673 5.46317 11.2237 5.4986C11.3684 5.53107 11.5071 5.5783 11.6606 5.62258C11.5839 5.98273 11.5101 6.33402 11.4363 6.67645C11.2355 6.61741 11.0437 6.54952 10.8459 6.50524C10.5743 6.4462 10.2968 6.42258 10.0282 6.49933C9.91894 6.52885 9.80676 6.58789 9.72115 6.66169C9.57355 6.78863 9.5706 6.97166 9.7123 7.10745C9.80971 7.19896 9.92484 7.27572 10.0429 7.34657C10.3057 7.50598 10.5831 7.64177 10.84 7.81299C11.1411 8.01372 11.3625 8.28531 11.4068 8.65727C11.4894 9.31262 11.2474 9.82922 10.6953 10.1953C10.3499 10.4255 9.95731 10.5259 9.54993 10.5643C8.98019 10.6174 8.42226 10.5525 7.87613 10.3753C7.84071 10.3635 7.80528 10.3488 7.76986 10.334C7.75805 10.3311 7.7492 10.3222 7.73444 10.3104C7.81119 9.95026 7.88794 9.59011 7.96765 9.21815C8.05916 9.25948 8.14772 9.30081 8.23628 9.33623C8.66137 9.50745 9.10123 9.58716 9.55584 9.50155C9.67392 9.47793 9.79495 9.42775 9.89532 9.35985C10.1138 9.2152 10.1344 8.94066 9.93665 8.76649C9.80676 8.65431 9.6503 8.57166 9.49975 8.48014C9.26654 8.33845 9.02152 8.21741 8.80012 8.06096C8.51968 7.85727 8.31599 7.58863 8.27466 7.22848C8.21562 6.69121 8.41636 6.25431 8.82964 5.91483C9.18979 5.61963 9.61488 5.48679 10.0695 5.43365C10.0961 5.4307 10.1197 5.42184 10.1433 5.41594H10.7485V5.41003Z" fill="url(#paint1_linear_1999_4680)"/>
<path d="M6.07239 5.5031C6.00449 5.66546 5.93954 5.82192 5.8746 5.97543C5.25467 7.45439 4.63475 8.93336 4.01777 10.4123C3.98825 10.4832 3.95283 10.5009 3.88198 10.5009C3.49231 10.4979 3.09969 10.4979 2.70707 10.5009C2.62442 10.5009 2.59785 10.4743 2.57718 10.3976C2.24656 9.10753 1.90707 7.81749 1.5794 6.52451C1.52036 6.28834 1.39932 6.12598 1.17202 6.02561C0.808917 5.8662 0.434009 5.75403 0.0502455 5.66251C0.0325334 5.65956 0.0148212 5.65366 6.10352e-05 5.6507C0.00301306 5.50015 0.00301306 5.50015 0.14471 5.50015H2.19932C2.52405 5.50015 2.75726 5.68908 2.81925 6.01085C2.99342 6.92008 3.16168 7.83225 3.33585 8.74148C3.34176 8.78281 3.35061 8.82118 3.36242 8.87727C3.38013 8.8448 3.39194 8.82414 3.4008 8.80347C3.82589 7.72893 4.25098 6.65144 4.67312 5.5769C4.69674 5.51786 4.72626 5.4972 4.78825 5.50015C5.18383 5.5031 5.58235 5.50015 5.98087 5.5031C6.01039 5.50015 6.03401 5.5031 6.07239 5.5031Z" fill="url(#paint2_linear_1999_4680)"/>
<path d="M5.55084 10.4986C5.90804 8.82777 6.26228 7.16873 6.61948 5.50378H7.91542C7.86228 5.75766 7.80915 6.00563 7.75601 6.2536C7.46081 7.62925 7.1656 9.00194 6.8763 10.3776C6.85564 10.472 6.82317 10.5045 6.7228 10.5016C6.36855 10.4957 6.01136 10.4986 5.65712 10.4986H5.55084Z" fill="url(#paint3_linear_1999_4680)"/>
<defs>
<linearGradient id="paint0_linear_1999_4680" x1="0.893979" y1="8.09061" x2="15.9122" y2="7.99181" gradientUnits="userSpaceOnUse">
<stop stop-color="#262860"/>
<stop offset="1" stop-color="#3D429B"/>
</linearGradient>
<linearGradient id="paint1_linear_1999_4680" x1="0.892723" y1="8.0521" x2="15.911" y2="7.9533" gradientUnits="userSpaceOnUse">
<stop stop-color="#262860"/>
<stop offset="1" stop-color="#3D429B"/>
</linearGradient>
<linearGradient id="paint2_linear_1999_4680" x1="0.898275" y1="8.00825" x2="15.9166" y2="7.90945" gradientUnits="userSpaceOnUse">
<stop stop-color="#262860"/>
<stop offset="1" stop-color="#3D429B"/>
</linearGradient>
<linearGradient id="paint3_linear_1999_4680" x1="0.896495" y1="8.03984" x2="15.9148" y2="7.94104" gradientUnits="userSpaceOnUse">
<stop stop-color="#262860"/>
<stop offset="1" stop-color="#3D429B"/>
</linearGradient>
</defs>
</svg>
