<svg width="16" height="16" viewBox="0 0 16 16" fill="none" xmlns="http://www.w3.org/2000/svg">
<path d="M0 8C0 3.58172 3.58172 0 8 0C12.4183 0 16 3.58172 16 8C16 12.4183 12.4183 16 8 16C3.58172 16 0 12.4183 0 8Z" fill="#363636"/>
<path fill-rule="evenodd" clip-rule="evenodd" d="M8.74264 6.745C8.74264 7.84957 7.84721 8.745 6.74264 8.745C5.63807 8.745 4.74264 7.84957 4.74264 6.745C4.74264 5.64043 5.63807 4.745 6.74264 4.745C7.84721 4.745 8.74264 5.64043 8.74264 6.745ZM8.67909 9.03641C8.15652 9.47847 7.48071 9.745 6.74264 9.745C5.08579 9.745 3.74264 8.40186 3.74264 6.745C3.74264 5.08815 5.08579 3.745 6.74264 3.745C8.39949 3.745 9.74264 5.08815 9.74264 6.745C9.74264 7.48379 9.47559 8.1602 9.03276 8.68298L9.12302 8.77324L9.12303 8.77322L9.47728 8.77253L11.7418 11.0371L11.0347 11.7442L8.77017 9.47964L8.76948 9.1268L8.67909 9.03641Z" fill="white"/>
</svg>
