<svg width="17" height="16" viewBox="0 0 17 16" fill="none" xmlns="http://www.w3.org/2000/svg">
<path fill-rule="evenodd" clip-rule="evenodd" d="M10.9953 6C10.9953 8.20914 9.20443 10 6.99529 10C4.78615 10 2.99529 8.20914 2.99529 6C2.99529 3.79086 4.78615 2 6.99529 2C9.20443 2 10.9953 3.79086 10.9953 6ZM10.8682 10.5828C9.82305 11.4669 8.47142 12 6.99529 12C3.68158 12 0.995291 9.31371 0.995291 6C0.995291 2.68629 3.68158 2.89665e-07 6.99529 2.89665e-07C10.309 3.73959e-07 12.9953 2.68629 12.9953 6C12.9953 7.47757 12.4612 8.8304 11.5755 9.87595L11.756 10.0565L12.4646 10.0551L16.9937 14.5842L15.5795 15.9984L11.0504 11.4693L11.049 10.7636L10.8682 10.5828Z" fill="#363636"/>
</svg>
