<svg width="16" height="16" viewBox="0 0 16 16" fill="none" xmlns="http://www.w3.org/2000/svg">
<path fill-rule="evenodd" clip-rule="evenodd" d="M5.99529 10C8.20443 10 9.99529 8.20914 9.99529 6C9.99529 3.79086 8.20443 2 5.99529 2C3.78615 2 1.99529 3.79086 1.99529 6C1.99529 8.20914 3.78615 10 5.99529 10ZM5.99529 12C7.47142 12 8.82306 11.4669 9.86819 10.5828L10.049 10.7636L10.0504 11.4693L14.5795 15.9984L16 14.5842L11.4646 10.0551L10.756 10.0565L10.5755 9.87595C11.4612 8.8304 11.9953 7.47757 11.9953 6C11.9953 2.68629 9.309 0 5.99529 0C2.76193 0 0.125933 2.5576 0 5.76009V6.23991C0.125933 9.4424 2.76193 12 5.99529 12Z" fill="#363636"/>
</svg>
