<svg width="16" height="16" viewBox="0 0 16 16" fill="none" xmlns="http://www.w3.org/2000/svg">
<path d="M0 8C0 3.58172 3.58172 0 8 0C12.4183 0 16 3.58172 16 8C16 12.4183 12.4183 16 8 16C3.58172 16 0 12.4183 0 8Z" fill="#363636"/>
<path fill-rule="evenodd" clip-rule="evenodd" d="M11 7C11 9.5 8 12 8 12C8 12 5 9.5 5 7C5 5.34315 6.34315 4 8 4C9.65685 4 11 5.34315 11 7ZM6.5 7C6.5 6.17157 7.17157 5.5 8 5.5C8.82843 5.5 9.5 6.17157 9.5 7C9.5 7.82843 8.82843 8.5 8 8.5C7.17157 8.5 6.5 7.82843 6.5 7Z" fill="white"/>
</svg>
