<svg width="16" height="16" viewBox="0 0 16 16" fill="none" xmlns="http://www.w3.org/2000/svg">
<path fill-rule="evenodd" clip-rule="evenodd" d="M14.3333 0C15.2538 0 16 0.746192 16 1.66667V14.3333C16 15.2538 15.2538 16 14.3333 16H1.66667C0.746192 16 0 15.2538 0 14.3333V1.66667C0 0.746192 0.746192 0 1.66667 0H14.3333ZM12.5 12H3.5C3.22386 12 3 12.2239 3 12.5C3 12.7454 3.17688 12.9496 3.41013 12.9919L3.5 13H12.5C12.7761 13 13 12.7761 13 12.5C13 12.2239 12.7761 12 12.5 12ZM15 4H11V9H15V4ZM10 4H6V9H10V4ZM5 4H1V9H5V4ZM13.1641 5.18099L13.7617 5.36849C13.6667 5.41927 13.5742 5.47526 13.4844 5.53646C13.3958 5.59635 13.3112 5.66211 13.2305 5.73372C13.151 5.80534 13.0775 5.88281 13.0098 5.96615C12.9434 6.04948 12.8848 6.13997 12.834 6.23763C12.8796 6.21289 12.9284 6.19596 12.9805 6.18685C13.0326 6.17773 13.0846 6.17318 13.1367 6.17318C13.2174 6.17318 13.2943 6.1849 13.3672 6.20833C13.4414 6.23047 13.5091 6.26302 13.5703 6.30599C13.6328 6.34766 13.6888 6.39779 13.7383 6.45638C13.7878 6.51497 13.8294 6.58008 13.8633 6.65169C13.9102 6.75456 13.9336 6.8737 13.9336 7.00911C13.9336 7.14453 13.9089 7.26693 13.8594 7.3763C13.8112 7.48438 13.7448 7.57682 13.6602 7.65365C13.5768 7.72917 13.4785 7.78776 13.3652 7.82943C13.2533 7.86979 13.1335 7.88997 13.0059 7.88997C12.8626 7.88997 12.7337 7.86523 12.6191 7.81576C12.5059 7.76628 12.4095 7.69857 12.3301 7.61263C12.252 7.52539 12.1914 7.42318 12.1484 7.30599C12.1068 7.1875 12.0859 7.06055 12.0859 6.92513C12.0859 6.74805 12.1139 6.57422 12.1699 6.40365C12.2272 6.23307 12.3047 6.07227 12.4023 5.92122C12.5 5.77018 12.6139 5.63151 12.7441 5.50521C12.8757 5.37891 13.0156 5.27083 13.1641 5.18099ZM3.41016 5.23763V7.83333H2.83398V5.79427L2.40625 5.83333L2.51953 5.31771L3.41016 5.23763ZM8.41016 5.23763V7.83333H7.83398V5.79427L7.40625 5.83333L7.51953 5.31771L8.41016 5.23763ZM13.0176 6.66927C12.9316 6.66927 12.8555 6.6901 12.7891 6.73177C12.7227 6.77344 12.6771 6.83659 12.6523 6.92122V7.00521C12.6523 7.05729 12.6615 7.10807 12.6797 7.15755C12.6992 7.20573 12.7259 7.2487 12.7598 7.28646C12.7936 7.32292 12.8333 7.35286 12.8789 7.3763C12.9258 7.39844 12.9759 7.40951 13.0293 7.40951C13.0801 7.40951 13.127 7.39974 13.1699 7.38021C13.2129 7.35938 13.2493 7.33203 13.2793 7.29818C13.3105 7.26432 13.3346 7.22526 13.3516 7.18099C13.3685 7.13542 13.377 7.08854 13.377 7.04036C13.377 6.98698 13.3678 6.93815 13.3496 6.89388C13.3327 6.84831 13.3079 6.80924 13.2754 6.77669C13.2441 6.74284 13.2064 6.7168 13.1621 6.69857C13.1191 6.67904 13.071 6.66927 13.0176 6.66927Z" fill="#363636"/>
</svg>
