<svg width="16" height="16" viewBox="0 0 16 16" fill="none" xmlns="http://www.w3.org/2000/svg">
<path d="M0 8C0 3.58172 3.58172 0 8 0C12.4183 0 16 3.58172 16 8C16 12.4183 12.4183 16 8 16C3.58172 16 0 12.4183 0 8Z" fill="#363636"/>
<path fill-rule="evenodd" clip-rule="evenodd" d="M4 4.83333C4 4.3731 4.3731 4 4.83333 4H11.1667C11.6269 4 12 4.3731 12 4.83333V11.1667C12 11.6269 11.6269 12 11.1667 12H4.83333C4.3731 12 4 11.6269 4 11.1667V4.83333ZM11.5 8.5V6H9.5V8.5H11.5ZM9 8.5H7V6H9V8.5ZM6.5 8.5V6H4.5V8.5H6.5ZM5.5 10.25C5.5 10.1119 5.61193 10 5.75 10H10.25C10.3881 10 10.5 10.1119 10.5 10.25C10.5 10.3881 10.3881 10.5 10.25 10.5H5.75C5.61193 10.5 5.5 10.3881 5.5 10.25ZM10.9668 7.50456C10.9668 7.57227 10.9544 7.63346 10.9297 7.68815C10.9056 7.74219 10.8724 7.78841 10.8301 7.82682C10.7884 7.86458 10.7393 7.89388 10.6826 7.91471C10.6266 7.9349 10.5667 7.94499 10.5029 7.94499C10.4313 7.94499 10.3669 7.93262 10.3096 7.90788C10.2529 7.88314 10.2048 7.84928 10.165 7.80632C10.126 7.7627 10.0957 7.71159 10.0742 7.65299C10.0534 7.59375 10.043 7.53027 10.043 7.46257C10.043 7.37402 10.057 7.28711 10.085 7.20182C10.1136 7.11654 10.1523 7.03613 10.2012 6.96061C10.25 6.88509 10.307 6.81576 10.3721 6.7526C10.4378 6.68945 10.5078 6.63542 10.582 6.59049L10.8809 6.68424C10.8333 6.70964 10.7871 6.73763 10.7422 6.76823C10.6979 6.79818 10.6556 6.83105 10.6152 6.86686C10.5755 6.90267 10.5387 6.94141 10.5049 6.98307C10.4717 7.02474 10.4424 7.06999 10.417 7.11882C10.4398 7.10645 10.4642 7.09798 10.4902 7.09342C10.5163 7.08887 10.5423 7.08659 10.5684 7.08659C10.6087 7.08659 10.6471 7.09245 10.6836 7.10417C10.7207 7.11523 10.7546 7.13151 10.7852 7.15299C10.8164 7.17383 10.8444 7.19889 10.8691 7.22819C10.8939 7.25749 10.9147 7.29004 10.9316 7.32585C10.9551 7.37728 10.9668 7.43685 10.9668 7.50456ZM10.6885 7.52018C10.6885 7.49349 10.6839 7.46908 10.6748 7.44694C10.6663 7.42415 10.654 7.40462 10.6377 7.38835C10.6221 7.37142 10.6032 7.3584 10.5811 7.34928C10.5596 7.33952 10.5355 7.33464 10.5088 7.33464C10.4658 7.33464 10.4277 7.34505 10.3945 7.36589C10.3613 7.38672 10.3385 7.41829 10.3262 7.46061V7.5026C10.3262 7.52865 10.3307 7.55404 10.3398 7.57878C10.3496 7.60286 10.363 7.62435 10.3799 7.64323C10.3968 7.66146 10.4167 7.67643 10.4395 7.68815C10.4629 7.69922 10.488 7.70475 10.5146 7.70475C10.54 7.70475 10.5635 7.69987 10.585 7.6901C10.6064 7.67969 10.6247 7.66602 10.6396 7.64909C10.6553 7.63216 10.6673 7.61263 10.6758 7.59049C10.6842 7.56771 10.6885 7.54427 10.6885 7.52018ZM5.41699 6.89714V7.91667H5.70508V6.61882L5.25977 6.65885L5.20312 6.91667L5.41699 6.89714ZM7.91699 6.89714V7.91667H8.20508V6.61882L7.75977 6.65885L7.70312 6.91667L7.91699 6.89714Z" fill="white"/>
</svg>
