<svg width="16" height="16" viewBox="0 0 16 16" fill="none" xmlns="http://www.w3.org/2000/svg">
<path fill-rule="evenodd" clip-rule="evenodd" d="M10.008 0H13.3296V7.50438H10.008V0ZM12.5005 4.70094C12.541 4.70094 12.577 4.61534 12.577 4.50704L12.5948 3.13677C12.5948 3.0288 12.5588 2.94319 12.5183 2.94319H12.0229V2.19483H11.3961V2.94319H10.8821C10.8374 2.94319 10.8056 3.0288 10.8056 3.13677V4.50704C10.8056 4.61534 10.8374 4.70094 10.8821 4.70094H12.5005ZM12.8569 13.6972L12.2574 16H3.51828L3.05849 13.6972H12.8569ZM13.1988 10.47H2.67047V13.0341H13.1988V10.47ZM3.05849 9.85261V0.0904933H9.35052V8.15777H12.8569V9.85261H3.05849ZM3.88338 4.64649C3.88338 5.03008 4.19433 5.34071 4.57759 5.34071C4.96085 5.34071 5.27148 5.03008 5.27181 4.64649C5.27181 4.26291 4.96085 3.95228 4.57759 3.95228C4.19401 3.95228 3.88338 4.26323 3.88338 4.64649ZM8.44878 3.02882C8.56584 3.02882 8.66052 2.93382 8.66052 2.81677H8.66084V1.30285C8.66084 1.18548 8.56616 1.0908 8.44911 1.0908H4.09965H4.09511C3.97806 1.0908 3.88338 1.1858 3.88338 1.30285V2.81709V2.82163C3.88565 2.93836 3.9826 3.03109 4.09965 3.02882H8.44878Z" fill="#156EC7"/>
</svg>
