<svg width="16" height="16" viewBox="0 0 16 16" fill="none" xmlns="http://www.w3.org/2000/svg">
<path fill-rule="evenodd" clip-rule="evenodd" d="M6 12C6.34095 12 6.67526 11.9716 7.00068 11.9169C7.01646 10.9479 7.30789 10.046 7.79996 9.28603C7.41941 9.33848 7.03538 9.36573 6.6504 9.36752C5.83691 9.42206 5.03193 9.17678 4.39753 8.68105C4.01412 8.3401 3.74169 7.8986 3.61305 7.41049H2.60091C2.54983 7.41292 2.50695 7.37514 2.50442 7.32609C2.50411 7.32365 2.50411 7.3203 2.50442 7.31786C2.50442 7.28948 2.556 6.90533 2.58357 6.69995L2.58358 6.69993L2.58767 6.66948V6.56801C2.58767 6.51865 2.62866 6.47904 2.67974 6.47904H2.68415H3.46864C3.47273 6.24566 3.47273 6.08936 3.47273 5.95378V5.95376V5.48819H2.59618H2.57001C2.52933 5.48148 2.49938 5.44766 2.50001 5.40744C2.50001 5.36936 2.59618 4.6576 2.59618 4.6576C2.59618 4.6576 2.63559 4.56497 2.69266 4.56497H3.62156C3.73129 4.16217 3.93371 3.78862 4.21339 3.47204C4.68257 2.95955 5.43615 2.625 6.65892 2.625C7.21827 2.63597 7.7729 2.73042 8.3023 2.9044C8.34708 2.92025 8.38239 2.95437 8.39879 2.99764C8.39879 2.99764 8.43378 3.27734 8.46437 3.49307C8.46437 3.58981 8.48097 3.67283 8.48971 3.71654L8.48971 3.71655L8.48971 3.71656L8.48972 3.71657C8.49284 3.73218 8.49496 3.74277 8.49496 3.74718C8.49748 3.79654 8.45838 3.83767 8.40761 3.84041H8.39879C8.38903 3.84041 8.34009 3.82897 8.26288 3.81093C8.13039 3.77996 7.9147 3.72954 7.67106 3.68411C7.33872 3.61068 6.99945 3.56954 6.6586 3.56101C6.49527 3.5604 6.33226 3.57594 6.17208 3.60763C5.60768 3.703 5.13377 4.07289 4.91874 4.58569H7.33368C7.38444 4.58325 7.42764 4.62134 7.43016 4.67039V4.67893C7.43016 4.71701 7.33368 5.42847 7.33368 5.42847C7.33368 5.42847 7.29426 5.52201 7.23719 5.52201H4.6955C4.6873 5.6771 4.6873 5.83218 4.6955 5.98758C4.68698 6.14388 4.68698 6.3011 4.6955 6.45741H7.32516C7.37341 6.45284 7.41629 6.48666 7.42133 6.53358V6.53359C7.42165 6.53786 7.42196 6.54212 7.42165 6.54699C7.42165 6.58508 7.32516 7.29653 7.32516 7.29653C7.32516 7.29653 7.28575 7.39007 7.22868 7.39007H4.92347C5.15143 7.95101 5.68746 8.33888 6.30861 8.39342C6.42622 8.40927 6.54478 8.41749 6.66365 8.41902C6.97612 8.41231 7.28796 8.38672 7.59727 8.34284C7.79384 8.31391 7.97016 8.28515 8.09824 8.26425L8.09841 8.26422L8.09861 8.26419L8.09867 8.26418L8.09874 8.26417C8.21589 8.24506 8.29259 8.23254 8.30735 8.23254C8.35969 8.23468 8.40162 8.2752 8.40352 8.32548C8.40352 8.32548 8.41353 8.40054 8.42672 8.50262C9.31637 7.59378 10.55 7.02294 11.9169 7.00068C11.9716 6.67526 12 6.34095 12 6C12 2.68629 9.31371 0 6 0C2.68629 0 0 2.68629 0 6C0 9.31371 2.68629 12 6 12ZM16 12C16 14.2091 14.2091 16 12 16C9.79086 16 8 14.2091 8 12C8 9.79086 9.79086 8 12 8C14.2091 8 16 9.79086 16 12ZM10.3152 11.9692V11.6588H9.73079H9.71334C9.68622 11.6543 9.66625 11.6318 9.66667 11.605C9.66667 11.5796 9.73079 11.1051 9.73079 11.1051C9.73079 11.1051 9.75706 11.0433 9.79511 11.0433H10.4144C10.4875 10.7748 10.6225 10.5257 10.8089 10.3147C11.1217 9.97303 11.6241 9.75 12.4393 9.75C12.8122 9.75731 13.1819 9.82028 13.5349 9.93627C13.5647 9.94683 13.5883 9.96958 13.5992 9.99843C13.5992 9.99843 13.6225 10.1849 13.6429 10.3287C13.6429 10.3932 13.654 10.4486 13.6598 10.4777C13.6619 10.4881 13.6633 10.4952 13.6633 10.4981C13.665 10.531 13.6389 10.5584 13.6051 10.5603H13.5992C13.5927 10.5603 13.5601 10.5526 13.5086 10.5406C13.4203 10.52 13.2765 10.4864 13.114 10.4561C12.8925 10.4071 12.6663 10.3797 12.4391 10.374C12.3302 10.3736 12.2215 10.384 12.1147 10.4051C11.7385 10.4687 11.4225 10.7153 11.2792 11.0571H12.8891C12.923 11.0555 12.9518 11.0809 12.9534 11.1136V11.1193C12.9534 11.1447 12.8891 11.619 12.8891 11.619C12.8891 11.619 12.8628 11.6813 12.8248 11.6813H11.1303C11.1249 11.7847 11.1249 11.8881 11.1303 11.9917C11.1247 12.0959 11.1247 12.2007 11.1303 12.3049H12.8834C12.9156 12.3019 12.9442 12.3244 12.9476 12.3557C12.9477 12.3578 12.9479 12.3598 12.9479 12.3621C12.9478 12.3629 12.9478 12.3638 12.9478 12.3647C12.9478 12.3901 12.8834 12.8644 12.8834 12.8644C12.8834 12.8644 12.8572 12.9267 12.8191 12.9267H11.2823C11.4343 13.3007 11.7916 13.5593 12.2057 13.5956C12.2841 13.6062 12.3632 13.6117 12.4424 13.6127C12.6507 13.6082 12.8586 13.5911 13.0649 13.5619C13.196 13.5426 13.3137 13.5234 13.3991 13.5095L13.3992 13.5094C13.4773 13.4967 13.5284 13.4884 13.5382 13.4884C13.5731 13.4898 13.6011 13.5168 13.6023 13.5503C13.6023 13.5503 13.6171 13.6606 13.6316 13.7764C13.6365 13.8158 13.6422 13.8586 13.6475 13.8987L13.6475 13.8993C13.6578 13.9766 13.6667 14.0439 13.6667 14.0587C13.6637 14.0919 13.6366 14.1181 13.6023 14.1207C13.2183 14.2015 12.8267 14.2432 12.4336 14.245C11.8913 14.2814 11.3546 14.1179 10.9317 13.7874C10.6761 13.5601 10.4945 13.2657 10.4087 12.9403H9.73394C9.69989 12.9419 9.6713 12.9168 9.66962 12.8841C9.66941 12.8824 9.66941 12.8802 9.66962 12.8786C9.66962 12.8597 9.704 12.6035 9.72238 12.4666L9.72511 12.4463V12.3787C9.72511 12.3458 9.75244 12.3194 9.78649 12.3194H9.78943H10.3124C10.3152 12.1638 10.3152 12.0596 10.3152 11.9692V11.9692Z" fill="#363636"/>
</svg>
