<svg width="16" height="16" viewBox="0 0 16 16" fill="none" xmlns="http://www.w3.org/2000/svg">
<path d="M0 8C0 3.58172 3.58172 0 8 0C12.4183 0 16 3.58172 16 8C16 12.4183 12.4183 16 8 16C3.58172 16 0 12.4183 0 8Z" fill="#363636"/>
<path fill-rule="evenodd" clip-rule="evenodd" d="M8 12C10.2091 12 12 10.2091 12 8C12 5.79086 10.2091 4 8 4C5.79086 4 4 5.79086 4 8C4 10.2091 5.79086 12 8 12ZM6.31516 7.65879V7.96917V7.96919C6.31516 8.05958 6.31516 8.16378 6.31242 8.31936H5.78943H5.78649C5.75244 8.31936 5.72511 8.34577 5.72511 8.37868V8.44632L5.72238 8.46662C5.704 8.60354 5.66962 8.85965 5.66962 8.87857C5.66941 8.8802 5.66941 8.88243 5.66962 8.88406C5.6713 8.91676 5.69989 8.94195 5.73394 8.94032H6.4087C6.49446 9.26573 6.67608 9.56007 6.93169 9.78737C7.35462 10.1179 7.89127 10.2814 8.4336 10.245C8.82669 10.2432 9.2183 10.2015 9.60234 10.1207C9.63661 10.1181 9.66372 10.0919 9.66667 10.0587C9.66667 10.0439 9.65776 9.97657 9.64754 9.89927C9.64221 9.85901 9.63653 9.81605 9.63156 9.7764C9.61706 9.66062 9.60234 9.55032 9.60234 9.55032C9.60108 9.5168 9.57313 9.48979 9.53823 9.48836C9.52839 9.48836 9.47723 9.49671 9.39907 9.50946C9.31366 9.5234 9.19602 9.54259 9.06485 9.5619C8.85864 9.59115 8.65075 9.60821 8.44243 9.61268C8.36318 9.61166 8.28415 9.60618 8.20574 9.59561C7.79164 9.55925 7.43429 9.30067 7.28231 8.92671H8.81912C8.85717 8.92671 8.88344 8.86436 8.88344 8.86436C8.88344 8.86436 8.94777 8.39005 8.94777 8.36466C8.94798 8.36141 8.94776 8.35857 8.94755 8.35573V8.35572C8.94419 8.32444 8.9156 8.30189 8.88344 8.30494H7.13033C7.12466 8.20074 7.12466 8.09592 7.13033 7.99172C7.12487 7.88812 7.12487 7.78473 7.13033 7.68134H8.8248C8.86284 7.68134 8.88912 7.61898 8.88912 7.61898C8.88912 7.61898 8.95344 7.14467 8.95344 7.11928V7.1136C8.95176 7.08089 8.92296 7.0555 8.88912 7.05713H7.27916C7.42252 6.71526 7.73845 6.46867 8.11472 6.40509C8.22151 6.38396 8.33018 6.3736 8.43907 6.37401C8.6663 6.3797 8.89248 6.40712 9.11404 6.45607C9.27646 6.48636 9.42026 6.51997 9.50859 6.54062C9.56006 6.55265 9.59269 6.56028 9.59919 6.56028H9.60508C9.63892 6.55845 9.66498 6.53103 9.6633 6.49812C9.6633 6.49518 9.66189 6.48812 9.65981 6.47771C9.65398 6.44857 9.64291 6.39322 9.64291 6.32871C9.62252 6.1849 9.59919 5.99843 9.59919 5.99843C9.58826 5.96958 9.56472 5.94683 9.53487 5.93627C9.18193 5.82028 8.81218 5.75731 8.43928 5.75C7.6241 5.75 7.12171 5.97303 6.80893 6.31469C6.62248 6.52574 6.48752 6.77478 6.41437 7.04331H5.79511C5.75706 7.04331 5.73079 7.10506 5.73079 7.10506C5.73079 7.10506 5.66667 7.57957 5.66667 7.60496C5.66625 7.63178 5.68622 7.65432 5.71334 7.65879H5.73079H6.31516Z" fill="white"/>
</svg>
