<svg width="16" height="16" viewBox="0 0 16 16" fill="none" xmlns="http://www.w3.org/2000/svg">
<path d="M0 8C0 3.58172 3.58172 0 8 0C12.4183 0 16 3.58172 16 8C16 12.4183 12.4183 16 8 16C3.58172 16 0 12.4183 0 8Z" fill="#363636"/>
<path fill-rule="evenodd" clip-rule="evenodd" d="M10.75 6.5C10.6038 6.5 10.4634 6.4749 10.333 6.42876C10.1668 5.91104 9.88322 5.44587 9.51367 5.06453C9.60327 4.46213 10.1227 4 10.75 4C11.4404 4 12 4.55964 12 5.25C12 5.94036 11.4404 6.5 10.75 6.5ZM7 10.5C7.18458 10.5 7.36528 10.4833 7.54065 10.4514C7.51395 10.305 7.5 10.1541 7.5 10C7.5 9.70937 7.54959 9.43032 7.64078 9.17086C7.53587 9.17896 7.4306 9.18327 7.3252 9.18376C6.91846 9.21103 6.51597 9.08839 6.19877 8.84053C6.00706 8.67005 5.87085 8.4493 5.80652 8.20524H5.30045C5.27491 8.20646 5.25347 8.18757 5.25221 8.16304C5.25205 8.16183 5.25205 8.16015 5.25221 8.15893C5.25221 8.14474 5.27799 7.95271 5.29178 7.85001L5.29383 7.83474V7.78401C5.29383 7.75933 5.31433 7.73952 5.33987 7.73952H5.34207H5.73432C5.73637 7.62283 5.73637 7.54468 5.73637 7.47689V7.24409H5.29809H5.285C5.26467 7.24074 5.24969 7.22383 5.25001 7.20372C5.25001 7.18468 5.29809 6.8288 5.29809 6.8288C5.29809 6.8288 5.3178 6.78249 5.34633 6.78249H5.81078C5.86564 6.58108 5.96686 6.39431 6.1067 6.23602C6.34128 5.97978 6.71808 5.8125 7.32946 5.8125C7.60914 5.81798 7.88645 5.86521 8.15115 5.9522C8.17354 5.96012 8.1912 5.97719 8.19939 5.99882C8.19939 5.99882 8.21689 6.13867 8.23218 6.24653C8.23218 6.2949 8.24048 6.33641 8.24485 6.35827L8.24485 6.35827L8.24486 6.35829C8.24642 6.36608 8.24748 6.37139 8.24748 6.37359C8.24874 6.39827 8.22919 6.41884 8.20381 6.42021H8.19939C8.19452 6.42021 8.17005 6.41449 8.13144 6.40546L8.13144 6.40546L8.13143 6.40546C8.06518 6.38998 7.95734 6.36477 7.83553 6.34205C7.66936 6.30534 7.49973 6.28477 7.3293 6.28051C7.24764 6.2802 7.16613 6.28797 7.08604 6.30382C6.80384 6.3515 6.56689 6.53645 6.45937 6.79284H7.66684C7.69222 6.79163 7.71382 6.81067 7.71508 6.8352V6.83946C7.71508 6.85851 7.66684 7.21423 7.66684 7.21423C7.66684 7.21423 7.64713 7.261 7.6186 7.261H6.34775C6.34365 7.33855 6.34365 7.41609 6.34775 7.49379C6.34349 7.57194 6.34349 7.65055 6.34775 7.72871H7.66258C7.6867 7.72642 7.70814 7.74333 7.71067 7.76679C7.71082 7.76892 7.71098 7.77106 7.71082 7.7735C7.71082 7.79254 7.66258 8.14827 7.66258 8.14827C7.66258 8.14827 7.64288 8.19504 7.61434 8.19504H6.46173C6.57572 8.4755 6.84373 8.66944 7.15431 8.69671C7.21311 8.70463 7.27239 8.70875 7.33182 8.70951C7.48806 8.70616 7.64398 8.69336 7.79864 8.67142C7.83054 8.66673 7.86138 8.66204 7.89068 8.65749C8.33454 7.96155 9.11337 7.5 10 7.5C10 5.84315 8.65685 4.5 7 4.5C5.34315 4.5 4 5.84315 4 7.5C4 9.15685 5.34315 10.5 7 10.5ZM10 12C11.1046 12 12 11.1046 12 10C12 8.89543 11.1046 8 10 8C8.89543 8 8 8.89543 8 10C8 11.1046 8.89543 12 10 12ZM9.15758 9.8294V9.98459V9.98459C9.15758 10.0298 9.15758 10.0819 9.15621 10.1597H8.89472H8.89325C8.87622 10.1597 8.86256 10.1729 8.86256 10.1893V10.2232L8.86119 10.2333C8.852 10.3018 8.83481 10.4298 8.83481 10.4393C8.8347 10.4401 8.8347 10.4412 8.83481 10.442C8.83565 10.4584 8.84994 10.471 8.86697 10.4702H9.20435C9.24723 10.6329 9.33804 10.78 9.46584 10.8937C9.67731 11.0589 9.94564 11.1407 10.2168 11.1225C10.4133 11.1216 10.6091 11.1008 10.8012 11.0603C10.8183 11.059 10.8319 11.0459 10.8333 11.0294C10.8333 11.022 10.8289 10.9883 10.8238 10.9496L10.8237 10.9493C10.8211 10.9293 10.8183 10.9079 10.8158 10.8882C10.8085 10.8303 10.8012 10.7752 10.8012 10.7752C10.8005 10.7584 10.7866 10.7449 10.7691 10.7442C10.7642 10.7442 10.7387 10.7483 10.6998 10.7547L10.6996 10.7547L10.6995 10.7547C10.6568 10.7617 10.598 10.7713 10.5324 10.7809C10.4293 10.7956 10.3254 10.8041 10.2212 10.8063C10.1816 10.8058 10.1421 10.8031 10.1029 10.7978C9.89582 10.7796 9.71714 10.6503 9.64116 10.4634H10.4096C10.4286 10.4634 10.4417 10.4322 10.4417 10.4322C10.4417 10.4322 10.4739 10.195 10.4739 10.1823L10.4739 10.181C10.4739 10.1799 10.4739 10.1789 10.4738 10.1779C10.4721 10.1622 10.4578 10.1509 10.4417 10.1525H9.56517C9.56233 10.1004 9.56233 10.048 9.56517 9.99586C9.56243 9.94406 9.56243 9.89237 9.56517 9.84067H10.4124C10.4314 9.84067 10.4446 9.80949 10.4446 9.80949C10.4446 9.80949 10.4767 9.57234 10.4767 9.55964V9.5568C10.4759 9.54045 10.4615 9.52775 10.4446 9.52856H9.63958C9.71126 9.35763 9.86923 9.23433 10.0574 9.20254C10.1108 9.19198 10.1651 9.1868 10.2195 9.187C10.3332 9.18985 10.4462 9.20356 10.557 9.22804C10.6382 9.24318 10.7101 9.25999 10.7543 9.27031C10.78 9.27632 10.7963 9.28014 10.7996 9.28014H10.8025C10.8195 9.27922 10.8325 9.26551 10.8317 9.24906C10.8317 9.24759 10.8309 9.24406 10.8299 9.23885C10.827 9.22428 10.8215 9.19661 10.8215 9.16436C10.8113 9.09245 10.7996 8.99921 10.7996 8.99921C10.7941 8.98479 10.7824 8.97342 10.7674 8.96813C10.591 8.91014 10.4061 8.87866 10.2196 8.875C9.81205 8.875 9.56086 8.98652 9.40446 9.15735C9.31124 9.26287 9.24376 9.38739 9.20719 9.52166H8.89755C8.87853 9.52166 8.86539 9.55253 8.86539 9.55253C8.86539 9.55253 8.83334 9.78979 8.83334 9.80248C8.83313 9.81589 8.84311 9.82716 8.85667 9.8294H8.86539H9.15758ZM10.2235 5.14337V5.24037C10.2235 5.26861 10.2235 5.30118 10.2226 5.3498H10.0592H10.0583C10.0476 5.3498 10.0391 5.35805 10.0391 5.36834V5.38947L10.0382 5.39582C10.0325 5.43861 10.0218 5.51864 10.0218 5.52455C10.0217 5.52506 10.0217 5.52576 10.0218 5.52627C10.0223 5.53649 10.0312 5.54436 10.0419 5.54385H10.2527C10.2795 5.64554 10.3363 5.73752 10.4162 5.80855C10.5483 5.91183 10.716 5.96293 10.8855 5.95157C11.0083 5.951 11.1307 5.93798 11.2507 5.91272C11.2614 5.91189 11.2699 5.9037 11.2708 5.89336C11.2708 5.88873 11.2681 5.86769 11.2649 5.84354L11.2649 5.84352L11.2648 5.8434C11.2632 5.83085 11.2614 5.81748 11.2599 5.80512C11.2553 5.76894 11.2507 5.73447 11.2507 5.73447C11.2503 5.724 11.2416 5.71556 11.2307 5.71511C11.2276 5.71511 11.2116 5.71772 11.1872 5.7217L11.1872 5.72171C11.1605 5.72606 11.1238 5.73206 11.0828 5.73809C11.0183 5.74723 10.9534 5.75257 10.8883 5.75396C10.8635 5.75364 10.8388 5.75193 10.8143 5.74863C10.6849 5.73727 10.5732 5.65646 10.5257 5.5396H11.006C11.0179 5.5396 11.0261 5.52011 11.0261 5.52011C11.0261 5.52011 11.0462 5.37189 11.0462 5.36396C11.0462 5.36294 11.0462 5.36205 11.0461 5.36117V5.36116C11.0451 5.35139 11.0361 5.34434 11.0261 5.34529H10.4782C10.4765 5.31273 10.4765 5.27998 10.4782 5.24741C10.4765 5.21504 10.4765 5.18273 10.4782 5.15042H11.0077C11.0196 5.15042 11.0278 5.13093 11.0278 5.13093C11.0278 5.13093 11.048 4.98271 11.048 4.97478V4.973C11.0474 4.96278 11.0384 4.95484 11.0278 4.95535H10.5247C10.5695 4.84852 10.6683 4.77146 10.7859 4.75159C10.8192 4.74499 10.8532 4.74175 10.8872 4.74188C10.9582 4.74365 11.0289 4.75222 11.0981 4.76752C11.1489 4.77699 11.1938 4.78749 11.2214 4.79394C11.2375 4.7977 11.2477 4.80009 11.2497 4.80009H11.2516C11.2622 4.79952 11.2703 4.79095 11.2698 4.78066C11.2698 4.77975 11.2693 4.77754 11.2687 4.77431L11.2687 4.77428C11.2669 4.76518 11.2634 4.74788 11.2634 4.72772C11.257 4.68278 11.2497 4.62451 11.2497 4.62451C11.2463 4.61549 11.239 4.60838 11.2296 4.60508C11.1194 4.56884 11.0038 4.54916 10.8873 4.54688C10.6325 4.54688 10.4755 4.61657 10.3778 4.72334C10.3195 4.7893 10.2774 4.86712 10.2545 4.95104H10.061C10.0491 4.95104 10.0409 4.97033 10.0409 4.97033C10.0409 4.97033 10.0208 5.11862 10.0208 5.12655C10.0207 5.13493 10.0269 5.14198 10.0354 5.14337H10.0409H10.2235Z" fill="white"/>
</svg>
