<svg width="16" height="16" viewBox="0 0 16 16" fill="none" xmlns="http://www.w3.org/2000/svg">
<path fill-rule="evenodd" clip-rule="evenodd" d="M8 16C12.4183 16 16 12.4183 16 8C16 3.58172 12.4183 0 8 0C3.58172 0 0 3.58172 0 8C0 12.4183 3.58172 16 8 16ZM4.63031 7.31758V7.93834V7.93837C4.63031 8.11915 4.63031 8.32755 4.62485 8.63873H3.57887H3.57298C3.50487 8.63873 3.45022 8.69154 3.45022 8.75735V8.89264L3.44477 8.93325C3.408 9.20708 3.33923 9.7193 3.33923 9.75715C3.33881 9.7604 3.33881 9.76487 3.33923 9.76812C3.3426 9.83352 3.39977 9.8839 3.46788 9.88065H4.8174C4.98892 10.5315 5.35216 11.1201 5.86338 11.5747C6.70924 12.2357 7.78255 12.5627 8.86721 12.49C9.65337 12.4864 10.4366 12.4031 11.2047 12.2414C11.2732 12.2361 11.3274 12.1837 11.3333 12.1175C11.3333 12.0878 11.3155 11.9531 11.2951 11.7985C11.2844 11.718 11.2731 11.6321 11.2631 11.5528C11.2341 11.3212 11.2047 11.1006 11.2047 11.1006C11.2022 11.0336 11.1463 10.9796 11.0765 10.9767C11.0568 10.9767 10.9545 10.9934 10.7981 11.0189C10.6273 11.0468 10.392 11.0852 10.1297 11.1238C9.71728 11.1823 9.30149 11.2164 8.88486 11.2254C8.72637 11.2233 8.5683 11.2124 8.41148 11.1912C7.58327 11.1185 6.86858 10.6013 6.56462 9.85343H9.63824C9.71433 9.85343 9.76688 9.72871 9.76688 9.72871C9.76688 9.72871 9.89553 8.7801 9.89553 8.72932C9.89595 8.72283 9.89553 8.71714 9.89511 8.71146V8.71144C9.88838 8.64888 9.83121 8.60379 9.76688 8.60988H6.26066C6.24931 8.40147 6.24931 8.19184 6.26066 7.98344C6.24973 7.77625 6.24973 7.56946 6.26066 7.36268H9.64959C9.72569 7.36268 9.77824 7.23796 9.77824 7.23796C9.77824 7.23796 9.90688 6.28935 9.90688 6.23857V6.22719C9.90352 6.16179 9.84592 6.111 9.77824 6.11425H6.55831C6.84503 5.43052 7.47691 4.93733 8.22944 4.81017C8.44301 4.76792 8.66036 4.7472 8.87814 4.74802C9.3326 4.75939 9.78496 4.81424 10.2281 4.91214C10.5529 4.97272 10.8405 5.03994 11.0172 5.08123C11.1201 5.1053 11.1854 5.12055 11.1984 5.12055H11.2102C11.2778 5.1169 11.33 5.06205 11.3266 4.99624C11.3266 4.99036 11.3238 4.97623 11.3196 4.95541C11.308 4.89714 11.2858 4.78643 11.2858 4.65742C11.245 4.36979 11.1984 3.99685 11.1984 3.99685C11.1765 3.93916 11.1294 3.89366 11.0697 3.87254C10.3639 3.64056 9.62437 3.51463 8.87856 3.5C7.24821 3.5 6.24343 3.94607 5.61786 4.62939C5.24495 5.05149 4.97505 5.54956 4.82875 6.08663H3.59022C3.51412 6.08663 3.46157 6.21013 3.46157 6.21013C3.46157 6.21013 3.33335 7.15914 3.33335 7.20993C3.33251 7.26355 3.37244 7.30864 3.42668 7.31758H3.46157H4.63031Z" fill="#363636"/>
</svg>
