<svg width="16" height="16" viewBox="0 0 16 16" fill="none" xmlns="http://www.w3.org/2000/svg">
<path d="M0 8C0 3.58172 3.58172 0 8 0V0C12.4183 0 16 3.58172 16 8V8C16 12.4183 12.4183 16 8 16V16C3.58172 16 0 12.4183 0 8V8Z" fill="#363636"/>
<path fill-rule="evenodd" clip-rule="evenodd" d="M7 10C7.17047 10 7.33763 9.98578 7.50034 9.95846C7.50823 9.47397 7.65394 9.02299 7.89998 8.64301C7.70971 8.66924 7.51769 8.68287 7.3252 8.68376C6.91846 8.71103 6.51597 8.58839 6.19877 8.34053C6.00706 8.17005 5.87085 7.9493 5.80652 7.70524H5.30045C5.27491 7.70646 5.25347 7.68757 5.25221 7.66304C5.25205 7.66182 5.25205 7.66015 5.25221 7.65893C5.25221 7.64474 5.278 7.45267 5.29179 7.34998L5.29179 7.34997L5.29383 7.33474V7.28401C5.29383 7.25933 5.31433 7.23952 5.33987 7.23952H5.34207H5.73432C5.73637 7.12283 5.73637 7.04468 5.73637 6.97689V6.97688V6.74409H5.29809H5.285C5.26467 6.74074 5.24969 6.72383 5.25 6.70372C5.25 6.68468 5.29809 6.3288 5.29809 6.3288C5.29809 6.3288 5.3178 6.28249 5.34633 6.28249H5.81078C5.86564 6.08108 5.96686 5.89431 6.1067 5.73602C6.34128 5.47978 6.71808 5.3125 7.32946 5.3125C7.60914 5.31798 7.88645 5.36521 8.15115 5.4522C8.17354 5.46012 8.1912 5.47719 8.19939 5.49882C8.19939 5.49882 8.21689 5.63867 8.23218 5.74653C8.23218 5.7949 8.24048 5.83641 8.24485 5.85827L8.24486 5.85828L8.24486 5.85828L8.24486 5.85829C8.24642 5.86609 8.24748 5.87138 8.24748 5.87359C8.24874 5.89827 8.22919 5.91884 8.20381 5.92021H8.19939C8.19452 5.92021 8.17004 5.91449 8.13144 5.90546C8.0652 5.88998 7.95735 5.86477 7.83553 5.84205C7.66936 5.80534 7.49973 5.78477 7.3293 5.78051C7.24764 5.7802 7.16613 5.78797 7.08604 5.80382C6.80384 5.8515 6.56689 6.03645 6.45937 6.29284H7.66684C7.69222 6.29163 7.71382 6.31067 7.71508 6.3352V6.33946C7.71508 6.35851 7.66684 6.71423 7.66684 6.71423C7.66684 6.71423 7.64713 6.761 7.6186 6.761H6.34775C6.34365 6.83855 6.34365 6.91609 6.34775 6.99379C6.34349 7.07194 6.34349 7.15055 6.34775 7.22871H7.66258C7.6867 7.22642 7.70814 7.24333 7.71067 7.26679V7.2668C7.71082 7.26893 7.71098 7.27106 7.71082 7.2735C7.71082 7.29254 7.66258 7.64827 7.66258 7.64827C7.66258 7.64827 7.64288 7.69504 7.61434 7.69504H6.46173C6.57572 7.9755 6.84373 8.16944 7.15431 8.19671C7.21311 8.20463 7.27239 8.20875 7.33182 8.20951C7.48806 8.20616 7.64398 8.19336 7.79864 8.17142C7.89692 8.15696 7.98508 8.14257 8.04912 8.13213L8.04921 8.13211L8.04931 8.1321L8.04934 8.13209L8.04937 8.13209C8.10795 8.12253 8.14629 8.11627 8.15367 8.11627C8.17984 8.11734 8.20081 8.1376 8.20176 8.16274C8.20176 8.16274 8.20677 8.20027 8.21336 8.25131C8.65819 7.79689 9.27498 7.51147 9.95846 7.50034C9.98578 7.33763 10 7.17047 10 7C10 5.34315 8.65685 4 7 4C5.34315 4 4 5.34315 4 7C4 8.65685 5.34315 10 7 10ZM12 10C12 11.1046 11.1046 12 10 12C8.89543 12 8 11.1046 8 10C8 8.89543 8.89543 8 10 8C11.1046 8 12 8.89543 12 10ZM9.15758 9.98459V9.8294H8.86539H8.85667C8.84311 9.82716 8.83313 9.81589 8.83334 9.80248C8.83334 9.78979 8.86539 9.55253 8.86539 9.55253C8.86539 9.55253 8.87853 9.52166 8.89755 9.52166H9.20719C9.24376 9.38739 9.31124 9.26287 9.40446 9.15735C9.56086 8.98652 9.81205 8.875 10.2196 8.875C10.4061 8.87866 10.591 8.91014 10.7674 8.96813C10.7824 8.97342 10.7941 8.98479 10.7996 8.99921C10.7996 8.99921 10.8113 9.09245 10.8215 9.16436C10.8215 9.19661 10.827 9.22428 10.8299 9.23885C10.8309 9.24406 10.8317 9.24759 10.8317 9.24906C10.8325 9.26551 10.8195 9.27922 10.8025 9.28014H10.7996C10.7963 9.28014 10.78 9.27632 10.7543 9.27031C10.7101 9.25999 10.6382 9.24318 10.557 9.22804C10.4462 9.20356 10.3332 9.18985 10.2195 9.187C10.1651 9.1868 10.1108 9.19198 10.0574 9.20254C9.86923 9.23433 9.71126 9.35763 9.63958 9.52856H10.4446C10.4615 9.52775 10.4759 9.54045 10.4767 9.5568V9.55964C10.4767 9.57234 10.4446 9.80949 10.4446 9.80949C10.4446 9.80949 10.4314 9.84067 10.4124 9.84067H9.56517C9.56243 9.89237 9.56243 9.94406 9.56517 9.99586C9.56233 10.048 9.56233 10.1004 9.56517 10.1525H10.4417C10.4578 10.1509 10.4721 10.1622 10.4738 10.1779C10.4739 10.1789 10.4739 10.1799 10.4739 10.181C10.4739 10.1815 10.4739 10.1819 10.4739 10.1823C10.4739 10.195 10.4417 10.4322 10.4417 10.4322C10.4417 10.4322 10.4286 10.4634 10.4096 10.4634H9.64116C9.71714 10.6503 9.89582 10.7796 10.1029 10.7978C10.1421 10.8031 10.1816 10.8058 10.2212 10.8063C10.3254 10.8041 10.4293 10.7956 10.5324 10.7809C10.598 10.7713 10.6568 10.7617 10.6995 10.7547L10.6996 10.7547C10.7386 10.7484 10.7642 10.7442 10.7691 10.7442C10.7866 10.7449 10.8005 10.7584 10.8012 10.7752C10.8012 10.7752 10.8085 10.8303 10.8158 10.8882C10.8183 10.9079 10.8211 10.9293 10.8237 10.9493L10.8238 10.9496C10.8289 10.9883 10.8333 11.022 10.8333 11.0294C10.8319 11.0459 10.8183 11.059 10.8012 11.0603C10.6092 11.1008 10.4133 11.1216 10.2168 11.1225C9.94564 11.1407 9.67731 11.0589 9.46584 10.8937C9.33804 10.78 9.24723 10.6329 9.20435 10.4702H8.86697C8.84994 10.471 8.83565 10.4584 8.83481 10.442C8.8347 10.4412 8.8347 10.4401 8.83481 10.4393C8.83481 10.4298 8.852 10.3018 8.86119 10.2333L8.86256 10.2232V10.1893C8.86256 10.1729 8.87622 10.1597 8.89325 10.1597H8.89472H9.15621C9.15758 10.0819 9.15758 10.0298 9.15758 9.98459V9.98459Z" fill="white"/>
</svg>
