<svg width="16" height="16" viewBox="0 0 16 16" fill="none" xmlns="http://www.w3.org/2000/svg">
<path fill-rule="evenodd" clip-rule="evenodd" d="M13.5 5C13.2076 5 12.9269 4.94979 12.6661 4.85753C12.3335 3.82208 11.7664 2.89174 11.0273 2.12906C11.2065 0.924262 12.2453 0 13.5 0C14.8807 0 16 1.11929 16 2.5C16 3.88071 14.8807 5 13.5 5ZM6 13C6.36917 13 6.73055 12.9667 7.0813 12.9028C7.02789 12.61 7 12.3083 7 12C7 11.4187 7.09918 10.8606 7.28155 10.3417C7.07173 10.3579 6.86121 10.3665 6.6504 10.3675C5.83691 10.4221 5.03193 10.1768 4.39753 9.68105C4.01412 9.3401 3.74169 8.8986 3.61305 8.41049H2.60091C2.54983 8.41292 2.50695 8.37514 2.50442 8.32609C2.50411 8.32365 2.50411 8.3203 2.50442 8.31786C2.50442 8.28948 2.55599 7.90543 2.58356 7.70002L2.58767 7.66948V7.56801C2.58767 7.51865 2.62866 7.47904 2.67974 7.47904H2.68415H3.46864C3.47273 7.24566 3.47273 7.08936 3.47273 6.95378V6.48819H2.59618H2.57001C2.52933 6.48148 2.49938 6.44766 2.50001 6.40744C2.50001 6.36936 2.59618 5.6576 2.59618 5.6576C2.59618 5.6576 2.63559 5.56497 2.69266 5.56497H3.62156C3.73129 5.16217 3.93371 4.78862 4.21339 4.47204C4.68257 3.95955 5.43615 3.625 6.65892 3.625C7.21827 3.63597 7.7729 3.73042 8.3023 3.9044C8.34708 3.92025 8.38239 3.95437 8.39879 3.99764C8.39879 3.99764 8.43378 4.27734 8.46437 4.49307C8.46437 4.5898 8.48097 4.67281 8.48971 4.71653L8.48971 4.71654L8.48972 4.71658C8.49283 4.73216 8.49496 4.74277 8.49496 4.74718C8.49748 4.79654 8.45838 4.83767 8.40761 4.84042H8.39879C8.38904 4.84042 8.34009 4.82897 8.26289 4.81093L8.26288 4.81093L8.26285 4.81092C8.13036 4.77995 7.91467 4.72954 7.67106 4.68411C7.33872 4.61068 6.99945 4.56954 6.6586 4.56101C6.49527 4.5604 6.33226 4.57594 6.17208 4.60763C5.60768 4.703 5.13377 5.07289 4.91874 5.58569H7.33368C7.38444 5.58325 7.42764 5.62134 7.43016 5.67039V5.67893C7.43016 5.71701 7.33368 6.42847 7.33368 6.42847C7.33368 6.42847 7.29426 6.52201 7.23719 6.52201H4.6955C4.6873 6.6771 4.6873 6.83218 4.6955 6.98758C4.68698 7.14388 4.68698 7.30111 4.6955 7.45741H7.32516C7.37341 7.45284 7.41629 7.48666 7.42133 7.53358C7.42165 7.53785 7.42196 7.54212 7.42165 7.54699C7.42165 7.58508 7.32516 8.29653 7.32516 8.29653C7.32516 8.29653 7.28575 8.39007 7.22868 8.39007H4.92347C5.15143 8.95101 5.68746 9.33888 6.30861 9.39342C6.42622 9.40927 6.54478 9.41749 6.66365 9.41902C6.97612 9.41231 7.28796 9.38672 7.59727 9.34284C7.66109 9.33345 7.72277 9.32408 7.78135 9.31498C8.66908 7.9231 10.2267 7 12 7C12 3.68629 9.31371 1 6 1C2.68629 1 0 3.68629 0 7C0 10.3137 2.68629 13 6 13ZM12 16C14.2091 16 16 14.2091 16 12C16 9.79086 14.2091 8 12 8C9.79086 8 8 9.79086 8 12C8 14.2091 9.79086 16 12 16ZM10.3152 11.6588V11.9692V11.9692C10.3152 12.0596 10.3152 12.1638 10.3124 12.3194H9.78943H9.78649C9.75244 12.3194 9.72511 12.3458 9.72511 12.3787V12.4463L9.72238 12.4666C9.704 12.6035 9.66962 12.8596 9.66962 12.8786C9.66941 12.8802 9.66941 12.8824 9.66962 12.8841C9.6713 12.9168 9.69989 12.9419 9.73394 12.9403H10.4087C10.4945 13.2657 10.6761 13.5601 10.9317 13.7874C11.3546 14.1179 11.8913 14.2814 12.4336 14.245C12.8267 14.2432 13.2183 14.2015 13.6023 14.1207C13.6366 14.1181 13.6637 14.0919 13.6667 14.0587C13.6667 14.0439 13.6578 13.9766 13.6475 13.8993L13.6475 13.8987C13.6422 13.8586 13.6365 13.8158 13.6316 13.7764C13.6171 13.6606 13.6023 13.5503 13.6023 13.5503C13.6011 13.5168 13.5731 13.4898 13.5382 13.4884C13.5284 13.4884 13.4775 13.4967 13.3996 13.5094L13.3992 13.5094L13.3991 13.5095C13.3137 13.5234 13.196 13.5426 13.0648 13.5619C12.8586 13.5911 12.6507 13.6082 12.4424 13.6127C12.3632 13.6117 12.2841 13.6062 12.2057 13.5956C11.7916 13.5593 11.4343 13.3007 11.2823 12.9267H12.8191C12.8572 12.9267 12.8834 12.8644 12.8834 12.8644C12.8834 12.8644 12.9478 12.3901 12.9478 12.3647L12.9479 12.3621C12.9479 12.3598 12.9477 12.3578 12.9476 12.3557C12.9442 12.3244 12.9156 12.3019 12.8834 12.3049H11.1303C11.1247 12.2007 11.1247 12.0959 11.1303 11.9917C11.1249 11.8881 11.1249 11.7847 11.1303 11.6813H12.8248C12.8628 11.6813 12.8891 11.619 12.8891 11.619C12.8891 11.619 12.9534 11.1447 12.9534 11.1193V11.1136C12.9518 11.0809 12.923 11.0555 12.8891 11.0571H11.2792C11.4225 10.7153 11.7385 10.4687 12.1147 10.4051C12.2215 10.384 12.3302 10.3736 12.4391 10.374C12.6663 10.3797 12.8925 10.4071 13.114 10.4561C13.2765 10.4864 13.4203 10.52 13.5086 10.5406C13.5601 10.5526 13.5927 10.5603 13.5992 10.5603H13.6051C13.6389 10.5584 13.665 10.531 13.6633 10.4981C13.6633 10.4952 13.6619 10.4881 13.6598 10.4777C13.654 10.4486 13.6429 10.3932 13.6429 10.3287C13.6225 10.1849 13.5992 9.99843 13.5992 9.99843C13.5883 9.96958 13.5647 9.94683 13.5349 9.93627C13.1819 9.82028 12.8122 9.75731 12.4393 9.75C11.6241 9.75 11.1217 9.97303 10.8089 10.3147C10.6225 10.5257 10.4875 10.7748 10.4144 11.0433H9.79511C9.75706 11.0433 9.73079 11.1051 9.73079 11.1051C9.73079 11.1051 9.66667 11.5796 9.66667 11.605C9.66625 11.6318 9.68622 11.6543 9.71334 11.6588H9.73079H10.3152ZM12.447 2.28674V2.48073C12.447 2.53722 12.447 2.60236 12.4453 2.6996H12.1184H12.1166C12.0953 2.6996 12.0782 2.71611 12.0782 2.73667V2.77895L12.0765 2.79164C12.065 2.87722 12.0435 3.03728 12.0435 3.04911C12.0434 3.05012 12.0434 3.05152 12.0435 3.05254C12.0446 3.07298 12.0624 3.08872 12.0837 3.0877H12.5054C12.559 3.29108 12.6725 3.47504 12.8323 3.61711C13.0966 3.82366 13.432 3.92586 13.771 3.90313C14.0167 3.90199 14.2614 3.87597 14.5015 3.82544C14.5229 3.82379 14.5398 3.80741 14.5417 3.78672C14.5417 3.77745 14.5361 3.73538 14.5297 3.68709L14.5297 3.68704L14.5297 3.6868C14.5264 3.66171 14.5228 3.63495 14.5197 3.61025C14.5107 3.53788 14.5015 3.46895 14.5015 3.46895C14.5007 3.448 14.4832 3.43112 14.4614 3.43023C14.4552 3.43023 14.4233 3.43544 14.3745 3.4434L14.3744 3.44341C14.321 3.45212 14.2475 3.46412 14.1655 3.47618C14.0366 3.49447 13.9067 3.50513 13.7765 3.50792C13.727 3.50729 13.6776 3.50386 13.6286 3.49726C13.3698 3.47453 13.1464 3.31292 13.0514 3.0792H14.0119C14.0357 3.0792 14.0522 3.04022 14.0522 3.04022C14.0522 3.04022 14.0924 2.74378 14.0924 2.72791C14.0925 2.72589 14.0924 2.72411 14.0922 2.72234V2.72233C14.0901 2.70278 14.0723 2.68868 14.0522 2.69059H12.9565C12.9529 2.62546 12.9529 2.55995 12.9565 2.49482C12.953 2.43008 12.953 2.36546 12.9565 2.30084H14.0155C14.0393 2.30084 14.0557 2.26186 14.0557 2.26186C14.0557 2.26186 14.0959 1.96542 14.0959 1.94955V1.946C14.0948 1.92556 14.0769 1.90969 14.0557 1.9107H13.0495C13.1391 1.69704 13.3365 1.54292 13.5717 1.50318C13.6384 1.48998 13.7064 1.4835 13.7744 1.48376C13.9164 1.48731 14.0578 1.50445 14.1963 1.53504C14.2978 1.55397 14.3877 1.57498 14.4429 1.58789C14.475 1.59541 14.4954 1.60017 14.4995 1.60017H14.5032C14.5243 1.59903 14.5406 1.58189 14.5396 1.56132C14.5396 1.55949 14.5387 1.55508 14.5374 1.54862L14.5374 1.54857C14.5337 1.53036 14.5268 1.49576 14.5268 1.45544C14.5141 1.36556 14.4995 1.24902 14.4995 1.24902C14.4927 1.23099 14.4779 1.21677 14.4593 1.21017C14.2387 1.13768 14.0076 1.09832 13.7745 1.09375C13.2651 1.09375 12.9511 1.23315 12.7556 1.44668C12.639 1.57859 12.5547 1.73424 12.509 1.90207H12.1219C12.0982 1.90207 12.0817 1.94067 12.0817 1.94067C12.0817 1.94067 12.0417 2.23723 12.0417 2.2531C12.0414 2.26986 12.0539 2.28395 12.0708 2.28674H12.0817H12.447Z" fill="#363636"/>
</svg>
