<svg width="16" height="16" viewBox="0 0 16 16" fill="none" xmlns="http://www.w3.org/2000/svg">
<path fill-rule="evenodd" clip-rule="evenodd" d="M12.4902 0.188054C12.6172 0.221876 12.7372 0.263275 12.8535 0.308462C13.4319 0.532233 13.9624 0.871 14.4159 1.30501C14.5066 1.38781 14.6085 1.49307 14.6773 1.56829C14.7231 1.61812 14.7657 1.67127 14.8083 1.72444C14.83 1.75154 14.8516 1.77864 14.8738 1.80532C15.069 2.03937 15.2441 2.29128 15.3968 2.55753C15.6205 2.96746 15.7872 3.40797 15.8907 3.86633C15.9255 4.02273 15.9519 4.18102 15.971 4.34012V4.49435C16 4.64858 16 4.80254 16 4.96056C16 5.01712 15.9948 5.07635 15.9895 5.13736C15.9839 5.20215 15.978 5.26894 15.978 5.33667C15.9561 5.65108 15.9036 5.96225 15.822 6.26584C15.7397 6.56213 15.633 6.85003 15.5024 7.1271C15.333 7.48183 15.1244 7.81519 14.8811 8.12013C14.5468 8.5352 14.1493 8.89129 13.7039 9.17323C13.48 9.31935 13.2442 9.44544 12.9993 9.54934C12.7523 9.65595 12.4972 9.73902 12.2361 9.79773C12.0691 9.83535 11.9021 9.86538 11.7278 9.88811C11.5524 9.90759 11.3768 9.91733 11.2009 9.91814H11.0302H10.7683C10.5535 9.90651 10.3397 9.87756 10.1291 9.83156C10.0175 9.32178 9.83503 8.83176 9.58778 8.3761C8.88106 7.07407 7.69501 6.12433 6.30013 5.74335C6.295 5.70753 6.28902 5.67199 6.28308 5.63665C6.26784 5.54598 6.25282 5.45661 6.25282 5.36724C6.25465 5.341 6.25465 5.31448 6.25282 5.28823V4.97598C6.25282 4.94077 6.252 4.90594 6.25119 4.87125C6.24956 4.80225 6.24795 4.73377 6.25282 4.66373C6.25573 4.62039 6.26116 4.57764 6.26654 4.53527C6.27424 4.47473 6.28183 4.41496 6.28183 4.35527C6.35083 3.80491 6.50921 3.27078 6.75045 2.77562L6.81213 2.64763L6.85186 2.56511C7.0565 2.18548 7.30793 1.83535 7.60013 1.52337C7.7465 1.36806 7.90174 1.22248 8.06535 1.08692C8.22871 0.949468 8.40094 0.823919 8.58128 0.710816C9.32198 0.246499 10.1714 0.000811743 11.037 0H11.2006C11.3606 0 11.5203 0.0113644 11.6729 0.0265169C11.8253 0.0416695 12.0035 0.0714334 12.1269 0.0979503C12.2503 0.124197 12.3632 0.154231 12.4902 0.188054ZM12.0072 3.60657C12.0072 3.56301 11.9732 3.52756 11.9309 3.52783H9.94663C10.1304 3.0876 10.5148 2.77264 10.9712 2.68903C11.1039 2.65981 11.2385 2.64466 11.3742 2.64412C11.6567 2.65332 11.9377 2.68984 12.2137 2.75316C12.4085 2.7944 12.5818 2.83845 12.6924 2.86656C12.7632 2.88456 12.8083 2.89603 12.8169 2.89603C12.819 2.8963 12.8219 2.8963 12.8239 2.89603C12.866 2.89386 12.8984 2.85706 12.8966 2.81323C12.8966 2.80931 12.8948 2.79989 12.8922 2.78601C12.8849 2.7472 12.871 2.67354 12.871 2.58784C12.8493 2.39599 12.8166 2.1476 12.8166 2.1476C12.803 2.10945 12.7735 2.07914 12.7364 2.06507C12.2973 1.9103 11.8381 1.82642 11.3742 1.81668C10.3609 1.81668 9.73597 2.13272 9.34707 2.58784C9.11393 2.86789 8.94614 3.20016 8.85675 3.55814H8.07555C8.02876 3.55814 7.99583 3.64094 7.99583 3.64094C7.99583 3.64094 7.91612 4.27274 7.91612 4.30278C7.9156 4.33903 7.9399 4.37069 7.9744 4.378H7.99609H8.72268V4.79172V5.20543H8.07241C8.02537 5.20543 7.9927 5.28796 7.9927 5.28796V5.37834C7.99081 5.39338 7.98873 5.40996 7.9865 5.42771C7.96309 5.61403 7.92344 5.92963 7.92344 5.95359V5.96117C7.92553 6.00473 7.96133 6.03828 8.00367 6.03639H8.86094C8.96731 6.46986 9.19339 6.86193 9.5112 7.16471C10.0371 7.60495 10.7043 7.82249 11.3784 7.77379C11.8674 7.77135 12.354 7.71588 12.8315 7.60819C12.8744 7.60495 12.9081 7.56977 12.9118 7.52567C12.9118 7.49157 12.8898 7.31515 12.8681 7.14956L12.8315 6.84488C12.8281 6.80132 12.7939 6.7675 12.7521 6.76587C12.7414 6.76587 12.6905 6.77455 12.6118 6.78797C12.504 6.80635 12.3439 6.83365 12.1632 6.85977C11.9071 6.90117 11.6489 6.92362 11.3899 6.92741C11.2911 6.92741 11.1928 6.92092 11.0953 6.90874C10.5815 6.85787 10.1379 6.51396 9.94715 6.01745H11.8365C11.8872 6.01745 11.9199 5.93465 11.9199 5.93465C11.9199 5.93465 11.9965 5.30284 11.9965 5.26902V5.26523C11.9965 5.2214 11.9622 5.18622 11.9199 5.18622H9.74015C9.7331 5.0485 9.7331 4.9105 9.74015 4.77251C9.73336 4.63478 9.73336 4.49678 9.74015 4.35906H11.8475C11.8982 4.35906 11.9309 4.27247 11.9309 4.27247C11.9309 4.27247 12.0072 3.64418 12.0072 3.61036V3.60657ZM6.4024 2.29802C6.46042 2.19249 6.5187 2.09103 6.58038 1.98956C6.56261 1.94681 6.54196 1.90541 6.5187 1.86536C6.39665 1.63699 6.24637 1.42567 6.07178 1.23734C5.64968 0.776002 5.1003 0.460775 4.49865 0.334685C4.30733 0.293827 4.11262 0.273533 3.91738 0.274345H3.81205C2.72584 0.277322 1.72588 0.88694 1.19636 1.86915C1.00557 2.21712 0.881942 2.60053 0.833068 2.99747C0.817647 3.12221 0.809022 3.24776 0.807454 3.37358V3.61791C0.838033 4.01026 0.940225 4.39313 1.10906 4.74624C1.21282 4.96838 1.3422 5.17673 1.49431 5.36668C1.75462 5.67703 2.07035 5.93246 2.42423 6.11889C3.15708 5.73791 3.96547 5.53958 4.78562 5.53958H4.95629C5.22915 5.54093 5.50123 5.56474 5.77017 5.61101C5.77017 5.57289 5.76391 5.53476 5.75756 5.49606L5.75756 5.49605C5.75202 5.46224 5.7464 5.428 5.74481 5.39292C5.7438 5.37205 5.74166 5.34133 5.73909 5.30454C5.73241 5.20872 5.72286 5.07171 5.72286 4.96026C5.72364 4.73027 5.73933 4.50001 5.77017 4.27218C5.85485 3.57787 6.06942 2.9071 6.4024 2.29802ZM4.35699 2.47471C4.38313 2.47281 4.40587 2.49284 4.40769 2.51963C4.40796 2.52098 4.40796 2.52206 4.40796 2.52341C4.40796 2.54614 4.35699 2.93713 4.35699 2.93713C4.35699 2.93713 4.33504 2.98989 4.30629 2.98989H2.98746V3.24938V3.50887H4.35699C4.38522 3.50887 4.40796 3.53268 4.40796 3.56163C4.40796 3.58409 4.35699 3.97535 4.35699 3.97535C4.35699 3.97535 4.33504 4.02784 4.30629 4.02784H3.10377C3.22478 4.3409 3.506 4.55629 3.83035 4.58443C3.89072 4.58849 3.95162 4.58849 4.01199 4.58443C4.17456 4.58578 4.33739 4.5755 4.49865 4.55439C4.69101 4.52788 4.86194 4.49405 4.86194 4.49405C4.8886 4.49595 4.90925 4.51895 4.90925 4.54682C4.90925 4.54682 4.90925 4.63692 4.93486 4.73487C4.96021 4.83255 4.96021 4.94917 4.96021 4.96026C4.96021 4.98949 4.93747 5.01303 4.90925 5.01303C4.61339 5.08067 4.31151 5.11585 4.00834 5.11855C3.58755 5.15075 3.17094 5.01627 2.84215 4.74245C2.64377 4.5525 2.50368 4.30654 2.43887 4.03515H1.90125C1.8772 4.03785 1.85577 4.01945 1.85342 3.99483C1.85316 3.99077 1.85316 3.98671 1.85394 3.98266C1.85394 3.98266 1.88295 3.73047 1.89393 3.62522C1.89576 3.60655 1.89576 3.58761 1.89393 3.56894C1.89393 3.5389 1.91562 3.51617 1.94489 3.51617H2.35157V3.25669V2.9972H1.87929C1.85891 2.99044 1.84558 2.97041 1.84662 2.94823C1.84662 2.92928 1.89393 2.53451 1.89393 2.53451C1.89393 2.53451 1.91562 2.48553 1.94489 2.48553H2.42789C2.48147 2.26014 2.58601 2.05125 2.73316 1.87618C3.06483 1.52984 3.52796 1.35342 3.99736 1.39455C4.28799 1.4005 4.57627 1.45381 4.85122 1.55257C4.87396 1.55933 4.89173 1.57773 4.89853 1.60154C4.89853 1.60154 4.92048 1.7555 4.93486 1.87618C4.94695 1.97567 4.93906 2.00312 4.93595 2.01392C4.9353 2.0162 4.93486 2.01773 4.93486 2.01905C4.93721 2.04394 4.9197 2.06586 4.89565 2.06857C4.89173 2.06884 4.88781 2.06884 4.88389 2.06803C4.88389 2.06803 4.70957 2.02311 4.5206 1.98144C4.34732 1.94275 4.1709 1.92002 3.9937 1.91379C3.90954 1.91434 3.82565 1.92326 3.74306 1.94004C3.45033 1.9947 3.20518 2.20034 3.09279 2.48553L4.35699 2.47471ZM0.170523 12.3702C0.255727 12.6654 0.366282 12.9527 0.501144 13.2274C0.588438 13.4043 0.68279 13.5775 0.784459 13.7431C0.889003 13.9084 1.00165 14.0678 1.1224 14.2207C1.32966 14.4777 1.56227 14.7126 1.81631 14.9201C2.19737 15.2356 2.62235 15.4894 3.07685 15.6723C3.38656 15.7976 3.70804 15.8883 4.03604 15.9434C4.20305 15.97 4.37032 15.9886 4.54099 16H4.80235H4.97328C5.14918 15.9992 5.32507 15.9894 5.49992 15.97C5.67138 15.9516 5.84126 15.9215 6.00879 15.8796C6.14313 15.8496 6.27015 15.8157 6.39744 15.7741C6.64782 15.6915 6.89062 15.5871 7.12402 15.4624C7.35872 15.3414 7.58244 15.1994 7.79258 15.037C8.10935 14.7989 8.39606 14.5213 8.64618 14.2098C8.76928 14.0586 8.88219 13.8992 8.98386 13.732C9.08579 13.5664 9.1804 13.3938 9.26744 13.2168C9.34793 13.0536 9.38531 12.9547 9.43306 12.8282L9.44542 12.7955C9.55232 12.5044 9.63229 12.2029 9.68483 11.8966C9.71044 11.7424 9.7324 11.5844 9.74311 11.4266V11.2313V11.0357C9.74311 10.8281 9.72952 10.6211 9.70338 10.4149C9.70338 10.366 9.70338 10.3173 9.67777 10.2683C9.64876 10.0648 9.60616 9.86377 9.55075 9.66652C9.45065 9.30367 9.31056 8.95408 9.13284 8.62451C8.54033 7.5292 7.57173 6.70474 6.41913 6.3151C6.24062 6.25314 6.05871 6.20281 5.87419 6.16466C5.72888 6.13462 5.58225 6.11189 5.43458 6.09701H5.31462C5.25856 6.09701 5.20335 6.09268 5.14616 6.08818C5.08469 6.08335 5.02092 6.07834 4.95133 6.07834H4.78772H4.45344C4.00128 6.11108 3.55593 6.2112 3.13121 6.37544C2.45847 6.63412 1.85029 7.0454 1.35083 7.57898C1.13259 7.81033 0.935525 8.06224 0.762505 8.3312C0.70788 8.42157 0.653517 8.51546 0.602552 8.60963C0.527803 8.74492 0.459849 8.88426 0.399214 9.02686C0.275329 9.31638 0.179148 9.61754 0.11224 9.926C0.0793083 10.0802 0.0539564 10.2418 0.0322635 10.3998C0.0147023 10.5262 0.0111883 10.5828 0.00687346 10.6524L0.0068728 10.6524C0.0057936 10.6698 0.00466427 10.688 0.00325249 10.7083C-0.00161502 10.7757 -7.44996e-06 10.8449 0.00161502 10.9147C0.00243186 10.9499 0.00325249 10.9852 0.00325249 11.0205V11.3966C0.0283431 11.7254 0.0842743 12.052 0.170523 12.3702ZM2.47755 10.8657V10.4523H1.75097H1.72928C1.69556 10.4463 1.67073 10.4163 1.67125 10.3806C1.67125 10.3468 1.75097 9.71468 1.75097 9.71468C1.75097 9.71468 1.78364 9.63242 1.83095 9.63242H2.60091C2.69187 9.27471 2.85966 8.94298 3.09149 8.66185C3.48039 8.20673 4.10504 7.90963 5.1186 7.90963C5.58225 7.91937 6.04199 8.00325 6.48081 8.15776C6.51792 8.17183 6.54719 8.20213 6.56079 8.24055C6.56079 8.24055 6.5898 8.48895 6.61515 8.68052C6.61515 8.76644 6.62891 8.84018 6.63616 8.87899C6.63874 8.89286 6.6405 8.90227 6.6405 8.90618C6.64259 8.95002 6.61018 8.98654 6.5681 8.98898H6.56079C6.5527 8.98898 6.51213 8.97882 6.44813 8.96279L6.44812 8.96279C6.3383 8.93529 6.15951 8.89052 5.95757 8.85017C5.68209 8.78496 5.40087 8.74843 5.11834 8.74086C4.98295 8.74032 4.84783 8.75412 4.71506 8.78226C4.24722 8.86695 3.8544 9.19543 3.67615 9.65082H5.67791C5.71999 9.64866 5.7558 9.68248 5.75789 9.72604V9.73362C5.75789 9.76744 5.67791 10.3992 5.67791 10.3992C5.67791 10.3992 5.64524 10.4823 5.59793 10.4823H3.49111C3.48431 10.62 3.48431 10.7578 3.49111 10.8958C3.48405 11.0346 3.48405 11.1742 3.49111 11.313H5.67085C5.71084 11.3089 5.74639 11.339 5.75057 11.3806C5.75083 11.3844 5.75109 11.3882 5.75083 11.3926C5.75083 11.4264 5.67085 12.0582 5.67085 12.0582C5.67085 12.0582 5.63818 12.1412 5.59088 12.1412H3.68007C3.86904 12.6394 4.31335 12.9838 4.82823 13.0323C4.92571 13.0463 5.02399 13.0536 5.12252 13.055C5.38153 13.049 5.64001 13.0263 5.89641 12.9874C6.0595 12.9616 6.20577 12.9361 6.31197 12.9175C6.40914 12.9005 6.47275 12.8894 6.48499 12.8894C6.52838 12.8913 6.56314 12.9273 6.56471 12.9719C6.56471 12.9719 6.583 13.1189 6.60104 13.2731C6.60721 13.3259 6.61426 13.383 6.62088 13.4366L6.6209 13.4368L6.6209 13.4368C6.63361 13.5398 6.64468 13.6294 6.64468 13.6492C6.64102 13.6933 6.60731 13.7282 6.56471 13.7317C6.0872 13.8394 5.60029 13.8949 5.11154 13.8973C4.43723 13.9458 3.76998 13.7279 3.24412 13.2877C2.92631 12.9849 2.70049 12.5928 2.59386 12.1594H1.75489C1.71255 12.1615 1.677 12.128 1.67491 12.0844C1.67465 12.0823 1.67465 12.0793 1.67491 12.0771C1.67491 12.0519 1.71767 11.7108 1.74052 11.5284L1.74053 11.5283L1.74391 11.5013V11.4112C1.74391 11.3674 1.77789 11.3322 1.82023 11.3322H1.82389H2.47415C2.47755 11.125 2.47755 10.9862 2.47755 10.8658V10.8657Z" fill="#156EC7"/>
</svg>
