<svg width="16" height="16" viewBox="0 0 16 16" fill="none" xmlns="http://www.w3.org/2000/svg">
<path fill-rule="evenodd" clip-rule="evenodd" d="M10.3334 4.66667L10.3334 3.83333C10.3334 1.71624 8.61711 0 6.50002 0C4.38293 0 2.66669 1.71624 2.66669 3.83333V8.33333V10.6667C2.66669 13.6122 5.0545 16 8.00002 16C10.9455 16 13.3334 13.6122 13.3334 10.6667L13.3334 3H12.3334V10.6667C12.3334 13.0599 10.3933 15 8.00002 15C5.60679 15 3.66669 13.0599 3.66669 10.6667L3.66669 7.66667L3.66669 3.83333C3.66669 2.26853 4.93521 1 6.50002 1C8.06483 1 9.33335 2.26853 9.33335 3.83333L9.33335 4.66667L9.33335 8.33333V10.6667C9.33335 11.403 8.7364 12 8.00002 12C7.26364 12 6.66669 11.403 6.66669 10.6667L6.66669 3H5.66669L5.66669 10.6667C5.66669 11.9553 6.71136 13 8.00002 13C9.28869 13 10.3334 11.9553 10.3334 10.6667V8.33333L10.3334 4.66667Z" fill="#363636"/>
</svg>
