<svg width="16" height="16" viewBox="0 0 16 16" fill="none" xmlns="http://www.w3.org/2000/svg">
<path d="M0 8C0 3.58172 3.58172 0 8 0C12.4183 0 16 3.58172 16 8C16 12.4183 12.4183 16 8 16C3.58172 16 0 12.4183 0 8Z" fill="#363636"/>
<path fill-rule="evenodd" clip-rule="evenodd" d="M9.3125 6.125L9.3125 5.65625C9.3125 4.46539 8.34711 3.5 7.15625 3.5C5.96539 3.5 5 4.46539 5 5.65625V8.1875V9.5C5 11.1569 6.34315 12.5 8 12.5C9.65685 12.5 11 11.1569 11 9.5L11 5.1875H10.4375V9.5C10.4375 10.8462 9.34619 11.9375 8 11.9375C6.65381 11.9375 5.5625 10.8462 5.5625 9.5L5.5625 7.8125L5.5625 5.65625C5.5625 4.77605 6.27605 4.0625 7.15625 4.0625C8.03645 4.0625 8.75 4.77605 8.75 5.65625L8.75 6.125L8.75 8.1875V9.5C8.75 9.91421 8.41421 10.25 8 10.25C7.58579 10.25 7.25 9.91421 7.25 9.5L7.25 5.1875H6.6875L6.6875 9.5C6.6875 10.2249 7.27513 10.8125 8 10.8125C8.72487 10.8125 9.3125 10.2249 9.3125 9.5V8.1875L9.3125 6.125Z" fill="white"/>
</svg>
