<svg width="16" height="16" viewBox="0 0 16 16" fill="none" xmlns="http://www.w3.org/2000/svg">
<path d="M0 8C0 3.58172 3.58172 0 8 0V0C12.4183 0 16 3.58172 16 8V8C16 12.4183 12.4183 16 8 16V16C3.58172 16 0 12.4183 0 8V8Z" fill="#363636"/>
<path fill-rule="evenodd" clip-rule="evenodd" d="M10.4349 4.14676C10.6307 3.95108 10.9482 3.95108 11.144 4.14676L11.8531 4.85536C12.049 5.05104 12.049 5.36829 11.8531 5.56397L11.144 6.27257L9.72574 4.85536L10.4349 4.14676ZM9.01661 5.56397L10.4349 6.98117L5.9205 11.4989L4 12L4.50143 10.0809L9.01661 5.56397Z" fill="white"/>
</svg>
