<svg width="16" height="16" viewBox="0 0 16 16" fill="none" xmlns="http://www.w3.org/2000/svg">
<path d="M0 8C0 3.58172 3.58172 0 8 0V0C12.4183 0 16 3.58172 16 8V8C16 12.4183 12.4183 16 8 16V16C3.58172 16 0 12.4183 0 8V8Z" fill="#363636"/>
<path fill-rule="evenodd" clip-rule="evenodd" d="M9.3336 4.25V5.58268L11.5003 5.5822L11.5003 6.58171H9.3336V7.91487L7.50026 6.08197L9.3336 4.25ZM8.32282 10.3871L8.32221 10.3876C7.65794 10.1574 7.03416 9.77712 6.50363 9.24685C5.97319 8.71667 5.59278 8.09332 5.3624 7.42951C5.6638 7.37713 5.93626 7.2405 6.15462 7.04477L5.73387 4.38958C5.53587 4.30193 5.31676 4.25324 5.08627 4.25324C4.20218 4.25324 3.50079 4.96958 3.50079 5.85323L3.5 6.07129C3.55314 7.63559 4.17705 9.18413 5.37171 10.3782C6.56536 11.5713 8.11303 12.1948 9.67674 12.2489L9.89966 12.25C10.7837 12.25 11.5004 11.5479 11.5004 10.6643C11.5004 10.4338 11.4517 10.2146 11.3639 10.0166L8.7078 9.59615C8.5121 9.81417 8.3754 10.0862 8.32282 10.3871Z" fill="white"/>
</svg>
