<svg width="16" height="16" viewBox="0 0 16 16" fill="none" xmlns="http://www.w3.org/2000/svg">
<path fill-rule="evenodd" clip-rule="evenodd" d="M11.6667 0V2.66536L16.0001 2.66441L16.0001 4.66342H11.6667V7.32974L8.00003 3.66394L11.6667 0ZM9.64515 12.2742L9.64392 12.2753C8.31539 11.8148 7.06784 11.0542 6.00678 9.99369C4.9459 8.93333 4.18508 7.68664 3.72431 6.35901C4.3271 6.25426 4.87203 5.98099 5.30875 5.58955L4.46725 0.279163C4.07125 0.103865 3.63303 0.00648533 3.17205 0.00648643C1.40388 0.00648587 0.00110105 1.43917 0.00110161 3.20647L-0.000488281 3.64259C0.105795 6.77119 1.3536 9.86826 3.74294 12.2564C6.13023 14.6425 9.22558 15.8897 12.353 15.9977L12.7988 16C14.567 16 16.0004 14.5958 16.0004 12.8285C16.0004 12.3675 15.9028 11.9292 15.7273 11.5333L10.4151 10.6923C10.0237 11.1283 9.75031 11.6724 9.64515 12.2742Z" fill="#363636"/>
</svg>
