<svg width="16" height="16" viewBox="0 0 16 16" fill="none" xmlns="http://www.w3.org/2000/svg">
<path d="M0 8C0 3.58172 3.58172 0 8 0C12.4183 0 16 3.58172 16 8C16 12.4183 12.4183 16 8 16C3.58172 16 0 12.4183 0 8Z" fill="#363636"/>
<path fill-rule="evenodd" clip-rule="evenodd" d="M8.82196 10.1372L8.82258 10.1366C8.87516 9.83556 9.01185 9.56341 9.20756 9.34529L11.8636 9.76597C11.9514 9.96406 12.0002 10.1833 12.0002 10.4139C12.0002 11.298 11.2835 12.0004 10.3994 12.0004L10.1765 11.9993C8.61279 11.9452 7.06512 11.3214 5.87147 10.1277C4.6768 8.93306 4.0529 7.38377 3.99976 5.8187L4.00055 5.60053C4.00055 4.71645 4.70194 3.99976 5.58603 3.99976C5.81652 3.99975 6.03563 4.04847 6.23363 4.13616L6.65438 6.79266C6.43602 6.98847 6.16355 7.12517 5.86216 7.17758C6.09254 7.84172 6.47295 8.46537 7.00339 8.99581C7.53392 9.52634 8.1577 9.90679 8.82196 10.1372Z" fill="white"/>
</svg>
