<svg width="16" height="16" viewBox="0 0 16 16" fill="none" xmlns="http://www.w3.org/2000/svg">
<path fill-rule="evenodd" clip-rule="evenodd" d="M9.64387 12.2743L9.64509 12.2733C9.75025 11.6711 10.0236 11.1268 10.4151 10.6906L15.7272 11.5319C15.9028 11.9281 16.0003 12.3666 16.0003 12.8279C16.0003 14.596 14.567 16.0009 12.7988 16.0009L12.3529 15.9986C9.22552 15.8905 6.13018 14.6428 3.74288 12.2555C1.35355 9.86612 0.105737 6.76753 -0.000545326 3.6374L0.00104412 3.20106C0.00104412 1.4329 1.40382 -0.000489774 3.17199 -0.000489774C3.63297 -0.000490449 4.07119 0.0969375 4.46719 0.272322L5.30869 5.58531C4.87197 5.97695 4.32705 6.25035 3.72426 6.35516C4.18502 7.68344 4.94584 8.93074 6.00672 9.99162C7.06778 11.0527 8.31533 11.8136 9.64387 12.2743Z" fill="#363636"/>
</svg>
