<svg width="16" height="16" viewBox="0 0 16 16" fill="none" xmlns="http://www.w3.org/2000/svg">
<path fill-rule="evenodd" clip-rule="evenodd" d="M11.4765 12.8907C10.4957 13.5892 9.29583 14 8 14C6.70416 14 5.50427 13.5892 4.52345 12.8907L7.99999 9.4142L11.4765 12.8907ZM12.8907 11.4765L9.4142 7.99999L12.8907 4.52345C13.5892 5.50427 14 6.70416 14 8C14 9.29583 13.5892 10.4957 12.8907 11.4765ZM12.9056 14.3199L14.5858 16L16 14.5858L14.3199 12.9056C15.3729 11.551 16 9.84871 16 8C16 6.15128 15.3729 4.44903 14.3198 3.09434L16 1.4142L14.5858 0L12.9056 1.68013C11.5509 0.627078 9.84871 0 8 0C6.15129 0 4.44904 0.627082 3.09436 1.68014L1.41423 1.29947e-05L0 1.41421L1.68014 3.09436C0.627082 4.44904 0 6.15129 0 8C0 9.84871 0.627078 11.5509 1.68013 12.9056L1.38555e-06 14.5858L1.4142 16L3.09434 14.3198C4.44903 15.3729 6.15128 16 8 16C9.84871 16 11.551 15.3729 12.9056 14.3199ZM3.10924 11.4765L6.58577 7.99999L3.10925 4.52347C2.41079 5.50428 2 6.70417 2 8C2 9.29582 2.41079 10.4957 3.10924 11.4765ZM4.52347 3.10925L7.99999 6.58577L11.4765 3.10924C10.4957 2.41079 9.29582 2 8 2C6.70417 2 5.50428 2.41079 4.52347 3.10925Z" fill="#363636"/>
</svg>
