<svg width="16" height="16" viewBox="0 0 16 16" fill="none" xmlns="http://www.w3.org/2000/svg">
<path d="M0 8C0 3.58172 3.58172 0 8 0V0C12.4183 0 16 3.58172 16 8V8C16 12.4183 12.4183 16 8 16V16C3.58172 16 0 12.4183 0 8V8Z" fill="#363636"/>
<path fill-rule="evenodd" clip-rule="evenodd" d="M9.73827 10.4454C9.24786 10.7946 8.64792 11 8 11C7.35208 11 6.75214 10.7946 6.26173 10.4454L7.99999 8.7071L9.73827 10.4454ZM10.4454 9.73827L8.7071 7.99999L10.4454 6.26173C10.7946 6.75214 11 7.35208 11 8C11 8.64792 10.7946 9.24786 10.4454 9.73827ZM10.4528 11.1599L11.2929 12L12 11.2929L11.1599 10.4528C11.6865 9.77548 12 8.92436 12 8C12 7.07564 11.6865 6.22451 11.1599 5.54717L12 4.7071L11.2929 4L10.4528 4.84007C9.77547 4.31354 8.92435 4 8 4C7.07564 4 6.22452 4.31354 5.54718 4.84007L4.70711 4.00001L4 4.70711L4.84007 5.54718C4.31354 6.22452 4 7.07564 4 8C4 8.92435 4.31354 9.77547 4.84007 10.4528L4 11.2929L4.7071 12L5.54717 11.1599C6.22451 11.6865 7.07564 12 8 12C8.92436 12 9.77548 11.6865 10.4528 11.1599ZM5.55462 9.73826L7.29289 7.99999L5.55463 6.26173C5.2054 6.75214 5 7.35208 5 8C5 8.64791 5.20539 9.24785 5.55462 9.73826ZM6.26173 5.55463L7.99999 7.29289L9.73826 5.55462C9.24785 5.20539 8.64791 5 8 5C7.35208 5 6.75214 5.2054 6.26173 5.55463Z" fill="white"/>
</svg>
