<svg width="16" height="16" viewBox="0 0 16 16" fill="none" xmlns="http://www.w3.org/2000/svg">
<path fill-rule="evenodd" clip-rule="evenodd" d="M9.07762 0.302263C9.6197 0.485743 10.12 0.774498 10.5501 1.15249C10.9532 1.52479 11.2687 1.98166 11.4752 2.48999C11.6965 3.02739 11.8068 3.6039 11.8001 4.18542C11.8034 4.54102 11.7593 4.89561 11.6704 5.23985C11.5735 5.58107 11.4408 5.91094 11.2757 6.22476C11.0882 6.57567 10.8703 6.90988 10.6253 7.22337C10.365 7.53285 10.0665 7.88443 9.72899 8.27779C9.41851 8.60833 9.1712 8.99233 8.99941 9.41143C8.86072 9.74931 8.78819 10.1106 8.78585 10.4752V11.7295H5.99856V9.6808C5.99723 9.10329 6.11086 8.53179 6.33277 7.99906C6.61116 7.3741 6.98949 6.79826 7.45236 6.29427C7.74814 5.98379 8.00849 5.64123 8.22806 5.27226C8.40619 4.92736 8.48975 4.54102 8.46936 4.153C8.46067 3.80175 8.31362 3.46788 8.06096 3.22391C7.75148 2.92412 7.32871 2.77039 6.89925 2.80113C6.39593 2.79846 5.8983 2.9044 5.44044 3.11228C5.01599 3.31982 4.61695 3.57549 4.25099 3.87427L4 1.02683C4.41809 0.699302 4.88933 0.445972 5.39365 0.278869C5.9628 0.0903755 6.55936 -0.00387114 7.15893 0.000473563C7.81097 -0.00788163 8.45967 0.0943859 9.07762 0.302263ZM8.77082 14.6154C8.77082 13.8504 8.1512 13.2308 7.38653 13.2308C6.62186 13.2308 6.00224 13.8504 6.00224 14.6154C6.00224 15.3797 6.62186 16 7.38653 16C8.1512 16 8.77082 15.3797 8.77082 14.6154Z" fill="#363636"/>
</svg>
