<svg width="16" height="16" viewBox="0 0 16 16" fill="none" xmlns="http://www.w3.org/2000/svg">
<path d="M0 8C0 3.58172 3.58172 0 8 0C12.4183 0 16 3.58172 16 8C16 12.4183 12.4183 16 8 16C3.58172 16 0 12.4183 0 8Z" fill="#363636"/>
<path fill-rule="evenodd" clip-rule="evenodd" d="M8.53881 4.15113C8.80985 4.24287 9.06001 4.38725 9.27507 4.57624C9.4766 4.7624 9.63434 4.99083 9.73761 5.24499C9.84823 5.5137 9.90338 5.80195 9.90004 6.09271C9.90171 6.27051 9.87965 6.44781 9.8352 6.61992C9.78674 6.79054 9.7204 6.95547 9.63785 7.11238C9.54411 7.28784 9.43515 7.45494 9.31267 7.61168C9.18249 7.76642 9.03327 7.94222 8.86449 8.1389C8.70925 8.30416 8.5856 8.49617 8.49971 8.70571C8.43036 8.87466 8.3941 9.05529 8.39293 9.2376V9.86475H6.99928V8.8404C6.99861 8.55164 7.05543 8.2659 7.16638 7.99953C7.30558 7.68705 7.49474 7.39913 7.72618 7.14714C7.87407 6.9919 8.00424 6.82062 8.11403 6.63613C8.2031 6.46368 8.24487 6.27051 8.23468 6.0765C8.23034 5.90088 8.15681 5.73394 8.03048 5.61195C7.87574 5.46206 7.66435 5.38519 7.44963 5.40057C7.19797 5.39923 6.94915 5.4522 6.72022 5.55614C6.508 5.65991 6.30847 5.78775 6.12549 5.93714L6 4.51341C6.20905 4.34965 6.44466 4.22299 6.69682 4.13943C6.9814 4.04519 7.27968 3.99806 7.57947 4.00024C7.90549 3.99606 8.22983 4.04719 8.53881 4.15113ZM8.38542 11.3077C8.38542 10.9252 8.07561 10.6154 7.69327 10.6154C7.31094 10.6154 7.00113 10.9252 7.00113 11.3077C7.00113 11.6899 7.31094 12 7.69327 12C8.07561 12 8.38542 11.6899 8.38542 11.3077Z" fill="white"/>
</svg>
