<svg width="16" height="16" viewBox="0 0 16 16" fill="none" xmlns="http://www.w3.org/2000/svg">
<circle cx="8" cy="8" r="8" fill="#363636"/>
<path d="M9.62784 9.09624C9.62784 9.34286 9.58423 9.58346 9.49702 9.81805C9.40679 10.0466 9.27596 10.2496 9.10454 10.4271C8.93311 10.5985 8.71657 10.7368 8.45491 10.8421C8.32559 10.8962 8.18574 10.9353 8.03536 10.9594C7.88799 10.9865 7.7286 11 7.55717 11C7.3316 11 7.11957 10.9774 6.92108 10.9323C6.71657 10.8842 6.55566 10.8286 6.43837 10.7654L6.34814 9.93534C6.53461 10.0466 6.72408 10.1278 6.91657 10.1789C7.11205 10.2331 7.31055 10.2602 7.51205 10.2602C7.68348 10.2602 7.84589 10.2331 7.99927 10.1789C8.15266 10.1278 8.28799 10.0511 8.40529 9.94887C8.46243 9.89774 8.51356 9.84211 8.55867 9.78195C8.60679 9.7218 8.64739 9.65414 8.68048 9.57895C8.74664 9.43759 8.77972 9.27368 8.77972 9.08722C8.77972 8.89173 8.74664 8.7218 8.68048 8.57744C8.6113 8.42707 8.51957 8.29925 8.40529 8.19398C8.29702 8.09474 8.16619 8.01504 8.01281 7.95489C7.86544 7.90075 7.70754 7.87368 7.53912 7.87368C7.32258 7.87368 7.13461 7.88722 6.97521 7.91429C6.89401 7.92932 6.81581 7.94737 6.74063 7.96842C6.66544 7.98647 6.59326 8.00752 6.52408 8.03158L6.61431 5H9.19476L9.03687 5.7218H7.41732L7.38123 7.15639C7.40228 7.15338 7.42183 7.15038 7.43987 7.14737C7.46093 7.14436 7.48198 7.14135 7.50303 7.13835C7.52408 7.13534 7.54363 7.13383 7.56168 7.13383C7.58273 7.13383 7.60378 7.13383 7.62484 7.13383C7.89852 7.13383 8.15717 7.17895 8.40078 7.26917C8.63837 7.35639 8.8519 7.48571 9.04138 7.65714C9.22183 7.82556 9.36469 8.03008 9.46995 8.27068C9.57521 8.51729 9.62784 8.79248 9.62784 9.09624Z" fill="white"/>
</svg>
