<svg width="16" height="16" viewBox="0 0 16 16" fill="none" xmlns="http://www.w3.org/2000/svg">
<path fill-rule="evenodd" clip-rule="evenodd" d="M7.99996 0L0 7.99996L7.99996 15.9999L15.9996 7.99992L7.99996 0Z" fill="#363636"/>
<path d="M9.65413 9.18584C9.65413 9.44838 9.60841 9.68879 9.51697 9.90708C9.42552 10.1224 9.28983 10.3142 9.10989 10.4823C8.9329 10.6416 8.71313 10.7684 8.4506 10.8628C8.19396 10.9543 7.89455 11 7.55236 11C7.41077 11 7.25001 10.9838 7.07006 10.9513C6.89897 10.9159 6.73968 10.8687 6.59219 10.8097L6.49927 10C6.64676 10.0826 6.81048 10.149 6.99042 10.1991C7.17626 10.2493 7.3503 10.2743 7.51254 10.2743C7.67773 10.2743 7.83555 10.2507 7.98599 10.2035C8.14234 10.1593 8.28245 10.0885 8.40635 9.99115C8.53024 9.89086 8.62906 9.76696 8.70281 9.61947C8.7795 9.46608 8.81785 9.28761 8.81785 9.08407C8.81785 8.93363 8.78688 8.79056 8.72493 8.65487C8.65708 8.51327 8.57006 8.39381 8.46387 8.29646C8.34883 8.19027 8.22198 8.10767 8.08334 8.04867C7.9329 7.98968 7.77655 7.96018 7.61431 7.96018H7.54794C7.53319 7.96018 7.51697 7.96165 7.49927 7.9646C7.48157 7.9646 7.46534 7.96608 7.4506 7.96903L7.28688 7.29204C7.44027 7.25959 7.58039 7.21534 7.70723 7.15929C7.83408 7.10324 7.94765 7.03392 8.04794 6.95133C8.14234 6.87168 8.21756 6.78319 8.2736 6.68584C8.32965 6.59145 8.35767 6.4882 8.35767 6.37611C8.35767 6.27286 8.3385 6.18142 8.30015 6.10177C8.2618 6.01917 8.21018 5.94985 8.14529 5.89381C8.08039 5.83481 8.00074 5.79056 7.90635 5.76106C7.81785 5.73156 7.72051 5.71681 7.61431 5.71681C7.52877 5.71681 7.44765 5.72124 7.37095 5.73009C7.29425 5.73894 7.22051 5.75221 7.14971 5.76991C7.07596 5.79056 7.00074 5.81711 6.92405 5.84956C6.84735 5.88496 6.76623 5.92773 6.68068 5.97788L6.53467 5.27876C6.70576 5.18732 6.88127 5.11652 7.06121 5.06637C7.23821 5.02212 7.43142 5 7.64086 5C7.8621 5 8.06711 5.03097 8.2559 5.09292C8.4506 5.16077 8.61431 5.25074 8.74706 5.36283C8.8857 5.47788 8.99189 5.61504 9.06564 5.77434C9.14234 5.94248 9.18068 6.11947 9.18068 6.30531C9.18068 6.4646 9.15708 6.60619 9.10989 6.73009C9.08629 6.79499 9.05974 6.85546 9.03024 6.9115C9.00074 6.9646 8.96682 7.01475 8.92847 7.06195C8.85472 7.15339 8.7677 7.23304 8.66741 7.30088C8.56416 7.36873 8.46387 7.4174 8.36652 7.4469C8.52287 7.4823 8.67773 7.54425 8.83113 7.63274C8.98747 7.72714 9.12611 7.84513 9.24706 7.98673C9.30605 8.06047 9.36062 8.14012 9.41077 8.22566C9.46092 8.30826 9.50517 8.39971 9.54352 8.5C9.61726 8.69469 9.65413 8.9233 9.65413 9.18584Z" fill="white"/>
</svg>
