<svg width="16" height="16" viewBox="0 0 16 16" fill="none" xmlns="http://www.w3.org/2000/svg">
<path fill-rule="evenodd" clip-rule="evenodd" d="M7.99996 0L0 7.99996L7.99996 15.9999L15.9996 7.99992L7.99996 0Z" fill="#363636"/>
<path d="M10.0311 7.0655C10.0311 7.1936 10.0238 7.32023 10.0092 7.44541C9.9947 7.5706 9.9729 7.69869 9.9437 7.82969C9.9117 7.9607 9.8739 8.08879 9.8302 8.21397C9.7895 8.33624 9.7414 8.45997 9.6861 8.58515C9.5726 8.83261 9.4372 9.07278 9.28 9.30568C9.2014 9.42504 9.1184 9.54003 9.0311 9.65066C8.94375 9.76128 8.85059 9.86754 8.75161 9.96943C8.55073 10.179 8.33676 10.3697 8.10969 10.5415C7.87388 10.7191 7.63225 10.8719 7.38479 11L6.5813 10.6245C6.72104 10.5575 6.8535 10.4862 6.97868 10.4105C7.10677 10.3348 7.23196 10.2562 7.35423 10.1747C7.59003 10.0175 7.80983 9.84279 8.01362 9.65066C8.21158 9.46143 8.38916 9.25764 8.54637 9.0393C8.62206 8.92868 8.69193 8.81514 8.75597 8.69869C8.82293 8.58224 8.88116 8.46143 8.93065 8.33624C8.82293 8.44396 8.69629 8.5313 8.55073 8.59825C8.40226 8.66812 8.22904 8.70306 8.03108 8.70306C7.75743 8.70306 7.50852 8.65502 7.28436 8.55895C7.06311 8.46288 6.87097 8.33188 6.70794 8.16594C6.54491 7.99709 6.41973 7.80204 6.33239 7.58079C6.24215 7.36245 6.19702 7.12227 6.19702 6.86026C6.19702 6.59243 6.24506 6.34498 6.34113 6.1179C6.43428 5.89083 6.56529 5.69432 6.73414 5.52838C6.9059 5.35953 7.10677 5.22999 7.33676 5.13974C7.57257 5.04658 7.82439 5 8.09222 5C8.35132 5 8.59877 5.04367 8.83458 5.131C9.0675 5.22416 9.2727 5.35662 9.4503 5.52838C9.6279 5.70306 9.7691 5.91849 9.8739 6.17467C9.9787 6.43086 10.0311 6.7278 10.0311 7.0655ZM9.2014 6.91266C9.2014 6.75255 9.1708 6.60116 9.1097 6.45852C9.0456 6.31878 8.96267 6.1936 8.86078 6.08297C8.75888 5.97817 8.63953 5.89229 8.5027 5.82533C8.36878 5.76419 8.22613 5.73362 8.07475 5.73362C7.92628 5.73362 7.788 5.75983 7.6599 5.81223C7.59586 5.84134 7.53618 5.87482 7.48086 5.91266C7.42555 5.95051 7.37461 5.99418 7.32803 6.04367C7.23487 6.13974 7.15918 6.26055 7.10095 6.40611C7.04564 6.54294 7.01798 6.69723 7.01798 6.869C7.01798 7.02911 7.04418 7.17758 7.09658 7.31441C7.14899 7.45415 7.22177 7.57496 7.31493 7.67686C7.411 7.78166 7.52308 7.86172 7.65117 7.91703C7.78509 7.97525 7.92919 8.00437 8.08348 8.00437C8.19702 8.00437 8.31201 7.99127 8.42846 7.96507C8.54782 7.93886 8.65554 7.89374 8.75161 7.82969C8.85059 7.77147 8.93938 7.6885 9.018 7.58079C9.0966 7.47598 9.1548 7.34643 9.1927 7.19214C9.1956 7.16885 9.197 7.14556 9.197 7.12227C9.1999 7.09898 9.2014 7.07569 9.2014 7.0524V6.91266Z" fill="white"/>
</svg>
