<svg width="17" height="16" viewBox="0 0 17 16" fill="none" xmlns="http://www.w3.org/2000/svg">
<path d="M0.99707 7.99996C0.99707 3.58179 4.57871 0 8.99688 0C13.4151 0 16.9967 3.58179 16.9967 7.99996C16.9967 12.4181 13.4151 15.9999 8.99688 15.9999C4.57871 15.9999 0.99707 12.4181 0.99707 7.99996Z" fill="#363636"/>
<path d="M11.0311 7.0655C11.0311 7.1936 11.0238 7.32023 11.0092 7.44541C10.9947 7.5706 10.9729 7.69869 10.9437 7.82969C10.9117 7.9607 10.8739 8.08879 10.8302 8.21397C10.7895 8.33624 10.7414 8.45997 10.6861 8.58515C10.5726 8.83261 10.4372 9.07278 10.28 9.30568C10.2014 9.42504 10.1184 9.54003 10.0311 9.65066C9.94375 9.76128 9.85059 9.86754 9.75161 9.96943C9.55073 10.179 9.33676 10.3697 9.10969 10.5415C8.87388 10.7191 8.63225 10.8719 8.38479 11L7.5813 10.6245C7.72104 10.5575 7.8535 10.4862 7.97868 10.4105C8.10677 10.3348 8.23196 10.2562 8.35423 10.1747C8.59003 10.0175 8.80983 9.84279 9.01362 9.65066C9.21158 9.46143 9.38916 9.25764 9.54637 9.0393C9.62206 8.92868 9.69193 8.81514 9.75597 8.69869C9.82293 8.58224 9.88116 8.46143 9.93065 8.33624C9.82293 8.44396 9.69629 8.5313 9.55073 8.59825C9.40226 8.66812 9.22904 8.70306 9.03108 8.70306C8.75743 8.70306 8.50852 8.65502 8.28436 8.55895C8.06311 8.46288 7.87097 8.33188 7.70794 8.16594C7.54491 7.99709 7.41973 7.80204 7.33239 7.58079C7.24215 7.36245 7.19702 7.12227 7.19702 6.86026C7.19702 6.59243 7.24506 6.34498 7.34113 6.1179C7.43428 5.89083 7.56529 5.69432 7.73414 5.52838C7.9059 5.35953 8.10677 5.22999 8.33676 5.13974C8.57257 5.04658 8.82439 5 9.09222 5C9.35132 5 9.59877 5.04367 9.83458 5.131C10.0675 5.22416 10.2727 5.35662 10.4503 5.52838C10.6279 5.70306 10.7691 5.91849 10.8739 6.17467C10.9787 6.43086 11.0311 6.7278 11.0311 7.0655ZM10.2014 6.91266C10.2014 6.75255 10.1708 6.60116 10.1097 6.45852C10.0456 6.31878 9.96267 6.1936 9.86078 6.08297C9.75888 5.97817 9.63953 5.89229 9.5027 5.82533C9.36878 5.76419 9.22613 5.73362 9.07475 5.73362C8.92628 5.73362 8.788 5.75983 8.6599 5.81223C8.59586 5.84134 8.53618 5.87482 8.48086 5.91266C8.42555 5.95051 8.37461 5.99418 8.32803 6.04367C8.23487 6.13974 8.15918 6.26055 8.10095 6.40611C8.04564 6.54294 8.01798 6.69723 8.01798 6.869C8.01798 7.02911 8.04418 7.17758 8.09658 7.31441C8.14899 7.45415 8.22177 7.57496 8.31493 7.67686C8.411 7.78166 8.52308 7.86172 8.65117 7.91703C8.78509 7.97525 8.92919 8.00437 9.08348 8.00437C9.19702 8.00437 9.31201 7.99127 9.42846 7.96507C9.54782 7.93886 9.65554 7.89374 9.75161 7.82969C9.85059 7.77147 9.93938 7.6885 10.018 7.58079C10.0966 7.47598 10.1548 7.34643 10.1927 7.19214C10.1956 7.16885 10.197 7.14556 10.197 7.12227C10.1999 7.09898 10.2014 7.07569 10.2014 7.0524V6.91266Z" fill="white"/>
</svg>
