<svg width="16" height="16" viewBox="0 0 16 16" fill="none" xmlns="http://www.w3.org/2000/svg">
<path fill-rule="evenodd" clip-rule="evenodd" d="M7.99886 0L-0.00109863 7.99996L7.99886 15.9999L15.9985 7.99992L7.99886 0Z" fill="#363636"/>
<path d="M8.83096 9.39327V11H7.9725V9.39327H5.57617L5.42468 8.71385L8.25712 5H8.83096V8.69549H9.53333V9.39327H8.83096ZM7.96332 6.49656C7.87457 6.63734 7.78582 6.76741 7.69706 6.88676C7.65116 6.94797 7.60525 7.00918 7.55934 7.07039C7.51344 7.1316 7.46906 7.19128 7.42621 7.24943L6.31986 8.69549H7.9725V7.24024V6.88217C7.9725 6.82096 7.9725 6.75976 7.9725 6.69855C7.97556 6.63734 7.97862 6.57307 7.98168 6.50574L7.96332 6.49656Z" fill="white"/>
</svg>
