<svg width="16" height="16" viewBox="0 0 16 16" fill="none" xmlns="http://www.w3.org/2000/svg">
<path fill-rule="evenodd" clip-rule="evenodd" d="M8 16C12.4183 16 16 12.4183 16 8C16 3.58172 12.4183 0 8 0C3.58172 0 0 3.58172 0 8C0 12.4183 3.58172 16 8 16Z" fill="#363636"/>
<path d="M5.74853 10.8895V5.77761L4.75 5.87482L4.90464 5.18999L6.57032 5.03535V10.8895H5.74853Z" fill="white"/>
<path d="M11.4702 7.99558C11.4702 8.51105 11.4157 8.95434 11.3067 9.32548C11.1948 9.7025 11.049 10.0147 10.8693 10.2622C10.6896 10.5096 10.4805 10.6937 10.2419 10.8144C10.0033 10.9381 9.75442 11 9.49521 11C9.23306 11 8.98417 10.9381 8.74853 10.8144C8.51289 10.6966 8.30376 10.5125 8.12113 10.2622C7.93851 10.0118 7.79418 9.69956 7.68814 9.32548C7.57916 8.95434 7.52467 8.51105 7.52467 7.99558C7.52467 7.48306 7.57916 7.04124 7.68814 6.6701C7.79124 6.29897 7.93557 5.98822 8.12113 5.73785C8.30376 5.49043 8.51289 5.30486 8.74853 5.18115C8.98417 5.06038 9.23306 5 9.49521 5C9.75147 5 10.0004 5.06038 10.2419 5.18115C10.4805 5.30781 10.6896 5.49337 10.8693 5.73785C11.0519 5.98527 11.1977 6.29602 11.3067 6.6701C11.4157 7.04124 11.4702 7.48306 11.4702 7.99558ZM10.6351 7.99558C10.6351 7.79234 10.6263 7.60383 10.6086 7.43004C10.5939 7.25626 10.5703 7.0972 10.5379 6.95287C10.4702 6.66127 10.3848 6.4271 10.2817 6.25037C10.1786 6.07364 10.0578 5.94256 9.91937 5.85714C9.78387 5.77467 9.64249 5.73343 9.49521 5.73343C9.34794 5.73343 9.20655 5.77467 9.07106 5.85714C8.92968 5.94551 8.80744 6.07658 8.70434 6.25037C8.59831 6.43004 8.51436 6.66421 8.4525 6.95287C8.4201 7.0972 8.39507 7.25626 8.37739 7.43004C8.36267 7.60383 8.3553 7.79234 8.3553 7.99558C8.3553 8.41384 8.3877 8.76289 8.4525 9.04271C8.51436 9.32842 8.59831 9.56259 8.70434 9.74521C8.81038 9.92489 8.93262 10.0574 9.07106 10.1429C9.20655 10.2253 9.34794 10.2666 9.49521 10.2666C9.64249 10.2666 9.78387 10.2253 9.91937 10.1429C10.0549 10.0604 10.1756 9.92784 10.2817 9.74521C10.3848 9.56848 10.4702 9.33432 10.5379 9.04271C10.6027 8.76289 10.6351 8.41384 10.6351 7.99558Z" fill="white"/>
</svg>
