<svg width="16" height="16" viewBox="0 0 16 16" fill="none" xmlns="http://www.w3.org/2000/svg">
<circle cx="8" cy="8" r="8" fill="#363636"/>
<path d="M9.93322 9.29013C9.93322 9.55523 9.88167 9.79529 9.77858 10.0103C9.67843 10.2165 9.53852 10.3947 9.35884 10.5449C9.17622 10.6951 8.97151 10.8071 8.7447 10.8807C8.51201 10.9602 8.26311 11 7.99802 11C7.73881 11 7.49139 10.9602 7.25575 10.8807C7.026 10.8071 6.82276 10.6951 6.64603 10.5449C6.46635 10.3947 6.32644 10.2165 6.22629 10.0103C6.1232 9.79529 6.07166 9.55523 6.07166 9.29013C6.07166 9.07511 6.10995 8.87923 6.18653 8.7025C6.26017 8.53166 6.3559 8.3785 6.47372 8.243C6.53263 8.1782 6.59154 8.11929 6.65045 8.06627C6.7123 8.01031 6.7771 7.96171 6.84485 7.92047C6.9126 7.87923 6.97593 7.84242 7.03484 7.81001C7.09669 7.77761 7.1556 7.7511 7.21157 7.73049C7.10258 7.6863 6.9936 7.62592 6.88462 7.54934C6.77858 7.4757 6.68432 7.38586 6.60185 7.27982C6.51643 7.17378 6.45015 7.05302 6.40302 6.91753C6.35001 6.77909 6.3235 6.62887 6.3235 6.46686C6.3235 6.25773 6.36621 6.06038 6.45163 5.87482C6.53705 5.69219 6.65339 5.53756 6.80067 5.4109C6.95089 5.2813 7.12909 5.17968 7.33528 5.10604C7.53852 5.03535 7.75943 5 7.99802 5C8.2366 5 8.45899 5.03535 8.66518 5.10604C8.87136 5.17968 9.04956 5.2813 9.19978 5.4109C9.35295 5.5405 9.47077 5.69514 9.55325 5.87482C9.63867 6.06038 9.68138 6.25773 9.68138 6.46686C9.68138 6.62592 9.65487 6.77172 9.60185 6.90427C9.54883 7.04271 9.48108 7.16348 9.39861 7.26657C9.35737 7.32253 9.31171 7.37261 9.26164 7.41679C9.21451 7.46097 9.16444 7.50221 9.11142 7.5405C9.00538 7.61414 8.89934 7.67158 8.7933 7.71281C8.90229 7.74816 9.02305 7.81001 9.1556 7.89838C9.28815 7.98675 9.41186 8.0972 9.52674 8.22975C9.64161 8.3623 9.73881 8.51694 9.81834 8.69367C9.89492 8.87923 9.93322 9.07806 9.93322 9.29013ZM8.89492 6.48454C8.89492 6.36966 8.87283 6.26362 8.82865 6.16642C8.77858 6.06922 8.71525 5.98675 8.63867 5.919C8.55619 5.84536 8.46194 5.7894 8.3559 5.7511C8.24986 5.71281 8.13351 5.69367 8.00685 5.69367C7.88314 5.69367 7.76974 5.71281 7.66665 5.7511C7.56356 5.7894 7.47077 5.84536 7.3883 5.919C7.30877 5.98969 7.24691 6.07217 7.20273 6.16642C7.1556 6.26068 7.13204 6.36672 7.13204 6.48454C7.13204 6.58763 7.1556 6.68483 7.20273 6.77614C7.24691 6.8704 7.30877 6.95729 7.3883 7.03682C7.46488 7.1134 7.56061 7.18409 7.67548 7.2489C7.78447 7.31075 7.90671 7.35935 8.0422 7.3947C8.10995 7.37408 8.17328 7.35199 8.23219 7.32842C8.2911 7.30191 8.34706 7.27246 8.40008 7.24006C8.50317 7.18115 8.59301 7.11046 8.66959 7.02798C8.70789 6.98675 8.74029 6.94551 8.7668 6.90427C8.7933 6.86009 8.81687 6.81443 8.83749 6.7673C8.87578 6.67894 8.89492 6.58468 8.89492 6.48454ZM9.10258 9.2592C9.10258 9.10604 9.06576 8.96907 8.99213 8.84831C8.91554 8.72165 8.82129 8.61119 8.70936 8.51694C8.65045 8.46686 8.59006 8.42121 8.52821 8.37997C8.46635 8.33873 8.40155 8.30191 8.33381 8.26951C8.26606 8.23711 8.19831 8.20913 8.13057 8.18557C8.06576 8.15906 8.00096 8.13697 7.93616 8.11929C7.87431 8.13697 7.81245 8.15906 7.75059 8.18557C7.68874 8.21208 7.62541 8.24153 7.56061 8.27393C7.43395 8.33873 7.31761 8.41973 7.21157 8.51694C7.10258 8.61708 7.01569 8.72754 6.95089 8.84831C6.88314 8.97496 6.84927 9.11193 6.84927 9.2592C6.84927 9.40648 6.8802 9.54197 6.94205 9.66569C6.97151 9.72754 7.00685 9.78498 7.04809 9.838C7.08933 9.89102 7.13498 9.94109 7.18506 9.98822C7.28815 10.0795 7.40744 10.1502 7.54294 10.2003C7.68432 10.2504 7.82718 10.2754 7.97151 10.2754C8.12173 10.2754 8.26753 10.2504 8.40892 10.2003C8.54735 10.1502 8.66665 10.0795 8.7668 9.98822C8.87283 9.89102 8.95531 9.78351 9.01422 9.66569C9.07313 9.53903 9.10258 9.40353 9.10258 9.2592Z" fill="white"/>
</svg>
