<svg width="17" height="16" viewBox="0 0 17 16" fill="none" xmlns="http://www.w3.org/2000/svg">
<path d="M0.997437 7.99996C0.997437 3.58179 4.57907 0 8.99725 0C13.4154 0 16.9971 3.58179 16.9971 7.99996C16.9971 12.4181 13.4154 15.9999 8.99725 15.9999C4.57907 15.9999 0.997437 12.4181 0.997437 7.99996Z" fill="#363636"/>
<path d="M10.9332 9.29013C10.9332 9.55523 10.8817 9.79529 10.7786 10.0103C10.6784 10.2165 10.5385 10.3947 10.3588 10.5449C10.1762 10.6951 9.97151 10.8071 9.7447 10.8807C9.51201 10.9602 9.26311 11 8.99802 11C8.73881 11 8.49139 10.9602 8.25575 10.8807C8.026 10.8071 7.82276 10.6951 7.64603 10.5449C7.46635 10.3947 7.32644 10.2165 7.22629 10.0103C7.1232 9.79529 7.07166 9.55523 7.07166 9.29013C7.07166 9.07511 7.10995 8.87923 7.18653 8.7025C7.26017 8.53166 7.3559 8.3785 7.47372 8.243C7.53263 8.1782 7.59154 8.11929 7.65045 8.06627C7.7123 8.01031 7.7771 7.96171 7.84485 7.92047C7.9126 7.87923 7.97593 7.84242 8.03484 7.81001C8.09669 7.77761 8.1556 7.7511 8.21157 7.73049C8.10258 7.6863 7.9936 7.62592 7.88462 7.54934C7.77858 7.4757 7.68432 7.38586 7.60185 7.27982C7.51643 7.17378 7.45015 7.05302 7.40302 6.91753C7.35001 6.77909 7.3235 6.62887 7.3235 6.46686C7.3235 6.25773 7.36621 6.06038 7.45163 5.87482C7.53705 5.69219 7.65339 5.53756 7.80067 5.4109C7.95089 5.2813 8.12909 5.17968 8.33528 5.10604C8.53852 5.03535 8.75943 5 8.99802 5C9.2366 5 9.45899 5.03535 9.66518 5.10604C9.87136 5.17968 10.0496 5.2813 10.1998 5.4109C10.353 5.5405 10.4708 5.69514 10.5532 5.87482C10.6387 6.06038 10.6814 6.25773 10.6814 6.46686C10.6814 6.62592 10.6549 6.77172 10.6018 6.90427C10.5488 7.04271 10.4811 7.16348 10.3986 7.26657C10.3574 7.32253 10.3117 7.37261 10.2616 7.41679C10.2145 7.46097 10.1644 7.50221 10.1114 7.5405C10.0054 7.61414 9.89934 7.67158 9.7933 7.71281C9.90229 7.74816 10.0231 7.81001 10.1556 7.89838C10.2882 7.98675 10.4119 8.0972 10.5267 8.22975C10.6416 8.3623 10.7388 8.51694 10.8183 8.69367C10.8949 8.87923 10.9332 9.07806 10.9332 9.29013ZM9.89492 6.48454C9.89492 6.36966 9.87283 6.26362 9.82865 6.16642C9.77858 6.06922 9.71525 5.98675 9.63867 5.919C9.55619 5.84536 9.46194 5.7894 9.3559 5.7511C9.24986 5.71281 9.13351 5.69367 9.00685 5.69367C8.88314 5.69367 8.76974 5.71281 8.66665 5.7511C8.56356 5.7894 8.47077 5.84536 8.3883 5.919C8.30877 5.98969 8.24691 6.07217 8.20273 6.16642C8.1556 6.26068 8.13204 6.36672 8.13204 6.48454C8.13204 6.58763 8.1556 6.68483 8.20273 6.77614C8.24691 6.8704 8.30877 6.95729 8.3883 7.03682C8.46488 7.1134 8.56061 7.18409 8.67548 7.2489C8.78447 7.31075 8.90671 7.35935 9.0422 7.3947C9.10995 7.37408 9.17328 7.35199 9.23219 7.32842C9.2911 7.30191 9.34706 7.27246 9.40008 7.24006C9.50317 7.18115 9.59301 7.11046 9.66959 7.02798C9.70789 6.98675 9.74029 6.94551 9.7668 6.90427C9.7933 6.86009 9.81687 6.81443 9.83749 6.7673C9.87578 6.67894 9.89492 6.58468 9.89492 6.48454ZM10.1026 9.2592C10.1026 9.10604 10.0658 8.96907 9.99213 8.84831C9.91554 8.72165 9.82129 8.61119 9.70936 8.51694C9.65045 8.46686 9.59006 8.42121 9.52821 8.37997C9.46635 8.33873 9.40155 8.30191 9.33381 8.26951C9.26606 8.23711 9.19831 8.20913 9.13057 8.18557C9.06576 8.15906 9.00096 8.13697 8.93616 8.11929C8.87431 8.13697 8.81245 8.15906 8.75059 8.18557C8.68874 8.21208 8.62541 8.24153 8.56061 8.27393C8.43395 8.33873 8.31761 8.41973 8.21157 8.51694C8.10258 8.61708 8.01569 8.72754 7.95089 8.84831C7.88314 8.97496 7.84927 9.11193 7.84927 9.2592C7.84927 9.40648 7.8802 9.54197 7.94205 9.66569C7.97151 9.72754 8.00685 9.78498 8.04809 9.838C8.08933 9.89102 8.13498 9.94109 8.18506 9.98822C8.28815 10.0795 8.40744 10.1502 8.54294 10.2003C8.68432 10.2504 8.82718 10.2754 8.97151 10.2754C9.12173 10.2754 9.26753 10.2504 9.40892 10.2003C9.54735 10.1502 9.66665 10.0795 9.7668 9.98822C9.87283 9.89102 9.95531 9.78351 10.0142 9.66569C10.0731 9.53903 10.1026 9.40353 10.1026 9.2592Z" fill="white"/>
</svg>
