<svg width="16" height="16" viewBox="0 0 16 16" fill="none" xmlns="http://www.w3.org/2000/svg">
<path fill-rule="evenodd" clip-rule="evenodd" d="M7.99996 0L0 7.99996L7.99996 15.9999L15.9996 7.99992L7.99996 0Z" fill="#363636"/>
<path fill-rule="evenodd" clip-rule="evenodd" d="M11.3034 9.32548C11.4124 8.95434 11.4669 8.51105 11.4669 7.99558C11.4669 7.48306 11.4124 7.04124 11.3034 6.6701C11.1944 6.29602 11.0486 5.98527 10.866 5.73785C10.6863 5.49337 10.4772 5.30781 10.2386 5.18115C9.99709 5.06038 9.74819 5 9.49189 5C9.22979 5 8.98086 5.06038 8.74522 5.18115C8.50958 5.30486 8.30045 5.49043 8.11783 5.73785C7.93226 5.98822 7.78793 6.29897 7.68484 6.6701C7.57585 7.04124 7.52136 7.48306 7.52136 7.99558C7.52136 8.51105 7.57585 8.95434 7.68484 9.32548C7.79088 9.69956 7.93521 10.0118 8.11783 10.2622C8.30045 10.5125 8.50958 10.6966 8.74522 10.8144C8.98086 10.9381 9.22979 11 9.49189 11C9.75109 11 9.99999 10.9381 10.2386 10.8144C10.4772 10.6937 10.6863 10.5096 10.866 10.2622C11.0457 10.0147 11.1915 9.7025 11.3034 9.32548ZM10.6053 7.43004C10.623 7.60383 10.6318 7.79234 10.6318 7.99558C10.6318 8.41384 10.5994 8.76289 10.5346 9.04271C10.4669 9.33432 10.3815 9.56848 10.2784 9.74521C10.1723 9.92784 10.0516 10.0604 9.91609 10.1429C9.78059 10.2253 9.63919 10.2666 9.49189 10.2666C9.34459 10.2666 9.20329 10.2253 9.06779 10.1429C8.92932 10.0574 8.80708 9.92489 8.70104 9.74521C8.595 9.56259 8.51105 9.32842 8.4492 9.04271C8.3844 8.76289 8.352 8.41384 8.352 7.99558C8.352 7.79234 8.35936 7.60383 8.37409 7.43004C8.39176 7.25626 8.4168 7.0972 8.4492 6.95287C8.51105 6.66421 8.595 6.43004 8.70104 6.25037C8.80413 6.07658 8.92637 5.94551 9.06779 5.85714C9.20329 5.77467 9.34459 5.73343 9.49189 5.73343C9.63919 5.73343 9.78059 5.77467 9.91609 5.85714C10.0545 5.94256 10.1753 6.07364 10.2784 6.25037C10.3815 6.4271 10.4669 6.66127 10.5346 6.95287C10.567 7.0972 10.5906 7.25626 10.6053 7.43004ZM5.74523 5.7776V10.8895H6.56703V5.03534L4.90134 5.18998L4.7467 5.87481L5.74523 5.7776Z" fill="white"/>
</svg>
