<svg width="16" height="16" viewBox="0 0 16 16" fill="none" xmlns="http://www.w3.org/2000/svg">
<path fill-rule="evenodd" clip-rule="evenodd" d="M8 16C12.4183 16 16 12.4183 16 8C16 3.58172 12.4183 0 8 0C3.58172 0 0 3.58172 0 8C0 12.4183 3.58172 16 8 16Z" fill="#363636"/>
<path d="M9.83381 9.14109C9.83381 9.40873 9.78581 9.656 9.68981 9.88291C9.59381 10.1127 9.46144 10.3091 9.29271 10.472C9.20835 10.5564 9.11671 10.6305 9.01781 10.6945C8.9189 10.7585 8.81126 10.8138 8.6949 10.8604C8.45926 10.9535 8.20617 11 7.93562 11C7.6709 11 7.42508 10.9549 7.19817 10.8647C6.96544 10.7775 6.7589 10.6465 6.57853 10.472C6.40399 10.3004 6.2629 10.0836 6.15526 9.82182C6.05053 9.56291 5.99817 9.26618 5.99817 8.93164C5.99817 8.55055 6.06508 8.16945 6.1989 7.78836C6.32981 7.40145 6.51308 7.03636 6.74871 6.69309C6.86799 6.51855 6.99599 6.35273 7.13271 6.19564C7.27235 6.03564 7.42362 5.88145 7.58653 5.73309C7.90653 5.44218 8.25853 5.19782 8.64253 5L9.44544 5.37527C9.1749 5.512 8.92326 5.66036 8.69053 5.82036C8.56835 5.90182 8.45344 5.98764 8.34581 6.07782C8.23817 6.16509 8.1349 6.25527 8.03599 6.34836C7.93708 6.44436 7.84253 6.54327 7.75235 6.64509C7.66508 6.74691 7.58362 6.85309 7.50799 6.96364C7.34799 7.19055 7.21708 7.42473 7.11526 7.66618C7.22871 7.55273 7.35526 7.464 7.4949 7.4C7.64326 7.33309 7.81199 7.29964 8.00108 7.29964C8.27744 7.29964 8.52617 7.34764 8.74726 7.44364C8.97417 7.54255 9.16762 7.67345 9.32762 7.83636C9.40908 7.92073 9.48035 8.01236 9.54144 8.11127C9.60253 8.20727 9.65635 8.31055 9.7029 8.42109C9.79017 8.64218 9.83381 8.88218 9.83381 9.14109ZM9.00908 9.18473C9.00908 9.02473 8.9829 8.87491 8.93053 8.73527C8.87817 8.59564 8.80544 8.47491 8.71235 8.37309C8.62217 8.27418 8.51017 8.19564 8.37635 8.13745C8.24253 8.07927 8.09853 8.05018 7.94435 8.05018C7.88908 8.05018 7.83381 8.05309 7.77853 8.05891C7.72326 8.06473 7.66653 8.07345 7.60835 8.08509C7.55017 8.09964 7.49344 8.11709 7.43817 8.13745C7.38581 8.15782 7.3349 8.18255 7.28544 8.21164C7.18362 8.27273 7.09344 8.35418 7.0149 8.456C6.93344 8.55782 6.87381 8.68727 6.83599 8.84436C6.83308 8.86764 6.83017 8.89236 6.82726 8.91855C6.82726 8.94473 6.82726 8.96945 6.82726 8.99273V9.14109C6.82726 9.304 6.85926 9.45527 6.92326 9.59491C6.98144 9.73455 7.06435 9.85964 7.17199 9.97018C7.26799 10.0749 7.38726 10.1593 7.52981 10.2233C7.66071 10.2873 7.80181 10.3193 7.95308 10.3193C8.10726 10.3193 8.24544 10.2916 8.36762 10.2364C8.43162 10.2073 8.49126 10.1738 8.54653 10.136C8.60181 10.0982 8.65417 10.0545 8.70362 10.0051C8.79671 9.90618 8.87235 9.78691 8.93053 9.64727C8.9829 9.50764 9.00908 9.35345 9.00908 9.18473Z" fill="white"/>
</svg>
