<svg width="17" height="16" viewBox="0 0 17 16" fill="none" xmlns="http://www.w3.org/2000/svg">
<path d="M0.998535 7.99996C0.998535 3.58179 4.58017 0 8.99835 0C13.4165 0 16.9982 3.58179 16.9982 7.99996C16.9982 12.4181 13.4165 15.9999 8.99835 15.9999C4.58017 15.9999 0.998535 12.4181 0.998535 7.99996Z" fill="#363636"/>
<path d="M10.6278 9.09624C10.6278 9.34286 10.5842 9.58346 10.497 9.81805C10.4068 10.0466 10.276 10.2496 10.1045 10.4271C9.93311 10.5985 9.71657 10.7368 9.45491 10.8421C9.32559 10.8962 9.18574 10.9353 9.03536 10.9594C8.88799 10.9865 8.7286 11 8.55717 11C8.3316 11 8.11957 10.9774 7.92108 10.9323C7.71657 10.8842 7.55566 10.8286 7.43837 10.7654L7.34814 9.93534C7.53461 10.0466 7.72408 10.1278 7.91657 10.1789C8.11205 10.2331 8.31055 10.2602 8.51205 10.2602C8.68348 10.2602 8.84589 10.2331 8.99927 10.1789C9.15266 10.1278 9.28799 10.0511 9.40529 9.94887C9.46243 9.89774 9.51356 9.84211 9.55867 9.78195C9.60679 9.7218 9.64739 9.65414 9.68048 9.57895C9.74664 9.43759 9.77972 9.27368 9.77972 9.08722C9.77972 8.89173 9.74664 8.7218 9.68048 8.57744C9.6113 8.42707 9.51957 8.29925 9.40529 8.19398C9.29702 8.09474 9.16619 8.01504 9.01281 7.95489C8.86544 7.90075 8.70754 7.87368 8.53912 7.87368C8.32258 7.87368 8.13461 7.88722 7.97521 7.91429C7.89401 7.92932 7.81581 7.94737 7.74063 7.96842C7.66544 7.98647 7.59326 8.00752 7.52408 8.03158L7.61431 5H10.1948L10.0369 5.7218H8.41732L8.38123 7.15639C8.40228 7.15338 8.42183 7.15038 8.43987 7.14737C8.46093 7.14436 8.48198 7.14135 8.50303 7.13835C8.52408 7.13534 8.54363 7.13383 8.56168 7.13383C8.58273 7.13383 8.60378 7.13383 8.62484 7.13383C8.89852 7.13383 9.15717 7.17895 9.40078 7.26917C9.63837 7.35639 9.8519 7.48571 10.0414 7.65714C10.2218 7.82556 10.3647 8.03008 10.4699 8.27068C10.5752 8.51729 10.6278 8.79248 10.6278 9.09624Z" fill="white"/>
</svg>
