<svg width="17" height="16" viewBox="0 0 17 16" fill="none" xmlns="http://www.w3.org/2000/svg">
<path d="M0.998169 7.99996C0.998169 3.58179 4.57981 0 8.99798 0C13.4162 0 16.9978 3.58179 16.9978 7.99996C16.9978 12.4181 13.4162 15.9999 8.99798 15.9999C4.57981 15.9999 0.998169 12.4181 0.998169 7.99996Z" fill="#363636"/>
<path d="M10.8338 9.14109C10.8338 9.40873 10.7858 9.656 10.6898 9.88291C10.5938 10.1127 10.4614 10.3091 10.2927 10.472C10.2084 10.5564 10.1167 10.6305 10.0178 10.6945C9.9189 10.7585 9.81126 10.8138 9.6949 10.8604C9.45926 10.9535 9.20617 11 8.93562 11C8.6709 11 8.42508 10.9549 8.19817 10.8647C7.96544 10.7775 7.7589 10.6465 7.57853 10.472C7.40399 10.3004 7.2629 10.0836 7.15526 9.82182C7.05053 9.56291 6.99817 9.26618 6.99817 8.93164C6.99817 8.55055 7.06508 8.16945 7.1989 7.78836C7.32981 7.40145 7.51308 7.03636 7.74871 6.69309C7.86799 6.51855 7.99599 6.35273 8.13271 6.19564C8.27235 6.03564 8.42362 5.88145 8.58653 5.73309C8.90653 5.44218 9.25853 5.19782 9.64253 5L10.4454 5.37527C10.1749 5.512 9.92326 5.66036 9.69053 5.82036C9.56835 5.90182 9.45344 5.98764 9.34581 6.07782C9.23817 6.16509 9.1349 6.25527 9.03599 6.34836C8.93708 6.44436 8.84253 6.54327 8.75235 6.64509C8.66508 6.74691 8.58362 6.85309 8.50799 6.96364C8.34799 7.19055 8.21708 7.42473 8.11526 7.66618C8.22871 7.55273 8.35526 7.464 8.4949 7.4C8.64326 7.33309 8.81199 7.29964 9.00108 7.29964C9.27744 7.29964 9.52617 7.34764 9.74726 7.44364C9.97417 7.54255 10.1676 7.67345 10.3276 7.83636C10.4091 7.92073 10.4804 8.01236 10.5414 8.11127C10.6025 8.20727 10.6564 8.31055 10.7029 8.42109C10.7902 8.64218 10.8338 8.88218 10.8338 9.14109ZM10.0091 9.18473C10.0091 9.02473 9.9829 8.87491 9.93053 8.73527C9.87817 8.59564 9.80544 8.47491 9.71235 8.37309C9.62217 8.27418 9.51017 8.19564 9.37635 8.13745C9.24253 8.07927 9.09853 8.05018 8.94435 8.05018C8.88908 8.05018 8.83381 8.05309 8.77853 8.05891C8.72326 8.06473 8.66653 8.07345 8.60835 8.08509C8.55017 8.09964 8.49344 8.11709 8.43817 8.13745C8.38581 8.15782 8.3349 8.18255 8.28544 8.21164C8.18362 8.27273 8.09344 8.35418 8.0149 8.456C7.93344 8.55782 7.87381 8.68727 7.83599 8.84436C7.83308 8.86764 7.83017 8.89236 7.82726 8.91855C7.82726 8.94473 7.82726 8.96945 7.82726 8.99273V9.14109C7.82726 9.304 7.85926 9.45527 7.92326 9.59491C7.98144 9.73455 8.06435 9.85964 8.17199 9.97018C8.26799 10.0749 8.38726 10.1593 8.52981 10.2233C8.66071 10.2873 8.80181 10.3193 8.95308 10.3193C9.10726 10.3193 9.24544 10.2916 9.36762 10.2364C9.43162 10.2073 9.49126 10.1738 9.54653 10.136C9.60181 10.0982 9.65417 10.0545 9.70362 10.0051C9.79671 9.90618 9.87235 9.78691 9.93053 9.64727C9.9829 9.50764 10.0091 9.35345 10.0091 9.18473Z" fill="white"/>
</svg>
