<svg width="17" height="16" viewBox="0 0 17 16" fill="none" xmlns="http://www.w3.org/2000/svg">
<path d="M0.996704 7.99996C0.996704 3.58179 4.57834 0 8.99652 0C13.4147 0 16.9963 3.58179 16.9963 7.99996C16.9963 12.4181 13.4147 15.9999 8.99652 15.9999C4.57834 15.9999 0.996704 12.4181 0.996704 7.99996Z" fill="#363636"/>
<path d="M6.59521 10.8895V5.77761L5.59668 5.87482L5.75132 5.18999L7.417 5.03535V10.8895H6.59521Z" fill="white"/>
<path d="M12.3169 7.99558C12.3169 8.51105 12.2624 8.95434 12.1534 9.32548C12.0415 9.7025 11.8956 10.0147 11.716 10.2622C11.5363 10.5096 11.3272 10.6937 11.0886 10.8144C10.85 10.9381 10.6011 11 10.3419 11C10.0797 11 9.83085 10.9381 9.59521 10.8144C9.35957 10.6966 9.15044 10.5125 8.96781 10.2622C8.78519 10.0118 8.64086 9.69956 8.53482 9.32548C8.42584 8.95434 8.37135 8.51105 8.37135 7.99558C8.37135 7.48306 8.42584 7.04124 8.53482 6.6701C8.63792 6.29897 8.78225 5.98822 8.96781 5.73785C9.15044 5.49043 9.35957 5.30486 9.59521 5.18115C9.83085 5.06038 10.0797 5 10.3419 5C10.5982 5 10.847 5.06038 11.0886 5.18115C11.3272 5.30781 11.5363 5.49337 11.716 5.73785C11.8986 5.98527 12.0444 6.29602 12.1534 6.6701C12.2624 7.04124 12.3169 7.48306 12.3169 7.99558ZM11.4818 7.99558C11.4818 7.79234 11.473 7.60383 11.4553 7.43004C11.4406 7.25626 11.417 7.0972 11.3846 6.95287C11.3169 6.66127 11.2314 6.4271 11.1283 6.25037C11.0253 6.07364 10.9045 5.94256 10.766 5.85714C10.6306 5.77467 10.4892 5.73343 10.3419 5.73343C10.1946 5.73343 10.0532 5.77467 9.91774 5.85714C9.77636 5.94551 9.65412 6.07658 9.55102 6.25037C9.44499 6.43004 9.36104 6.66421 9.29918 6.95287C9.26678 7.0972 9.24175 7.25626 9.22407 7.43004C9.20935 7.60383 9.20198 7.79234 9.20198 7.99558C9.20198 8.41384 9.23438 8.76289 9.29918 9.04271C9.36104 9.32842 9.44499 9.56259 9.55102 9.74521C9.65706 9.92489 9.7793 10.0574 9.91774 10.1429C10.0532 10.2253 10.1946 10.2666 10.3419 10.2666C10.4892 10.2666 10.6306 10.2253 10.766 10.1429C10.9015 10.0604 11.0223 9.92783 11.1283 9.74521C11.2314 9.56848 11.3169 9.33432 11.3846 9.04271C11.4494 8.76289 11.4818 8.41384 11.4818 7.99558Z" fill="white"/>
</svg>
