<svg width="16" height="16" viewBox="0 0 16 16" fill="none" xmlns="http://www.w3.org/2000/svg">
<circle cx="8" cy="8" r="8" fill="#363636"/>
<path d="M6.22034 11V10.8335C6.55942 10.4374 6.8745 10.0503 7.16557 9.67217C7.45665 9.29707 7.71021 8.93548 7.92626 8.5874C8.03129 8.41635 8.12581 8.25131 8.20983 8.09227C8.29686 7.93323 8.37037 7.77719 8.43039 7.62416C8.55342 7.32408 8.61494 7.05701 8.61494 6.82296C8.61494 6.63691 8.59093 6.47637 8.54292 6.34134C8.49491 6.2063 8.42739 6.09377 8.34037 6.00375C8.25635 5.91373 8.15432 5.84621 8.03429 5.8012C7.91426 5.75919 7.78823 5.73818 7.6562 5.73818C7.45815 5.73818 7.2556 5.76819 7.04854 5.82821C6.85049 5.89122 6.66595 5.97974 6.49491 6.09377L6.31036 5.36909C6.49641 5.24606 6.70046 5.15304 6.92251 5.09002C7.14757 5.03001 7.38913 5 7.64719 5C7.90826 5 8.15132 5.03901 8.37638 5.11703C8.60143 5.20105 8.79348 5.31958 8.95252 5.47262C9.11456 5.62866 9.24059 5.82221 9.33061 6.05326C9.42064 6.28132 9.46565 6.54689 9.46565 6.84996C9.46565 7.13203 9.40863 7.42161 9.29461 7.71868C9.23759 7.86872 9.17157 8.01725 9.09656 8.16429C9.02454 8.30833 8.94352 8.45386 8.8535 8.6009C8.76347 8.74794 8.66895 8.89347 8.56992 9.03751C8.4709 9.17854 8.36587 9.32108 8.25485 9.46512C8.14382 9.60915 8.03279 9.74869 7.92176 9.88372C7.81374 10.0188 7.70721 10.1508 7.60218 10.2798H9.77623V11H6.22034Z" fill="white"/>
</svg>
