<svg width="16" height="16" viewBox="0 0 16 16" fill="none" xmlns="http://www.w3.org/2000/svg">
<path d="M0 8C0 3.58172 3.58172 0 8 0V0C12.4183 0 16 3.58172 16 8V8C16 12.4183 12.4183 16 8 16V16C3.58172 16 0 12.4183 0 8V8Z" fill="#363636"/>
<path fill-rule="evenodd" clip-rule="evenodd" d="M9 4H10V4.83333L12 4.83333V5.83333H10V6.66667H9V5.83333V4.83333V4ZM8 4.83333L4 4.83333V5.83333H6.5H7.33333H7.5H8V4.83333ZM6.5 6.66667H5.5V7.5H4V8.5H5.5V9.33333H6.5V8.5V7.5V6.66667ZM7.5 7.5V8.5L12 8.5V7.5L7.5 7.5ZM7.5 9.33333V10.1667V11.1667V12H8.5V11.1667H12V10.1667H8.5V9.33333H7.5ZM6.5 11.1667V10.1667H4V11.1667H6.5Z" fill="white"/>
</svg>
