<svg width="16" height="16" viewBox="0 0 16 16" fill="none" xmlns="http://www.w3.org/2000/svg">
<path fill-rule="evenodd" clip-rule="evenodd" d="M16 0H12.3382L11.2564 3.24002H15.0719L16 0ZM11.1353 3.81927H14.7971L13.869 7.05929H10.0535L11.1353 3.81927ZM2.84952 16V13.3882C2.84952 13.1674 3.01082 12.9863 3.21399 12.9801H5.4673V11.5479H6.83793V12.9801H9.09124C9.29846 12.9801 9.46679 13.1627 9.46679 13.3882V16H2.84952ZM1.10371 7.05929L2.03097 3.81927H5.23072H5.78648L4.70144 7.05929H1.10371ZM3.23391 0L2.30665 3.24002H5.90438L6.98942 0H6.43366H3.23391ZM9.85806 7.63875H13.7038L12.7649 10.9234H9.28717H8.76139L9.85806 7.63875ZM10.5674 3.81927H10.0154H6.53414H6.35393L5.26834 7.05929H9.48586L10.5674 3.81927ZM11.2184 0H11.7703L10.6888 3.24002H6.47128L7.55687 0H7.73708H11.2184ZM3.41373 10.9234L4.5104 7.63875H0.938878L0 10.9234H3.19975H3.41373ZM7.9833 10.9234H4.50202H3.97625L5.07669 7.63875H9.29422L8.19377 10.9234H7.9833Z" fill="#156EC7"/>
</svg>
