<svg width="16" height="16" viewBox="0 0 16 16" fill="none" xmlns="http://www.w3.org/2000/svg">
<path d="M0 8C0 3.58172 3.58172 0 8 0C12.4183 0 16 3.58172 16 8C16 12.4183 12.4183 16 8 16C3.58172 16 0 12.4183 0 8Z" fill="#363636"/>
<path fill-rule="evenodd" clip-rule="evenodd" d="M9.33333 4H9.5C9.77614 4 10 4.22386 10 4.5C10 4.77614 9.77614 5 9.5 5H9.33333V5.26293C9.60064 5.37315 9.8513 5.51551 10.0805 5.6852L10.6535 5.12598L11.3607 5.83314L10.7916 6.38852C11.2362 6.97544 11.5 7.70691 11.5 8.5C11.5 10.433 9.933 12 8 12C6.067 12 4.5 10.433 4.5 8.5C4.5 6.97608 5.47394 5.67963 6.83333 5.19916V5H6.5C6.22386 5 6 4.77614 6 4.5C6 4.22386 6.22386 4 6.5 4H6.83333H9.33333ZM10.5 8.5C10.5 9.88071 9.38071 11 8 11C6.61929 11 5.5 9.88071 5.5 8.5C5.5 7.11929 6.61929 6 8 6C9.38071 6 10.5 7.11929 10.5 8.5ZM7.75 8.60355V7.02074C7.8313 7.0071 7.91482 7 8 7C8.08518 7 8.1687 7.0071 8.25 7.02074V8.39645L9.22269 9.36913C9.12539 9.50576 9.00576 9.62539 8.86913 9.72269L7.75 8.60355Z" fill="white"/>
</svg>
