<svg width="16" height="16" viewBox="0 0 16 16" fill="none" xmlns="http://www.w3.org/2000/svg">
<path fill-rule="evenodd" clip-rule="evenodd" d="M10.6667 0H11C11.5523 0 12 0.447715 12 1C12 1.55228 11.5523 2 11 2H10.6667V2.52585C11.2013 2.74629 11.7026 3.03102 12.161 3.37041L13.3071 2.25195L14.7214 3.66627L13.5832 4.77704C14.4724 5.95088 15 7.41383 15 9C15 12.866 11.866 16 8 16C4.13401 16 1 12.866 1 9C1 5.95216 2.94788 3.35927 5.66667 2.39831V2H5C4.44772 2 4 1.55228 4 1C4 0.447715 4.44771 0 5 0H5.66667H10.6667ZM13 9C13 11.7614 10.7614 14 8 14C5.23858 14 3 11.7614 3 9C3 6.23858 5.23858 4 8 4C10.7614 4 13 6.23858 13 9ZM7.5 9.20711V6.04148C7.6626 6.0142 7.82964 6 8 6C8.17036 6 8.3374 6.0142 8.5 6.04148V8.79289L10.4454 10.7383C10.2508 11.0115 10.0115 11.2508 9.73827 11.4454L7.5 9.20711Z" fill="#363636"/>
</svg>
