<svg width="16" height="16" viewBox="0 0 16 16" fill="none" xmlns="http://www.w3.org/2000/svg">
<path d="M0 8C0 3.58172 3.58172 0 8 0V0C12.4183 0 16 3.58172 16 8V8C16 12.4183 12.4183 16 8 16V16C3.58172 16 0 12.4183 0 8V8Z" fill="#363636"/>
<path fill-rule="evenodd" clip-rule="evenodd" d="M4.5 4C4.22386 4 4 4.22386 4 4.5V4.75V5H6V4.75H6.5C7.05228 4.75 7.5 5.19772 7.5 5.75V11.5H4.5C4.22386 11.5 4 11.7239 4 12V12H8H12V12C12 11.7239 11.7761 11.5 11.5 11.5H8.5V5.75C8.5 5.19772 8.94772 4.75 9.5 4.75H10V5H12V4.75V4.5C12 4.22386 11.7761 4 11.5 4H10.5C10.3149 4 10.1533 4.10055 10.0669 4.25H9.5C8.67157 4.25 8 4.92157 8 5.75C8 4.92157 7.32843 4.25 6.5 4.25H5.93311C5.84666 4.10055 5.68507 4 5.5 4H4.5ZM4.88217 5.31902L4.76432 5.20117L4.05722 5.90828L4.17507 6.02613L4.88217 5.31902ZM5.94271 5.9082L5.82486 6.02605L5.11775 5.31895L5.2356 5.2011L5.94271 5.9082ZM4.91667 5.33333V6.33333H5.08333V5.33333H4.91667ZM10.7643 5.20117L10.8822 5.31902L10.1751 6.02613L10.0572 5.90828L10.7643 5.20117ZM11.8249 6.02605L11.9427 5.9082L11.2356 5.2011L11.1178 5.31895L11.8249 6.02605ZM10.9167 6.33333V5.33333H11.0833V6.33333H10.9167Z" fill="white"/>
</svg>
