<svg width="16" height="16" viewBox="0 0 16 16" fill="none" xmlns="http://www.w3.org/2000/svg">
<path fill-rule="evenodd" clip-rule="evenodd" d="M1 0C0.447715 0 0 0.447715 0 1V1.5V2H4V1.5H5C6.10457 1.5 7 2.39543 7 3.5V15H1C0.447715 15 0 15.4477 0 16V16H8H16V16C16 15.4477 15.5523 15 15 15H9V3.5C9 2.39543 9.89543 1.5 11 1.5H12V2H16V1.5V1C16 0.447715 15.5523 0 15 0H13C12.6299 0 12.3067 0.201099 12.1338 0.5H11C9.34315 0.5 8 1.84315 8 3.5C8 1.84315 6.65685 0.5 5 0.5H3.86622C3.69331 0.201099 3.37014 0 3 0H1ZM1.76435 2.63805L1.52865 2.40234L0.114432 3.81656L0.350135 4.05226L1.76435 2.63805ZM3.88542 3.81641L3.64971 4.05211L2.2355 2.63789L2.4712 2.40219L3.88542 3.81641ZM1.83333 2.66667V4.66667H2.16667V2.66667H1.83333ZM13.5286 2.40234L13.7643 2.63805L12.3501 4.05226L12.1144 3.81656L13.5286 2.40234ZM15.6497 4.05211L15.8854 3.81641L14.4712 2.40219L14.2355 2.63789L15.6497 4.05211ZM13.8333 4.66667V2.66667H14.1667V4.66667H13.8333Z" fill="#363636"/>
</svg>
