<svg width="16" height="16" viewBox="0 0 16 16" fill="none" xmlns="http://www.w3.org/2000/svg">
<path fill-rule="evenodd" clip-rule="evenodd" d="M1 0C0.447715 0 0 0.447715 0 1V1.5V2H4V1.5H5C6.10457 1.5 7 2.39543 7 3.5V15H1C0.447715 15 0 15.4477 0 16H8H16C16 15.4477 15.5523 15 15 15H9V3.5C9 2.39543 9.89543 1.5 11 1.5H12V2H16V1.5V1C16 0.447715 15.5523 0 15 0H13C12.6299 0 12.3067 0.201099 12.1338 0.5H11C9.34315 0.5 8 1.84315 8 3.5C8 1.84315 6.65685 0.5 5 0.5H3.86622C3.69331 0.201099 3.37014 0 3 0H1Z" fill="#363636"/>
</svg>
