<svg width="16" height="16" viewBox="0 0 16 16" fill="none" xmlns="http://www.w3.org/2000/svg">
<path d="M0 8C0 3.58172 3.58172 0 8 0C12.4183 0 16 3.58172 16 8C16 12.4183 12.4183 16 8 16C3.58172 16 0 12.4183 0 8Z" fill="#363636"/>
<path fill-rule="evenodd" clip-rule="evenodd" d="M4 7C4 5.34315 5.34315 4 7 4H9C10.6569 4 12 5.34315 12 7C12 8.30622 11.1652 9.41746 10 9.82929V12C8.25 12 8 10 8 10H7C5.34315 10 4 8.65685 4 7ZM6.5 7.5C6.77614 7.5 7 7.27614 7 7C7 6.72386 6.77614 6.5 6.5 6.5C6.22386 6.5 6 6.72386 6 7C6 7.27614 6.22386 7.5 6.5 7.5ZM8 7.5C8.27614 7.5 8.5 7.27614 8.5 7C8.5 6.72386 8.27614 6.5 8 6.5C7.72386 6.5 7.5 6.72386 7.5 7C7.5 7.27614 7.72386 7.5 8 7.5ZM10 7C10 7.27614 9.77614 7.5 9.5 7.5C9.22386 7.5 9 7.27614 9 7C9 6.72386 9.22386 6.5 9.5 6.5C9.77614 6.5 10 6.72386 10 7Z" fill="white"/>
</svg>
