<svg width="16" height="16" viewBox="0 0 16 16" fill="none" xmlns="http://www.w3.org/2000/svg">
<path fill-rule="evenodd" clip-rule="evenodd" d="M0 6C0 2.68629 2.68629 0 6 0H10C13.3137 0 16 2.68629 16 6C16 8.61244 14.3304 10.8349 12 11.6586V16C8.5 16 8 12 8 12H6C2.68629 12 0 9.31371 0 6ZM5 7C5.55229 7 6 6.55229 6 6C6 5.44772 5.55229 5 5 5C4.44772 5 4 5.44772 4 6C4 6.55229 4.44772 7 5 7ZM8 7C8.55229 7 9 6.55229 9 6C9 5.44772 8.55229 5 8 5C7.44772 5 7 5.44772 7 6C7 6.55229 7.44772 7 8 7ZM12 6C12 6.55229 11.5523 7 11 7C10.4477 7 10 6.55229 10 6C10 5.44772 10.4477 5 11 5C11.5523 5 12 5.44772 12 6Z" fill="#363636"/>
</svg>
