<svg width="16" height="16" viewBox="0 0 16 16" fill="none" xmlns="http://www.w3.org/2000/svg">
<path fill-rule="evenodd" clip-rule="evenodd" d="M14.5455 10.4091C15.3455 10.4091 16 9.75456 16 8.95456L15.9927 8.89637L16 8.8891V7.50001C16 7.31092 15.9636 7.13637 15.8982 6.9691L13.7018 1.84183C13.4836 1.31819 12.9673 0.954559 12.3636 0.954559H5.81818C5.01818 0.954559 4.36364 1.6091 4.36364 2.4091V9.68183C4.36364 10.0818 4.52364 10.4455 4.79273 10.7073L9.57818 15.5L10.3491 14.7364C10.5455 14.54 10.6691 14.2636 10.6691 13.9655L10.6473 13.7327L9.95637 10.4091H14.5455ZM2.90909 0.954564H0V9.68183H2.90909V0.954564Z" fill="#363636"/>
</svg>
