<svg width="16" height="16" viewBox="0 0 16 16" fill="none" xmlns="http://www.w3.org/2000/svg">
<path fill-rule="evenodd" clip-rule="evenodd" d="M14.5455 5.59091C15.3455 5.59091 16 6.24545 16 7.04545L15.9927 7.10364L16 7.11091V8.5C16 8.68909 15.9636 8.86364 15.8982 9.03091L13.7018 14.1582C13.4836 14.6818 12.9673 15.0455 12.3636 15.0455H5.81818C5.01818 15.0455 4.36364 14.3909 4.36364 13.5909V6.31818C4.36364 5.91818 4.52364 5.55455 4.79273 5.29273L9.57818 0.5L10.3491 1.26364C10.5455 1.46 10.6691 1.73636 10.6691 2.03455L10.6473 2.26727L9.95637 5.59091H14.5455ZM2.90909 15.0454H0V6.31818H2.90909V15.0454Z" fill="#363636"/>
</svg>
