<svg width="16" height="16" viewBox="0 0 16 16" fill="none" xmlns="http://www.w3.org/2000/svg">
<path d="M0 8C0 3.58172 3.58172 0 8 0C12.4183 0 16 3.58172 16 8C16 12.4183 12.4183 16 8 16C3.58172 16 0 12.4183 0 8Z" fill="#363636"/>
<path fill-rule="evenodd" clip-rule="evenodd" d="M11.2727 6.54545C11.6727 6.54545 12 6.87273 12 7.27273L11.9964 7.30182L12 7.30545V8C12 8.09455 11.9818 8.18182 11.9491 8.26545L10.8509 10.8291C10.7418 11.0909 10.4836 11.2727 10.1818 11.2727H6.9091C6.5091 11.2727 6.18182 10.9455 6.18182 10.5455V6.90909C6.18182 6.70909 6.26182 6.52727 6.39637 6.39636L8.7891 4L9.17455 4.38182C9.27273 4.48 9.33455 4.61818 9.33455 4.76727L9.32364 4.88364L8.97819 6.54545H11.2727ZM5.45455 11.2727H4V6.90909H5.45455V11.2727Z" fill="white"/>
</svg>
