<svg width="16" height="16" viewBox="0 0 16 16" fill="none" xmlns="http://www.w3.org/2000/svg">
<path d="M0 8C0 3.58172 3.58172 0 8 0V0C12.4183 0 16 3.58172 16 8V8C16 12.4183 12.4183 16 8 16V16C3.58172 16 0 12.4183 0 8V8Z" fill="#363636"/>
<path fill-rule="evenodd" clip-rule="evenodd" d="M11.2727 9.72728C11.6727 9.72728 12 9.4 12 9L11.9963 8.97091L12 8.96727V8.27273C12 8.17818 11.9818 8.09091 11.9491 8.00727L10.8509 5.44364C10.7418 5.18182 10.4836 5 10.1818 5H6.90909C6.50909 5 6.18182 5.32727 6.18182 5.72727V9.36364C6.18182 9.56363 6.26182 9.74548 6.39636 9.87638L8.78909 12.2727L9.17455 11.8909C9.27275 11.7927 9.33455 11.6545 9.33455 11.5055L9.32365 11.3891L8.97819 9.72728H11.2727ZM5.45455 5H4V9.36364H5.45455V5Z" fill="white"/>
</svg>
