<svg width="16" height="16" viewBox="0 0 16 16" fill="none" xmlns="http://www.w3.org/2000/svg">
<path fill-rule="evenodd" clip-rule="evenodd" d="M13.3071 2.23036V7.78086H15.1384V3.40961C14.7624 3.40961 14.4579 3.10512 14.4579 2.72912V2.23036C14.4579 1.91357 14.2011 1.65675 13.8843 1.65675C13.5673 1.6547 13.3092 1.90998 13.3071 2.22651V2.23036ZM13.3064 3.40966H2.83949V7.78092H1.01179V3.40966C1.38625 3.40787 1.68869 3.10364 1.68869 2.72918V2.23041C1.71099 1.94745 1.93576 1.72267 2.21872 1.70038C2.53654 1.67526 2.81437 1.91259 2.83949 2.23041H13.3064V3.40966ZM16 8.73564C16 8.48805 15.7988 8.28685 15.551 8.28685H0.449044C0.202992 8.2848 0.00205043 8.48267 0 8.72872V8.73564V11.0547H16V8.73564ZM2.16269 9.96872C1.97969 9.96872 1.83129 9.82006 1.83129 9.63706C1.83129 9.45406 1.97969 9.3054 2.16269 9.3054C2.34543 9.3054 2.49383 9.45406 2.49383 9.63706C2.49409 9.82006 2.34569 9.96872 2.16269 9.96872ZM13.987 9.96872C13.804 9.96872 13.6558 9.82006 13.6558 9.63706C13.6558 9.45406 13.804 9.3054 13.987 9.3054C14.17 9.3054 14.3181 9.45406 14.3181 9.63706C14.3161 9.81903 14.1695 9.96641 13.987 9.96872ZM15.9997 11.5573H0V14.3433H16V11.5573H15.9997ZM2.16243 13.3386C1.97738 13.3407 1.82591 13.1925 1.82385 13.0075C1.8218 12.8224 1.9702 12.671 2.15526 12.6694C2.34005 12.6674 2.49178 12.8155 2.49358 13.0006V13.0039C2.49358 13.1869 2.34518 13.335 2.16243 13.335V13.3386ZM13.9867 13.3386C13.8017 13.3407 13.6502 13.1925 13.6482 13.0075C13.6464 12.8224 13.7945 12.671 13.9798 12.6694C14.1646 12.6674 14.3158 12.8155 14.3179 13.0006V13.0039C14.3158 13.1861 14.169 13.333 13.9867 13.335V13.3386ZM12.6653 4.07577L12.3091 4.78829L12.1871 4.6604L10.6946 6.14952L11.2257 6.68032L10.6731 7.2324L10.5913 7.15038C10.5892 7.14788 10.5869 7.14566 10.5848 7.14352C10.584 7.14281 10.5833 7.14211 10.5826 7.14141C10.5411 7.10502 10.478 7.10886 10.4417 7.15038C10.4237 7.16832 10.4135 7.19267 10.4132 7.21805C10.4276 7.399 10.3594 7.57713 10.2279 7.70246L10.139 7.79524H6.75473L5.0234 6.07442L4.45338 6.64444L4.4503 6.64752C4.37854 6.71774 4.26371 6.7162 4.19349 6.64444L3.66627 6.11722L3.6632 6.11415C3.59297 6.04238 3.59451 5.92756 3.66627 5.85733L5.06646 4.43229L6.42743 4.11524C6.49535 4.10012 6.56634 4.12011 6.61632 4.16855C6.69398 4.24749 6.69398 4.37436 6.61632 4.45356L5.78616 5.29423L7.84889 7.34261L8.86769 6.3238C8.98892 6.20385 9.15347 6.13798 9.32391 6.14209C9.34877 6.13875 9.37287 6.12773 9.39132 6.11005C9.39747 6.10543 9.4026 6.10005 9.40721 6.0939C9.43899 6.0534 9.43156 5.99548 9.39132 5.96395L9.30571 5.8786L9.85805 5.32627L10.3924 5.86066L11.8816 4.36795L11.7675 4.24313L12.48 3.88687L12.6653 4.07577Z" fill="#156EC7"/>
</svg>
