<svg width="16" height="16" viewBox="0 0 16 16" fill="none" xmlns="http://www.w3.org/2000/svg">
<path d="M0 8C0 3.58172 3.58172 0 8 0V0C12.4183 0 16 3.58172 16 8V8C16 12.4183 12.4183 16 8 16V16C3.58172 16 0 12.4183 0 8V8Z" fill="#363636"/>
<path fill-rule="evenodd" clip-rule="evenodd" d="M8.5 4H7.5V4.5H5C4.44772 4.5 4 4.94772 4 5.5H12C12 4.94772 11.5523 4.5 11 4.5H8.5V4ZM11.5 6H4.5L4.88538 10.6246C4.95017 11.402 5.60007 12 6.3802 12H9.6198C10.3999 12 11.0498 11.402 11.1146 10.6246L11.5 6Z" fill="white"/>
</svg>
