<svg width="16" height="16" viewBox="0 0 16 16" fill="none" xmlns="http://www.w3.org/2000/svg">
<path fill-rule="evenodd" clip-rule="evenodd" d="M11.74 11.58C12.4594 10.9452 13.0337 10.1629 13.4236 9.28631C13.8136 8.40971 14.0102 7.45938 14 6.5C14.0623 4.84346 13.466 3.22965 12.3416 2.01156C11.2173 0.793462 9.65623 0.0702139 8 0C6.34377 0.0702139 4.78275 0.793462 3.65835 2.01156C2.53396 3.22965 1.9377 4.84346 2 6.5C1.98979 7.45938 2.18637 8.40971 2.57635 9.28631C2.96634 10.1629 3.54058 10.9452 4.26 11.58C1.72 12.42 0 14.08 0 16H16C16 14.08 14.28 12.42 11.74 11.58ZM6 4C6.19778 4 6.39112 4.05865 6.55557 4.16853C6.72002 4.27841 6.84819 4.43459 6.92388 4.61732C6.99957 4.80004 7.01937 5.00111 6.98079 5.19509C6.9422 5.38907 6.84696 5.56725 6.70711 5.70711C6.56725 5.84696 6.38907 5.9422 6.19509 5.98079C6.00111 6.01937 5.80004 5.99957 5.61732 5.92388C5.43459 5.84819 5.27841 5.72002 5.16853 5.55557C5.05865 5.39112 5 5.19778 5 5C5 4.73478 5.10536 4.48043 5.29289 4.29289C5.48043 4.10536 5.73478 4 6 4V4ZM10.69 8.93C10.3583 9.30849 9.94147 9.60285 9.47382 9.78886C9.00618 9.97488 8.50106 10.0472 8 10C7.49894 10.0472 6.99382 9.97488 6.52618 9.78886C6.05853 9.60285 5.64172 9.30849 5.31 8.93C5 8.48 5.45 8 6 8.2C6.64055 8.43018 7.32011 8.53211 8 8.5C8.67966 8.52781 9.35841 8.426 10 8.2C10.55 8 11 8.48 10.69 8.93V8.93ZM10 6C9.80222 6 9.60888 5.94135 9.44443 5.83147C9.27998 5.72159 9.15181 5.56541 9.07612 5.38268C9.00043 5.19996 8.98063 4.99889 9.01921 4.80491C9.0578 4.61093 9.15304 4.43275 9.29289 4.29289C9.43275 4.15304 9.61093 4.0578 9.80491 4.01921C9.99889 3.98063 10.2 4.00043 10.3827 4.07612C10.5654 4.15181 10.7216 4.27998 10.8315 4.44443C10.9414 4.60888 11 4.80222 11 5C11 5.26522 10.8946 5.51957 10.7071 5.70711C10.5196 5.89464 10.2652 6 10 6Z" fill="#363636"/>
</svg>
