<svg width="16" height="16" viewBox="0 0 16 16" fill="none" xmlns="http://www.w3.org/2000/svg">
<path d="M0 8C0 3.58172 3.58172 0 8 0C12.4183 0 16 3.58172 16 8C16 12.4183 12.4183 16 8 16C3.58172 16 0 12.4183 0 8Z" fill="#363636"/>
<path fill-rule="evenodd" clip-rule="evenodd" d="M8.4025 8.3425C8.67228 8.10446 8.88762 7.81109 9.03387 7.48237C9.18011 7.15364 9.25383 6.79727 9.25 6.4375C9.27336 5.8163 9.04977 5.21112 8.62812 4.75433C8.20647 4.29755 7.62109 4.02633 7 4C6.37891 4.02633 5.79353 4.29755 5.37188 4.75433C4.95023 5.21112 4.72664 5.8163 4.75 6.4375C4.74617 6.79727 4.81989 7.15364 4.96613 7.48237C5.11238 7.81109 5.32772 8.10446 5.5975 8.3425C4.645 8.6575 4 9.28 4 10H6V9H9.53912C9.25991 8.72375 8.86791 8.49642 8.4025 8.3425ZM6.5 10V12H12V9.5H9.89262H6.5V10ZM6.25 5.5C6.32417 5.5 6.39667 5.52199 6.45834 5.5632C6.52001 5.6044 6.56807 5.66297 6.59646 5.73149C6.62484 5.80002 6.63226 5.87542 6.61779 5.94816C6.60333 6.0209 6.56761 6.08772 6.51517 6.14017C6.46272 6.19261 6.3959 6.22833 6.32316 6.24279C6.25042 6.25726 6.17502 6.24984 6.10649 6.22146C6.03797 6.19307 5.9794 6.14501 5.9382 6.08334C5.89699 6.02167 5.875 5.94917 5.875 5.875C5.875 5.77554 5.91451 5.68016 5.98484 5.60984C6.05516 5.53951 6.15054 5.5 6.25 5.5ZM8.00875 7.34875C7.88436 7.49068 7.72805 7.60107 7.55268 7.67082C7.37732 7.74058 7.1879 7.76771 7 7.75C6.8121 7.76771 6.62268 7.74058 6.44732 7.67082C6.27195 7.60107 6.11564 7.49068 5.99125 7.34875C5.875 7.18 6.04375 7 6.25 7.075C6.4902 7.16132 6.74504 7.19954 7 7.1875C7.25487 7.19793 7.5094 7.15975 7.75 7.075C7.95625 7 8.125 7.18 8.00875 7.34875ZM7.75 6.25C7.67583 6.25 7.60333 6.22801 7.54166 6.1868C7.47999 6.1456 7.43193 6.08703 7.40355 6.01851C7.37516 5.94998 7.36774 5.87458 7.38221 5.80184C7.39667 5.7291 7.43239 5.66228 7.48484 5.60984C7.53728 5.55739 7.6041 5.52167 7.67684 5.50721C7.74958 5.49274 7.82498 5.50016 7.89351 5.52855C7.96203 5.55693 8.0206 5.60499 8.0618 5.66666C8.10301 5.72833 8.125 5.80083 8.125 5.875C8.125 5.97446 8.08549 6.06984 8.01517 6.14017C7.94484 6.21049 7.84946 6.25 7.75 6.25Z" fill="white"/>
</svg>
