<svg width="16" height="16" viewBox="0 0 16 16" fill="none" xmlns="http://www.w3.org/2000/svg">
<path d="M0 8C0 3.58172 3.58172 0 8 0V0C12.4183 0 16 3.58172 16 8V8C16 12.4183 12.4183 16 8 16V16C3.58172 16 0 12.4183 0 8V8Z" fill="#363636"/>
<path fill-rule="evenodd" clip-rule="evenodd" d="M8.40379 8.34252C8.91959 7.89586 9.25 7.20848 9.25 6.4375C9.25 5.09131 8.24264 4 7 4C5.75736 4 4.75 5.09131 4.75 6.4375C4.75 7.20848 5.08041 7.89586 5.59621 8.34252C4.64672 8.6573 4 9.28145 4 10H8.58408L9.56087 9.02282C9.28036 8.73627 8.88019 8.50045 8.40379 8.34252ZM11.572 8.07338C11.4741 7.97554 11.3153 7.97554 11.2174 8.07338L10.8629 8.42768L11.572 9.13629L11.9266 8.78198C12.0245 8.68415 12.0245 8.52552 11.9266 8.42768L11.572 8.07338ZM11.2174 9.49059L10.5083 8.78198L8.25072 11.0405L8 12L8.96025 11.7495L11.2174 9.49059Z" fill="white"/>
</svg>
