<svg width="16" height="16" viewBox="0 0 16 16" fill="none" xmlns="http://www.w3.org/2000/svg">
<path d="M0 8C0 3.58172 3.58172 0 8 0C12.4183 0 16 3.58172 16 8C16 12.4183 12.4183 16 8 16C3.58172 16 0 12.4183 0 8Z" fill="#363636"/>
<path fill-rule="evenodd" clip-rule="evenodd" d="M7.5 9.35961V10H4C4 9.28145 4.64672 8.6573 5.59621 8.34252C5.08041 7.89586 4.75 7.20848 4.75 6.4375C4.75 5.09131 5.75736 4 7 4C8.24264 4 9.25 5.09131 9.25 6.4375C9.25 6.96993 9.09242 7.46249 8.82503 7.86343L8.68492 7.77936L7.77927 8.68501L8.09481 9.21091L7.5 9.35961ZM9.75 8H10.25L10.3876 8.55057C10.5163 8.58488 10.6381 8.63586 10.7506 8.70105L11.2373 8.40904L11.5909 8.76259L11.2989 9.24924C11.3641 9.36183 11.4151 9.48369 11.4494 9.61236L12 9.75V10.25L11.4494 10.3876C11.4151 10.5162 11.3642 10.638 11.299 10.7506L11.5911 11.2375L11.2376 11.591L10.7507 11.2989C10.6381 11.3641 10.5163 11.4151 10.3876 11.4494L10.25 12H9.75L9.61236 11.4494C9.48374 11.4151 9.36192 11.3641 9.24936 11.299L8.76268 11.591L8.40912 11.2374L8.70111 10.7508C8.63589 10.6382 8.58489 10.5163 8.55057 10.3876L8 10.25V9.75L8.55057 9.61236C8.58488 9.48376 8.63584 9.36196 8.70101 9.24941L8.40887 8.76251L8.76243 8.40896L9.2493 8.70108C9.36187 8.63588 9.48371 8.58489 9.61236 8.55057L9.75 8ZM10.6971 9.28301C10.5171 9.10795 10.2713 9.00011 10.0004 9H10H9.9996C9.44763 9.00022 9.00022 9.44763 9 9.9996V10V10.0004C9.00011 10.2713 9.10795 10.5171 9.283 10.6971L9.30292 10.717C9.48304 10.8921 9.72892 11 10 11C10.5523 11 11 10.5523 11 10C11 9.72892 10.8921 9.48304 10.717 9.30292L10.6971 9.28301ZM10 9.25C9.58579 9.25 9.25 9.58579 9.25 10C9.25 10.4142 9.58579 10.75 10 10.75C10.4142 10.75 10.75 10.4142 10.75 10C10.75 9.58579 10.4142 9.25 10 9.25ZM10 9.625C9.79289 9.625 9.625 9.79289 9.625 10C9.625 10.2071 9.79289 10.375 10 10.375C10.2071 10.375 10.375 10.2071 10.375 10C10.375 9.79289 10.2071 9.625 10 9.625Z" fill="white"/>
</svg>
