<svg width="16" height="16" viewBox="0 0 16 16" fill="none" xmlns="http://www.w3.org/2000/svg">
<path d="M0 8C0 3.58172 3.58172 0 8 0C12.4183 0 16 3.58172 16 8C16 12.4183 12.4183 16 8 16C3.58172 16 0 12.4183 0 8Z" fill="#363636"/>
<path fill-rule="evenodd" clip-rule="evenodd" d="M9.87172 9.79002C10.5594 9.19448 11 8.27798 11 7.25C11 5.45507 9.65685 4 8 4C6.34315 4 5 5.45507 5 7.25C5 8.27798 5.44055 9.19448 6.12828 9.79002C4.86229 10.2097 4 11.0419 4 12H12C12 11.0419 11.1377 10.2097 9.87172 9.79002Z" fill="white"/>
</svg>
