<svg width="16" height="16" viewBox="0 0 16 16" fill="none" xmlns="http://www.w3.org/2000/svg">
<path fill-rule="evenodd" clip-rule="evenodd" d="M8.805 8.685C9.34457 8.20891 9.77525 7.62218 10.0677 6.96473C10.3602 6.30728 10.5077 5.59454 10.5 4.875C10.5467 3.63259 10.0995 2.42224 9.25623 1.50867C8.41294 0.595096 7.24217 0.0526604 6 0C4.75783 0.0526604 3.58706 0.595096 2.74376 1.50867C1.90047 2.42224 1.45328 3.63259 1.5 4.875C1.49234 5.59454 1.63978 6.30728 1.93226 6.96473C2.22475 7.62218 2.65543 8.20891 3.195 8.685C1.29 9.315 0 10.56 0 12H4V10H11.0782C10.5198 9.4475 9.73583 8.99283 8.805 8.685ZM5 12V16H16V11H11.7852H5V12ZM4.5 3C4.64834 3 4.79334 3.04399 4.91668 3.1264C5.04001 3.20881 5.13614 3.32594 5.19291 3.46299C5.24968 3.60003 5.26453 3.75083 5.23559 3.89632C5.20665 4.0418 5.13522 4.17544 5.03033 4.28033C4.92544 4.38522 4.7918 4.45665 4.64632 4.48559C4.50083 4.51453 4.35003 4.49968 4.21299 4.44291C4.07594 4.38614 3.95881 4.29001 3.8764 4.16668C3.79399 4.04334 3.75 3.89834 3.75 3.75C3.75 3.55109 3.82902 3.36032 3.96967 3.21967C4.11032 3.07902 4.30109 3 4.5 3ZM8.0175 6.6975C7.76871 6.98137 7.4561 7.20214 7.10537 7.34165C6.75463 7.48116 6.3758 7.53543 6 7.5C5.6242 7.53543 5.24537 7.48116 4.89463 7.34165C4.5439 7.20214 4.23129 6.98137 3.9825 6.6975C3.75 6.36 4.0875 6 4.5 6.15C4.98041 6.32263 5.49008 6.39908 6 6.375C6.50975 6.39586 7.01881 6.3195 7.5 6.15C7.9125 6 8.25 6.36 8.0175 6.6975ZM7.5 4.5C7.35166 4.5 7.20666 4.45601 7.08332 4.3736C6.95999 4.29119 6.86386 4.17406 6.80709 4.03701C6.75032 3.89997 6.73547 3.74917 6.76441 3.60368C6.79335 3.4582 6.86478 3.32456 6.96967 3.21967C7.07456 3.11478 7.2082 3.04335 7.35368 3.01441C7.49917 2.98547 7.64997 3.00032 7.78701 3.05709C7.92406 3.11386 8.04119 3.20999 8.1236 3.33332C8.20601 3.45666 8.25 3.60166 8.25 3.75C8.25 3.94891 8.17098 4.13968 8.03033 4.28033C7.88968 4.42098 7.69891 4.5 7.5 4.5Z" fill="#363636"/>
</svg>
