<svg width="16" height="16" viewBox="0 0 16 16" fill="none" xmlns="http://www.w3.org/2000/svg">
<path d="M0 8C0 3.58172 3.58172 0 8 0C12.4183 0 16 3.58172 16 8C16 12.4183 12.4183 16 8 16C3.58172 16 0 12.4183 0 8Z" fill="#363636"/>
<path fill-rule="evenodd" clip-rule="evenodd" d="M9.87 9.79C10.2297 9.47261 10.5168 9.08146 10.7118 8.64315C10.9068 8.20485 11.0051 7.72969 11 7.25C11.0311 6.42173 10.733 5.61483 10.1708 5.00578C9.60863 4.39673 8.82811 4.03511 8 4C7.17189 4.03511 6.39137 4.39673 5.82918 5.00578C5.26698 5.61483 4.96885 6.42173 5 7.25C4.9949 7.72969 5.09318 8.20485 5.28818 8.64315C5.48317 9.08146 5.77029 9.47261 6.13 9.79C4.86 10.21 4 11.04 4 12H12C12 11.04 11.14 10.21 9.87 9.79ZM7 6C7.09889 6 7.19556 6.02932 7.27779 6.08427C7.36001 6.13921 7.4241 6.2173 7.46194 6.30866C7.49978 6.40002 7.50969 6.50055 7.49039 6.59755C7.4711 6.69454 7.42348 6.78363 7.35355 6.85355C7.28363 6.92348 7.19454 6.9711 7.09755 6.99039C7.00055 7.00969 6.90002 6.99978 6.80866 6.96194C6.7173 6.9241 6.63921 6.86001 6.58427 6.77779C6.52932 6.69556 6.5 6.59889 6.5 6.5C6.5 6.36739 6.55268 6.24021 6.64645 6.14645C6.74021 6.05268 6.86739 6 7 6ZM9.345 8.465C9.17914 8.65425 8.97073 8.80142 8.73691 8.89443C8.50309 8.98744 8.25053 9.02362 8 9C7.74947 9.02362 7.49691 8.98744 7.26309 8.89443C7.02927 8.80142 6.82086 8.65425 6.655 8.465C6.5 8.24 6.725 8 7 8.1C7.32027 8.21509 7.66006 8.26606 8 8.25C8.33983 8.26391 8.6792 8.213 9 8.1C9.275 8 9.5 8.24 9.345 8.465ZM9 7C8.90111 7 8.80444 6.97068 8.72221 6.91573C8.63999 6.86079 8.5759 6.7827 8.53806 6.69134C8.50022 6.59998 8.49031 6.49945 8.50961 6.40245C8.5289 6.30546 8.57652 6.21637 8.64645 6.14645C8.71637 6.07652 8.80546 6.0289 8.90245 6.00961C8.99945 5.99031 9.09998 6.00022 9.19134 6.03806C9.2827 6.0759 9.36079 6.13999 9.41573 6.22221C9.47068 6.30444 9.5 6.40111 9.5 6.5C9.5 6.63261 9.44732 6.75979 9.35355 6.85355C9.25979 6.94732 9.13261 7 9 7Z" fill="white"/>
</svg>
