<svg width="16" height="16" viewBox="0 0 16 16" fill="none" xmlns="http://www.w3.org/2000/svg">
<path fill-rule="evenodd" clip-rule="evenodd" d="M8.80758 8.68503C9.83917 7.79172 10.5 6.41696 10.5 4.875C10.5 2.18261 8.48528 0 6 0C3.51472 0 1.5 2.18261 1.5 4.875C1.5 6.41696 2.16083 7.79172 3.19241 8.68503C1.29343 9.31459 0 10.5629 0 12H9.16816L11.1217 10.0456C10.5607 9.47254 9.76037 9.00091 8.80758 8.68503ZM15.144 8.14676C14.9482 7.95108 14.6307 7.95108 14.4349 8.14676L13.7257 8.85536L15.144 10.2726L15.8531 9.56396C16.049 9.36829 16.049 9.05104 15.8531 8.85536L15.144 8.14676ZM14.4349 10.9812L13.0166 9.56396L8.50143 14.0809L8 16L9.9205 15.4989L14.4349 10.9812Z" fill="#363636"/>
</svg>
