<svg width="16" height="16" viewBox="0 0 16 16" fill="none" xmlns="http://www.w3.org/2000/svg">
<path fill-rule="evenodd" clip-rule="evenodd" d="M7 10.7192V12H0C0 10.5629 1.29343 9.31459 3.19241 8.68503C2.16083 7.79172 1.5 6.41697 1.5 4.875C1.5 2.18261 3.51472 0 6 0C8.48528 0 10.5 2.18261 10.5 4.875C10.5 5.93986 10.1848 6.92498 9.65007 7.72686L9.36984 7.55872L7.55855 9.37001L8.18963 10.4218L7 10.7192ZM11.5 8H12.5L12.7753 9.10114C13.0325 9.16976 13.2762 9.27172 13.5013 9.40209L14.4746 8.81807L15.1818 9.52518L14.5978 10.4985C14.7282 10.7237 14.8302 10.9674 14.8989 11.2247L16 11.5V12.5L14.8989 12.7753C14.8302 13.0325 14.7283 13.2761 14.598 13.5012L15.1823 14.475L14.4751 15.1821L13.5014 14.5978C13.2763 14.7282 13.0326 14.8302 12.7753 14.8989L12.5 16H11.5L11.2247 14.8989C10.9675 14.8302 10.7238 14.7283 10.4987 14.5979L9.52535 15.1819L8.81825 14.4748L9.40223 13.5015C9.27179 13.2763 9.16979 13.0326 9.10114 12.7753L8 12.5V11.5L9.10114 11.2247C9.16975 10.9675 9.27168 10.7239 9.40203 10.4988L8.81775 9.52503L9.52485 8.81792L10.4986 9.40216C10.7237 9.27175 10.9674 9.16978 11.2247 9.10114L11.5 8ZM13.3942 10.566C13.0341 10.2159 12.5426 10.0002 12.0008 10H12H11.9992C10.8953 10.0004 10.0004 10.8953 10 11.9992V12V12.0008C10.0002 12.5426 10.2159 13.0341 10.566 13.3942L10.6058 13.434C10.9661 13.7843 11.4578 14 12 14C13.1046 14 14 13.1046 14 12C14 11.4578 13.7843 10.9661 13.434 10.6058L13.3942 10.566ZM12 10.5C11.1716 10.5 10.5 11.1716 10.5 12C10.5 12.8284 11.1716 13.5 12 13.5C12.8284 13.5 13.5 12.8284 13.5 12C13.5 11.1716 12.8284 10.5 12 10.5ZM12 11.25C11.5858 11.25 11.25 11.5858 11.25 12C11.25 12.4142 11.5858 12.75 12 12.75C12.4142 12.75 12.75 12.4142 12.75 12C12.75 11.5858 12.4142 11.25 12 11.25Z" fill="#363636"/>
</svg>
