<svg width="16" height="16" viewBox="0 0 16 16" fill="none" xmlns="http://www.w3.org/2000/svg">
<path d="M0 8C0 3.58172 3.58172 0 8 0V0C12.4183 0 16 3.58172 16 8V8C16 12.4183 12.4183 16 8 16V16C3.58172 16 0 12.4183 0 8V8Z" fill="#363636"/>
<path fill-rule="evenodd" clip-rule="evenodd" d="M9.87172 9.54002C10.5594 8.94448 11 8.02798 11 7C11 5.20507 9.65685 3.75 8 3.75C6.34315 3.75 5 5.20507 5 7C5 8.02798 5.44055 8.94448 6.12828 9.54002C4.86229 9.95973 4 10.7919 4 11.75H12C12 10.7919 11.1377 9.95973 9.87172 9.54002Z" fill="white"/>
</svg>
